<?xml version="1.0" encoding="UTF-8" standalone="no"?>
<!-- Generator: Adobe Illustrator 25.2.1, SVG Export Plug-In . SVG Version: 6.00 Build 0)  -->

<svg
   version="1.1"
   x="0px"
   y="0px"
   viewBox="0 0 116.60153 86.400002"
   xml:space="preserve"
   id="svg135"
   sodipodi:docname="2.svg"
   width="116.60153"
   height="86.400002"
   inkscape:version="1.1 (c68e22c387, 2021-05-23)"
   xmlns:inkscape="http://www.inkscape.org/namespaces/inkscape"
   xmlns:sodipodi="http://sodipodi.sourceforge.net/DTD/sodipodi-0.dtd"
   xmlns="http://www.w3.org/2000/svg"
   xmlns:svg="http://www.w3.org/2000/svg"><defs
   id="defs139" /><sodipodi:namedview
   id="namedview137"
   pagecolor="#ffffff"
   bordercolor="#666666"
   borderopacity="1.0"
   inkscape:pageshadow="2"
   inkscape:pageopacity="0.0"
   inkscape:pagecheckerboard="0"
   showgrid="false"
   fit-margin-top="0"
   fit-margin-left="0"
   fit-margin-right="0"
   fit-margin-bottom="0"
   inkscape:zoom="2.2480159"
   inkscape:cx="115.43513"
   inkscape:cy="42.481906"
   inkscape:window-width="1920"
   inkscape:window-height="1017"
   inkscape:window-x="-8"
   inkscape:window-y="-8"
   inkscape:window-maximized="1"
   inkscape:current-layer="svg135" />
<style
   type="text/css"
   id="style75">
	.st0{display:none;}
	.st1{display:inline;fill:#96CCEE;}
	.st2{display:inline;fill:none;}
	.st3{display:inline;fill:#1C73B6;}
	.st4{font-family:"Inter", Helvetica, Arial, sans-serif;}
	.st5{font-size:10px;}
	.st6{font-family:"Inter", Helvetica, Arial, sans-serif;}
	.st7{font-size:15.2808px;}
	.st8{display:inline;fill:#FFFFFF;}
	.st9{fill:#96CCEE;}
	.st10{fill:none;}
	.st11{fill:#FFFFFF;}
</style>
<g
   id="Layer_1"
   class="st0"
   transform="translate(-136.7,-65.6)">
	<path
   class="st1"
   d="M 479.5,65.6 H 384 c -5.8,0 -10.5,4.7 -10.5,10.5 v 65.3 c 0,5.8 4.7,10.6 10.5,10.6 h 95.5 c 5.8,0 10.5,-4.7 10.5,-10.6 v -25 -15.2 -25 c 0,-5.8 -4.7,-10.6 -10.5,-10.6 z"
   id="path77" />
	<rect
   x="381.29999"
   y="99"
   class="st2"
   width="100.8"
   height="55.5"
   id="rect79" />
	<text
   transform="translate(393.614,104.8254)"
   class="st3 st4 st5"
   id="text81">Du bliver kontaktet af </text>
	<text
   transform="translate(385.034,116.2154)"
   class="st3 st4 st5"
   id="text83">vores dygtige konsulenter </text>
	<text
   transform="translate(407.364,127.6054)"
   class="st3 st4 st5"
   id="text85">med jobtilbud.   </text>
	<text
   transform="translate(399.844,138.9954)"
   class="st3 st4 st5"
   id="text87">Og så er du i gang</text>
	<text
   transform="translate(401.285,91.34)"
   class="st3 st6 st7"
   id="text89">STEP 04</text>
</g>
<g
   id="Layer_2"
   class="st0"
   transform="translate(-136.7,-65.6)">
	<path
   class="st3"
   d="m 361.1,65.6 h -95.5 c -5.8,0 -10.6,4.7 -10.6,10.5 v 65.3 c 0,5.8 4.7,10.6 10.6,10.6 h 95.5 c 5.8,0 10.5,-4.7 10.5,-10.6 v -25 -15.2 -25 c 0,-5.8 -4.7,-10.6 -10.5,-10.6 z"
   id="path92" />
	<rect
   x="269.10001"
   y="99"
   class="st2"
   width="89.5"
   height="40.5"
   id="rect94" />
	<text
   transform="translate(278.2948,104.8254)"
   class="st8 st4 st5"
   id="text96">Hvis der er et godt </text>
	<text
   transform="translate(278.4648,116.2154)"
   class="st8 st4 st5"
   id="text98">match byder vi dig </text>
	<text
   transform="translate(269.8948,127.6054)"
   class="st8 st4 st5"
   id="text100">velkommen, og vi er nu </text>
	<text
   transform="translate(269.8548,138.9954)"
   class="st8 st4 st5"
   id="text102">klar til at få dig ombord</text>
	<text
   transform="translate(281.8958,91.34)"
   class="st8 st6 st7"
   id="text104">STEP 03</text>
</g>
<g
   id="Layer_3"
   transform="translate(-136.7,-65.6)">
	<path
   class="st9"
   d="m 242.8,65.6 h -95.5 c -5.8,0 -10.6,4.7 -10.6,10.5 v 65.3 c 0,5.8 4.7,10.6 10.6,10.6 h 95.5 c 5.8,0 10.5,-4.7 10.5,-10.6 v -25 -15.2 -25 c 0.1,-5.8 -4.7,-10.6 -10.5,-10.6 z"
   id="path107" />
	<rect
   x="150"
   y="99"
   class="st10"
   width="93.300003"
   height="45.299999"
   id="rect109" />
	<text
   transform="translate(137.0724,104.8254)"
   class="st11 st4 st5"
   id="text111">We assess applicants and</text>
	<text
   transform="translate(143.4424,116.2154)"
   class="st11 st4 st5"
   id="text113">will contact the selected </text>
	<text
   transform="translate(142.0724,127.6054)"
   class="st11 st4 st5"
   id="text115">candidates by telephone</text>
	<text
   transform="translate(143.0524,138.9954)"
   class="st11 st4 st5"
   id="text117">to schedule an interview</text>
	<text
   transform="translate(168.4139,91.34)"
   class="st11 st6 st7"
   id="text119">STEP 2</text>
</g>
<g
   id="Layer_4"
   class="st0"
   transform="translate(-136.7,-65.6)">
	<path
   class="st3"
   d="m 135.1,101.2 v -25 c 0,-5.8 -4.7,-10.5 -10.5,-10.5 H 29.1 c -5.8,0 -10.5,4.7 -10.5,10.5 v 65.3 c 0,5.8 4.7,10.6 10.5,10.6 h 95.5 c 5.8,0 10.6,-4.7 10.6,-10.6 v -25 z"
   id="path122" />
	<rect
   x="29.799999"
   y="100"
   class="st2"
   width="89.5"
   height="36"
   id="rect124" />
	<text
   transform="translate(44.645,104.8254)"
   class="st8 st4 st5"
   id="text126">Gennemgå ledige</text>
	<text
   transform="translate(38.745,116.2154)"
   class="st8 st4 st5"
   id="text128"> stillinger og send os  </text>
	<text
   transform="translate(51.245,127.6054)"
   class="st8 st4 st5"
   id="text130">en ansøgning!</text>
	<text
   transform="translate(47.0179,91.34)"
   class="st8 st6 st7"
   id="text132">STEP 01</text>
</g>
</svg>
