<?xml version="1.0" encoding="UTF-8" standalone="no"?>
<!-- Generator: Adobe Illustrator 25.2.1, SVG Export Plug-In . SVG Version: 6.00 Build 0)  -->

<svg
   version="1.1"
   x="0px"
   y="0px"
   viewBox="0 0 116.6 86.400002"
   xml:space="preserve"
   id="svg382"
   sodipodi:docname="3.svg"
   width="116.6"
   height="86.400002"
   inkscape:version="1.1 (c68e22c387, 2021-05-23)"
   xmlns:inkscape="http://www.inkscape.org/namespaces/inkscape"
   xmlns:sodipodi="http://sodipodi.sourceforge.net/DTD/sodipodi-0.dtd"
   xmlns="http://www.w3.org/2000/svg"
   xmlns:svg="http://www.w3.org/2000/svg"><defs
   id="defs386" /><sodipodi:namedview
   id="namedview384"
   pagecolor="#ffffff"
   bordercolor="#666666"
   borderopacity="1.0"
   inkscape:pageshadow="2"
   inkscape:pageopacity="0.0"
   inkscape:pagecheckerboard="0"
   showgrid="false"
   fit-margin-top="0"
   fit-margin-left="0"
   fit-margin-right="0"
   fit-margin-bottom="0"
   inkscape:zoom="2.0992063"
   inkscape:cx="-3.0964083"
   inkscape:cy="42.15879"
   inkscape:window-width="1920"
   inkscape:window-height="1017"
   inkscape:window-x="-8"
   inkscape:window-y="-8"
   inkscape:window-maximized="1"
   inkscape:current-layer="svg382" />
<style
   type="text/css"
   id="style322">
	.st0{display:none;}
	.st1{display:inline;fill:#96CCEE;}
	.st2{display:inline;fill:none;}
	.st3{display:inline;fill:#1C73B6;}
	.st4{font-family:"Inter", Helvetica, Arial, sans-serif;}
	.st5{font-size:10px;}
	.st6{font-family:"Inter", Helvetica, Arial, sans-serif;}
	.st7{font-size:15.2808px;}
	.st8{fill:#1C73B6;}
	.st9{fill:none;}
	.st10{fill:#FFFFFF;}
	.st11{display:inline;fill:#FFFFFF;}
</style>
<g
   id="Layer_1"
   class="st0"
   transform="translate(-255,-65.6)">
	<path
   class="st1"
   d="M 479.5,65.6 H 384 c -5.8,0 -10.5,4.7 -10.5,10.5 v 65.3 c 0,5.8 4.7,10.6 10.5,10.6 h 95.5 c 5.8,0 10.5,-4.7 10.5,-10.6 v -25 -15.2 -25 c 0,-5.8 -4.7,-10.6 -10.5,-10.6 z"
   id="path324" />
	<rect
   x="381.29999"
   y="99"
   class="st2"
   width="100.8"
   height="55.5"
   id="rect326" />
	<text
   transform="translate(393.614,104.8254)"
   class="st3 st4 st5"
   id="text328">Du bliver kontaktet af </text>
	<text
   transform="translate(385.034,116.2154)"
   class="st3 st4 st5"
   id="text330">vores dygtige konsulenter </text>
	<text
   transform="translate(407.364,127.6054)"
   class="st3 st4 st5"
   id="text332">med jobtilbud.   </text>
	<text
   transform="translate(399.844,138.9954)"
   class="st3 st4 st5"
   id="text334">Og så er du i gang</text>
	<text
   transform="translate(401.285,91.34)"
   class="st3 st6 st7"
   id="text336">STEP 04</text>
</g>
<g
   id="Layer_2"
   transform="translate(-255,-65.6)">
	<path
   class="st8"
   d="m 361.1,65.6 h -95.5 c -5.8,0 -10.6,4.7 -10.6,10.5 v 65.3 c 0,5.8 4.7,10.6 10.6,10.6 h 95.5 c 5.8,0 10.5,-4.7 10.5,-10.6 v -25 -15.2 -25 c 0,-5.8 -4.7,-10.6 -10.5,-10.6 z"
   id="path339" />
	<rect
   x="269.10001"
   y="99"
   class="st9"
   width="89.5"
   height="40.5"
   id="rect341" />
	<text
   transform="translate(270.2948,104.8254)"
   class="st10 st4 st5"
   id="text343">Hvis der er et godt </text>
	<text
   transform="translate(270.2648,116.2154)"
   class="st10 st4 st5"
   id="text345">match byder vi dig </text>
	<text
   transform="translate(260.8948,127.6054)"
   class="st10 st4 st5"
   id="text347">velkommen, og vi er nu </text>
	<text
   transform="translate(260.8548,138.9954)"
   class="st10 st4 st5"
   id="text349">klar til at få dig ombord</text>
	<text
   transform="translate(281.8958,91.34)"
   class="st10 st6 st7"
   id="text351">STEP 3</text>
</g>
<g
   id="Layer_3"
   class="st0"
   transform="translate(-255,-65.6)">
	<path
   class="st1"
   d="m 242.8,65.6 h -95.5 c -5.8,0 -10.6,4.7 -10.6,10.5 v 65.3 c 0,5.8 4.7,10.6 10.6,10.6 h 95.5 c 5.8,0 10.5,-4.7 10.5,-10.6 v -25 -15.2 -25 c 0.1,-5.8 -4.7,-10.6 -10.5,-10.6 z"
   id="path354" />
	<rect
   x="150"
   y="99"
   class="st2"
   width="93.300003"
   height="45.299999"
   id="rect356" />
	<text
   transform="translate(149.6824,104.8254)"
   class="st3 st4 st5"
   id="text358">Vi vurderer ansøgere og </text>
	<text
   transform="translate(150.4424,116.2154)"
   class="st3 st4 st5"
   id="text360">tager telefonisk kontakt </text>
	<text
   transform="translate(153.0724,127.6054)"
   class="st3 st4 st5"
   id="text362">til udvalgte kandidater </text>
	<text
   transform="translate(167.0524,138.9954)"
   class="st3 st4 st5"
   id="text364">ift. et interview</text>
	<text
   transform="translate(163.4139,91.34)"
   class="st3 st6 st7"
   id="text366">STEP 02</text>
</g>
<g
   id="Layer_4"
   class="st0"
   transform="translate(-255,-65.6)">
	<path
   class="st3"
   d="m 135.1,101.2 v -25 c 0,-5.8 -4.7,-10.5 -10.5,-10.5 H 29.1 c -5.8,0 -10.5,4.7 -10.5,10.5 v 65.3 c 0,5.8 4.7,10.6 10.5,10.6 h 95.5 c 5.8,0 10.6,-4.7 10.6,-10.6 v -25 z"
   id="path369" />
	<rect
   x="29.799999"
   y="100"
   class="st2"
   width="89.5"
   height="36"
   id="rect371" />
	<text
   transform="translate(44.645,104.8254)"
   class="st11 st4 st5"
   id="text373">Gennemgå ledige</text>
	<text
   transform="translate(38.745,116.2154)"
   class="st11 st4 st5"
   id="text375"> stillinger og send os  </text>
	<text
   transform="translate(51.245,127.6054)"
   class="st11 st4 st5"
   id="text377">en ansøgning!</text>
	<text
   transform="translate(47.0179,91.34)"
   class="st11 st6 st7"
   id="text379">STEP 01</text>
</g>
</svg>
