<?xml version="1.0" encoding="UTF-8" standalone="no"?>
<!-- Generator: Adobe Illustrator 25.2.1, SVG Export Plug-In . SVG Version: 6.00 Build 0)  -->

<svg
   version="1.1"
   x="0px"
   y="0px"
   viewBox="0 0 117 86"
   xml:space="preserve"
   id="svg549"
   sodipodi:docname="4.svg"
   width="117"
   height="86"
   inkscape:version="1.1 (c68e22c387, 2021-05-23)"
   xmlns:inkscape="http://www.inkscape.org/namespaces/inkscape"
   xmlns:sodipodi="http://sodipodi.sourceforge.net/DTD/sodipodi-0.dtd"
   xmlns="http://www.w3.org/2000/svg"
   xmlns:svg="http://www.w3.org/2000/svg"><defs
   id="defs553" /><sodipodi:namedview
   id="namedview551"
   pagecolor="#ffffff"
   bordercolor="#666666"
   borderopacity="1.0"
   inkscape:pageshadow="2"
   inkscape:pageopacity="0.0"
   inkscape:pagecheckerboard="0"
   showgrid="false"
   fit-margin-top="0"
   fit-margin-left="0"
   fit-margin-right="0"
   fit-margin-bottom="0"
   inkscape:zoom="2.0992063"
   inkscape:cx="-122.18904"
   inkscape:cy="40.72968"
   inkscape:window-width="1920"
   inkscape:window-height="1017"
   inkscape:window-x="-8"
   inkscape:window-y="-8"
   inkscape:window-maximized="1"
   inkscape:current-layer="svg549"
   height="86.61266px" />
<style
   type="text/css"
   id="style489">
	.st0{fill:#96CCEE;}
	.st1{fill:none;}
	.st2{fill:#1C73B6;}
	.st3{font-family:'Inter-Medium';}
	.st4{font-size:8px;}
	.st5{font-family:'Inter-Bold';}
	.st6{font-size:15.2808px;}
	.st7{display:none;}
	.st8{display:inline;fill:#1C73B6;}
	.st9{display:inline;fill:none;}
	.st10{display:inline;fill:#FFFFFF;}
	.st11{display:inline;fill:#96CCEE;}
</style>
<g
   id="Layer_1"
   transform="matrix(1.0122671,0,0,0.99443971,-378.08174,-64.740934)">
	<path
   class="st0"
   d="M 479.5,65.6 H 384 c -5.8,0 -10.5,4.7 -10.5,10.5 v 65.3 c 0,5.8 4.7,10.6 10.5,10.6 h 95.5 c 5.8,0 10.5,-4.7 10.5,-10.6 v -25 -15.2 -25 c 0,-5.8 -4.7,-10.6 -10.5,-10.6 z"
   id="path491" />
	<rect
   x="381.29999"
   y="99"
   class="st1"
   width="100.8"
   height="55.5"
   id="rect493" />
	<text
   transform="translate(393.614,104.8254)"
   class="st2 st3 st4"
   id="text495">Du bliver kontaktet af </text>
	<text
   transform="translate(385.034,116.2154)"
   class="st2 st3 st4"
   id="text497">vores dygtige konsulenter </text>
	<text
   transform="translate(407.364,127.6054)"
   class="st2 st3 st4"
   id="text499">med jobtilbud.   </text>
	<text
   transform="translate(399.844,138.9954)"
   class="st2 st3 st4"
   id="text501">Og så er du i gang</text>
	<text
   transform="translate(401.285,91.34)"
   class="st2 st5 st6"
   id="text503">STEP 04</text>
</g>
<g
   id="Layer_2"
   class="st7"
   transform="translate(-373.97638,-66.55274)">
	<path
   class="st8"
   d="m 361.1,65.6 h -95.5 c -5.8,0 -10.6,4.7 -10.6,10.5 v 65.3 c 0,5.8 4.7,10.6 10.6,10.6 h 95.5 c 5.8,0 10.5,-4.7 10.5,-10.6 v -25 -15.2 -25 c 0,-5.8 -4.7,-10.6 -10.5,-10.6 z"
   id="path506" />
	<rect
   x="269.10001"
   y="99"
   class="st9"
   width="89.5"
   height="40.5"
   id="rect508" />
	<text
   transform="translate(278.2948,104.8254)"
   class="st10 st3 st4"
   id="text510">Hvis der er et godt </text>
	<text
   transform="translate(278.4648,116.2154)"
   class="st10 st3 st4"
   id="text512">match byder vi dig </text>
	<text
   transform="translate(269.8948,127.6054)"
   class="st10 st3 st4"
   id="text514">velkommen, og vi er nu </text>
	<text
   transform="translate(269.8548,138.9954)"
   class="st10 st3 st4"
   id="text516">klar til at få dig ombord</text>
	<text
   transform="translate(281.8958,91.34)"
   class="st10 st5 st6"
   id="text518">STEP 03</text>
</g>
<g
   id="Layer_3"
   class="st7"
   transform="translate(-373.97638,-66.55274)">
	<path
   class="st11"
   d="m 242.8,65.6 h -95.5 c -5.8,0 -10.6,4.7 -10.6,10.5 v 65.3 c 0,5.8 4.7,10.6 10.6,10.6 h 95.5 c 5.8,0 10.5,-4.7 10.5,-10.6 v -25 -15.2 -25 c 0.1,-5.8 -4.7,-10.6 -10.5,-10.6 z"
   id="path521" />
	<rect
   x="150"
   y="99"
   class="st9"
   width="93.300003"
   height="45.299999"
   id="rect523" />
	<text
   transform="translate(149.6824,104.8254)"
   class="st8 st3 st4"
   id="text525">Vi vurderer ansøgere og </text>
	<text
   transform="translate(150.4424,116.2154)"
   class="st8 st3 st4"
   id="text527">tager telefonisk kontakt </text>
	<text
   transform="translate(153.0724,127.6054)"
   class="st8 st3 st4"
   id="text529">til udvalgte kandidater </text>
	<text
   transform="translate(167.0524,138.9954)"
   class="st8 st3 st4"
   id="text531">ift. et interview</text>
	<text
   transform="translate(163.4139,91.34)"
   class="st8 st5 st6"
   id="text533">STEP 02</text>
</g>
<g
   id="Layer_4"
   class="st7"
   transform="translate(-373.97638,-66.55274)">
	<path
   class="st8"
   d="m 135.1,101.2 v -25 c 0,-5.8 -4.7,-10.5 -10.5,-10.5 H 29.1 c -5.8,0 -10.5,4.7 -10.5,10.5 v 65.3 c 0,5.8 4.7,10.6 10.5,10.6 h 95.5 c 5.8,0 10.6,-4.7 10.6,-10.6 v -25 z"
   id="path536" />
	<rect
   x="29.799999"
   y="100"
   class="st9"
   width="89.5"
   height="36"
   id="rect538" />
	<text
   transform="translate(44.645,104.8254)"
   class="st10 st3 st4"
   id="text540">Gennemgå ledige</text>
	<text
   transform="translate(38.745,116.2154)"
   class="st10 st3 st4"
   id="text542"> stillinger og send os  </text>
	<text
   transform="translate(51.245,127.6054)"
   class="st10 st3 st4"
   id="text544">en ansøgning!</text>
	<text
   transform="translate(47.0179,91.34)"
   class="st10 st5 st6"
   id="text546">STEP 01</text>
</g>
</svg>
