<?xml version="1.0" encoding="utf-8"?>
<!-- Generator: Adobe Illustrator 25.2.1, SVG Export Plug-In . SVG Version: 6.00 Build 0)  -->
<svg version="1.1" id="Layer_1" xmlns="http://www.w3.org/2000/svg" xmlns:xlink="http://www.w3.org/1999/xlink" x="0px" y="0px"
	 viewBox="0 0 1280 1024" style="enable-background:new 0 0 1280 1024;" xml:space="preserve">
<style type="text/css">
	.st0{display:none;}
	.st1{display:inline;}
	.st2{fill:#161637;}
</style>
<g id="Layer_1_1_" class="st0">
	<g class="st1">
		<path class="st2" d="M643.5,731.9c-29.2,0-58.4-0.1-87.5,0.1c-4.9,0-6.5-1.3-6.7-6.4c-0.3-11.6-0.4-23.3-2.6-34.6
			c-2.3-11.7-5.9-23.5-11.1-34.2c-13-26.7-27.3-52.8-41.1-79c-10.2-19.3-19.7-38.9-26.7-59.6c-5.3-15.7-9.7-31.6-10.6-48.2
			c-0.8-13.5-2.4-27.1-1.2-40.4c3.5-37.4,15.8-71.6,39.3-101.4c17.4-22.1,38.8-39.3,64.4-51c14.4-6.6,29.5-11.3,45.1-14.4
			c23.2-4.6,46.6-5.2,69.9-3.2c33.6,3,65.8,12,94.1,31.2c20.3,13.8,36.9,31.4,49,53c9,16,15.5,32.8,19.5,50.8
			c4.3,19.2,6.7,38.6,5.2,58.1c-1.2,15.9-4.2,31.6-9,47c-11,35-30,65.8-48.3,97c-11.2,18.9-21.9,38.1-32,57.7
			c-10.5,20.2-16,41.8-14.6,64.8c0.1,1.9,0,3.8,0,5.7c-0.2,6.1-1,7-7,7C702.2,731.9,672.8,731.9,643.5,731.9z M611.5,656.7
			c3.4-18.6-3.4-38-12.9-56.4c-10.1-19.5-21.2-38.5-31.7-57.9c-7.2-13.4-17-25.3-20.7-40.6c-3.6-14.6,1.3-30.4,12.4-39.1
			c15.3-12.1,31.8-14.3,49.1-4.5c3.9,2.2,7.3,2.6,11.5,0.6c16.3-7.5,32.8-7.3,48.9,0.7c4,2,7,2,10.5-0.4c9.2-6.3,19.5-8.1,30.2-6.2
			c16.2,2.9,27.3,13.9,29.8,30.7c2,13.3-1,26-7.4,38c-12.6,23.6-25,47.4-37.8,70.9c-10.5,19.4-17.2,39.8-16.8,62
			c0.2,9.5,0.9,19,1.8,28.5c0.2,1.8,2.4,4.3,4.1,4.7c3.1,0.8,6.7,0.8,9.8,0c1.8-0.5,3.9-2.8,4.4-4.8c2-6.6,2.9-13.5,5-20
			c6.9-21,16.7-40.7,27.7-59.7c16.1-28,32.6-55.8,48.2-84c9.3-16.9,15.7-35.2,19-54.2c2.2-13.2,3.3-26.5,1.2-40.2
			c-2.3-14.9-5-29.4-11-43.3c-9.3-21.7-23.3-39.7-42.8-53.1c-24-16.6-51.5-23.5-80.1-25.4c-12.8-0.9-25.9,0.9-38.8,1.5
			c-12.7,0.5-24.7,4.1-36.5,8.5c-24.8,9.2-45.1,24.2-61,45.6c-16.8,22.5-25.3,48-28.2,75.4c-2.2,20,0.8,39.7,6.4,59
			c6.5,22.5,16.7,43.6,27.7,64.2c13.3,24.8,27,49.4,39.3,74.8c6.6,13.7,11.8,28.3,15.3,43.1c4,16.2,5,12.7,17,13.2
			c0.2,0,0.3,0,0.5,0c3.9-0.2,6-1.9,5.9-6.2C611.4,674.4,611.5,667,611.5,656.7z M644.2,512.8c-1.6,3.1-2.7,5-3.6,7
			c-6.5,14.2-21.6,23.2-36.2,16c-11.2-5.5-21.1-16.5-20.3-32c0.5-9.8,4-18,9.4-25.8c1.8-2.5,3.3-5.4-0.9-6.5
			c-15.2-3.6-30.7,7.2-28.8,21.5c0.7,5.5,2.3,11.2,5.1,16c17.5,30.1,36,59.7,50.3,91.6c6.5,14.5,11.3,29.2,11.2,45.3
			c-0.1,11.3,0.1,22.6-0.4,33.8c-0.3,7.1,0.2,8.2,7.4,8.2c5.2,0,10.4-0.1,15.6,0c4.8,0.1,6.8-1.9,6.8-6.8
			c-0.2-15.5-0.3-30.9,0.1-46.4c0.1-5.5,0.8-11.2,2.6-16.3c4-11,8.2-21.9,13.5-32.3c11.9-23.2,24.8-46,36.7-69.2
			c4-7.7,7.5-16.1,8.7-24.6c2-14.2-12.6-25.1-26.6-20.9c-4.3,1.3-5,3.3-2.5,7.2c1.1,1.7,2.2,3.5,3.4,5.2c7.9,11.1,11.3,23.1,5.4,36
			c-4.7,10.4-12.9,20.8-29.1,18.2c-11.9-1.9-19.3-9.7-24.6-20C646.6,516.7,645.7,515.2,644.2,512.8z M626.1,504.6
			c0.2-6-7.3-17.1-11.8-18.4c-1.1-0.3-2.5-0.2-3.5,0.3c-7,3.9-10.4,18.7-5.9,25.7c6.1,9.4,13,9.8,18.1,0.8
			C624.7,510.2,625.3,506.7,626.1,504.6z M663.5,508.6c1.4,2,3.2,6,6.3,8.6c5.5,4.6,9.3,3.6,13.1-2.5c4.3-6.9,0.2-22-7.2-25.8
			c-1-0.5-3.2-0.1-4,0.8C667.3,494.3,664.1,499.7,663.5,508.6z M643.7,471.3c-2.6,0.7-5.3,1.5-7.9,2c-3.8,0.8-3.8,2.3-1.8,5.3
			c3.3,4.9,6.1,10.2,9.1,15.3c0.5,0.8,1.4,1.9,2,1.9c0.7,0,1.6-1.1,2.1-1.9c2.9-5,5.9-10,8.4-15.3c0.5-1.2-0.4-4.3-1.4-4.7
			C651,472.6,647.3,472.1,643.7,471.3z"/>
		<path class="st2" d="M303.8,717.5c-15.8,1.3-30.1-12.8-32.5-26c-3-16.7,6-29.1,16.3-36c28.9-19.1,57.8-38.3,86.7-57.6
			c13.7-9.2,31.4-8.8,43.3,2.5c15.6,14.6,13.2,39.5-5.6,52.1c-29.8,19.8-59.7,39.4-89.5,59.2C316.5,715.6,310.4,718.2,303.8,717.5z"
			/>
		<path class="st2" d="M1027,685.3c0.9,21.4-18.5,36.3-39.8,31.5c-7.5-1.7-14.3-7.1-21-11.5c-26.7-17.5-53.3-35.1-79.8-52.9
			c-11.5-7.7-17.5-18.6-15.7-32.6c1.7-13,9-22.3,21.5-26.6c12.5-4.3,23.7-1,34.5,6.4c23.7,16.2,47.8,31.8,71.7,47.6
			c5.4,3.6,10.9,7.2,16.1,11.2C1024.1,666.2,1027.2,673,1027,685.3z"/>
		<path class="st2" d="M755.5,181.5c-1.2-10.1,5.2-18.2,9.3-27c13.4-28.6,27.2-57.1,40.8-85.6c6-12.7,19.1-20,34.1-18.3
			c11.4,1.3,22.9,10,26.9,23.2c3.1,10.1,0.5,18.9-3.5,27.5c-12.4,26.4-25.3,52.6-38,78.9c-3,6.2-5.6,12.5-8.9,18.6
			c-9.4,17.6-33.1,21.6-49.2,9C758.8,201.5,754.9,192.7,755.5,181.5z"/>
		<path class="st2" d="M1087.3,351.6c-0.2,17.1-9.4,28.5-24.6,32.6c-16.1,4.3-31.9,9.4-47.9,13.9c-13.9,3.9-27.9,7.4-41.8,11
			c-5.3,1.4-10.7,2.6-15.9,4.4c-11,3.8-20.3,0.2-28.8-6.4c-10-7.8-13.9-18.6-11.7-30.8c2.4-13,9.9-22.4,23.4-26
			c17.1-4.7,34.2-9.5,51.2-14.3c16.4-4.6,32.8-9.2,49.1-14c17.4-5.1,31.2-1.6,41.3,11.5C1086.1,339.2,1087.7,345.7,1087.3,351.6z"/>
		<path class="st2" d="M211,353c-2.2-22.4,19.3-35.2,35.8-33.3c6.1,0.7,12.1,2.8,18,4.4c14.6,4,29.2,8,43.8,12.1
			c13.6,3.8,27.2,7.6,40.7,11.7c6.2,1.9,12.7,3.6,18.1,6.9c11.1,6.8,15.4,17.9,14.4,30.5c-1,13.1-11.6,24-22.9,27.9
			c-11.1,3.9-20.6-0.6-30.6-3.1c-11.6-2.9-23.1-6.4-34.7-9.6c-13.9-3.9-27.7-7.8-41.6-11.8c-7.2-2-14.9-3.3-21.7-6.4
			C217.9,376.9,210.2,367.6,211,353z"/>
		<path class="st2" d="M388.3,124.2c-0.8-16.5,10.9-30.3,25.4-32.5c14.4-2.2,27.4,3,35.5,15.2c18.9,28.6,38,57.2,57.2,85.7
			c8.6,12.7,10.4,25.5,3.1,39.3c-5.8,10.8-23.5,17.7-34.5,15.3c-13.8-3-20.3-12.8-27.1-22.9c-18.2-27.1-36-54.5-54.1-81.7
			C389.8,136.7,387.8,130.3,388.3,124.2z"/>
		<path class="st2" d="M643,809.6c-24.8,0-49.6-0.1-74.5,0c-9.7,0-17.5-2.8-22.2-12c-8.2-16,2-33,19.5-33.8
			c16.8-0.8,33.7-0.3,50.5-0.3c33,0,66,0,98.9,0c10.2,0,19.3,2.4,24.4,12.2c8.4,16.2-2.7,34-19.2,33.9
			C694.8,809.4,668.9,809.5,643,809.6C643,809.6,643,809.6,643,809.6z"/>
		<path class="st2" d="M643.3,840.2c22.4,0,44.8-0.1,67.2,0.1c5.1,0.1,10.4,0.7,15.2,2.4c9.4,3.4,13.4,10.8,13.2,21.7
			c-0.2,9.1-5.2,16.5-14,19.6c-3.7,1.3-7.7,2.2-11.6,2.2c-47.1,0.2-94.1,0.2-141.2,0c-10.1,0-18.8-3.7-23.4-13.8
			c-6.2-13.7,3.1-30.5,18.1-31.5c12.1-0.8,24.3-0.5,36.5-0.6C616.6,840.2,629.9,840.2,643.3,840.2z"/>
		<path class="st2" d="M642.8,916c23.8,0,47.6,0,71.4,0c1.8,0,3.5,0.8,5.3,1.2c-0.6,1.7-0.9,3.6-1.9,5
			c-13.2,19.5-30.2,34.8-53.3,40.7c-31.3,8-59-0.1-81.8-23.3c-5.5-5.6-10.1-12.1-14.6-18.5c-2.9-4.2-2.2-5.1,3-5.1
			C594.9,916,618.8,916.1,642.8,916C642.8,916.1,642.8,916.1,642.8,916z"/>
	</g>
</g>
<g id="Layer_4" class="st0">
	<g class="st1">
		<path class="st2" d="M988.2,234.7c-2,6.5-3.4,12-5.5,17.3c-9.8,24.1-19.2,48.4-30,72.1c-16.2,35.8-35.3,70.1-56.2,103.5
			c-20.1,32.1-42,63-65.7,92.5c-16.6,20.6-33.8,40.8-52,59.9c-22,23.1-44.9,45.5-68.4,67.2c-26.9,24.8-56,47.1-86.1,68.2
			c-28.2,19.7-57.5,37.3-87.5,53.8c-3.1,1.7-5.2,1.3-7.7-0.8c-19.8-17-39.6-34-59.4-50.9c-27.7-23.6-55.5-47.2-83.2-70.9
			c-1.8-1.6-3.1-2.9-2-6.3c15.7-46.5,36-91,59.9-133.7c16-28.8,33.9-56.6,52.1-84.1c21.5-32.5,46.1-62.7,71.8-92.1
			c25-28.7,51.5-55.9,79.5-81.7c29.3-27,60.3-52,93-75c27.5-19.4,55.8-37.4,85.4-53.1c4.4-2.3,8.6-5.1,13-7.5
			c3.6-2,6.7-1.8,10.1,1.2c16.9,14.8,34.1,29.3,51.2,44c27.5,23.4,54.9,46.8,82.3,70.3C984.8,230.4,986.5,232.8,988.2,234.7z
			 M751.3,288c-0.4,38.1,30.9,67,65.8,66.4c37.9-0.7,65.7-28.7,65.9-66.1c0.1-36-28.1-63.6-62.8-65.6
			C781.3,220.5,750.1,254.4,751.3,288z"/>
		<path class="st2" d="M742.4,651.4c1.6,6.7,3.1,12.5,4.4,18.3c2.9,13.2,5.6,26.5,8.4,39.8c2.2,10.5,4.4,21,6.6,31.5
			c0.7,3.3-0.4,5.7-3,7.9c-26.1,23.1-52.1,46.2-78.1,69.4c-22.2,19.9-44.4,39.8-66.6,59.7c-26.8,23.9-53.5,47.8-80.3,71.8
			c-1,0.9-2.3,1.6-4.6,3.2c1.5-7.2,2.7-13.2,4.1-19.1c2.5-10.8,5.2-21.5,7.9-32.2c2.7-10.7,5.5-21.4,8-32.2
			c2.5-10.8,4.8-21.6,7.3-32.4c2.3-9.7,4.7-19.4,7.1-29.1c1.9-8,3.5-16,6-23.9c1-3.3,3.2-6.9,6-8.8c26.2-17.5,53.4-33.7,78.8-52.3
			c26-19.1,50.4-40.4,75.4-60.8C733.8,658.9,737.6,655.5,742.4,651.4z"/>
		<path class="st2" d="M469.3,418.4c-7.6,12.1-15.2,23.5-22,35.4c-14.4,25.2-29.2,50.4-42.3,76.3c-11.8,23.4-21.6,47.7-32.1,71.8
			c-1.6,3.6-3.6,5.4-7.3,6.9c-15.8,6.2-31.4,12.9-47,19.3c-22.4,9.2-44.9,18.4-67.2,27.7c-15,6.2-29.9,12.5-44.9,18.8
			c-0.4,0.2-1,0-2.5,0c5.6-8.7,10.8-16.8,16.1-25c19.8-30.7,39.6-61.5,59.5-92.2c20.4-31.5,40.9-62.8,61.3-94.2
			c9.9-15.3,19.7-30.7,29.7-45.8c1.2-1.9,4.1-3.9,6.2-3.8c22.9,0.6,45.7,1.5,68.6,2.5C453.1,416.4,460.9,417.5,469.3,418.4z"/>
		<path class="st2" d="M223,960.5c8.3-7.7,12.6-17,15.5-27c2.9-10.1,5.7-20.2,8.2-30.5c7.8-31.5,17.4-62,41.6-85.5
			c4.7-4.6,10.3-8.2,15.4-12.4c1.8-1.5,3.3-3.2,5-4.7c-0.5-0.7-0.9-1.4-1.4-2c-6.1,2.9-12.8,5.1-18.2,8.9
			c-8.7,6.1-16.7,13.3-25,20.2c-8.5,7.1-17.9,11.4-30.2,9.9c4.4-6.7,8.9-12.7,12.6-19c12.5-21.4,23.9-43.5,37.1-64.4
			c14.6-23.1,32.7-43.4,58.2-55.4c7-3.3,14.5-5.6,22.3-7.6c-32.1,15.9-48.2,43.9-58.8,76.3c22.1-9.3,44.5-12.8,68.8-7.1
			c-5.5,3.8-10.4,7-15,10.4c-15.8,11.7-27.9,26.2-32.5,45.8c-2.7,11.5-4.3,23.2-6.5,34.7c-1,5.3-2.4,10.5-3.3,15.7
			c-0.3,1.6,0.2,3.3,0.4,5c1.4-0.6,3.1-0.8,4-1.8c11-12,23.9-21.7,38.6-28.5c10.8-5,22.1-9.1,33.6-12.2c11-3,22.5-4.3,33.8-6.2
			c2.4-0.4,4.9-0.1,8.9-0.1c-3.5,5.8-5.8,10.5-8.9,14.7c-7.3,9.9-15,19.5-22.5,29.3c-0.8,1.1-1,2.7-1.5,4.1c1.6,0.3,3.5,1.2,4.9,0.8
			c10.7-2.9,20.1-8.2,28.8-15c18.1-14.1,32.5-31.5,43.9-51.4c0.2-0.4,0.6-0.7,2-0.8c-0.9,3.5-1.5,7-2.7,10.3
			c-9.3,25.6-24.3,47.2-45.3,64.5c-17.6,14.5-37.5,25.5-57.6,35.8c-13.5,6.9-27.3,13.3-38.8,23.6c-1,0.9-2.4,1.4-4.3,2.5
			c1.9-15.3,3.4-29.9,10.1-43.5c6.7-13.7,18.1-23,29.7-32.2c-0.4-0.6-0.8-1.2-1.2-1.8c-3.8,1.8-7.7,3.4-11.2,5.6
			c-13.5,8.4-22.8,21-32.4,33.2c-13.9,17.6-27,36.1-46.9,47.9c-10,5.9-20.5,9.5-32.1,11C240.9,962.8,232.5,962.5,223,960.5z"/>
		<path class="st2" d="M1025,45.7c-0.5,11.6-1,22.7-1.6,33.8c-0.2,2.8-0.8,5.7-1.2,8.5c-2,13.1-3.9,26.1-6.1,39.2
			c-1.4,8.6-3,17.3-4.9,25.8c-2.2,10.1-4.7,20.2-7.2,30.2c-1.8,7.1-3.8,14.1-5.9,21.1c-0.5,1.6-1.4,3.2-2.4,5.4
			c-4.6-3.8-8.7-7.1-12.7-10.5c-23.3-20-46.5-40.1-69.8-60c-14-12-28-23.8-42-35.8c-3.1-2.7-4.3-4.6,0.8-6.7
			c18.3-7.6,36.1-16.2,54.7-23.1c20.2-7.5,40.9-13.6,61.5-19.9c10.6-3.2,21.4-5.5,32.1-8.1C1021.4,45.5,1022.5,45.7,1025,45.7z"/>
	</g>
</g>
<g id="Layer_3" class="st0">
	<g class="st1">
		<path class="st2" d="M1101.3,122.4c0,3.3,0,5.6,0,7.9c0,198.7,0,397.3-0.1,596c0,6.1,1.7,10.4,6,14.6
			c38.8,38.5,77.3,77.3,116.3,115.6c8.7,8.5,8.6,26.6,0.3,34.5c-20.5,19.5-40.2,39.7-60.1,59.8c-8.7,8.8-24.7,9.4-34.8-0.9
			c-22.9-23.2-46.1-46.1-69.1-69.2c-11.3-11.3-22.4-22.8-34-33.8c-2.4-2.2-6.2-3.3-9.6-4c-3.2-0.7-6.6-0.2-9.9-0.2
			c-293.6,0-587.2,0-880.8,0c-1,0-2-0.1-3,0c-3.9,0.5-5-1.2-5-5.1c0.1-30.5,0.1-61,0.1-91.5c0-205.4,0-410.9,0-616.3
			c0-8.4-0.8-7.5,7.3-7.5c321.7,0,643.3,0,965,0C1093.4,122.4,1097,122.4,1101.3,122.4z M609.6,187.8c-140.5,0-281.1,0-421.6,0
			c-9.4,0-9.4,0-9.4,9.4c0,186.3,0,372.6,0,558.9c0,12-0.9,11.1,10.8,11.1c198.3,0,396.5,0,594.8,0c51,0,101.9,0,152.9,0
			c1.8,0,3.6-1,5.4-1.5c-0.9-1.6-1.5-3.5-2.7-4.7c-23.2-23.4-46.5-46.7-69.8-70c-6.6-6.6-6.5-6.6-14.8-2.8
			c-14.5,6.7-29.4,12.3-44.9,16.3c-18.2,4.7-36.7,6.9-55.4,7c-11.4,0-22.9-1.6-34.2-3.3c-10.6-1.6-21.4-3.5-31.6-6.7
			c-17.3-5.4-33.9-12.6-49.3-22.3c-5.1-3.2-9.8-7-16.8-7c-101,0.2-201.9,0.2-302.9,0.2c-4.1,0-8.2,0.1-12.4,0
			c-3.1-0.1-4.5,1.3-4.5,4.5c0.1,5.1,0.1,10.2,0,15.3c-0.1,11.6-7,21.8-21.5,20c-7.4-1-13.8-6.9-14.1-14.5
			c-0.3-6.4-0.2-12.9-0.2-19.3c0-4-1.7-6.1-6-6c-5.9,0.2-11.9,0.2-17.8-0.1c-3.4-0.2-6.8-0.9-10-1.9c-8.9-2.8-11.9-12.7-10.9-18.3
			c1.7-9.6,8.5-15.3,17.4-15.3c6.6,0,13.2,0,19.8,0c5.4,0,7-1.5,7.4-6.9c0.1-2,0-4,0-5.9c0-109.8,0-219.6,0-329.4
			c0-9.1,0.6-18.2-0.1-27.2c-1-12.2,14.2-22.2,26.6-14.9c7.4,4.3,9.2,11.2,9.2,18.8c0.1,119,0,238.1,0,357.1c0,8.2,0.3,8.5,8.3,8.5
			c86.6,0,173.2,0,259.8,0c3.5,0,6.9,0.2,10.4-0.1c1.3-0.1,2.9-0.9,3.5-2c0.4-0.7-0.3-2.5-1-3.4c-6.6-9.3-13.3-18.5-19.8-27.9
			c-2.1-3-4.2-4.4-8.1-4.3c-7.9,0.3-15.8,0.1-23.8,0.1c-7.1,0-7.1,0-7.1-6.9c0-16.5,0-33,0-49.5c0-21.4,0-42.9,0-64.3
			c0-3.3,0.2-5.7,4.6-6c1.2-0.1,2.8-2.8,3.1-4.5c1.1-6.3,1-12.8,2.6-19c3.3-13.2,6.8-26.5,11.3-39.4c8-23.2,20.2-44.4,36.5-62.6
			c8-9,12.1-17.7,11.2-29.8c-1-13-0.2-13.1,13.1-13.1c4.8,0,9.7,0.6,14.3-0.2c4.8-0.8,9.7-2.4,14.2-4.3c4.2-1.8,7.8-4.8,11.8-6.9
			c17-8.8,34.5-15.9,53.2-20.5c17.8-4.4,35.8-6.8,53.9-6.9c15.9-0.1,31.8,1.2,47.2,5.4c13,3.6,26.2,7,38.7,12.1
			c12,4.9,23.2,11.8,34.8,17.8c4.5,2.4,5.5,2,5.4-3.1c-0.1-4,1.5-5,5.2-5c14,0.2,28,0.3,42.1,0c5.2-0.1,6.3,1.8,6.2,6.6
			c-0.3,17.1-0.2,34.3,0,51.4c0,3,1.3,6.4,2.9,9c4,6.9,9,13.2,12.8,20.2c8.8,16.2,16.4,33,20.3,51.2c2.7,12.6,6.1,25.2,7.1,38
			c1.8,23.3,0.5,46.5-4.9,69.5c-3.7,15.5-8.8,30.4-15.3,44.8c-1.8,4-1.6,7,1.6,10.1c24.2,24,48.3,48.2,72.5,72.2
			c2,2,4.5,3.4,6.8,5.1c0.6-2.9,1.6-5.8,1.6-8.7c0.1-152.3,0.1-304.7,0.1-457c0-4-0.1-7.9,0-11.9c0-3.1-1.7-4.5-4.5-4.8
			c-1.6-0.2-3.3-0.1-4.9-0.1C890.4,187.8,750,187.8,609.6,187.8z M869.7,441.2c0,2.7,0,4.9,0,7.2c0,55.7,0,111.4,0.1,167.2
			c0,1.8,1,3.5,1.5,5.2c1.5-0.8,3.3-1.2,4.5-2.3c13.8-11.7,24.3-26,33.3-41.4c2.8-4.8,6-10.4,6.1-15.6c0.5-48.8,0.3-97.6,0.2-146.4
			c0-1.9-0.2-4-1-5.7c-6.4-13.1-14.5-25.1-24.1-36.1c-22.1-25.3-48.6-43.7-80.8-54c-16.1-5.1-32.5-7.8-49.1-8.7
			c-7.5-0.4-15.1,0.4-22.5,1.5c-11.6,1.7-23.4,3.2-34.6,6.6c-21.2,6.5-40.6,16.9-58,30.8c-4,3.2-5.5,6.5-5.5,11.6
			c0.1,85.2,0.1,170.5,0,255.7c0,4.5,1.7,7.5,4.9,10c14.2,10.9,29.4,19.8,46,26.7c17.6,7.2,36,11,54.7,12.6
			c17.7,1.5,35.3-1.1,52.7-5.2c18.6-4.5,35.8-12,52-22.2c1.5-0.9,2.3-2.8,3.4-4.2c-1.6-0.5-3.3-1.4-4.9-1.4
			c-13.8-0.1-27.7-0.1-41.6-0.1c-6.4,0-6.4,0-6.4-6.5c0-59.7,0-119.4,0-179c0-1.9,0-3.9,0-6.1C823.7,441.2,846.2,441.2,869.7,441.2z
			 M1033.1,731.9c-1.3,1.1-2.5,1.9-3.5,2.9c-7,6.8-13.9,13.7-20.9,20.6c-4.2,4.2-4.2,5.2,0,9.5c20.3,20.3,40.7,40.5,61,60.8
			c24.4,24.3,48.8,48.6,73,73c3.2,3.2,5.3,3.2,8.3-0.1c6.4-6.8,13.1-13.2,19.7-19.8c5.1-5.1,5.1-5.2-0.1-10.4
			c-19.7-19.7-39.5-39.4-59.2-59.1c-24.6-24.5-49.1-49.1-73.7-73.6C1036.4,734.4,1034.8,733.3,1033.1,731.9z M999.8,698.7
			c-1.3-1.7-2.3-3.2-3.6-4.4c-9.2-9.2-18.4-18.5-27.6-27.7c-11.2-11.2-22.3-22.3-33.5-33.5c-2.1-2.1-4.3-4.2-7.1-1.4
			c-7.6,7.4-15.1,15-22.6,22.6c-2.5,2.5-2.7,4.8,0.1,7.5c20.9,20.6,41.6,41.4,62.4,62.1c2.6,2.6,4.8,2.7,7.5,0
			c7.2-7.3,14.5-14.5,21.7-21.8C998.1,701.2,998.8,700,999.8,698.7z"/>
		<path class="st2" d="M487.3,598.9c-17.8,0-34.9,0-52.6,0c-0.1-1.8-0.4-3.6-0.4-5.3c0-70.9,0-141.8-0.1-212.6
			c0-4.3,1.1-5.7,5.5-5.6c14.3,0.3,28.7,0.2,43,0c4-0.1,5,1.3,5,5.1c-0.1,71.2-0.1,142.4-0.1,213.6
			C487.6,595.5,487.4,597,487.3,598.9z"/>
		<path class="st2" d="M347,519.8c0-24.4,0.1-48.8-0.1-73.2c0-4.7,1.2-6.3,6.1-6.2c13.7,0.3,27.4,0.2,41.1,0c4.5-0.1,6.4,1.1,6.3,6
			c-0.2,49-0.1,97.9,0,146.9c0,4.1-0.9,5.9-5.4,5.8c-14.4-0.3-28.7-0.2-43,0c-4.1,0.1-5-1.5-5-5.2C347.1,569.3,347,544.5,347,519.8z
			"/>
		<path class="st2" d="M754.6,499.7c0,42.4-0.1,84.7,0.1,127c0,4.7-1.2,6.3-6.1,6.2c-19.1-0.2-38.2-0.2-57.4,0
			c-4.4,0-5.9-1.2-5.9-5.8c0.1-85.2,0.2-170.4,0-255.6c0-5.1,1.6-6.4,6.5-6.3c19,0.2,37.9,0.2,56.9,0c4.4,0,6,1.2,6,5.9
			C754.6,414,754.6,456.9,754.6,499.7z"/>
	</g>
</g>
<g>
	<path class="st2" d="M563.2,737c-29.9,0-59.9-0.1-89.8,0.1c-5,0-6.7-1.3-6.8-6.6c-0.3-11.9-0.4-23.9-2.7-35.5
		c-2.4-12-6.1-24.1-11.4-35c-13.4-27.4-28-54.1-42.2-81.1c-10.4-19.8-20.2-39.9-27.3-61.2c-5.4-16.1-9.9-32.4-10.9-49.5
		c-0.8-13.8-2.5-27.8-1.2-41.4c3.6-38.3,16.2-73.5,40.3-104c17.9-22.7,39.8-40.3,66.1-52.3c14.8-6.8,30.2-11.6,46.3-14.8
		c23.8-4.7,47.8-5.4,71.7-3.2c34.5,3.1,67.4,12.3,96.5,32.1c20.9,14.2,37.8,32.3,50.3,54.3c9.2,16.4,15.8,33.7,20,52.1
		c4.5,19.7,6.9,39.6,5.4,59.6c-1.3,16.3-4.3,32.4-9.3,48.2c-11.2,35.9-30.7,67.5-49.6,99.5c-11.4,19.4-22.5,39.1-32.8,59.1
		c-10.7,20.7-16.4,42.9-14.9,66.5c0.1,2,0,3.9,0,5.9c-0.2,6.2-1,7.1-7.2,7.1C623.4,737,593.3,737,563.2,737z M530.5,659.9
		c3.5-19.1-3.5-39-13.2-57.9c-10.3-20-21.8-39.5-32.5-59.3c-7.4-13.7-17.4-25.9-21.2-41.7c-3.7-15,1.4-31.2,12.7-40.1
		c15.7-12.4,32.6-14.7,50.4-4.6c4,2.3,7.5,2.6,11.8,0.6c16.8-7.7,33.7-7.5,50.2,0.7c4.1,2,7.1,2,10.7-0.4c9.4-6.5,20-8.3,31-6.3
		c16.7,2.9,28,14.2,30.6,31.5c2,13.7-1,26.7-7.6,38.9c-13,24.2-25.6,48.6-38.7,72.7c-10.8,19.9-17.6,40.8-17.2,63.6
		c0.2,9.8,0.9,19.5,1.9,29.2c0.2,1.8,2.5,4.4,4.2,4.9c3.2,0.8,6.9,0.8,10,0c1.9-0.5,4-2.9,4.6-4.9c2-6.7,2.9-13.8,5.1-20.5
		c7.1-21.5,17.1-41.7,28.4-61.3c16.5-28.7,33.4-57.2,49.4-86.2c9.6-17.3,16.1-36.1,19.4-55.6c2.3-13.5,3.4-27.2,1.2-41.3
		c-2.4-15.3-5.2-30.2-11.3-44.4c-9.6-22.3-23.9-40.7-43.9-54.4c-24.7-17-52.8-24.1-82.2-26c-13.2-0.9-26.5,0.9-39.8,1.5
		c-13,0.6-25.3,4.2-37.4,8.7c-25.4,9.5-46.3,24.8-62.6,46.8c-17.2,23.1-25.9,49.2-28.9,77.4c-2.2,20.5,0.9,40.8,6.5,60.5
		c6.6,23.1,17.1,44.7,28.4,65.8c13.7,25.4,27.7,50.7,40.3,76.7c6.8,14,12.1,29,15.7,44.2c4,16.7,5.1,13,17.5,13.5c0.2,0,0.4,0,0.5,0
		c4-0.3,6.1-2,6-6.4C530.3,678,530.5,670.4,530.5,659.9z M564,512.1c-1.7,3.3-2.8,5.1-3.6,7c-4.1,9.5-11.1,16.5-20.9,18.7
		c-14.9,3.4-28.3-6.7-34.2-19.5c-5.6-12.1-3.7-24.5,3.1-36.1c1.3-2.3,3.2-4.3,4.4-6.6c1.2-2.3,1.9-5-1.8-5.8
		c-15.8-3.4-31.6,7.8-29.4,22.3c1.1,6.9,3.7,14,7.3,20.1c17.5,29.6,35.4,58.8,49.6,90.3c6.6,14.6,11.5,29.6,11.3,45.9
		c-0.1,11.6,0.1,23.2-0.3,34.7c-0.3,7.9,0.1,8.8,8.2,8.9c5,0,10,0,15,0c6.2-0.1,7.2-1.1,7.2-7.1c0-13.2-0.4-26.4,0-39.5
		c0.2-8.1,0.5-16.5,2.8-24.2c3.5-11.4,8.2-22.6,13.7-33.2c11.6-22.6,24.3-44.6,35.9-67.1c4.5-8.9,8.4-18.4,10.5-28
		c1.5-7-1.2-14.3-7.3-19.4c-6.3-5.2-13.6-4.8-20.7-3c-2.9,0.7-4.5,3.4-1.7,6.6c1.5,1.7,2.6,3.8,3.9,5.7c8,11.4,11.1,23.6,5.5,37
		c-5,12-14.7,18.8-26.3,18.6c-14.3-0.3-22.7-9-28.8-20.7C566.5,516.2,565.6,514.8,564,512.1z M545.4,503.9
		c0.3-6.2-7.5-17.6-12.1-18.8c-1.1-0.3-2.6-0.2-3.6,0.4c-7.2,3.9-10.7,19.2-6.1,26.3c6.2,9.7,13.3,10.1,18.5,0.9
		C543.9,509.6,544.6,506,545.4,503.9z M583.8,508c1.5,2.1,3.3,6.2,6.4,8.8c5.6,4.8,9.6,3.7,13.4-2.6c4.4-7.1,0.2-22.6-7.4-26.5
		c-1-0.5-3.3-0.1-4.1,0.8C587.6,493.3,584.4,498.8,583.8,508z M565.4,495.3c3.7-6.4,7.5-12.7,10.9-19.1c0.4-0.8-1-3.4-2.1-3.9
		c-6.6-2.5-13.4-3.4-20-0.2c-1,0.5-2,3.2-1.5,3.9C556.6,482.4,560.8,488.5,565.4,495.3z"/>
	<path class="st2" d="M214.6,722.2c-16,1.3-30.7-13.1-33.1-26.7c-3.1-17.1,6.1-29.9,16.7-36.9c29.7-19.6,59.3-39.3,88.9-59.1
		c14.1-9.4,32.2-9,44.5,2.5c16,15,13.6,40.6-5.7,53.4c-30.5,20.4-61.2,40.4-91.8,60.7C227.9,720.2,221.6,722.9,214.6,722.2z"/>
	<path class="st2" d="M956.5,688.5c0.9,22.7-19,38-40.9,33.1c-7.7-1.7-14.7-7.3-21.6-11.8c-27.4-17.9-54.6-36-81.8-54.2
		c-11.8-7.9-17.9-19.1-16.1-33.4c1.7-13.3,9.2-22.9,22-27.3c12.8-4.4,24.3-1.1,35.4,6.6c24.3,16.6,49,32.6,73.5,48.9
		c5.6,3.7,11.1,7.5,16.5,11.5C952.8,668.5,957.2,677.7,956.5,688.5z"/>
	<path class="st2" d="M678.1,172.5c-1.3-10.3,5.3-18.7,9.5-27.7c13.8-29.4,27.9-58.5,41.9-87.8c6.2-13,19.6-20.5,34.9-18.7
		c11.7,1.3,23.5,10.3,27.6,23.8c3.2,10.4,0.5,19.4-3.6,28.2c-12.7,27.1-26,54-39,81c-3.1,6.3-5.8,12.8-9.1,19
		c-9.6,18-33.9,22.2-50.4,9.3C681.5,192.9,677.5,183.9,678.1,172.5z"/>
	<path class="st2" d="M1019.2,348.1c-1,16.5-10.4,27.9-26.2,32.3c-16.4,4.5-32.7,9.6-49.1,14.2c-14.2,4-28.6,7.5-42.8,11.3
		c-6.3,1.7-12.4,4-18.8,5.5c-9.8,2.2-18.6-1-26.3-6.8c-10.6-8.1-15-19.4-12.6-32.3c2.4-13.2,10-22.7,23.6-26.5
		c20.6-5.7,41.2-11.4,61.7-17.2c16.7-4.7,33.3-9.4,49.9-14.1c13-3.7,32.8,6.5,37.2,19.3C1017.4,338.4,1018.1,343.3,1019.2,348.1z"/>
	<path class="st2" d="M119.8,348.4c-2.2-23.3,20.3-36.7,37.4-34c9.2,1.4,18.1,4.6,27.1,7.1c11.6,3.2,23.1,6.4,34.7,9.6
		c11.2,3.1,22.4,6.3,33.6,9.4c6.3,1.8,12.6,3.5,18.9,5.3c15.6,4.6,24.7,19.5,23.5,34.4c-1.1,13.5-8.4,24.7-24.3,30.2
		c-11.1,3.8-20.5-0.8-30.4-3.2c-12-2.9-23.7-6.6-35.6-9.9c-14.4-4.1-28.8-8.2-43.2-12.2c-7.1-2-14.7-2.9-21.3-5.9
		C127.2,373.2,118.8,363.6,119.8,348.4z"/>
	<path class="st2" d="M301.5,114.5c-0.1-15.2,5.5-25.7,18.1-31.8c15.9-7.7,34.7-1.6,43.9,12.3c20.8,31.2,41.7,62.4,62.1,93.9
		c11.6,17.9,2.9,44.1-20,50.4c-14.8,4.1-30.6-4.2-38.4-16.4c-19.5-30.4-39.9-60.3-60-90.3C303.2,126.6,301.1,120.3,301.5,114.5z"/>
	<path class="st2" d="M562.8,816.7c-25.5,0-50.9-0.1-76.4,0c-9.9,0-17.9-2.9-22.7-12.3c-8.4-16.4,2-33.8,20-34.7
		c17.2-0.8,34.5-0.3,51.8-0.4c33.8,0,67.6,0,101.5,0c10.5,0,19.8,2.5,25,12.6c8.6,16.7-2.8,34.9-19.7,34.8
		C615.8,816.5,589.3,816.6,562.8,816.7C562.8,816.6,562.8,816.7,562.8,816.7z"/>
	<path class="st2" d="M563,848.1c23,0,46-0.1,68.9,0.1c5.2,0.1,10.7,0.7,15.6,2.4c9.7,3.5,13.8,11,13.6,22.2
		c-0.2,9.4-5.3,16.9-14.3,20.2c-3.6,1.3-7.5,2.2-11.3,2.2c-48.6,0.2-97.3,0.3-145.9,0c-10.1-0.1-18.9-3.9-23.5-14.1
		c-6.5-14.3,3.2-31.7,19-32.3c18.5-0.8,37-0.5,55.6-0.6C548,848.1,555.5,848.1,563,848.1z"/>
	<path class="st2" d="M562.7,925.9c24.4,0,48.8,0,73.2,0.1c1.8,0,3.6,0.9,5.4,1.3c-0.6,1.6-0.9,3.3-1.9,4.7
		c-13.4,20.1-30.9,35.8-54.5,42c-33.2,8.6-62.2-0.5-85.9-25.4c-4.9-5.2-9.2-11.1-13.2-17c-3.2-4.7-2.5-5.5,3.1-5.6
		c18.2-0.1,36.3,0,54.5,0C549.9,925.9,556.3,925.9,562.7,925.9z"/>
</g>
</svg>
