<?xml version="1.0" encoding="utf-8"?>
<!-- Generator: Adobe Illustrator 25.2.1, SVG Export Plug-In . SVG Version: 6.00 Build 0)  -->
<svg version="1.1" xmlns="http://www.w3.org/2000/svg" xmlns:xlink="http://www.w3.org/1999/xlink" x="0px" y="0px"
	 viewBox="0 0 1280 1024" style="enable-background:new 0 0 1280 1024;" xml:space="preserve">
<style type="text/css">
	.st0{display:none;}
	.st1{display:inline;}
	.st2{fill:#000000;}
</style>
<g id="Layer_1" class="st0">
	<g class="st1">
		<path class="st2" d="M643.47,731.89c-29.18,0.01-58.36-0.09-87.54,0.1c-4.91,0.03-6.52-1.3-6.67-6.42
			c-0.33-11.56-0.37-23.32-2.63-34.57c-2.34-11.69-5.91-23.49-11.13-34.17c-13.04-26.67-27.28-52.76-41.12-79.03
			c-10.17-19.31-19.66-38.89-26.66-59.62c-5.31-15.72-9.66-31.63-10.6-48.25c-0.76-13.46-2.41-27.08-1.17-40.4
			c3.47-37.36,15.84-71.62,39.33-101.39c17.44-22.09,38.8-39.29,64.42-51.01c14.44-6.61,29.47-11.31,45.14-14.4
			c23.2-4.58,46.59-5.24,69.87-3.16c33.64,3,65.76,11.98,94.11,31.25c20.35,13.83,36.91,31.44,49.02,52.98
			c8.98,15.96,15.45,32.82,19.51,50.8c4.34,19.22,6.73,38.59,5.22,58.09c-1.22,15.89-4.22,31.6-9.04,47.03
			c-10.95,35-29.95,65.79-48.35,97.01c-11.16,18.93-21.92,38.13-32.02,57.65c-10.46,20.2-15.97,41.79-14.57,64.8
			c0.12,1.9,0.03,3.82-0.03,5.73c-0.18,6.09-1.01,6.96-7.02,6.96C702.18,731.89,672.82,731.88,643.47,731.89z M611.55,656.74
			c3.4-18.64-3.41-37.98-12.91-56.42c-10.07-19.54-21.22-38.52-31.69-57.86c-7.23-13.36-16.97-25.27-20.72-40.65
			c-3.58-14.65,1.35-30.41,12.4-39.12c15.32-12.08,31.79-14.3,49.13-4.48c3.93,2.23,7.32,2.56,11.54,0.63
			c16.34-7.5,32.83-7.29,48.9,0.69c4,1.99,6.95,1.98,10.46-0.43c9.18-6.29,19.51-8.09,30.25-6.19c16.25,2.87,27.3,13.85,29.8,30.73
			c1.97,13.34-0.99,26.04-7.38,37.97c-12.64,23.61-24.98,47.38-37.77,70.91c-10.55,19.4-17.17,39.79-16.79,62.03
			c0.16,9.51,0.87,19.02,1.82,28.48c0.18,1.77,2.42,4.32,4.14,4.74c3.11,0.76,6.69,0.76,9.78-0.04c1.81-0.47,3.86-2.85,4.44-4.79
			c1.97-6.57,2.88-13.47,5.01-19.98c6.88-20.98,16.66-40.65,27.68-59.73c16.14-27.97,32.58-55.76,48.21-84.01
			c9.34-16.89,15.71-35.23,18.95-54.24c2.24-13.18,3.34-26.51,1.17-40.24c-2.35-14.88-5.05-29.41-11.01-43.29
			c-9.31-21.7-23.34-39.67-42.76-53.08c-24.04-16.61-51.5-23.49-80.14-25.38c-12.85-0.85-25.87,0.93-38.82,1.48
			c-12.71,0.55-24.71,4.14-36.5,8.53c-24.79,9.23-45.14,24.23-61.03,45.58c-16.75,22.51-25.26,48-28.23,75.42
			c-2.16,19.97,0.84,39.74,6.35,58.95c6.47,22.54,16.66,43.56,27.73,64.18c13.31,24.81,27.04,49.43,39.3,74.75
			c6.61,13.66,11.76,28.31,15.34,43.06c3.95,16.25,4.99,12.66,17.02,13.16c0.17,0.01,0.35,0,0.52-0.01c3.87-0.25,5.99-1.92,5.89-6.2
			C611.41,674.43,611.55,666.96,611.55,656.74z M644.2,512.8c-1.59,3.13-2.65,5.04-3.56,7.02c-6.5,14.15-21.58,23.23-36.24,16.03
			c-11.24-5.52-21.12-16.45-20.31-32.02c0.51-9.78,3.96-18.02,9.42-25.75c1.77-2.51,3.32-5.44-0.88-6.45
			c-15.18-3.64-30.69,7.21-28.83,21.45c0.72,5.48,2.33,11.25,5.08,15.99c17.5,30.14,36.05,59.69,50.33,91.61
			c6.46,14.45,11.34,29.21,11.16,45.27c-0.12,11.28,0.09,22.58-0.38,33.85c-0.3,7.09,0.2,8.18,7.36,8.25
			c5.21,0.05,10.42-0.1,15.63,0.02c4.78,0.1,6.81-1.89,6.75-6.84c-0.18-15.45-0.27-30.91,0.07-46.36c0.12-5.46,0.76-11.2,2.6-16.28
			c3.97-10.95,8.23-21.9,13.54-32.26c11.91-23.23,24.81-45.95,36.71-69.19c3.95-7.71,7.47-16.15,8.69-24.62
			c2.05-14.17-12.61-25.06-26.61-20.93c-4.27,1.26-5,3.33-2.5,7.22c1.12,1.74,2.22,3.49,3.42,5.18
			c7.86,11.09,11.27,23.09,5.42,35.97c-4.74,10.44-12.87,20.76-29.06,18.18c-11.92-1.9-19.34-9.67-24.61-19.95
			C646.64,516.68,645.67,515.25,644.2,512.8z M626.1,504.63c0.25-6.02-7.31-17.14-11.79-18.37c-1.06-0.29-2.52-0.17-3.47,0.34
			c-7.05,3.85-10.42,18.72-5.93,25.67c6.08,9.41,12.96,9.83,18.08,0.85C624.66,510.2,625.35,506.72,626.1,504.63z M663.51,508.61
			c1.43,2.03,3.24,6.04,6.28,8.59c5.5,4.63,9.34,3.56,13.11-2.53c4.29-6.92,0.21-22.02-7.19-25.81c-0.99-0.51-3.23-0.07-4.01,0.76
			C667.27,494.33,664.08,499.74,663.51,508.61z M643.66,471.28c-2.63,0.68-5.26,1.47-7.93,2.04c-3.8,0.8-3.82,2.28-1.75,5.32
			c3.33,4.91,6.07,10.21,9.14,15.3c0.48,0.79,1.36,1.9,2.01,1.87c0.74-0.04,1.64-1.06,2.1-1.87c2.9-5.04,5.9-10.04,8.39-15.28
			c0.55-1.17-0.38-4.31-1.37-4.71C650.96,472.62,647.34,472.13,643.66,471.28z"/>
		<path class="st2" d="M303.75,717.52c-15.83,1.29-30.11-12.75-32.51-26.03c-3.02-16.68,5.98-29.14,16.31-35.97
			c28.94-19.14,57.84-38.34,86.68-57.63c13.71-9.16,31.38-8.75,43.34,2.47c15.57,14.61,13.24,39.54-5.57,52.07
			c-29.77,19.84-59.72,39.42-89.52,59.21C316.54,715.58,310.38,718.25,303.75,717.52z"/>
		<path class="st2" d="M1026.96,685.32c0.87,21.36-18.54,36.31-39.85,31.53c-7.5-1.68-14.33-7.07-21.03-11.45
			c-26.7-17.47-53.29-35.11-79.79-52.87c-11.49-7.7-17.51-18.62-15.73-32.57c1.65-12.96,8.99-22.29,21.45-26.61
			c12.5-4.33,23.66-1.04,34.5,6.4c23.65,16.23,47.78,31.76,71.69,47.63c5.43,3.61,10.92,7.19,16.06,11.18
			C1024.08,666.19,1027.15,673.02,1026.96,685.32z"/>
		<path class="st2" d="M755.45,181.54c-1.25-10.07,5.19-18.19,9.3-26.96c13.41-28.63,27.21-57.07,40.82-85.61
			c6.03-12.65,19.07-19.96,34.07-18.26c11.42,1.3,22.92,10.02,26.94,23.19c3.09,10.13,0.52,18.9-3.51,27.47
			c-12.42,26.43-25.31,52.64-37.99,78.95c-2.98,6.18-5.64,12.53-8.88,18.57c-9.4,17.56-33.06,21.64-49.16,9.02
			C758.84,201.47,754.91,192.68,755.45,181.54z"/>
		<path class="st2" d="M1087.31,351.57c-0.19,17.11-9.43,28.5-24.62,32.62c-16.05,4.34-31.9,9.39-47.92,13.86
			c-13.87,3.87-27.86,7.35-41.78,11.03c-5.31,1.41-10.7,2.63-15.88,4.42c-10.99,3.78-20.31,0.21-28.81-6.37
			c-10.05-7.79-13.89-18.61-11.69-30.76c2.36-13.05,9.94-22.37,23.4-26.05c17.1-4.68,34.16-9.52,51.22-14.34
			c16.39-4.63,32.79-9.22,49.12-14.03c17.43-5.14,31.16-1.58,41.28,11.5C1086.07,339.21,1087.67,345.69,1087.31,351.57z"/>
		<path class="st2" d="M211.03,353.03c-2.21-22.4,19.28-35.23,35.75-33.28c6.11,0.72,12.07,2.8,18.05,4.43
			c14.6,3.97,29.19,7.99,43.76,12.08c13.59,3.82,27.18,7.61,40.68,11.7c6.2,1.88,12.72,3.59,18.15,6.91
			c11.14,6.83,15.41,17.93,14.4,30.51c-1.05,13.1-11.64,24.01-22.93,27.94c-11.09,3.86-20.65-0.63-30.65-3.15
			c-11.64-2.94-23.14-6.38-34.7-9.63c-13.86-3.9-27.72-7.84-41.57-11.77c-7.25-2.05-14.86-3.31-21.67-6.35
			C217.91,376.89,210.16,367.6,211.03,353.03z"/>
		<path class="st2" d="M388.3,124.18c-0.83-16.55,10.92-30.32,25.43-32.54c14.41-2.2,27.39,3.03,35.48,15.25
			c18.94,28.65,37.96,57.23,57.18,85.69c8.56,12.67,10.45,25.51,3.11,39.32c-5.76,10.83-23.47,17.71-34.53,15.28
			c-13.75-3.02-20.34-12.82-27.1-22.86c-18.22-27.1-36.03-54.47-54.1-81.67C389.8,136.69,387.8,130.32,388.3,124.18z"/>
		<path class="st2" d="M643.03,809.61c-24.82,0-49.64-0.07-74.46,0.04c-9.69,0.04-17.45-2.81-22.16-12.03
			c-8.15-15.97,1.99-32.98,19.53-33.8c16.8-0.79,33.66-0.33,50.5-0.35c32.98-0.03,65.96,0.02,98.94-0.04
			c10.25-0.02,19.3,2.42,24.4,12.25c8.43,16.24-2.73,33.99-19.16,33.9c-25.86-0.14-51.73-0.04-77.59-0.04
			C643.03,809.56,643.03,809.59,643.03,809.61z"/>
		<path class="st2" d="M643.31,840.25c22.41,0,44.81-0.14,67.22,0.11c5.09,0.06,10.44,0.65,15.18,2.37
			c9.38,3.39,13.44,10.76,13.22,21.66c-0.19,9.13-5.21,16.48-14.05,19.6c-3.66,1.29-7.7,2.15-11.56,2.16
			c-47.07,0.15-94.14,0.24-141.21,0c-10.11-0.05-18.81-3.67-23.44-13.82c-6.23-13.65,3.11-30.55,18.07-31.47
			c12.12-0.75,24.3-0.51,36.45-0.59C616.57,840.19,629.94,840.25,643.31,840.25z"/>
		<path class="st2" d="M642.79,916.05c23.79,0,47.58-0.03,71.37,0.05c1.77,0.01,3.54,0.76,5.32,1.17c-0.61,1.68-0.91,3.58-1.89,5.02
			c-13.25,19.47-30.23,34.78-53.31,40.7c-31.35,8.04-59.03-0.13-81.78-23.33c-5.47-5.58-10.1-12.07-14.6-18.49
			c-2.94-4.2-2.25-5.06,3-5.07c23.96-0.05,47.93-0.02,71.89-0.02C642.79,916.07,642.79,916.06,642.79,916.05z"/>
	</g>
</g>
<g id="Layer_4" class="st0">
	<g class="st1">
		<path class="st2" d="M988.15,234.72c-2.05,6.46-3.41,12.04-5.55,17.31c-9.81,24.12-19.21,48.44-29.95,72.14
			c-16.23,35.82-35.32,70.15-56.21,103.5c-20.12,32.14-42,63.04-65.74,92.55c-16.56,20.58-33.77,40.75-51.99,59.86
			c-22.04,23.12-44.93,45.51-68.42,67.17c-26.94,24.83-56,47.14-86.08,68.15c-28.15,19.66-57.45,37.35-87.55,53.81
			c-3.11,1.7-5.17,1.31-7.65-0.82c-19.78-17-39.58-33.96-59.43-50.88c-27.73-23.64-55.5-47.23-83.21-70.89
			c-1.84-1.57-3.12-2.93-1.98-6.31c15.74-46.48,36.03-90.98,59.86-133.73c16.05-28.79,33.92-56.64,52.14-84.13
			c21.53-32.48,46.1-62.69,71.75-92.08c25.04-28.69,51.53-55.92,79.48-81.69c29.31-27.02,60.35-52,92.96-74.99
			c27.46-19.36,55.75-37.36,85.43-53.14c4.41-2.34,8.6-5.08,12.97-7.51c3.59-2,6.67-1.77,10.09,1.22
			c16.94,14.8,34.11,29.34,51.22,43.95c27.45,23.43,54.93,46.83,82.33,70.31C984.81,230.36,986.47,232.8,988.15,234.72z M751.31,288
			c-0.39,38.07,30.89,67,65.82,66.39c37.93-0.66,65.73-28.7,65.86-66.06c0.13-35.97-28.09-63.59-62.81-65.59
			C781.32,220.5,750.11,254.36,751.31,288z"/>
		<path class="st2" d="M742.41,651.38c1.61,6.66,3.13,12.45,4.4,18.29c2.88,13.25,5.63,26.53,8.43,39.8
			c2.21,10.48,4.41,20.97,6.64,31.45c0.71,3.32-0.39,5.65-2.98,7.94c-26.09,23.07-52.09,46.25-78.06,69.44
			c-22.24,19.86-44.42,39.8-66.64,59.68c-26.75,23.93-53.52,47.85-80.3,71.75c-1.02,0.91-2.26,1.59-4.62,3.23
			c1.52-7.22,2.66-13.21,4.07-19.13c2.55-10.76,5.25-21.49,7.92-32.23c2.67-10.73,5.47-21.43,8.02-32.19
			c2.55-10.77,4.8-21.61,7.3-32.39c2.26-9.73,4.7-19.42,7.06-29.13c1.94-7.97,3.53-16.05,5.98-23.86c1.02-3.26,3.22-6.9,5.98-8.75
			c26.22-17.55,53.43-33.72,78.85-52.34c26.02-19.07,50.36-40.44,75.4-60.84C733.81,658.87,737.64,655.46,742.41,651.38z"/>
		<path class="st2" d="M469.28,418.42c-7.57,12.1-15.24,23.5-22.04,35.4c-14.42,25.25-29.19,50.35-42.28,76.28
			c-11.79,23.37-21.63,47.72-32.09,71.75c-1.58,3.63-3.63,5.43-7.33,6.88c-15.78,6.16-31.35,12.87-47.01,19.33
			c-22.41,9.25-44.85,18.43-67.25,27.7c-15,6.2-29.95,12.52-44.93,18.75c-0.43,0.18-1.01,0.02-2.51,0.02
			c5.58-8.67,10.84-16.84,16.1-25c19.83-30.74,39.62-61.51,59.51-92.21c20.37-31.45,40.86-62.82,61.26-94.25
			c9.92-15.28,19.66-30.67,29.74-45.83c1.25-1.88,4.14-3.85,6.23-3.79c22.87,0.6,45.73,1.46,68.58,2.54
			C453.1,416.36,460.89,417.55,469.28,418.42z"/>
		<path class="st2" d="M222.99,960.46c8.34-7.69,12.62-17,15.5-26.98c2.92-10.1,5.66-20.25,8.19-30.46
			c7.79-31.47,17.44-62.04,41.58-85.49c4.71-4.58,10.3-8.25,15.42-12.42c1.77-1.45,3.34-3.15,5-4.74c-0.46-0.68-0.91-1.36-1.37-2.04
			c-6.12,2.92-12.77,5.08-18.24,8.93c-8.74,6.14-16.73,13.35-24.95,20.21c-8.54,7.13-17.95,11.44-30.18,9.9
			c4.45-6.68,8.88-12.65,12.59-19.03c12.45-21.42,23.91-43.47,37.14-64.39c14.63-23.14,32.67-43.41,58.17-55.36
			c7.01-3.29,14.47-5.6,22.26-7.58c-32.14,15.94-48.16,43.86-58.8,76.32c22.15-9.28,44.48-12.82,68.77-7.14
			c-5.53,3.83-10.38,6.98-15.01,10.42c-15.78,11.72-27.87,26.24-32.47,45.75c-2.7,11.46-4.32,23.17-6.52,34.74
			c-1,5.26-2.35,10.45-3.31,15.71c-0.29,1.58,0.22,3.3,0.36,4.96c1.35-0.58,3.08-0.81,3.99-1.8c11.02-12.01,23.89-21.71,38.56-28.53
			c10.78-5.01,22.12-9.12,33.59-12.25c11-3.01,22.47-4.31,33.75-6.19c2.37-0.39,4.85-0.06,8.93-0.06c-3.46,5.78-5.8,10.51-8.9,14.69
			c-7.32,9.88-15.03,19.47-22.48,29.26c-0.84,1.1-1.03,2.7-1.51,4.07c1.65,0.32,3.47,1.25,4.93,0.85
			c10.68-2.86,20.15-8.24,28.8-14.98c18.14-14.12,32.54-31.5,43.94-51.41c0.23-0.41,0.62-0.73,2.02-0.75
			c-0.88,3.45-1.49,6.99-2.69,10.32c-9.27,25.57-24.28,47.2-45.33,64.46c-17.62,14.45-37.45,25.47-57.65,35.82
			c-13.51,6.92-27.33,13.27-38.79,23.56c-1.02,0.91-2.41,1.4-4.29,2.46c1.94-15.34,3.44-29.86,10.08-43.47
			c6.71-13.73,18.12-22.96,29.68-32.23c-0.4-0.59-0.8-1.17-1.2-1.76c-3.76,1.85-7.71,3.39-11.25,5.6
			c-13.47,8.41-22.78,20.95-32.43,33.15c-13.94,17.63-27.05,36.07-46.93,47.9c-9.95,5.92-20.5,9.45-32.11,11.04
			C240.94,962.76,232.54,962.51,222.99,960.46z"/>
		<path class="st2" d="M1025,45.67c-0.53,11.63-0.98,22.73-1.59,33.81c-0.15,2.84-0.77,5.67-1.2,8.49
			c-2.01,13.06-3.94,26.14-6.09,39.17c-1.43,8.64-3,17.27-4.86,25.82c-2.2,10.11-4.69,20.17-7.23,30.21
			c-1.79,7.08-3.85,14.09-5.89,21.1c-0.48,1.65-1.37,3.18-2.38,5.45c-4.56-3.76-8.69-7.05-12.69-10.48
			c-23.28-19.99-46.5-40.05-69.79-60.02c-13.95-11.97-27.98-23.85-41.98-35.75c-3.13-2.66-4.3-4.58,0.78-6.69
			c18.27-7.57,36.13-16.2,54.66-23.05c20.19-7.47,40.89-13.62,61.5-19.9c10.56-3.22,21.4-5.49,32.13-8.12
			C1021.38,45.46,1022.5,45.67,1025,45.67z"/>
	</g>
</g>
<g id="Layer_3" class="st0">
	<g class="st1">
		<path class="st2" d="M1101.27,122.38c0,3.27,0,5.56,0,7.86c0,198.66,0.03,397.33-0.11,595.99c0,6.06,1.73,10.36,6.02,14.61
			c38.83,38.47,77.27,77.35,116.34,115.59c8.65,8.47,8.55,26.64,0.28,34.52c-20.46,19.49-40.2,39.73-60.1,59.8
			c-8.68,8.75-24.7,9.4-34.82-0.88c-22.88-23.22-46.08-46.13-69.14-69.17c-11.3-11.29-22.43-22.76-33.99-33.77
			c-2.37-2.25-6.23-3.31-9.6-4.03c-3.16-0.67-6.57-0.17-9.87-0.17c-293.61,0-587.22-0.01-880.83-0.01c-0.99,0-1.99-0.1-2.97,0.02
			c-3.91,0.48-5.04-1.2-5.02-5.07c0.14-30.5,0.08-61,0.08-91.5c0-205.42,0-410.85,0.01-616.27c0-8.36-0.75-7.51,7.33-7.51
			c321.65-0.01,643.3-0.01,964.95-0.01C1093.41,122.38,1097,122.38,1101.27,122.38z M609.64,187.77c-140.54,0-281.08,0-421.62,0
			c-9.41,0-9.41,0.02-9.41,9.39c0,186.31,0,372.61-0.01,558.92c0,11.96-0.92,11.06,10.84,11.06c198.28,0,396.55-0.01,594.83-0.02
			c50.97,0,101.94,0.03,152.91-0.04c1.79,0,3.58-0.99,5.37-1.52c-0.88-1.59-1.46-3.48-2.69-4.72
			c-23.22-23.37-46.53-46.65-69.8-69.97c-6.61-6.63-6.54-6.56-14.84-2.75c-14.52,6.67-29.37,12.29-44.92,16.31
			c-18.23,4.71-36.73,6.9-55.4,6.95c-11.39,0.03-22.86-1.6-34.17-3.32c-10.63-1.61-21.36-3.49-31.59-6.71
			c-17.26-5.44-33.88-12.59-49.32-22.31c-5.09-3.21-9.79-6.97-16.82-6.95c-100.95,0.25-201.9,0.18-302.86,0.19
			c-4.12,0-8.25,0.1-12.37,0.02c-3.14-0.06-4.51,1.32-4.46,4.45c0.08,5.11,0.07,10.22,0,15.33c-0.15,11.6-7.01,21.83-21.46,19.97
			c-7.44-0.96-13.75-6.93-14.06-14.52c-0.26-6.42-0.17-12.86-0.17-19.29c0-4.01-1.67-6.08-5.95-5.97
			c-5.93,0.15-11.89,0.24-17.81-0.08c-3.37-0.18-6.78-0.92-10.02-1.94c-8.89-2.78-11.91-12.68-10.91-18.3
			c1.71-9.57,8.48-15.29,17.45-15.35c6.6-0.05,13.2,0.01,19.79-0.02c5.42-0.02,7.02-1.5,7.38-6.9c0.13-1.97,0.05-3.96,0.05-5.93
			c0-109.81,0-219.61,0-329.42c0-9.07,0.65-18.19-0.12-27.19c-1.05-12.17,14.18-22.18,26.58-14.93c7.42,4.33,9.19,11.18,9.19,18.75
			c0.07,119.04,0.05,238.08,0.05,357.11c0,8.21,0.29,8.5,8.26,8.5c86.6,0,173.2,0,259.8,0c3.46,0,6.94,0.17,10.39-0.08
			c1.26-0.09,2.88-0.94,3.52-1.95c0.43-0.68-0.32-2.45-0.99-3.41c-6.56-9.32-13.31-18.52-19.81-27.89
			c-2.06-2.96-4.25-4.42-8.07-4.26c-7.9,0.33-15.83,0.1-23.75,0.09c-7.1-0.01-7.11-0.02-7.11-6.89c0-16.49,0-32.97,0-49.46
			c0-21.43,0.04-42.86-0.03-64.29c-0.01-3.33,0.25-5.72,4.56-5.97c1.15-0.07,2.81-2.8,3.1-4.51c1.07-6.3,1.01-12.84,2.56-18.99
			c3.34-13.25,6.85-26.52,11.31-39.43c8.01-23.21,20.23-44.35,36.45-62.65c7.98-9,12.1-17.69,11.18-29.78
			c-0.99-13.02-0.22-13.07,13.13-13.07c4.78,0,9.66,0.56,14.33-0.17c4.85-0.75,9.67-2.37,14.19-4.33c4.16-1.8,7.79-4.77,11.83-6.87
			c16.97-8.81,34.52-15.91,53.23-20.51c17.79-4.38,35.75-6.75,53.91-6.92c15.86-0.15,31.8,1.16,47.21,5.38
			c13.02,3.56,26.19,7,38.66,12.06c12.02,4.88,23.21,11.77,34.77,17.77c4.55,2.36,5.55,1.95,5.43-3.13c-0.1-4.01,1.45-5.04,5.21-5
			c14.02,0.17,28.05,0.29,42.06-0.03c5.19-0.12,6.3,1.75,6.23,6.58c-0.28,17.14-0.25,34.29,0.02,51.44
			c0.05,3.05,1.29,6.36,2.86,9.04c4.05,6.88,9.04,13.22,12.84,20.22c8.82,16.21,16.41,33,20.3,51.17
			c2.69,12.59,6.12,25.19,7.12,37.95c1.82,23.29,0.55,46.49-4.94,69.47c-3.7,15.49-8.77,30.37-15.3,44.79
			c-1.83,4.03-1.57,6.97,1.58,10.1c24.19,24.02,48.28,48.15,72.47,72.16c1.98,1.96,4.5,3.39,6.77,5.06c0.55-2.9,1.57-5.79,1.57-8.69
			c0.08-152.34,0.06-304.68,0.06-457.03c0-3.96-0.05-7.91-0.02-11.87c0.02-3.06-1.66-4.51-4.48-4.81c-1.63-0.17-3.3-0.09-4.94-0.09
			C890.39,187.77,750.01,187.77,609.64,187.77z M869.67,441.21c0,2.66,0,4.92,0,7.18c0,55.72-0.01,111.44,0.08,167.16
			c0,1.75,1.01,3.49,1.55,5.24c1.53-0.75,3.29-1.22,4.55-2.29c13.76-11.65,24.3-25.96,33.3-41.39c2.8-4.81,6.01-10.38,6.06-15.63
			c0.46-48.79,0.28-97.59,0.22-146.38c0-1.92-0.2-4.04-1.02-5.72c-6.37-13.13-14.46-25.14-24.06-36.13
			c-22.07-25.26-48.61-43.67-80.82-53.95c-16.07-5.13-32.45-7.8-49.13-8.73c-7.47-0.42-15.12,0.35-22.55,1.46
			c-11.62,1.74-23.43,3.23-34.61,6.64c-21.22,6.47-40.58,16.9-58.01,30.83c-3.98,3.18-5.54,6.52-5.53,11.62
			c0.14,85.23,0.14,170.45-0.01,255.68c-0.01,4.53,1.65,7.47,4.92,9.98c14.18,10.86,29.36,19.82,45.97,26.66
			c17.63,7.25,35.98,10.98,54.7,12.56c17.73,1.5,35.32-1.09,52.67-5.24c18.62-4.45,35.84-12.03,51.97-22.2
			c1.45-0.91,2.28-2.8,3.4-4.23c-1.63-0.49-3.26-1.39-4.89-1.41c-13.85-0.11-27.71-0.06-41.56-0.07c-6.4,0-6.41-0.01-6.42-6.53
			c0-59.68,0-119.35,0-179.03c0-1.92,0-3.85,0-6.09C823.67,441.21,846.2,441.21,869.67,441.21z M1033.06,731.92
			c-1.31,1.06-2.51,1.87-3.52,2.87c-6.99,6.84-13.93,13.71-20.89,20.58c-4.21,4.15-4.25,5.25,0.04,9.54
			c20.31,20.29,40.66,40.54,60.98,60.81c24.37,24.31,48.78,48.58,73.04,73.01c3.21,3.23,5.26,3.17,8.33-0.09
			c6.38-6.77,13.12-13.18,19.7-19.76c5.1-5.1,5.08-5.19-0.13-10.39c-19.73-19.7-39.47-39.39-59.19-59.1
			c-24.56-24.54-49.09-49.1-73.66-73.62C1036.4,734.42,1034.78,733.32,1033.06,731.92z M999.78,698.71
			c-1.35-1.69-2.34-3.18-3.57-4.42c-9.17-9.25-18.39-18.45-27.61-27.66c-11.17-11.16-22.35-22.3-33.52-33.46
			c-2.08-2.08-4.32-4.16-7.11-1.43c-7.61,7.44-15.07,15.04-22.57,22.6c-2.49,2.51-2.7,4.77,0.09,7.52
			c20.87,20.64,41.64,41.38,62.39,62.13c2.61,2.61,4.85,2.72,7.49,0.02c7.19-7.32,14.51-14.51,21.73-21.8
			C998.1,701.21,998.84,699.97,999.78,698.71z"/>
		<path class="st2" d="M487.26,598.92c-17.75,0-34.88,0-52.64,0c-0.13-1.85-0.35-3.57-0.35-5.3c-0.02-70.87,0.02-141.75-0.1-212.62
			c-0.01-4.27,1.06-5.71,5.5-5.62c14.34,0.27,28.69,0.22,43.04,0.02c3.96-0.06,5,1.29,4.99,5.11c-0.1,71.2-0.07,142.41-0.08,213.61
			C487.62,595.55,487.41,597,487.26,598.92z"/>
		<path class="st2" d="M347.01,519.82c0-24.4,0.11-48.8-0.1-73.2c-0.04-4.7,1.25-6.3,6.09-6.2c13.69,0.29,27.38,0.24,41.07,0.02
			c4.55-0.07,6.35,1.06,6.33,6.05c-0.18,48.97-0.15,97.94-0.03,146.9c0.01,4.14-0.86,5.87-5.43,5.79
			c-14.35-0.27-28.7-0.24-43.05-0.01c-4.08,0.07-4.97-1.46-4.95-5.16C347.06,569.29,347.01,544.55,347.01,519.82z"/>
		<path class="st2" d="M754.63,499.72c0,42.35-0.07,84.69,0.1,127.04c0.02,4.7-1.22,6.26-6.06,6.2
			c-19.12-0.25-38.25-0.21-57.37-0.02c-4.44,0.05-5.89-1.21-5.88-5.82c0.13-85.19,0.15-170.38-0.01-255.57
			c-0.01-5.15,1.62-6.36,6.48-6.29c18.95,0.25,37.92,0.21,56.87,0.04c4.43-0.04,5.99,1.21,5.97,5.89
			C754.56,414.03,754.63,456.87,754.63,499.72z"/>
	</g>
</g>
<g id="Layer_2">
	<g>
		<path class="st2" d="M1058.7,153.28c-2.49,8.43-4.84,16.91-7.5,25.29c-2.56,8.06-6.27,15.84-7.96,24.05
			c-2.46,11.92,0.43,23.02,7.74,33.08c5.54,7.62,10.15,15.91,15.49,23.67c6.89,10.02,15.96,16.52,28.61,17.64
			c13.61,1.21,27.25,2.51,40.69,4.86c11.42,1.99,19.09,9.43,21.56,20.91c2.98,13.87,5.32,27.88,7.69,41.87
			c1.02,6.03,1.83,12.14,2.05,18.24c0.43,12.35-6.39,20.37-16.83,25.64c-11.95,6.02-24.47,11.03-35.98,17.79
			c-11.15,6.55-16.3,17.78-18.68,30.3c-1.73,9.11-3.05,18.36-5.7,27.21c-3.35,11.16-0.37,20.85,5.7,29.66
			c6.71,9.72,13.78,19.35,21.86,27.93c10.27,10.91,12.81,26.69,3.8,40.16c-9.3,13.91-18.55,27.9-28.78,41.12
			c-10.93,14.12-23.22,16.31-39.99,9.72c-10.42-4.09-21-8.12-31.86-10.66c-15.02-3.51-28.33,1.34-40.24,10.98
			c-4.86,3.93-10.43,7.09-15.98,10.04c-14.12,7.52-20.13,19.79-21.77,35.05c-1.33,12.37-2.76,24.74-4.72,37.02
			c-1.85,11.59-11.31,19.05-22.64,21.18c-17.82,3.34-35.72,6.22-53.58,9.33c-10.47,1.82-23.51-5.5-29.13-16.36
			c-7.88-15.21-15.71-30.44-23.76-45.56c-3.34-6.26-9.03-8.53-16.03-9.5c-10.1-1.41-20.09-3.81-30.03-6.2
			c-13.26-3.19-25.7-2.69-36.89,6.21c-9.57,7.61-19.5,14.79-28.85,22.66c-11.09,9.34-22.98,11.83-35.3,3.8
			c-16.12-10.51-31.7-21.88-47.35-33.1c-11.13-7.98-10.64-22.1-7.72-32.58c3.64-13.05,9.47-25.52,12.82-38.63
			c2.86-11.18,1.1-22.38-5.83-32.35c-5.16-7.43-10.02-15.09-14.71-22.82c-7.56-12.44-18.53-18.65-32.98-19.87
			c-13.78-1.16-27.64-2.43-41.18-5.1c-9.05-1.79-16.2-8.39-18.55-17.44c-5.35-20.62-10.51-41.35-10.63-62.93
			c-0.06-11.67,5.47-19.43,15.36-24.53c11.22-5.77,22.52-11.39,33.87-16.9c14.04-6.81,21.96-18.05,24.84-33.2
			c1.66-8.72,3.45-17.41,5.32-26.08c2.31-10.7-0.4-20.28-6.74-28.8c-8.23-11.06-16.61-22.03-25.4-32.64
			c-8.67-10.46-9.83-22.21-3.34-33.02c9.68-16.14,21.14-31.24,32.2-46.52c7.91-10.93,21.79-14.32,36.2-8.78
			c12.5,4.8,25.18,9.31,38.06,12.92c9.9,2.77,19.87,0.73,28.63-4.67c10.54-6.5,20.95-13.28,30.92-20.61
			c7.58-5.58,11.77-13.62,12.82-23.15c1.58-14.35,2.55-28.82,5.12-43c2.08-11.5,8.85-19.71,21.14-22.9
			c18.03-4.67,36.09-8.66,54.77-9.6c17.38-0.87,25.07,3.48,32.98,19.51c5.75,11.66,11.63,23.26,17.3,34.96
			c4.94,10.18,12.61,15.96,24.11,17.32c9.39,1.11,18.87,2.71,27.89,5.47c16.2,4.96,28.8-1.13,40.84-10.96
			c9.75-7.96,19.47-16.06,29.9-23.05c8.38-5.62,17.54-5.52,26.94-0.49c17.68,9.45,33.53,21.38,48.78,34.19
			C1056.04,137.76,1057.48,141.74,1058.7,153.28z M971.5,390.16c-0.02-77.14-61.02-137.68-135.34-139.58
			c-79.03-2.02-139.44,61.24-142.5,131.79c-3.73,85.96,63.86,146.3,137.17,146.67C908.84,529.44,970.69,468.33,971.5,390.16z"/>
		<path class="st2" d="M153.1,596.53c6.49,0.75,12.97,1.78,19.49,2.2c12.63,0.81,23.64-3.5,33.32-11.44
			c7.3-5.98,14.71-11.84,21.77-18.1c10.72-9.5,15.76-21.85,17.1-35.92c0.79-8.27,1.05-16.69,2.86-24.75
			c2.42-10.82,9.7-18.19,20.53-20.7c13.85-3.21,27.9-5.55,41.89-8.1c5.06-0.92,10.18-1.73,15.31-2.01
			c12.69-0.7,22.06,4.65,27.81,16.11c2.91,5.8,6.21,11.44,8.69,17.42c7.29,17.57,20.53,27.83,38.51,32.88
			c7.94,2.23,15.73,5.04,23.5,7.83c10.34,3.71,19.91,0.77,29.33-3.14c8.18-3.39,16.17-7.26,24.31-10.76
			c8.96-3.86,23.73-1.34,30.34,6.13c12.64,14.28,25.28,28.62,36.82,43.78c8.76,11.51,9.17,23.54-2.61,39.77
			c-5.09,7.01-10.07,14.16-14.29,21.71c-5.33,9.53-7.91,19.6-4.1,30.71c1.84,5.35,2.69,11.23,2.9,16.91
			c0.64,17,8.5,29.51,22.38,38.8c6.2,4.16,11.99,8.94,18.19,13.1c12.84,8.62,15.37,21.39,11.48,34.6
			c-5.16,17.5-12.05,34.55-19.17,51.39c-6.64,15.7-21.91,19.21-36.73,16.7c-21.35-3.61-41.66-3.47-58.52,13.44
			c-7.99,8.01-19.29,12.99-23.79,24.14c-3.05,7.55-5.1,15.59-6.69,23.6c-2.03,10.22-2.65,20.72-4.82,30.9
			c-1.73,8.13-8.03,13.46-15.55,15.78c-20.64,6.36-41.76,10.23-63.52,10.55c-12.24,0.18-20.22-5.56-25.54-15.8
			c-4.46-8.57-8.4-17.4-12.78-26.01c-6-11.79-15.19-19.77-28.06-23.6c-6.79-2.02-13.36-4.78-20-7.3
			c-11.8-4.47-23.47-3.92-34.96,0.97c-9.78,4.16-19.28,9.11-29.29,12.59c-7.98,2.77-16.96,3.08-23.78-2.74
			c-17.63-15.05-33.38-32.04-44.91-52.26c-6.27-10.99-3.33-22.08,3.85-32.22c5.57-7.87,11.11-15.81,15.99-24.11
			c6.77-11.53,6.88-23.88,3.41-36.6c-1.86-6.82-3.07-13.87-3.98-20.89c-1.3-10.03-6.39-17.74-14-23.82
			c-8.3-6.62-16.85-12.96-25.56-19.06c-9.56-6.7-14.02-18.27-11.4-30.37c4.28-19.74,11.52-38.44,19.97-56.68
			c4.66-10.06,13.21-14.76,24.11-15.29c3.38-0.16,6.77-0.03,10.15-0.03C153.06,596.75,153.08,596.64,153.1,596.53z M429.16,723.11
			c1.12-48.86-40.49-90.86-89.82-90.79c-53.17,0.08-91.45,42.36-91.56,90.04c-0.12,50.89,39.76,89.98,88.65,91.38
			C387.47,815.21,430.13,772.52,429.16,723.11z"/>
	</g>
</g>
</svg>
