<?xml version="1.0" encoding="utf-8"?>
<!-- Generator: Adobe Illustrator 25.1.0, SVG Export Plug-In . SVG Version: 6.00 Build 0)  -->
<svg version="1.1" id="Layer_1" xmlns="http://www.w3.org/2000/svg" xmlns:xlink="http://www.w3.org/1999/xlink" x="0px" y="0px"
	 viewBox="0 0 155.91 84.83" style="enable-background:new 0 0 155.91 84.83;" xml:space="preserve">
<style type="text/css">
	.st0{clip-path:url(#SVGID_2_);fill:#FFFFFF;}
	.st1{clip-path:url(#SVGID_2_);fill:#878787;}
	.st2{fill:#FFFFFF;}
</style>
<g>
	<path d="M73.9,41.95c0,18.09-14.68,32.77-32.77,32.77c-18.1,0-32.77-14.68-32.77-32.77c0-18.1,14.67-32.78,32.77-32.78
		C59.22,9.17,73.9,23.84,73.9,41.95L73.9,41.95z"/>
	<g>
		<defs>
			<rect id="SVGID_1_" x="8.35" y="9.17" width="137.65" height="65.55"/>
		</defs>
		<clipPath id="SVGID_2_">
			<use xlink:href="#SVGID_1_"  style="overflow:visible;"/>
		</clipPath>
		<path class="st0" d="M36.51,50.74h4.23c5.39,0,7.86-3.97,7.86-8.99c0-5.35-2.51-9.24-8.28-9.24h-3.81V50.74L36.51,50.74z
			 M30.24,29.96c0-1.92,1.34-3.22,3.22-3.22h6.94c9.37,0,14.72,6.02,14.72,15.3c0,8.78-5.69,14.47-14.3,14.47h-7.27
			c-1.38,0-3.3-0.75-3.3-3.14V29.96L30.24,29.96z"/>
		<path class="st1" d="M113.22,74.73c-18.08,0-32.76-14.69-32.76-32.78c0-18.11,14.67-32.78,32.76-32.78
			c18.11,0,32.78,14.67,32.78,32.78C146,60.03,131.33,74.73,113.22,74.73"/>
	</g>
	<path class="st2" d="M109.95,29.75c0-2.09,1.34-3.26,3.14-3.26s3.14,1.17,3.14,3.26V53.5c0,2.09-1.34,3.26-3.14,3.26
		s-3.14-1.17-3.14-3.26V29.75L109.95,29.75z"/>
</g>
</svg>
