<?xml version="1.0" encoding="utf-8"?>
<!-- Generator: Adobe Illustrator 25.2.3, SVG Export Plug-In . SVG Version: 6.00 Build 0)  -->
<svg version="1.1" id="Layer_1" xmlns="http://www.w3.org/2000/svg" xmlns:xlink="http://www.w3.org/1999/xlink" x="0px" y="0px"
	 viewBox="0 0 1200 642" style="enable-background:new 0 0 1200 642;" xml:space="preserve">
<style type="text/css">
	.st0{fill:#5097c9;}
</style>
<g>
	<g>
		<path fill="#fff" class="st0" d="M32.6,300.7v-69c0-40.9,27.5-69.2,67-69.2c38.9,0,66.1,27.8,67,67.5h-50.5c0-17.3-8.8-19.3-16.5-19.3
			c-7.9,0-16.5,2-16.5,19.3v72.4c0,17,9.6,19,16.5,19c7.1,0,16.5-2,16.5-19V301H99.9v-43.7h66.7v43.4c0,40.6-27.5,69-67,69
			C60.1,369.7,32.6,341.3,32.6,300.7z"/>
		<path fill="#fff" class="st0" d="M189.3,306.4v-38.9c0-37.7,21.9-62.1,60.2-62.1c37.7,0,60.4,24.4,60.4,62.1v38.9c0,38.9-22.7,63-60.4,63
			C211.1,369.4,189.3,345.3,189.3,306.4z M261.9,313.5v-52.2c0-10.8-6.8-13.3-12.5-13.3c-5.7,0-12.2,2.6-12.2,13.3v52.2
			c0,10.8,6.8,13.3,12.2,13.3C254.8,326.9,261.9,324.3,261.9,313.5z"/>
		<path fill="#fff" class="st0" d="M489.8,366.6l-42.9-200.3h50.5l20.4,120.3l20.7-120.3h44.8l20.4,120.3l20.7-120.3h50.5l-42.9,200.3h-51.6
			L561,250.8l-19.6,115.8H489.8z"/>
		<path fill="#fff" class="st0" d="M679.9,306.4v-38.9c0-37.7,21.9-62.1,60.2-62.1c37.7,0,60.4,24.4,60.4,62.1v38.9c0,38.9-22.7,63-60.4,63
			C701.8,369.4,679.9,345.3,679.9,306.4z M752.6,313.5v-52.2c0-10.8-6.8-13.3-12.5-13.3c-5.7,0-12.2,2.6-12.2,13.3v52.2
			c0,10.8,6.8,13.3,12.2,13.3S752.6,324.3,752.6,313.5z"/>
		<path fill="#fff" class="st0" d="M826.1,366.6V207.1h44.8V221c0,0,7.1-19.3,37.7-15.6v47.1c-23-2.3-34.9,5.7-34.9,30.9v83.1H826.1z"/>
		<path fill="#fff" class="st0" d="M930.5,366.6V151.2h48v116.6h9.9l18.2-60.7h52.8l-30.6,79.5l30.6,80h-52.8L988.4,307h-9.9v59.6H930.5z"/>
	</g>
	<g>
		<path fill="#fff" class="st0" d="M578,608.6L542.5,573l137.3-137.3h420.8c12.2,0,22.2-9.9,22.2-22.2V111.9c0-12.2-9.9-22.2-22.2-22.2H422
			c-12.2,0-22.1,9.9-22.1,22.2v301.7c0,12.2,9.9,22.2,22.1,22.2h82.2V486H422c-39.9,0-72.4-32.5-72.4-72.4V111.9
			c0-39.9,32.5-72.4,72.4-72.4h678.6c39.9,0,72.4,32.5,72.4,72.4v301.7c0,39.9-32.5,72.4-72.4,72.4h-400L578,608.6z"/>
	</g>
</g>
</svg>
