<?xml version="1.0" encoding="utf-8"?>
<!-- Generator: Adobe Illustrator 25.1.0, SVG Export Plug-In . SVG Version: 6.00 Build 0)  -->
<svg version="1.1" id="Layer_1" xmlns="http://www.w3.org/2000/svg" xmlns:xlink="http://www.w3.org/1999/xlink" x="0px" y="0px"
	 viewBox="0 0 1200 341.85" style="enable-background:new 0 0 1200 341.85;" xml:space="preserve">
<path d="M612.56,122.92c-3.47-7.18,24.61-2.69,27.17-3.87c0,0,6.12,3.87,6.12,5.41c73.67-47.42,44.76,104.73,50.13,135.67
	c0.73,7.14-28.35,2.01-28.7,3.48c0,0-2.67,1.93-2.67-4.25V156.93c0.11-13.09-20.5-9.71-21.43,0c0,0,0,102.81,0,102.81
	c0.44,7.47-26.72,2.53-27.55,3.87c0,0-3.06,0.77-3.06-3.87V122.92L612.56,122.92L612.56,122.92z"/>
<path d="M757.58,260.52c-76.25,47.17-44.81-105.15-50.9-137.6c-0.74-7.14,28.37-2.01,28.7-3.48c0,0,3.44-1.93,3.44,4.25v104.36
	c-0.11,13.15,20.53,9.65,21.43,0c0,0,0-104.75,0-104.75c-0.44-7.47,26.71-2.52,27.55-3.87c0,0,3.06-0.77,3.06,3.87v138.76
	c4.05,20.49-23.14,66.31-75,44.06c-4.13,1.25-1.67-19.77-2.29-22.03c0,0-0.77-3.86,3.44-2.71
	C717.02,281.39,761.79,296.47,757.58,260.52L757.58,260.52L757.58,260.52z"/>
<path d="M804.65,76.93c-0.51-8.26,19.24-2.76,28.31-4.26c4.98,0,4.6,3.48,4.6,3.48v47.93c35.56-24.38,54.09,16.38,50.51,27.44
	c-2.47,32.97,16.78,149.93-50.13,107.84c0,1.55-6.12,5.41-6.12,5.41c-2.63-1.3-30.59,3.4-27.17-3.86
	C804.65,260.91,804.65,76.93,804.65,76.93L804.65,76.93L804.65,76.93z M847.12,236.56c9.57,0,8.42-8.5,8.42-8.5v-67.64
	c0,0,0-9.28-8.42-9.28c-8.42,0-9.56,9.28-9.56,9.28v67.26C837.56,227.67,837.56,236.56,847.12,236.56L847.12,236.56z"/>
<path d="M931.69,231.15v-75.37c-0.87-10.19,19.64-10.78,19.13-0.38c0,0,0,75.37,0,75.37C951.13,239.79,931.42,241.57,931.69,231.15
	L931.69,231.15L931.69,231.15z M982.96,232.31c-5.95-35.18,22.07-110.21-41.71-116.35c-64.03,5.8-35.66,82.27-41.72,117.5
	C904.75,287.15,983.23,276.68,982.96,232.31L982.96,232.31L982.96,232.31z"/>
<path d="M1026.58,171.62v88.52c0,0,0,3.48-4.21,3.48h-25.25c0,0-2.68,0.77-2.68-3.87V122.92c-2.26-7.38,26.83-2.57,29.46-3.87
	c0,0,3.83,2.32,5.36,5.8c0,0,13.78-10.44,27.55-5.8c0,0,2.29,0.39,0.38,3.48c0,0-9.57,9.27-13.01,26.28
	C1042.08,155.72,1028.1,152.59,1026.58,171.62L1026.58,171.62L1026.58,171.62z"/>
<path d="M1088.96,228.25v-71.51c-0.86-10.2,19.63-10.77,19.13-0.38c0,0,0,71.5,0,71.5C1108.39,236.9,1088.69,238.66,1088.96,228.25
	L1088.96,228.25L1088.96,228.25z M1085.52,267.09c14.16,0,22.57-8.5,22.57-8.5c1.08,41.77-43.14,12.82-45.53,23.58
	c0.73,2.64-2.1,24.95,2.68,23.96c42.89,18.75,80.01-20.17,75.38-34.4c0,0,0-149.19,0-149.19c0-3.87-3.44-3.48-3.44-3.48
	c-3.5,0.6-30.01-1.78-29.46,2.71c-33.24-23.41-55.03,21.77-51.27,29.38C1060.84,177.46,1040.07,266.64,1085.52,267.09
	L1085.52,267.09z"/>
<path d="M555.16,122.73v136.83c3.48,7.17-24.61,2.69-27.17,3.87c0,0-6.12-3.87-6.12-5.41c-66.93,42.1-47.64-74.91-50.12-107.84
	c-3.1-11.45,14.04-51.63,50.51-27.44V74.8c0,0-0.39-3.48,4.59-3.48c9.16,1.51,28.74-4.03,28.32,4.25
	C555.16,75.57,555.16,122.73,555.16,122.73L555.16,122.73L555.16,122.73z M522.25,226.31v-67.25c-0.35-10.94-18.2-13.11-17.99,0
	c0,0,0,67.64,0,67.64C502.25,238.76,523.88,236.58,522.25,226.31L522.25,226.31L522.25,226.31z"/>
<path d="M430.8,263.42c-5.36,0-3.83-3.87-3.83-3.87V75.57c-0.39-8.41,19.17-2.65,28.32-4.25c4.98,0,4.59,3.48,4.59,3.48v185.91
	C460.41,266.36,433.57,262.43,430.8,263.42L430.8,263.42L430.8,263.42z"/>
<path d="M413.96,122.73v136.83c3.48,7.17-24.61,2.69-27.17,3.87c0,0-6.12-3.87-6.12-5.41c-66.93,42.1-47.65-74.91-50.13-107.84
	c-3.1-11.45,14.04-51.63,50.51-27.44l0.39-0.19c-0.26-6.83,27.29-2.22,27.55-3.49c0,0,5.74-1.15,5.36,4.26L413.96,122.73
	L413.96,122.73L413.96,122.73z M381.05,226.31v-67.25c-0.35-10.94-18.2-13.1-17.99,0c0,0,0,67.64,0,67.64
	C361.05,238.75,382.68,236.59,381.05,226.31L381.05,226.31L381.05,226.31z"/>
<path d="M256.31,122.73v136.83c3.48,7.17-24.61,2.69-27.17,3.87c0,0-6.12-3.87-6.12-5.41c-66.93,42.1-47.65-74.91-50.13-107.84
	c-3.1-11.45,14.04-51.63,50.51-27.44l0.38-0.19c-0.25-6.82,27.29-2.22,27.55-3.49c0,0,5.74-1.15,5.36,4.26L256.31,122.73
	L256.31,122.73L256.31,122.73z M223.4,226.31v-67.25c-0.34-10.94-18.19-13.11-17.98,0c0,0,0,67.64,0,67.64
	C203.4,238.76,225.03,236.58,223.4,226.31L223.4,226.31L223.4,226.31z"/>
<path d="M299.93,169.69c-1.93,1.8,4.57,98.13-3.82,93.93c-3.08-1.32-28.21,3.28-27.56-3.09c0,0,0-139.15,0-139.15
	c-0.98-4.78,26.33-1.32,28.32-2.32c0,0,3.44,2.32,5.36,4.64c0,0,14.54-8.89,26.02-5.79c0,0,4.97,0.39,1.53,5.02
	c0,0-9.95,9.28-11.48,24.35C316.29,156.29,300.8,151.61,299.93,169.69L299.93,169.69L299.93,169.69z"/>
<path d="M161.8,153.46v106.29c0,0,0.38,3.87-3.44,3.87c-3.22-1.36-28.38,3.48-27.17-3.48c0,0,0-100.11,0-100.11
	c3-16.96-21.31-14.53-19.9,0c0,0,0,100.88,0,100.88c1.21,5.4-27.42,1.66-29.46,2.71c0,0-2.68,0.38-2.68-3.1V123.69
	c2.2-5.34-15.24-11.47-18.37-13.52c-3.46,1.89-2.67-11.74-2.68-13.92c0,0-1.15-4.64,5.36-5.03l44-2.32
	c7.56-4.24,2.4,34.53,3.83,36.72C125.75,109.78,165.56,118.13,161.8,153.46L161.8,153.46L161.8,153.46z"/>
<path d="M120.47,75.76c-13.45,9.18-63.43,9.11-62.37-42.52c0,0,0-3.09,3.06-3.09c4.03,1.28,22.07-3.25,22.58,3.09
	c0.38,4.25,1.91,28.22,16.84,27.83c19.77-2.87,10.55-30.26,18.37-30.92c22.86-0.19,27.02-4.15,20.67,25.13
	c0,0,12.63-2.32,16.07-22.42c-2.25-5.1,20.18-1.84,22.19-2.71c0,0,4.21-1.54,3.83,3.48C181.31,38.66,180.55,76.54,120.47,75.76
	L120.47,75.76L120.47,75.76z"/>
</svg>
