<?xml version="1.0" encoding="utf-8"?>
<!-- Generator: Adobe Illustrator 25.4.1, SVG Export Plug-In . SVG Version: 6.00 Build 0)  -->
<svg version="1.1" xmlns="http://www.w3.org/2000/svg" xmlns:xlink="http://www.w3.org/1999/xlink" x="0px" y="0px"
	 viewBox="0 0 4000 1324.8" style="enable-background:new 0 0 4000 1324.8;" xml:space="preserve">
<style type="text/css">
	.st0{display:none;}
</style>
<g id="Layer_1" class="st0">
	
		<image style="display:inline;overflow:visible;" width="500" height="119" xlink:href="../../../../../../Downloads/microtechnic.png"  transform="matrix(1.3039 0 0 1.3039 1675.9952 606.7921)">
	</image>
</g>
<g id="Layer_2">
	<g>
		<g>
			<path d="M1486.6,665.3c0-27.5-7.5-38-27.1-38c-19,0-29.4,11.8-29.4,33.2V767h-62.5V660.8c0-23.7-7.9-33.5-26.7-33.5
				c-18.6,0-29,11.9-29,33.2V767h-62.2V576.8h62.2l-0.4,18.8c10.9-15.2,25.6-22.2,46.5-22.2c23.9,0,41.3,9.9,50.9,29
				c12.7-17.2,33.4-29,62.9-29c48.2,0,77,34.1,77,91.2V767h-62.2V665.3z"/>
			<path d="M1602.2,577.1h62.2V767h-62.2V577.1z"/>
			<path d="M1707.3,672.1c0-53.9,39.2-98.7,104-98.7c35.8,0,67.4,10.2,99.4,47.8l-44.1,32.7c-18.5-22.2-33.9-27.5-50.9-27.5
				c-29,0-44.8,19.8-44.8,44.8c0,25,15.8,44.8,44.8,44.8c17,0,32.4-5.2,50.9-27.5l44.4,34.2c-32,37.3-64,47.8-99.8,47.8
				C1746.5,770.8,1707.3,725.9,1707.3,672.1z"/>
			<path d="M2010.6,683v84h-62.1V577.1h62.1l-1.7,25.8c10.8-20,32.3-32.5,64.9-28.5V631C2026.7,626.4,2010.6,651,2010.6,683z"/>
			<path d="M2200.9,769.6c-68.2,0-108.9-44.4-108.9-97.9c0-52.4,41.1-97.9,109.2-97.9c67.8,0,108.5,45.6,108.5,97.9
				C2309.7,725.2,2269,769.6,2200.9,769.6z M2201.2,626.5c-28.6,0-45.6,20.7-45.6,44.5c0,24.9,17,45.2,45.2,45.2
				c29,0,45.6-20.3,45.6-45.2C2246.4,648.7,2230.6,626.5,2201.2,626.5z"/>
			<path d="M2454.4,672.5v-42.6h-25.2v-52.7h25.2v-29.4l62.5-27.1v56.5h54.2v52.7h-54.2v42.6c0,29.8,6,45.6,54.2,39.9v56.5
				C2488.5,778.7,2454.4,747.7,2454.4,672.5z"/>
			<path d="M2593.3,671.7c0-57.3,43.3-98.3,103.6-98.3c68.6,0,112.6,49.3,104,118.3l-143.1-0.4c3,17.7,20,30.1,40.7,30.1
				c18.8,0,31.6-5.3,44.1-18.1l47.8,27.5c-16.2,21.9-48.2,39.9-91.9,39.9C2633.3,770.8,2593.3,729.1,2593.3,671.7z M2739.5,649.9
				c-4.1-19-19.6-30.5-41.4-30.5c-20.3,0-36.5,12.3-40.3,30.5H2739.5z"/>
			<path d="M2818.8,672.1c0-53.9,39.2-98.7,104-98.7c35.8,0,67.4,10.2,99.4,47.8l-44.1,32.7c-18.5-22.2-33.9-27.5-50.9-27.5
				c-29,0-44.8,19.8-44.8,44.8c0,25,15.8,44.8,44.8,44.8c16.9,0,32.4-5.2,50.9-27.5l44.5,34.2c-32,37.3-64,47.8-99.8,47.8
				C2858,770.8,2818.8,725.9,2818.8,672.1z"/>
			<path d="M3174.9,676.2c0-29-10.5-44.4-33.5-44.4c-24.9,0-38.8,14.3-38.8,37.3V767h-62.1V510.1h62.1v92.3
				c12.4-15.8,35.8-27.5,58-27.5c53.1,0,78.7,33.9,78.7,99.4V767h-64.4V676.2z"/>
			<path d="M3428.1,672.8c0-31-9.2-45.2-33.5-45.2c-26.9,0-39.6,14.9-39.6,42.6V767h-62.2V576.8h62.2v20.7
				c11.9-13.7,32.2-22.6,54.8-22.6c55.7,0,82.3,32.5,82.3,96.1V767h-64V672.8z"/>
			<path d="M3545.7,577.1h62.1V767h-62.1V577.1z"/>
			<path d="M3644.3,672.1c0-53.9,39.2-98.7,104-98.7c35.8,0,67.4,10.2,99.4,47.8l-44.1,32.7c-18.5-22.2-33.9-27.5-50.9-27.5
				c-29,0-44.8,19.8-44.8,44.8c0,25,15.8,44.8,44.8,44.8c17,0,32.4-5.2,50.9-27.5l44.4,34.2c-32,37.3-64,47.8-99.8,47.8
				C3683.5,770.8,3644.3,725.9,3644.3,672.1z"/>
			<circle cx="3576.7" cy="529.3" r="28.7"/>
			<circle cx="1633.3" cy="529.3" r="28.7"/>
		</g>
		<path d="M309.6,442.4c0.7,7.6,0.3,15.4-1.1,23.1l311.1,84.8c16.5-31.1,49.3-52.4,86.9-52.4c21.1,0,40.6,6.7,56.6,18.1l94.3-78.7
			c-15.4-31.4-11.1-67.6,13.1-87.8c0.8-0.7,1.8-1.3,2.7-2c-75.7-62.9-173-100.8-279.1-100.8c-127.6,0-242.3,54.7-322.2,141.9
			c3.2,1.4,6.4,2.9,9.4,4.9C297.3,404,307.6,421.8,309.6,442.4z"/>
		<path d="M719.9,1042c8.1-13,20-23.7,34.4-31.1l-54-316.6c-51.3-3.2-92.1-45.9-92.1-98c0-0.7,0.1-1.4,0.1-2.1l-319.1-87
			c-16.8,21-40.6,32.7-63.4,32.7c-11.8,0-23.4-3.1-33.5-9.8c-1.9-1.3-3.8-2.6-5.5-4.1c-18.9,48.9-29.4,102-29.4,157.6
			c0,241.3,195.6,436.9,436.9,436.9c41.9,0,82.4-6,120.8-17c-0.9-1.8-1.7-3.7-2.3-5.6C706.2,1080.1,708.9,1059.7,719.9,1042z"/>
		<path d="M213.4,497.7c13.8,9,36.1,0.2,48.8-19.2c6.6-10.1,9.8-21.8,8.7-32.3c-0.5-5.2-2.6-14.7-10.8-20.1l0,0
			c-4.1-2.7-8.5-3.5-12.5-3.5c-1.4,0-2.7,0.1-4,0.3c-14.7,19.8-27.8,40.9-39,63.1C206.4,490.8,209.2,495,213.4,497.7z"/>
		<path d="M895.5,379.3c-12.6,10.6-10.7,34.5,4.2,52.3c7.7,9.2,18.1,15.7,28.3,17.7c5.1,1,14.8,1.8,22.4-4.5
			c2.2-1.8,3.7-4.1,5.1-6.6c-15.4-22.6-32.8-43.7-52.1-63C900.7,376,898,377.3,895.5,379.3z"/>
		<path d="M1031.1,683.8c0-76.4-19.6-148.1-54.1-210.6c-0.5,0.5-1,1-1.5,1.5c-11.1,9.3-25.4,14.3-40.7,14.3c-4.7,0-9.5-0.5-14.3-1.4
			c-12-2.4-23.6-7.7-33.9-15.3L793.2,550c7.4,13.8,11.6,29.6,11.6,46.3c0,40.6-24.7,75.5-59.9,90.5l53.4,313.4
			c25.6,0.2,48.7,11.4,61.4,30.3C963.9,950.7,1031.1,825.1,1031.1,683.8z"/>
		<path d="M797.9,1039c-6,0-12.3,1-18.5,3.2c-11.3,4-21,11.4-26.6,20.3c-2.8,4.4-6.9,13.3-3.6,22.5c0.8,2.1,1.9,4.1,3.2,5.9
			c26.5-10.3,51.8-23.1,75.5-38.2C822.7,1044.1,811.1,1039,797.9,1039z"/>
		<path d="M706.5,543.3c-29.2,0-53,23.8-53,53c0,29.2,23.8,53,53,53c29.2,0,53-23.8,53-53C759.5,567.1,735.7,543.3,706.5,543.3z"/>
	</g>
</g>
</svg>
