<?xml version="1.0" standalone="no"?>
<!DOCTYPE svg PUBLIC "-//W3C//DTD SVG 20010904//EN"
 "http://www.w3.org/TR/2001/REC-SVG-20010904/DTD/svg10.dtd">
<svg version="1.0" xmlns="http://www.w3.org/2000/svg"
 width="1208.000000pt" height="277.000000pt" viewBox="0 0 1208.000000 277.000000"
 preserveAspectRatio="xMidYMid meet">
<metadata>
Created by potrace 1.16, written by Peter Selinger 2001-2019
</metadata>
<g transform="translate(0.000000,277.000000) scale(0.100000,-0.100000)"
fill="#000000" stroke="none">
<path d="M241 2436 c-48 -17 -108 -71 -134 -119 l-22 -42 -3 -885 c-3 -988 -7
-932 67 -1013 75 -83 -44 -77 1391 -77 1213 0 1277 1 1315 19 46 21 98 69 123
115 15 27 17 73 20 393 l3 362 109 93 c60 51 106 95 102 99 -4 3 -53 45 -109
93 l-103 88 0 340 c0 238 -4 353 -12 382 -16 55 -99 138 -154 154 -60 17
-2544 16 -2593 -2z m827 -278 c7 -7 12 -27 12 -45 0 -28 -3 -33 -24 -33 -18 0
-25 6 -28 23 -6 40 -33 26 -36 -19 -3 -40 -1 -43 40 -66 l43 -23 3 -72 c3 -68
1 -73 -23 -89 -49 -32 -115 -1 -115 55 0 29 45 29 53 1 3 -11 12 -20 21 -20
12 0 16 10 16 44 0 42 -2 46 -45 70 l-45 27 0 60 c0 85 10 99 68 99 27 0 53
-5 60 -12z m182 -8 c0 -13 -7 -20 -20 -20 -18 0 -20 -8 -22 -152 l-3 -153 -25
0 -25 0 -3 153 c-2 144 -4 152 -22 152 -13 0 -20 7 -20 20 0 18 7 20 70 20 63
0 70 -2 70 -20z m150 0 c0 -16 -7 -20 -35 -20 l-35 0 0 -50 c0 -49 1 -50 30
-50 25 0 30 -4 30 -25 0 -21 -5 -25 -30 -25 -30 0 -30 -1 -30 -55 l0 -55 36 0
c31 0 35 -3 32 -22 -3 -20 -10 -23 -60 -26 l-58 -3 0 176 0 175 60 0 c53 0 60
-2 60 -20z m170 1 c5 -11 10 -53 10 -95 0 -84 -12 -106 -60 -106 -29 0 -29 -1
-32 -62 -3 -60 -4 -63 -28 -63 l-25 0 -3 173 -2 172 64 0 c54 0 67 -3 76 -19z
m268 7 c8 -8 12 -58 12 -159 0 -141 -1 -149 -22 -163 -12 -9 -34 -16 -48 -16
-14 0 -36 7 -48 16 -21 14 -22 22 -22 163 0 101 4 151 12 159 7 7 33 12 58 12
25 0 51 -5 58 -12z m131 -2 c8 -9 11 -64 9 -172 l-3 -159 -25 0 -25 0 -3 138
c-2 87 -6 136 -12 132 -22 -14 -22 27 0 51 27 27 42 30 59 10z"/>
<path d="M6122 2424 c-29 -14 -64 -40 -77 -58 -54 -71 -55 -79 -55 -448 l1
-343 90 -75 c49 -41 103 -86 120 -100 l30 -25 -121 -104 -121 -103 3 -352 3
-353 30 -49 c19 -30 49 -60 79 -79 l49 -30 1284 -3 1283 -2 45 21 c25 12 61
40 80 62 61 71 65 101 65 476 l1 336 85 70 c47 39 94 79 105 91 l20 21 -105
89 -105 89 -1 336 c0 370 -4 404 -60 471 -16 20 -53 48 -82 62 l-52 26 -1271
0 -1271 0 -52 -26z m932 -276 c9 -12 16 -33 16 -45 0 -19 -5 -23 -30 -23 -23
0 -30 5 -30 19 0 25 -20 38 -31 20 -21 -32 -5 -72 41 -104 l45 -32 0 -66 c0
-79 -10 -92 -70 -92 -51 0 -62 8 -71 53 -6 29 -4 32 19 32 17 0 28 -7 32 -20
8 -26 32 -26 40 1 12 36 -4 67 -48 96 l-42 29 0 67 c0 78 7 87 72 87 32 0 46
-5 57 -22z m176 2 c0 -13 -7 -20 -20 -20 -18 0 -20 -8 -22 -152 -3 -150 -3
-153 -25 -156 l-23 -3 0 155 0 156 -25 0 c-18 0 -25 5 -25 20 0 18 7 20 70 20
63 0 70 -2 70 -20z m150 0 c0 -16 -7 -20 -35 -20 l-35 0 0 -50 c0 -49 1 -50
30 -50 25 0 30 -4 30 -25 0 -21 -5 -25 -30 -25 -30 0 -30 -1 -30 -55 l0 -55
35 0 c31 0 35 -3 35 -25 0 -25 -2 -26 -57 -23 l-58 3 -3 173 -2 172 60 0 c53
0 60 -2 60 -20z m168 8 c7 -7 12 -44 12 -94 0 -93 -11 -114 -60 -114 -29 0
-29 -1 -32 -62 -3 -57 -5 -63 -25 -66 l-23 -3 0 175 0 176 58 0 c32 0 63 -5
70 -12z m276 -10 c20 -28 23 -252 4 -292 -14 -32 -64 -44 -105 -24 l-28 13 -3
149 c-2 101 1 153 9 162 7 8 31 14 60 14 38 0 51 -4 63 -22z m186 3 c13 -25
13 -128 0 -136 -7 -4 -5 -14 5 -28 22 -31 19 -109 -4 -138 -14 -18 -29 -24
-59 -24 -49 0 -72 18 -72 56 0 24 4 29 24 29 15 0 26 -7 29 -20 3 -11 12 -20
21 -20 13 0 16 11 16 54 0 45 -3 54 -20 59 -11 3 -20 12 -20 20 0 9 9 19 20
22 16 5 20 15 20 50 0 27 -5 45 -14 48 -19 7 -26 -1 -26 -30 0 -18 -5 -23 -25
-23 -22 0 -25 4 -25 38 0 50 14 62 72 62 37 0 50 -4 58 -19z m-429 -1151 c10
-6 19 -17 19 -25 0 -8 5 -15 10 -15 6 0 10 7 10 15 0 19 29 34 63 32 l28 -2
-3 -70 c-3 -66 -4 -70 -31 -79 -21 -8 -31 -6 -44 7 -20 20 -10 35 12 17 16
-14 45 -7 45 11 0 6 -7 8 -16 5 -20 -8 -54 11 -54 29 0 22 -17 18 -23 -5 -7
-28 -53 -37 -77 -15 -26 23 -25 60 0 85 23 23 33 24 61 10z"/>
<path d="M3898 2159 c-14 -8 -18 -24 -18 -79 l0 -68 46 -27 c43 -25 45 -28 42
-68 -2 -34 -7 -43 -24 -45 -15 -2 -23 3 -27 17 -8 32 -37 26 -37 -7 0 -38 17
-52 61 -52 54 0 69 20 69 93 l0 62 -45 27 c-43 26 -45 30 -45 73 0 42 2 46 23
43 14 -2 23 -11 25 -25 2 -15 10 -23 23 -23 24 0 27 51 3 74 -17 18 -70 21
-96 5z"/>
<path d="M4050 2150 c0 -13 7 -20 20 -20 19 0 20 -7 20 -150 0 -143 1 -150 20
-150 19 0 20 7 20 150 0 143 1 150 20 150 13 0 20 7 20 20 0 18 -7 20 -60 20
-53 0 -60 -2 -60 -20z"/>
<path d="M4210 2000 l0 -170 55 0 c48 0 55 2 55 20 0 16 -7 20 -30 20 l-30 0
0 60 0 60 30 0 c20 0 30 5 30 15 0 10 -10 15 -30 15 -30 0 -30 1 -30 55 0 54
0 55 30 55 23 0 30 4 30 20 0 18 -7 20 -55 20 l-55 0 0 -170z"/>
<path d="M4370 2000 c0 -163 1 -170 20 -170 18 0 20 7 20 58 l0 58 42 10 c37
8 43 13 51 44 11 45 4 134 -12 154 -9 11 -31 16 -67 16 l-54 0 0 -170z"/>
<path d="M4657 2152 c-14 -15 -17 -42 -17 -155 0 -154 5 -167 70 -167 65 0 70
12 70 170 0 113 -3 142 -16 154 -22 22 -87 21 -107 -2z m78 -152 l0 -125 -25
0 -25 0 -3 114 c-1 63 0 121 3 129 3 7 15 12 27 10 22 -3 23 -6 23 -128z"/>
<path d="M4846 2148 c-23 -32 -21 -68 3 -68 13 0 21 8 23 23 2 14 10 22 23 22
16 0 21 -8 23 -43 3 -39 -1 -48 -37 -87 -38 -42 -41 -48 -41 -105 l0 -60 60 0
c53 0 60 2 60 20 0 17 -7 20 -40 20 -38 0 -40 2 -40 30 0 22 12 43 40 74 38
41 40 47 40 104 0 71 -15 92 -65 92 -24 0 -39 -7 -49 -22z"/>
<path d="M9836 2148 c-10 -13 -16 -44 -16 -74 0 -45 4 -56 26 -73 14 -11 34
-23 45 -26 39 -13 37 -105 -2 -105 -12 0 -23 8 -26 20 -3 12 -14 20 -25 20
-18 0 -20 -4 -14 -32 8 -39 20 -48 68 -48 48 0 68 28 68 92 0 52 -15 75 -70
103 -28 15 -31 20 -28 58 2 35 7 43 26 45 18 3 22 -1 22 -22 0 -21 5 -26 25
-26 19 0 25 5 25 23 0 12 -7 33 -16 45 -21 31 -87 31 -108 0z"/>
<path d="M9990 2150 c0 -15 7 -20 25 -20 l25 0 0 -150 c0 -143 1 -150 20 -150
19 0 20 7 20 150 0 143 1 150 20 150 13 0 20 7 20 20 0 18 -7 20 -65 20 -58 0
-65 -2 -65 -20z"/>
<path d="M10160 2000 l0 -170 55 0 c48 0 55 2 55 20 0 16 -7 20 -35 20 l-36 0
3 58 c3 54 4 57 31 60 38 5 36 32 -3 32 -30 0 -30 1 -30 55 l0 55 35 0 c28 0
35 4 35 20 0 18 -7 20 -55 20 l-55 0 0 -170z"/>
<path d="M10320 2000 c0 -163 1 -170 20 -170 18 0 20 7 20 59 l0 58 39 7 c47
7 51 16 51 111 0 91 -11 105 -81 105 l-49 0 0 -170z"/>
<path d="M10608 2159 c-16 -9 -18 -28 -18 -157 0 -102 4 -152 12 -160 18 -18
93 -15 109 5 10 12 14 52 14 155 0 127 -2 141 -19 154 -23 16 -73 18 -98 3z"/>
<path d="M10812 2060 c-24 -60 -42 -117 -40 -127 2 -13 14 -19 46 -21 42 -3
42 -3 42 -43 0 -32 3 -39 20 -39 17 0 20 7 20 40 0 22 5 40 10 40 6 0 10 7 10
15 0 8 -4 15 -10 15 -6 0 -10 45 -10 115 0 113 0 115 -22 115 -20 0 -29 -16
-66 -110z"/>
<path d="M9470 1550 l0 -70 44 0 c35 0 48 5 60 22 39 56 5 118 -64 118 l-40 0
0 -70z"/>
<path d="M9647 732 c-23 -25 -22 -85 1 -105 44 -40 112 -8 112 53 0 62 -74 96
-113 52z"/>
</g>
</svg>
