<?xml version="1.0" encoding="utf-8"?>
<!-- Generator: Adobe Illustrator 25.1.0, SVG Export Plug-In . SVG Version: 6.00 Build 0)  -->
<svg version="1.1" id="Layer_2" xmlns="http://www.w3.org/2000/svg" xmlns:xlink="http://www.w3.org/1999/xlink" x="0px" y="0px"
	 viewBox="0 0 962.29 627" style="enable-background:new 0 0 962.29 627;" xml:space="preserve">
<g>
	<path d="M526.87,441.25c1.15-0.51,2.24-0.99,3.32-1.61c4.66-2.69,7.85-7.23,8.97-12.81c1.22-6.05-0.15-12.61-3.57-17.13
		c-3.68-4.84-8.67-7.31-14.83-7.33c-5.88-0.01-11.76,0-17.64,0l-2.51,0c-0.28,0-0.55,0.05-0.83,0.09l-1.1,0.17v69.8h4.21v-30.14
		h4.13c4.88,0.01,9.77,0.01,14.65-0.02c0.29-0.02,0.26,0,0.42,0.35c3.19,7.14,6.4,14.27,9.61,21.4l2.62,5.82
		c0.94,2.1,1.37,2.63,2.88,2.63c0.32,0,0.7-0.03,1.14-0.06l0.45-0.09l0.89-0.64l-13.53-30.1
		C526.38,441.47,526.63,441.36,526.87,441.25z M507.65,438.02l-4.76-0.01v-31.33l5.04-0.01c4.38-0.02,8.77-0.03,13.15,0.03
		c5.31,0.07,9.41,2.57,12.18,7.44c2.31,4.06,2.71,9.3,1.05,14c-1.46,4.17-4.34,7.37-7.9,8.79c-1.62,0.65-3.3,1-4.87,1.03
		C516.93,438.05,512.21,438.04,507.65,438.02z"/>
	<path d="M841.7,431.36c-0.29-0.48-0.6-0.95-0.93-1.4c-3.79-5.1-9.37-8.32-15.72-9.04c-6.35-0.75-12.79,1.23-17.66,5.38
		c-5.47,4.66-8.79,11.32-9.34,18.76c-0.56,7.45,1.86,14.87,6.63,20.36c4.48,5.15,10.86,8.15,17.49,8.21c0.08,0,0.16,0,0.23,0
		c6.59,0,12.71-2.75,17.26-7.77c0.76-0.84,1.42-1.76,2.04-2.68v9.24h4.22v-69.94h-4.22V431.36z M820.47,469.11
		c-8.48-0.91-15.48-7.59-17.42-16.6c-0.27-1.25-0.41-2.57-0.52-3.63c-0.04-0.42-0.08-0.8-0.12-1.13c0.29-8.65,3.12-14.71,8.9-19.07
		c4.56-3.44,10.92-4.6,16.61-2.99c5.52,1.56,9.79,5.57,12.03,11.29c2.93,7.49,2.68,14.9-0.75,22.01
		C835.71,466.22,828.68,470.01,820.47,469.11z"/>
	<path d="M911.71,440.93c-1.05-8.52-5.33-14.6-12.73-18.08c-10.85-5.1-23.99-1.01-30.59,9.49c-3.72,5.93-4.9,12.76-3.52,20.32
		c1.18,6.44,4.02,11.52,8.46,15.11c4.88,3.94,10.26,5.92,16.07,5.92c3.5,0,7.16-0.72,10.96-2.15c3.62-1.36,6.78-3.85,9.68-7.59
		l0.56-0.72l-3.17-2.79l-0.63,0.82c-6.88,8.89-19.16,9.79-27.06,5.53c-7.61-4.1-10.9-12.54-10.86-19.04h42.86v-0.97
		c0-0.62,0.02-1.23,0.04-1.84C911.83,443.63,911.87,442.27,911.71,440.93z M907.53,443.42h-38.54c0.16-1.61,0.53-3.18,1.11-4.68
		c2.88-7.5,8.1-11.99,15.53-13.36c5.44-1,10.9,0.2,14.97,3.31c3.94,3.02,6.37,7.67,6.82,13.1
		C907.47,442.32,907.5,442.86,907.53,443.42z"/>
	<path d="M586.95,421.08c-7.95-1.43-15.78,0.95-21.49,6.49c-7.96,7.72-10.3,17.58-6.75,28.52c2.51,7.72,7.89,13.43,15.16,16.07
		c2.8,1.02,5.75,1.52,8.68,1.52c4.69,0,9.33-1.28,13.32-3.79c7.42-4.66,11.85-12.17,12.17-20.61v-0.03
		c0.04-6.02-0.76-10.15-2.74-14.28C601.79,427.69,594.93,422.5,586.95,421.08z M603.59,448.16c-0.25,5.75-2.35,13.62-10.89,18.53
		c-5.22,3.01-11.43,3.55-17.06,1.5c-5.72-2.09-10.22-6.64-12.34-12.48c-3.5-9.67-1.76-18.07,5.18-24.95
		c3.82-3.79,8.78-5.82,14.01-5.82c1.18,0,2.37,0.1,3.56,0.31c6.64,1.17,12.34,5.56,15.26,11.76
		C602.85,440.26,603.55,443.71,603.59,448.16z"/>
	<path d="M719.12,422.12l-1.95-0.15c-2.01-0.17-3.65-0.12-5.21,1.69c-6.09,7.02-12.25,13.97-18.41,20.93l-5.74,6.48v-48.64h-4.24
		v69.95h4.24l0-4.86c0-3.18,0-6.36,0.03-9.54c0-0.26,0.14-0.63,0.33-0.84c1.69-1.96,3.42-3.9,5.15-5.84l4.78-5.38
		c5.88,8.46,11.76,16.91,17.66,25.37c0.29,0.41,0.72,1.03,1.42,1.12c0.39,0.05,0.78,0.06,1.19,0.06c0.23,0,0.47,0,0.72-0.01
		l2.65-0.01l-20.77-29.87L719.12,422.12z"/>
	<path d="M655.53,449.32c-2.74-1.72-5.69-2.84-8.99-4.02l-1.43-0.51c-2.37-0.85-4.74-1.69-7.07-2.62c-1.88-0.75-3.39-1.81-4.49-3.17
		c-2.29-2.81-1.88-7.41,0.91-10.25c2.35-2.39,5.43-3.6,9.44-3.7c5.09-0.06,8.92,1.62,11.79,5.37c0.29,0.37,0.57,0.76,0.86,1.17
		l0.89,1.22l3.27-2.41l-0.45-0.75c-3.48-5.85-8.58-7.89-12.24-8.58c-5.43-1.01-11.3,0.29-15.33,3.43
		c-4.51,3.51-6.26,9.25-4.35,14.29c1.29,3.42,4.13,5.33,6.16,6.47c2.62,1.47,5.44,2.43,8.18,3.36c0.92,0.31,1.84,0.63,2.75,0.96
		l0.46,0.17c2.31,0.84,4.7,1.71,6.81,2.91c2.32,1.31,3.81,3.37,4.19,5.81c0.39,2.43-0.42,4.96-2.23,6.95c-2,2.2-4.69,3.45-8.2,3.81
		c-6.06,0.64-11.29-1.39-16.01-6.19l-1.51-1.59l-3.18,2.69l0.77,0.96c0.1,0.14,0.19,0.24,0.28,0.35c5,5.42,10.99,8.16,17.82,8.16
		c0.64,0,1.29-0.03,1.95-0.08c4.9-0.36,8.85-2.29,11.73-5.72c2.42-2.88,3.53-6.7,2.98-10.21
		C660.77,454.22,658.78,451.37,655.53,449.32z"/>
	<path d="M781.7,469.6l-1.36-0.42l-0.15,0.22l-0.71,0.01c-0.84,0.01-1.63,0.02-2.41-0.02c-2.32-0.12-3.63-1.41-3.77-3.74
		c-0.03-0.48-0.03-0.97-0.03-1.61l0-61.57h-4.28v62.59c0,0.31-0.01,0.62,0.02,0.93c0.29,3.54,1.98,5.94,4.89,6.92
		c1.61,0.54,3.35,0.62,4.85,0.65c0.12,0,0.24,0,0.35,0c0.9,0,1.67-0.09,2.18-0.65c0.39-0.42,0.51-0.95,0.51-1.57h0.99l-1.05-1.34
		L781.7,469.6z"/>
	<rect x="738.56" y="421.96" width="4.21" height="50.44"/>
	<path d="M740.71,405.8c-0.64,0.08-1.33,0.24-1.79,0.7c-0.46,0.45-0.71,1.07-0.72,1.75c-0.01,1.39,1.04,2.44,2.43,2.46
		c0.01,0,0.02,0,0.03,0c0.68,0,1.31-0.25,1.76-0.7c0.46-0.45,0.71-1.07,0.71-1.75C743.15,406.88,742.1,405.82,740.71,405.8z"/>
</g>
<polygon points="119.2,238.27 119.2,281.7 73.93,281.7 73.93,238.27 40.72,238.27 40.72,358.36 73.93,358.36 73.93,310.64 
	119.2,310.64 119.2,358.36 152.42,358.36 152.42,238.27 "/>
<polygon points="283.64,265.3 298.72,238.27 230.26,238.27 197.05,238.27 197.05,265.3 197.05,284.79 197.05,311.83 197.05,358.36 
	230.26,358.36 230.26,311.83 257.7,311.83 272.77,284.79 230.26,284.79 230.26,265.3 "/>
<polygon points="519.11,235.48 548.69,310.75 582.56,235.48 614.31,235.48 564.13,358.36 536.47,358.36 498.68,268.29 "/>
<path d="M754.28,315.41c0-0.37,0-0.58,0-0.58v-79.34h-32.17v62.4v18.94c0,0-1.23,13.23-19.46,13.23c-18.23,0-22.73-6.3-22.73-13.23
	v-81.34h-32.17v81.34c0,0-3.22,43.47,52.33,43.47c48.53,0,53.63-34.7,54.14-43.47h0.05V315.41z"/>
<path d="M858.34,328.59c-18.35,0-33.22-14.92-33.22-33.33c0-18.41,14.87-33.33,33.22-33.33c12.87,0,24.01,7.36,29.52,18.1
	l21.37-21.37c-11.57-15.6-30.03-25.75-50.9-25.75c-35.06,0-63.48,28.52-63.48,63.69c0,35.18,28.42,63.69,63.48,63.69
	c21.07,0,39.69-10.34,51.24-26.2l-26.68-16.44C876.82,324.36,868.08,328.59,858.34,328.59z"/>
<g>
	<path d="M547.2,32.24c-4.58-2.74-10.52-1.23-13.26,3.36L203.91,589.51c-2.74,4.59-1.23,10.53,3.36,13.26
		c1.55,0.93,3.26,1.36,4.94,1.36c3.3,0,6.51-1.69,8.32-4.72L550.56,45.5C553.3,40.91,551.79,34.97,547.2,32.24z"/>
	<path d="M435.35,337.77c-4.59-2.73-10.53-1.23-13.26,3.36l-105.04,176.3c-2.74,4.59-1.23,10.53,3.36,13.26
		c1.55,0.93,3.26,1.36,4.94,1.36c3.3,0,6.51-1.69,8.32-4.72l105.04-176.3C441.45,346.44,439.94,340.51,435.35,337.77z"/>
	<path d="M342.96,252.77c1.55,0.93,3.26,1.37,4.94,1.37c3.3,0,6.51-1.69,8.32-4.72l89.4-150.05c2.74-4.59,1.23-10.53-3.36-13.26
		c-4.59-2.73-10.53-1.23-13.26,3.36l-89.4,150.05C336.87,244.1,338.37,250.04,342.96,252.77z"/>
</g>
</svg>
