<?xml version="1.0" encoding="utf-8"?>
<!-- Generator: Adobe Illustrator 25.1.0, SVG Export Plug-In . SVG Version: 6.00 Build 0)  -->
<svg version="1.1" id="Layer_1" xmlns="http://www.w3.org/2000/svg" xmlns:xlink="http://www.w3.org/1999/xlink" x="0px" y="0px"
	 viewBox="0 0 1200 627" style="enable-background:new 0 0 1200 627;" xml:space="preserve">
<g>
	<path d="M506.38,60.32c0.13,101.26,0.12,202.53,0.58,303.79c0.06,12.72,1.05,25.85,4.3,38.07c9.43,35.47,41.28,57.26,80.17,56.45
		c40.71-0.85,71.26-24.09,78.95-61.22c2.42-11.69,3.14-23.91,3.18-35.89c0.25-91.62,0.09-183.25,0.21-274.87V60.32
		C617.97,60.32,562.18,60.32,506.38,60.32z"/>
	<path d="M875.12,318.42c-5.61-105.96,35.61-190.29,127.75-247.03c5.31-3.27,10.1-7.36,15.13-11.07c-72.4,0-144.8,0-217.2,0
		c0.18,105.84,1.92,211.71-0.06,317.5c-1.18,63.19-32.15,112.9-83.05,150.15c-6.34,4.64-12.18,9.98-18.25,15
		c106.19,0,212.37,0,318.56,0c-6.97-5.02-13.69-10.41-20.94-14.99C919.93,479.33,879.85,407.76,875.12,318.42z"/>
	<path d="M471.24,533.74c-62.7-41.43-93.01-100.09-93.07-174.8c-0.06-71.65-0.01-143.3-0.05-214.95l0,0.01V60.32h-12.01v0
		c-46.56,0-93.12,0-139.68,0c6.29,4.97,12.61,9.9,18.87,14.92c25.72,20.64,44.51,46.07,53.94,78
		c18.74,63.48-3.85,131.65-57.92,174.4c-8.56,6.77-17.33,13.28-26.61,20.37c36.04,58.41,71.08,115.06,105.92,171.82
		c4.53,7.39,8.02,15.42,11.98,23.15c49.87,0,99.75,0,149.62,0C478.59,539.88,475.21,536.36,471.24,533.74z"/>
	<path d="M1018.45,220.42c-24.25,50.49-25.77,102.86-3.68,154.1c22.63,52.47,63.8,81.38,121.67,84c11.94,0.54,24-1.54,36.01-2.41
		c0-102.97,0-205.93,0-308.9C1110.65,130.55,1047.47,160,1018.45,220.42z"/>
	<path d="M28.55,374.05c0,56.31,0,112.62,0,168.93c54.7,0,109.4,0,164.1,0c-32.42-56.47-64.85-112.94-97-168.93
		C71.53,374.05,50.04,374.05,28.55,374.05z"/>
	<path d="M158.01,250.33c32.44-29.44,26.05-79.34-13.3-98.26c-11.94-5.74-25.93-9.09-39.19-9.8c-25.58-1.37-51.31-0.08-76.98,0.11
		c0,43.44,0,86.88,0,130.32c23.27-0.14,46.55-0.08,69.81-0.48C120.7,271.83,141.21,265.58,158.01,250.33z"/>
</g>
</svg>
