<?xml version="1.0" encoding="utf-8"?>
<!-- Generator: Adobe Illustrator 25.1.0, SVG Export Plug-In . SVG Version: 6.00 Build 0)  -->
<svg version="1.1" xmlns="http://www.w3.org/2000/svg" xmlns:xlink="http://www.w3.org/1999/xlink" x="0px" y="0px"
	 viewBox="0 0 1068.7 627" style="enable-background:new 0 0 1068.7 627;" xml:space="preserve">
<style type="text/css">
	.st0{fill:#FFFFFF;}
</style>
<g id="Layer_3">
</g>
<g id="Layer_2">
	<g>
		<g>
			<path d="M35.22,400.9c8.37-0.92,16.73-1.84,25.22-2.77c0.25,1.25,0.43,2.38,0.7,3.5c2.41,9.89,10.64,16.76,20.87,17.3
				c6.23,0.33,12.28-0.35,17.68-3.86c4.87-3.17,6.9-8.16,5.6-13.56c-0.63-2.58-2.18-4.45-4.31-5.94c-3.62-2.52-7.79-3.53-12.02-4.35
				c-8.32-1.61-16.68-3.01-24.97-4.75c-6.57-1.38-12.6-4.02-17.67-8.64c-4.85-4.42-7.2-9.93-7.75-16.34
				c-1.46-17.12,8.05-28.45,20.25-33.64c15.29-6.5,30.94-7.2,46.34-0.49c13.2,5.75,20.86,16.13,23.14,30.38
				c0.08,0.48,0.07,0.98,0.11,1.66c-8.35,0.93-16.64,1.85-24.7,2.75c-0.86-2.78-1.37-5.49-2.5-7.92
				c-3.66-7.82-12.14-12.07-21.43-11.09c-4.12,0.44-8.02,1.41-11.29,4.12c-3.13,2.59-4.42,5.97-4.04,9.94
				c0.37,3.77,2.56,6.42,6.03,7.52c5.08,1.6,10.26,3.06,15.5,4c8.72,1.57,17.53,2.72,25.93,5.71c5.42,1.93,10.05,5.05,13.89,9.32
				c4.08,4.54,5.66,10.05,5.9,15.98c0.63,15.6-6.58,26.86-20.34,33.39c-17.43,8.28-35.45,8.67-53.05,0.39
				c-13.05-6.14-20.68-16.76-22.78-31.15c-0.05-0.38-0.2-0.74-0.31-1.11C35.22,401.13,35.22,401.01,35.22,400.9z"/>
			<path d="M1001.1,365.69c0.58,0.45,1.05,0.82,1.53,1.18c11.44,8.71,12.14,25.04,1.45,34.67c-5.67,5.11-12.56,7.56-19.96,8.67
				c-8.94,1.34-17.8,0.91-26.5-1.74c-0.58-0.18-1.45,0-1.96,0.34c-1.99,1.34-3.07,3.26-2.81,5.69c0.27,2.46,1.98,3.86,4.19,4.49
				c1.58,0.45,3.28,0.67,4.93,0.68c7.76,0.07,15.52,0.02,23.28,0.04c6.42,0.02,12.67,0.91,18.57,3.63
				c17.61,8.13,17.04,27.5,6.39,37.64c-5.85,5.57-12.92,8.72-20.69,10.29c-14.25,2.87-28.4,2.5-42.29-2.16
				c-3.99-1.34-7.68-3.3-10.85-6.13c-6.76-6.03-7.52-14.74-1.58-21.56c2.05-2.35,4.79-4.11,7.24-6.12c0.41-0.34,0.9-0.59,1.53-0.99
				c-1-0.69-1.87-1.25-2.71-1.86c-7.89-5.73-9.33-15.44-3.15-22.98c1.91-2.33,4.5-4.11,6.79-6.13c0.4-0.35,0.89-0.6,1.42-0.96
				c-0.32-0.35-0.52-0.61-0.77-0.82c-10.63-9.21-10.96-28.12,4.48-37.16c7.55-4.42,15.83-5.89,24.44-5.71
				c4.06,0.09,8.11,0.52,12.31,0.81c5.02-13.16,15.75-17.52,29.13-18c0,6.57,0,12.94,0,19.2c-2.58,0.45-5.12,0.78-7.6,1.34
				C1005.4,362.65,1003.13,363.81,1001.1,365.69z M973.71,438.34C973.71,438.34,973.71,438.34,973.71,438.34
				c-3.74,0.01-7.49-0.17-11.21,0.08c-1.93,0.13-4.02,0.68-5.67,1.66c-4.9,2.92-5.08,9.41-0.42,12.68c1.61,1.13,3.49,2.06,5.38,2.59
				c7.46,2.11,14.99,2.04,22.46-0.04c2.81-0.78,5.44-2.05,7.47-4.25c3.95-4.27,2.59-10.01-2.88-11.93
				c-1.39-0.49-2.94-0.72-4.42-0.76C980.86,438.26,977.29,438.34,973.71,438.34z M974.47,397.02c1.43-0.17,2.77-0.24,4.08-0.51
				c5.76-1.17,9.55-5.69,9.65-11.42c0.09-5.84-3.4-10.38-9.29-11.6c-2.31-0.48-4.78-0.53-7.14-0.3
				c-5.91,0.57-10.27,4.98-10.66,10.44c-0.46,6.37,2.98,11.23,9.14,12.77C971.65,396.75,973.11,396.83,974.47,397.02z"/>
			<path d="M475.67,372.67c0-16.04,0-32.07,0-48.21c8.21,0,16.22,0,24.38,0c0,37.67,0,75.37,0,113.16c-8.05,0-16.06,0-24.31,0
				c0-4.1,0-8.18,0-12.32c-0.33,0.09-0.47,0.08-0.5,0.14c-4.06,7.3-10.6,11.19-18.48,12.89c-17.42,3.76-32.13-5.07-37.46-22.8
				c-4.01-13.34-3.69-26.71,2.48-39.44c10.68-22.02,36.79-20.99,48.8-9.5C472.46,368.37,473.93,370.56,475.67,372.67z M475.67,397.9
				c0.01-3.14-0.56-7.14-2.45-10.85c-2.88-5.65-7.32-9.02-13.84-9.23c-6.71-0.22-11.77,2.7-14.63,8.66
				c-4.07,8.48-4.02,17.18,0.35,25.56c5.61,10.75,21.31,10.64,27.3,0.3C474.81,408.14,475.68,403.62,475.67,397.9z"/>
			<path d="M704.03,324.44c0,16.11,0,32.13,0,48.17c0.25-0.04,0.4-0.02,0.43-0.07c4.28-7.69,11.13-11.76,19.51-13.25
				c11.95-2.12,22.26,0.99,30.08,10.64c4.76,5.88,7.2,12.79,8.18,20.19c1.21,9.1,0.85,18.15-2.26,26.89
				c-3.2,8.97-8.62,16.07-17.64,19.91c-11.45,4.87-26.51,1.78-34.63-7.11c-1.27-1.38-2.29-2.99-3.58-4.69c0,4.22,0,8.29,0,12.46
				c-8.26,0-16.32,0-24.46,0c0-37.72,0-75.38,0-113.15C687.72,324.44,695.73,324.44,704.03,324.44z M704.04,399.86
				c-0.02,3.12,0.58,7.13,2.43,10.84c2.66,5.35,6.8,8.77,12.95,9.26c6.47,0.51,11.81-1.75,14.99-7.45
				c4.98-8.92,5.14-18.25,0.04-27.09c-6.04-10.45-20.71-10.28-27.05,0C704.87,389.55,704.04,394.1,704.04,399.86z"/>
			<path d="M169.57,437.63c-8.21,0-16.23,0-24.36,0c0-37.71,0-75.38,0-113.17c8.04,0,16.1,0,24.35,0c0,21.85,0,43.66,0,65.86
				c0.72-0.68,1.16-1.07,1.57-1.49c8.95-9.2,17.88-18.42,26.88-27.57c0.61-0.62,1.69-1.1,2.56-1.11c8.43-0.08,16.85-0.05,25.76-0.05
				c-9.26,9.6-18.25,18.92-27.28,28.28c10.88,16.4,21.72,32.73,32.72,49.31c-0.81,0-1.29,0-1.77,0c-8.21,0-16.42-0.02-24.63,0.03
				c-1.08,0.01-1.69-0.33-2.26-1.24c-6.78-10.75-13.61-21.47-20.43-32.19c-0.35-0.56-0.72-1.1-1.17-1.78
				c-3.89,3.74-7.69,7.35-11.41,11.03c-0.39,0.39-0.5,1.2-0.5,1.81c-0.03,6.75-0.02,13.49-0.02,20.24
				C169.57,436.22,169.57,436.83,169.57,437.63z"/>
			<path d="M814.31,439.35c-7.49-0.19-14.67-1.52-21.37-4.94c-8.58-4.38-14.64-11.06-17.86-20.13c-3.54-9.94-3.65-20.02-0.26-29.99
				c3.87-11.4,11.74-19.12,23.11-22.92c12.6-4.21,25.22-3.96,37.32,1.81c12,5.72,18.64,15.62,20.56,28.61
				c1.35,9.11,0.51,18.05-3.73,26.39c-5.89,11.61-15.72,17.9-28.29,20.17C820.66,438.91,817.47,439.03,814.31,439.35z
				 M831.42,399.64c0-4.83-0.58-8.78-2.4-12.45c-2.69-5.42-6.88-8.87-13.09-9.34c-6.4-0.48-11.69,1.8-14.86,7.42
				c-5.02,8.92-5.17,18.26-0.01,27.08c6.1,10.43,20.77,10.14,27.05-0.2C830.59,408.07,831.38,403.57,831.42,399.64z"/>
			<path d="M596.24,402.86c-19.93,0-39.23,0-58.54,0c0.14,8.85,5.08,17.04,13.02,18.78c9.36,2.04,17.99-2.32,21.28-10.79
				c0.16-0.42,0.81-0.97,1.18-0.93c7.31,0.77,14.62,1.61,22.06,2.45c-0.95,4.92-3.01,9.11-6.1,12.81
				c-6.11,7.31-14.16,11.24-23.36,12.97c-9.96,1.86-19.83,1.55-29.25-2.53c-12.72-5.5-19.86-15.44-22.13-28.93
				c-1.43-8.52-0.79-16.91,2.61-24.93c5.12-12.06,14.45-19.17,27.07-21.92c9.68-2.11,19.34-1.75,28.59,2.18
				c12.24,5.21,19.41,14.66,22.07,27.5C595.65,393.78,595.75,398.21,596.24,402.86z M538.27,391.41c11.02,0,22.03,0,33.05,0
				c-0.12-8.37-7.69-16.14-15.86-16.37C546.74,374.79,538.92,382.2,538.27,391.41z"/>
			<path d="M314.75,420.54c0,5.19,0.02,10.14-0.04,15.09c-0.01,0.4-0.51,1-0.91,1.15c-5.92,2.14-12.05,3.2-18.24,1.82
				c-5.52-1.23-9.12-4.92-10.71-10.42c-0.15-0.53-0.3-1.07-0.46-1.6c-0.01-0.04-0.08-0.06-0.13-0.08c-0.1,0.02-0.25,0-0.3,0.06
				c-7.6,9.24-17.59,12.91-29.3,12.54c-4.59-0.14-8.95-1.21-12.9-3.63c-6.74-4.13-9.93-10.24-9.66-18.06
				c0.37-10.49,5.19-16.96,16.32-20.44c9.77-3.05,19.82-5.22,29.75-7.76c1.67-0.43,3.37-0.73,5.02-1.09
				c1.29-7.42-1.77-12.86-8.06-14.2c-3.94-0.84-7.8-0.53-11.32,1.62c-3.64,2.22-5.11,5.72-5.43,9.91
				c-7.47-0.49-14.8-0.97-22.26-1.46c-0.02-3.96,0.98-7.49,2.97-10.72c3.71-6.04,9.27-9.77,15.88-11.85
				c12.48-3.93,24.95-4.2,37.06,1.35c7.88,3.61,12.95,9.71,14.42,18.43c0.3,1.8,0.35,3.66,0.36,5.5c0.03,9.2,0.01,18.4,0.02,27.59
				c0,0.78,0.01,1.56,0.08,2.34c0.31,3.24,2.21,4.74,5.45,4.33C313.07,420.86,313.78,420.71,314.75,420.54z M283.38,400.44
				c-6.43,1.7-12.49,3.17-18.46,4.95c-2.2,0.66-4.28,1.89-6.23,3.14c-2.83,1.81-4.04,4.57-3.52,7.91c0.52,3.36,2.75,5.47,5.88,6.12
				c2.67,0.56,5.56,0.71,8.25,0.34c6.23-0.85,10.91-4.11,13.17-10.17C283.91,408.87,283.29,404.83,283.38,400.44z"/>
			<path d="M351.52,360.23c0,4.12,0,8.07,0,12.31c0.38-0.36,0.63-0.52,0.78-0.75c4.87-7.46,12.05-11.34,20.6-12.6
				c3.68-0.54,7.66-0.58,11.28,0.19c10.57,2.27,16.18,9.65,18.56,19.72c0.68,2.9,0.92,5.96,0.94,8.95c0.09,16,0.04,32,0.04,48
				c0,0.49-0.05,0.98-0.08,1.56c-8.1,0-16.12,0-24.4,0c0-0.65,0-1.29,0-1.93c0-14.11,0.04-28.21-0.04-42.32
				c-0.01-2.37-0.25-4.84-0.97-7.07c-1.55-4.8-4.97-7.78-10.07-8.37c-5.65-0.65-10.35,1.16-13.64,5.97
				c-2.08,3.04-2.96,6.48-2.96,10.12c-0.03,13.83-0.02,27.65-0.03,41.48c0,0.66,0,1.32,0,2.09c-8.17,0-16.23,0-24.38,0
				c0-25.77,0-51.51,0-77.36C335.22,360.23,343.27,360.23,351.52,360.23z"/>
			<path d="M664.85,383.34c-3.75-2.18-7.54-3.36-11.65-3.32c-8.35,0.09-14.93,5.14-17.48,13.71c-0.77,2.58-1.26,5.35-1.29,8.04
				c-0.15,11.26-0.07,22.51-0.08,33.77c0,0.66,0,1.31,0,2.07c-8.16,0-16.17,0-24.33,0c0-25.73,0-51.49,0-77.37
				c8.02,0,16.07,0,24.3,0c0,5.18,0,10.32,0,15.47c3.69-8.55,9.62-14.49,18.83-16.52c5.89-1.3,11.6-0.25,17.16,2.28
				C668.48,368.76,666.7,375.93,664.85,383.34z"/>
			<path d="M925.22,383.35c-4.8-2.82-9.68-3.98-14.88-3.04c-7.54,1.38-11.97,6.32-14.22,13.32c-0.82,2.56-1.29,5.34-1.32,8.03
				c-0.15,11.26-0.08,22.51-0.09,33.77c0,0.67,0,1.33,0,2.13c-8.13,0-16.18,0-24.35,0c0-25.73,0-51.5,0-77.36
				c8.05,0,16.06,0,24.25,0c0,5.13,0,10.29,0,15.44c0.13,0.07,0.25,0.13,0.38,0.2c2.71-7.16,7.35-12.51,14.43-15.43
				c7.15-2.95,14.17-1.94,21.26,0.97C928.86,368.73,927.06,375.94,925.22,383.35z"/>
		</g>
		<g>
			<path d="M146.01,505.89c-3.02,0.42-5.23,0.72-7.46,1.03c-0.93-2.45-1.67-4.8-2.7-7.05c-4.7-10.26-12.31-18.22-24.38-22.25
				c-15.25-5.09-32.55-0.86-43.2,10.35c-7.1,7.47-10.8,16.25-12.36,25.73c-2.16,13.15-1.34,26.1,4.37,38.59
				c3.11,6.79,7.7,12.69,14.49,17.12c13.61,8.89,32.33,8.38,46.02-1.42c10.63-7.6,16.18-17.66,17.86-29.43
				c0.35-2.47,0.43-4.97,0.66-7.75c-15,0-29.72,0-44.57,0c0-2.13,0-3.98,0-5.94c17.28,0,34.42,0,51.7,0c0,18.51,0,36.92,0,55.47
				c-2.22,0-4.42,0-6.8,0c0-8.56,0-17.07,0-25.58c-0.18-0.06-0.35-0.11-0.53-0.17c-0.31,0.6-0.63,1.21-0.93,1.81
				c-5.44,10.85-13.98,19.04-26.93,23.18c-20.39,6.51-41.25,0.23-52.88-15.77c-6.29-8.66-9.35-18.26-10.47-28.37
				c-1.42-12.77-0.49-25.34,4.96-37.41c5.12-11.33,13.31-20.41,26.42-25.33c21.05-7.91,48.75-2.9,61.7,21.09
				C143.01,497.57,144.27,501.64,146.01,505.89z"/>
			<path d="M732.66,507.93c1.95,0,3.88,0,5.99,0c0,4.6,0,9.09,0,14.23c5.48-11.08,14.25-15.86,25.67-15.7
				c11.74,0.16,19.58,6.14,23.72,17.38c0.39-0.72,0.68-1.22,0.93-1.73c6.42-13.03,22-19.27,35.54-13.99
				c9.12,3.55,13.8,10.74,15.36,20.16c0.31,1.86,0.43,3.78,0.43,5.67c0.03,14.91,0.02,29.82,0.02,44.73c0,0.53,0,1.06,0,1.71
				c-2.09,0-4,0-6.12,0c0-0.9,0-1.7,0-2.49c0-14.44,0.09-28.87-0.07-43.31c-0.04-3.26-0.49-6.69-1.58-9.74
				c-2.75-7.66-8.52-11.93-16.59-12.7c-13.96-1.33-24.29,7.45-26.05,21.98c-0.28,2.28-0.39,4.59-0.4,6.89
				c-0.04,12.34-0.02,24.67-0.02,37.01c0,0.73,0,1.47,0,2.34c-2.06,0-3.98,0-6.12,0c0-0.85,0-1.64,0-2.43
				c0-14.44,0.06-28.87-0.06-43.31c-0.02-2.94-0.41-5.98-1.22-8.8c-2.26-7.81-9.03-13.07-17.13-13.72
				c-13.82-1.1-24.12,7.54-25.87,21.79c-0.28,2.28-0.42,4.59-0.42,6.89c-0.04,12.4-0.02,24.81-0.02,37.21c0,0.74,0,1.48,0,2.37
				c-2.03,0-3.94,0-5.99,0C732.66,556.25,732.66,532.15,732.66,507.93z"/>
			<path d="M244.68,507.92c1.97,0,3.9,0,6.01,0c0,4.61,0,9.1,0,14.22c5.47-11.07,14.24-15.84,25.66-15.69
				c11.74,0.16,19.57,6.15,23.73,17.41c0.42-0.81,0.72-1.37,1.01-1.95c6.47-13.01,22.42-19.17,35.84-13.65
				c8.89,3.66,13.45,10.77,14.97,20.01c0.3,1.8,0.42,3.64,0.43,5.46c0.03,14.98,0.02,29.96,0.02,44.94c0,0.53,0,1.05,0,1.7
				c-2.04,0-3.92,0-6.12,0c0-0.75,0-1.53,0-2.3c0-14.5,0.09-29.01-0.07-43.51c-0.04-3.26-0.49-6.69-1.58-9.74
				c-2.75-7.66-8.53-11.92-16.6-12.69c-13.97-1.32-24.28,7.46-26.04,22c-0.28,2.28-0.39,4.59-0.4,6.89
				c-0.04,12.34-0.02,24.67-0.02,37.01c0,0.73,0,1.47,0,2.33c-2.07,0-3.99,0-6.12,0c0-0.79,0-1.52,0-2.25
				c0-14.5,0.06-29.01-0.06-43.51c-0.02-2.94-0.41-5.98-1.22-8.8c-2.26-7.81-9.04-13.07-17.14-13.71
				c-13.82-1.1-24.12,7.56-25.85,21.8c-0.28,2.28-0.41,4.59-0.42,6.89c-0.04,12.4-0.02,24.81-0.02,37.21c0,0.74,0,1.47,0,2.36
				c-2.04,0-3.95,0-6,0C244.68,556.24,244.68,532.15,244.68,507.92z"/>
			<path d="M525.14,575.95c0,1.29,0.14,2.52-0.06,3.7c-0.1,0.56-0.74,1.24-1.31,1.48c-6.79,2.82-13.27-1.08-14.01-8.44
				c-0.18-1.79-0.03-3.61-0.03-5.39c-0.4,0-0.59-0.05-0.63,0.01c-6.95,10.3-17.1,14.29-29.05,14.65c-4.66,0.14-9.2-0.53-13.41-2.68
				c-6.23-3.18-9.81-8.19-10.14-15.27c-0.33-7.13,2.26-12.8,8.49-16.63c5.75-3.54,12.14-5.31,18.62-6.75
				c7.93-1.76,15.91-3.28,23.86-4.91c0.66-0.13,1.31-0.27,2.29-0.48c-0.16-3.55-0.08-7.08-0.55-10.53c-0.5-3.67-2.7-6.57-5.83-8.44
				c-9.23-5.52-18.87-6.01-28.46-1.16c-5.37,2.72-8.5,7.43-9.27,13.53c-0.08,0.66-0.22,1.31-0.36,2.1
				c-1.95-0.17-3.81-0.33-6.15-0.53c0.42-2.3,0.57-4.53,1.24-6.59c3.23-10,10.72-14.98,20.61-16.68c7.33-1.26,14.63-0.74,21.52,2.3
				c8.69,3.82,13.42,10.25,13.28,20.11c-0.19,13.35,0.09,26.7-0.11,40.04c-0.09,5.93,2.98,8.19,8.47,6.69
				C524.42,576,524.69,576,525.14,575.95z M509.51,540.31c-11.08,2.57-21.9,4.98-32.65,7.66c-2.64,0.66-5.15,2.07-7.53,3.46
				c-5.28,3.08-7.24,7.92-6.36,13.83c0.83,5.62,4.57,9.02,9.77,10.24c11.29,2.64,21.53,0.22,30.09-7.84
				c3.81-3.58,6.28-8.07,6.62-13.36C509.74,549.86,509.51,545.38,509.51,540.31z"/>
			<path d="M591.85,530.07c-2.01,0.17-3.94,0.34-5.88,0.51c-0.29-1.75-0.42-3.3-0.81-4.79c-1.57-6.03-5.43-10.17-11.19-12.23
				c-7.39-2.64-14.83-2.25-21.94,1.11c-4.56,2.16-7.56,5.65-7.79,11.01c-0.17,3.95,1.26,7.25,4.76,8.99
				c3.35,1.66,6.99,2.86,10.63,3.82c6.02,1.58,12.21,2.54,18.18,4.27c3.38,0.98,6.71,2.6,9.64,4.56c8.94,5.98,8.9,20.69,0.91,27.38
				c-4.63,3.87-9.98,5.9-15.86,6.73c-7.28,1.02-14.5,0.92-21.42-1.82c-8.54-3.38-14.14-9.35-15.57-18.71
				c-0.15-0.98-0.14-1.98-0.22-3.14c2.11-0.2,4.04-0.38,6.06-0.56c0.22,1.42,0.35,2.69,0.63,3.92c1.75,7.54,6.69,12.14,13.91,14.19
				c7.36,2.1,14.78,1.77,21.94-1.02c2.22-0.87,4.39-2.22,6.16-3.82c5.66-5.11,5.25-13.93-0.66-18.75
				c-3.08-2.51-6.73-3.75-10.51-4.61c-6.27-1.42-12.59-2.65-18.84-4.14c-2.42-0.58-4.82-1.43-7.06-2.51
				c-12.21-5.84-10.52-20.6-4.11-26.36c2.09-1.87,4.45-3.67,7-4.75c8.88-3.79,18.06-4.11,27.16-0.85
				C586.46,511.88,592.47,520.71,591.85,530.07z"/>
			<path d="M225.08,507.77c-2.28-0.33-3.37,0.54-4.29,2.75c-8.53,20.43-17.2,40.8-25.84,61.18c-0.36,0.85-0.75,1.69-1.25,2.85
				c-0.44-0.92-0.74-1.49-0.99-2.09c-3.04-7.24-6.07-14.49-9.11-21.73c-5.73-13.68-11.45-27.36-17.21-41.02
				c-0.3-0.72-0.94-1.75-1.53-1.82c-1.84-0.24-3.72-0.09-5.87-0.09c0.4,1,0.65,1.67,0.93,2.34c9.97,23.27,19.96,46.54,29.89,69.84
				c0.35,0.82,0.46,2.01,0.14,2.81c-2.03,5.17-4.12,10.32-6.39,15.38c-1.08,2.41-2.43,4.75-3.97,6.91h6.72
				c1.23-2.02,2.33-4.13,3.27-6.27c6.8-15.5,13.34-31.11,19.97-46.69c6.23-14.64,12.46-29.28,18.86-44.33
				C227.07,507.79,226.05,507.91,225.08,507.77z"/>
			<path d="M699.61,507.9c2.13,0,4,0,6,0c0,24.19,0,48.28,0,72.48c-1.93,0-3.81,0-5.9,0c0-4.45,0-8.95,0-13.48
				c-0.34,0.06-0.52,0.05-0.55,0.11c-5.73,11.35-15.53,15.49-27.53,14.83c-14.52-0.8-23.77-10.42-24.17-25.47
				c-0.42-15.85-0.12-31.72-0.12-47.58c0-0.25,0.09-0.51,0.16-0.87c1.93,0,3.79,0,5.99,0c0,0.8,0,1.58,0,2.36
				c0,14.37-0.08,28.74,0.06,43.11c0.03,3.21,0.36,6.58,1.41,9.57c2.88,8.21,9,12.66,17.64,13.43c16.8,1.51,25.18-10.79,26.6-22.36
				c0.27-2.21,0.39-4.46,0.39-6.69c0.04-12.34,0.02-24.67,0.02-37.01C699.61,509.59,699.61,508.85,699.61,507.9z"/>
			<path d="M437.74,580.41c-2.13,0-4,0-6.12,0c0-0.87,0-1.66,0-2.45c0-14.23,0.05-28.47-0.05-42.7c-0.02-2.68-0.29-5.45-0.99-8.03
				c-2.28-8.5-9.61-14.4-18.41-15.13c-14.94-1.24-26.07,7.91-27.74,22.85c-0.24,2.15-0.36,4.32-0.36,6.49
				c-0.03,12.2-0.02,24.4-0.02,36.6c0,0.73,0,1.47,0,2.33c-2.07,0-3.99,0-6.02,0c0-24.16,0-48.25,0-72.46c1.97,0,3.85,0,5.98,0
				c0,4.58,0,9.12,0,13.65c0.15,0.06,0.3,0.12,0.45,0.17c0.08-0.17,0.16-0.34,0.24-0.52c6.46-14.54,26.89-18.33,39.16-11.76
				c7.94,4.25,12.09,11.2,13.42,19.95c0.28,1.8,0.41,3.64,0.42,5.47c0.03,14.64,0.02,29.28,0.02,43.92
				C437.74,579.27,437.74,579.73,437.74,580.41z"/>
			<path d="M620.89,580.4c-1.99,0-3.86,0-5.85,0c0-24.19,0-48.27,0-72.48c1.95,0,3.82,0,5.85,0
				C620.89,532.03,620.89,556.11,620.89,580.4z"/>
		</g>
		<circle cx="621.84" cy="479.9" r="6.8"/>
		<g>
			<circle class="st0" cx="846.47" cy="147.12" r="125.2"/>
			<path d="M832.25,200.83c-5.32-12.58-11.05-25.13-17.87-37.61c-2.54-4.65-5.69-6.56-8.79-5.55c-5.39,1.76-9.13,5.67-12.9,9.48
				c-3.48,3.51-6.56,7.47-9.81,11.24c-1.71,1.98-3.4,3.98-5.49,5.65c0.35-0.73,0.59-1.58,1.07-2.18c3.47-4.43,7.04-8.75,10.44-13.25
				c0.72-0.96,0.97-2.46,1.24-3.84c0.29-1.43-0.53-2.5-1.86-2.27c-2.21,0.38-4.46,0.85-6.2,1.94c-4.24,2.65-8.2,5.69-12.28,8.55
				c-0.31,0.22-0.72,0.3-1.09,0.45c-0.14-0.2-0.28-0.4-0.41-0.59c0.24-0.27,0.46-0.57,0.74-0.8c7.43-5.92,14.97-11.72,22.24-17.84
				c1.7-1.43,2.84-3.7,3.69-6.04c1.4-3.88-2.65-11.91-7.71-15.39c-6.94-4.77-13.91-9.31-20.86-13.95c-4.64-3.09-9.27-6.16-13.9-9.3
				c-0.51-0.35-0.96-1.14-1.43-1.72c0.35-0.18,0.63-0.56,1.06-0.52c11.24,1.08,22.64,2.64,35.1,8.32c4.33,1.97,8.71,4.35,13.06,6.84
				c2.69,1.54,5.02,4.15,7.11,7c2.31,3.15,3.33,3.65,5.58,2.88c1.88-0.64,3.99-0.52,6.54,1.24c0.55,0.38,1.48,1.8,1.41,2.15
				c-1.08,5.06,1.64,11.1,4.12,17.11c5.37,13.02,8.91,25.62,9.86,37.54c0.18,2.3,0.2,4.53,0.17,6.74
				c7.38-10.09,14.45-22.46,20.79-37.66c5.09-12.2,13.08-24.33,22.83-34.98c-0.96-2.45-1.94-4.9-2.97-7.35
				c-2.05-4.89-4.99-7.1-8.17-6.41c-5.54,1.2-9.66,4.71-13.8,8.12c-3.82,3.14-7.29,6.76-10.91,10.18c-1.9,1.8-3.79,3.61-6.04,5.06
				c0.42-0.69,0.75-1.51,1.28-2.06c3.9-4.05,7.9-7.99,11.74-12.12c0.82-0.88,1.21-2.34,1.63-3.69c0.43-1.4-0.28-2.54-1.62-2.45
				c-2.24,0.15-4.52,0.39-6.37,1.3c-4.49,2.21-8.73,4.82-13.09,7.26c-0.33,0.19-0.75,0.23-1.13,0.34c-0.12-0.21-0.23-0.42-0.35-0.63
				c0.27-0.24,0.51-0.52,0.81-0.72c8-5.13,16.08-10.13,23.94-15.48c1.84-1.25,3.2-3.39,4.28-5.63c1.79-3.72-1.43-12.12-6.1-16.09
				c-6.41-5.45-12.89-10.68-19.33-16.01c-4.3-3.55-8.6-7.07-12.88-10.67c-0.48-0.4-0.84-1.23-1.25-1.86
				c0.37-0.14,0.68-0.49,1.1-0.41c11.08,2.22,22.25,4.93,34.07,11.86c4.11,2.41,8.22,5.21,12.29,8.14c2.52,1.81,4.57,4.64,6.36,7.69
				c1.97,3.36,2.94,3.97,5.26,3.44c1.93-0.44,4.02-0.11,6.38,1.9c0.51,0.44,1.29,1.94,1.18,2.28c-1.59,4.92,0.5,11.21,2.36,17.44
				c0.64,2.14,1.21,4.26,1.75,6.37c20.64-18.13,46.32-29.14,69.16-23.29c-20.69-40.97-63.14-69.06-112.17-69.06
				c-69.36,0-125.59,56.23-125.59,125.59c0,37.15,16.13,70.53,41.77,93.52C775.6,240.44,805.53,234.98,832.25,200.83z"/>
			<path d="M960.36,95.35c-14.95,2.88-48.54,18.03-81.22,92.64c-32.37,73.89-84.59,67.44-109.63,59.05
				c21.2,16.33,47.75,26.06,76.58,26.06c69.36,0,125.59-56.23,125.59-125.59C971.67,128.9,967.62,111.24,960.36,95.35z"/>
		</g>
	</g>
</g>
</svg>
