<?xml version="1.0" encoding="utf-8"?>
<!-- Generator: Adobe Illustrator 25.1.0, SVG Export Plug-In . SVG Version: 6.00 Build 0)  -->
<svg version="1.1" xmlns="http://www.w3.org/2000/svg" xmlns:xlink="http://www.w3.org/1999/xlink" x="0px" y="0px"
	 viewBox="0 0 1000.09 297.61" style="enable-background:new 0 0 1000.09 297.61;" xml:space="preserve">
<style type="text/css">
	.st0{fill:#FFFFFF;}
</style>
<g id="Layer_3">
	<rect width="1000.09" height="297.61"/>
</g>
<g id="Layer_2">
	<path class="st0" d="M442.7,285.57c-2.19,0-3.97-1.78-3.97-3.97s1.78-3.97,3.97-3.97c2.19,0,3.97,1.78,3.97,3.97
		S444.89,285.57,442.7,285.57z"/>
	<path class="st0" d="M442.7,263.43c-2.19,0-3.97-1.78-3.97-3.97c0-2.19,1.78-3.97,3.97-3.97c2.19,0,3.97,1.78,3.97,3.97
		C446.66,261.65,444.89,263.43,442.7,263.43z"/>
	<path class="st0" d="M442.7,241.29c-2.19,0-3.97-1.78-3.97-3.97c0-2.19,1.78-3.97,3.97-3.97c2.19,0,3.97,1.78,3.97,3.97
		C446.66,239.51,444.89,241.29,442.7,241.29z"/>
	<path class="st0" d="M442.7,219.15c-2.19,0-3.97-1.78-3.97-3.97c0-2.19,1.78-3.97,3.97-3.97c2.19,0,3.97,1.78,3.97,3.97
		C446.66,217.37,444.89,219.15,442.7,219.15z"/>
	<path class="st0" d="M442.7,197.01c-2.19,0-3.97-1.78-3.97-3.97s1.78-3.97,3.97-3.97c2.19,0,3.97,1.78,3.97,3.97
		S444.89,197.01,442.7,197.01z"/>
	<path class="st0" d="M985.75,223.49c-1.02-0.42-1.89-1.05-2.62-1.89c-0.73-0.84-1.29-1.88-1.7-3.11s-0.61-2.67-0.61-4.29
		c0-1.49,0.21-2.81,0.63-3.96s1-2.12,1.74-2.92s1.6-1.4,2.58-1.81c0.98-0.42,2.03-0.62,3.15-0.62c1.18,0,2.34,0.17,3.47,0.51
		s2.12,0.89,2.98,1.65v14.4c-0.29,0.36-0.63,0.69-1.03,1.02s-0.86,0.61-1.38,0.85c-0.52,0.25-1.11,0.45-1.75,0.6
		s-1.35,0.23-2.13,0.23C987.87,224.12,986.76,223.91,985.75,223.49z M995.37,225.72c0,1.79-0.15,3.28-0.46,4.44s-0.77,2.1-1.38,2.78
		c-0.62,0.69-1.41,1.16-2.36,1.44s-2.09,0.41-3.39,0.41c-0.8,0-1.59-0.08-2.39-0.23s-1.57-0.36-2.31-0.62
		c-0.75-0.26-1.44-0.58-2.09-0.95s-1.23-0.78-1.74-1.22l-2.54,3.83c0.78,0.66,1.63,1.22,2.55,1.68s1.87,0.83,2.84,1.13
		c0.97,0.29,1.96,0.51,2.96,0.65s1.96,0.2,2.87,0.2c4.16,0,7.23-1.07,9.2-3.2s2.96-5.28,2.96-9.45v-25.26h-4.72v1.35
		c-1-0.73-2.03-1.24-3.08-1.54c-1.06-0.29-2.25-0.44-3.57-0.44c-1.93,0-3.68,0.33-5.26,0.98c-1.57,0.65-2.92,1.56-4.04,2.74
		c-1.12,1.18-1.98,2.6-2.59,4.27c-0.61,1.67-0.91,3.52-0.91,5.55c0,2.23,0.32,4.22,0.95,5.95c0.63,1.74,1.51,3.2,2.64,4.39
		c1.13,1.19,2.45,2.1,3.99,2.71c1.53,0.62,3.19,0.93,4.96,0.93c1.46,0,2.75-0.25,3.9-0.76s2.15-1.22,3.01-2.13V225.72z
		 M950.51,210.26c0.43-1.24,1.02-2.27,1.78-3.1s1.62-1.46,2.62-1.88s2.04-0.63,3.16-0.63c1.17,0,2.26,0.21,3.28,0.63
		s1.89,1.05,2.63,1.88s1.32,1.86,1.74,3.1s0.63,2.65,0.63,4.24c0,1.52-0.21,2.89-0.63,4.11s-1.01,2.26-1.75,3.11
		c-0.75,0.86-1.62,1.51-2.63,1.97s-2.09,0.69-3.26,0.69c-1.12,0-2.17-0.23-3.16-0.7c-0.99-0.47-1.86-1.13-2.62-1.98
		c-0.75-0.86-1.35-1.89-1.78-3.11s-0.65-2.58-0.65-4.09C949.87,212.91,950.08,211.5,950.51,210.26z M945.85,220.16
		c0.64,1.71,1.54,3.18,2.69,4.4c1.15,1.23,2.53,2.18,4.14,2.86s3.4,1.02,5.38,1.02c1.95,0,3.73-0.34,5.34-1.03
		c1.62-0.68,3-1.64,4.15-2.88s2.05-2.71,2.69-4.43c0.64-1.72,0.96-3.6,0.96-5.65c0-2.08-0.32-3.98-0.96-5.69s-1.54-3.17-2.69-4.38
		c-1.15-1.21-2.54-2.15-4.15-2.81s-3.4-0.99-5.34-0.99c-1.93,0-3.7,0.33-5.31,0.99s-3,1.6-4.16,2.83c-1.17,1.23-2.08,2.7-2.73,4.41
		s-0.99,3.61-1,5.69C944.88,216.57,945.21,218.45,945.85,220.16z M920.15,193.33c0.18,0.41,0.42,0.77,0.71,1.08
		c0.3,0.31,0.65,0.56,1.05,0.74c0.41,0.18,0.84,0.27,1.29,0.27c0.44,0,0.86-0.09,1.26-0.27c0.4-0.18,0.75-0.42,1.04-0.74
		c0.3-0.31,0.53-0.67,0.71-1.08s0.27-0.84,0.27-1.29c0-0.44-0.09-0.86-0.27-1.26c-0.18-0.4-0.42-0.75-0.71-1.04
		c-0.3-0.29-0.64-0.53-1.04-0.71c-0.4-0.18-0.82-0.27-1.26-0.27c-0.46,0-0.89,0.09-1.29,0.27c-0.41,0.18-0.76,0.42-1.05,0.71
		c-0.3,0.3-0.53,0.64-0.71,1.04c-0.18,0.4-0.27,0.82-0.27,1.26C919.88,192.49,919.97,192.92,920.15,193.33z M916.96,205.72h3.81
		v17.57h-3.76v4.37h12.49v-4.37h-3.96v-21.94h-8.58V205.72z M865.42,205.72h3.66v17.57h-3.66v4.37h12.29v-4.37H874v-15.41
		c1-0.78,2.06-1.43,3.17-1.96s2.23-0.79,3.33-0.79c1.91,0,3.38,0.52,4.41,1.56c1.02,1.04,1.54,2.57,1.54,4.58v12.01h-3.71v4.37H895
		v-4.37h-3.63V208c0.85-0.83,1.86-1.52,3.05-2.06s2.34-0.81,3.48-0.81c1.91,0,3.38,0.52,4.39,1.56c1.02,1.04,1.52,2.57,1.52,4.58
		v12.01h-3.71v4.37h12.29v-4.37h-3.66v-12.59c0-1.69-0.21-3.16-0.62-4.41c-0.42-1.24-1.02-2.26-1.82-3.06s-1.76-1.39-2.89-1.78
		s-2.41-0.58-3.83-0.58c-0.91,0-1.79,0.12-2.64,0.36s-1.65,0.55-2.42,0.94s-1.51,0.85-2.22,1.38c-0.71,0.54-1.39,1.09-2.03,1.66
		c-0.75-1.49-1.8-2.59-3.17-3.29c-1.37-0.7-3-1.05-4.9-1.05c-0.81,0-1.6,0.09-2.35,0.28s-1.48,0.44-2.17,0.76s-1.36,0.7-1.99,1.13
		c-0.63,0.43-1.24,0.89-1.82,1.38h-0.05v-3.07h-8.38V205.72z M851.82,205.13c0.8,0.34,1.45,0.81,1.96,1.42s0.88,1.33,1.13,2.16
		s0.4,1.73,0.47,2.72h-13.63c0.17-1.05,0.43-2,0.77-2.84s0.81-1.56,1.38-2.15c0.58-0.58,1.27-1.03,2.09-1.34
		c0.82-0.31,1.78-0.47,2.88-0.47C850.04,204.62,851.03,204.79,851.82,205.13z M860.43,215.11c0-0.63-0.01-1.27-0.04-1.93
		s-0.08-1.31-0.17-1.96c-0.17-1.32-0.47-2.62-0.9-3.88s-1.07-2.4-1.9-3.39c-0.84-0.99-1.92-1.79-3.25-2.39
		c-1.33-0.6-2.98-0.9-4.96-0.9c-2.05,0-3.84,0.36-5.38,1.09s-2.83,1.71-3.87,2.96c-1.04,1.25-1.82,2.7-2.35,4.37
		c-0.52,1.67-0.79,3.44-0.79,5.32c0,2.32,0.31,4.35,0.93,6.09s1.47,3.2,2.56,4.37s2.4,2.05,3.91,2.64s3.16,0.89,4.94,0.89
		c1.88,0,3.69-0.29,5.43-0.86s3.48-1.46,5.21-2.64l-1.9-3.22c-1.42,0.81-2.78,1.41-4.08,1.79c-1.29,0.38-2.63,0.57-4,0.57
		c-1.74,0-3.3-0.43-4.68-1.28c-1.38-0.85-2.38-2.13-3.01-3.82c-0.2-0.56-0.36-1.15-0.47-1.77c-0.11-0.62-0.17-1.3-0.17-2.04H860.43z
		 M815.38,223.49c-1.02-0.42-1.89-1.05-2.62-1.89c-0.73-0.84-1.29-1.88-1.7-3.11s-0.61-2.67-0.61-4.29c0-1.49,0.21-2.81,0.63-3.96
		s1-2.12,1.74-2.92s1.6-1.4,2.58-1.81c0.98-0.42,2.03-0.62,3.15-0.62c1.15,0,2.28,0.16,3.38,0.48s2.07,0.84,2.92,1.55v14.73
		c-0.8,0.83-1.67,1.45-2.62,1.87c-0.95,0.42-2.12,0.62-3.53,0.62C817.5,224.12,816.39,223.91,815.38,223.49z M821.27,192.51h3.58
		v10.08c-0.96-0.69-1.97-1.18-3.02-1.46c-1.05-0.28-2.21-0.42-3.48-0.42c-1.93,0-3.68,0.33-5.26,0.98
		c-1.57,0.65-2.92,1.56-4.04,2.74c-1.12,1.18-1.98,2.6-2.59,4.27c-0.61,1.67-0.91,3.52-0.91,5.55c0,2.23,0.32,4.22,0.95,5.95
		c0.63,1.74,1.51,3.2,2.64,4.39c1.13,1.19,2.45,2.1,3.99,2.71c1.53,0.62,3.19,0.93,4.96,0.93c1.42,0,2.69-0.24,3.81-0.72
		c1.12-0.48,2.1-1.15,2.95-2.02v2.16h8.58v-4.37h-3.86v-35.14h-8.3V192.51z M785.35,224.16c-0.64-0.18-1.2-0.44-1.66-0.79
		c-0.47-0.35-0.83-0.78-1.08-1.3c-0.25-0.52-0.38-1.12-0.38-1.81c0-0.74,0.15-1.4,0.46-1.98s0.73-1.06,1.28-1.45s1.2-0.69,1.96-0.89
		s1.59-0.3,2.5-0.3h5.48l-0.03,5.94c-0.32,0.37-0.72,0.73-1.19,1.08c-0.47,0.35-0.99,0.65-1.55,0.91c-0.56,0.26-1.15,0.47-1.78,0.62
		s-1.25,0.23-1.88,0.23C786.7,224.43,785.99,224.34,785.35,224.16z M793.88,227.65h7.64v-4.37h-2.92l0.03-13.15
		c0-1.64-0.23-3.05-0.69-4.23c-0.46-1.18-1.11-2.15-1.96-2.91s-1.88-1.32-3.1-1.69c-1.22-0.36-2.59-0.54-4.11-0.54
		c-0.83,0-1.67,0.07-2.53,0.22c-0.85,0.14-1.69,0.34-2.51,0.58c-0.82,0.25-1.6,0.54-2.35,0.89c-0.75,0.35-1.43,0.72-2.06,1.13
		l1.55,3.28c0.37-0.25,0.83-0.49,1.36-0.72c0.53-0.23,1.12-0.43,1.75-0.61c0.63-0.18,1.32-0.32,2.04-0.43
		c0.73-0.11,1.49-0.17,2.29-0.17c0.85,0,1.61,0.11,2.3,0.33s1.27,0.55,1.76,1c0.49,0.45,0.87,1.02,1.14,1.7
		c0.27,0.69,0.41,1.49,0.41,2.43l-0.03,2.16c-0.68-0.13-1.43-0.24-2.26-0.32c-0.83-0.07-1.85-0.11-3.07-0.11
		c-0.76,0-1.56,0.05-2.4,0.16c-0.84,0.11-1.66,0.3-2.46,0.56c-0.8,0.26-1.57,0.61-2.31,1.04c-0.74,0.43-1.38,0.96-1.93,1.6
		c-0.55,0.64-0.99,1.38-1.32,2.25s-0.5,1.85-0.5,2.97c0,1.05,0.22,2.04,0.65,2.97s1.04,1.75,1.82,2.45c0.78,0.7,1.71,1.26,2.78,1.66
		s2.26,0.61,3.54,0.61c1.54,0,2.92-0.3,4.13-0.89s2.31-1.35,3.31-2.29V227.65z M745.04,192.51h4.47v30.77h-4.32v4.37h11.25v-4.37
		h-2.18v-7.39h3.48l10.77,11.76h5.56v-4.37h-3.17l-8.73-9.32l8-8.25h3.33v-4.37h-9.98v4.37h1.57l-6.25,6.45h-4.57v-19.65h0.05v-4.37
		h-9.27V192.51z M724.24,224.16c-0.64-0.18-1.2-0.44-1.66-0.79c-0.47-0.35-0.83-0.78-1.08-1.3c-0.25-0.52-0.38-1.12-0.38-1.81
		c0-0.74,0.15-1.4,0.46-1.98s0.73-1.06,1.28-1.45s1.2-0.69,1.96-0.89s1.59-0.3,2.5-0.3h5.48l-0.03,5.94
		c-0.32,0.37-0.72,0.73-1.19,1.08c-0.47,0.35-0.99,0.65-1.55,0.91c-0.56,0.26-1.15,0.47-1.78,0.62s-1.25,0.23-1.88,0.23
		C725.59,224.43,724.88,224.34,724.24,224.16z M732.77,227.65h7.64v-4.37h-2.92l0.03-13.15c0-1.64-0.23-3.05-0.69-4.23
		c-0.46-1.18-1.11-2.15-1.96-2.91s-1.88-1.32-3.1-1.69c-1.22-0.36-2.59-0.54-4.11-0.54c-0.83,0-1.67,0.07-2.53,0.22
		c-0.85,0.14-1.69,0.34-2.51,0.58c-0.82,0.25-1.6,0.54-2.35,0.89c-0.75,0.35-1.43,0.72-2.06,1.13l1.55,3.28
		c0.37-0.25,0.83-0.49,1.36-0.72c0.53-0.23,1.12-0.43,1.75-0.61c0.63-0.18,1.32-0.32,2.04-0.43c0.73-0.11,1.49-0.17,2.29-0.17
		c0.85,0,1.61,0.11,2.3,0.33s1.27,0.55,1.76,1c0.49,0.45,0.87,1.02,1.14,1.7c0.27,0.69,0.41,1.49,0.41,2.43l-0.03,2.16
		c-0.68-0.13-1.43-0.24-2.26-0.32c-0.83-0.07-1.85-0.11-3.07-0.11c-0.76,0-1.56,0.05-2.4,0.16c-0.84,0.11-1.66,0.3-2.46,0.56
		c-0.8,0.26-1.57,0.61-2.31,1.04c-0.74,0.43-1.38,0.96-1.93,1.6c-0.55,0.64-0.99,1.38-1.32,2.25s-0.5,1.85-0.5,2.97
		c0,1.05,0.22,2.04,0.65,2.97c0.43,0.93,1.04,1.75,1.82,2.45c0.78,0.7,1.71,1.26,2.78,1.66s2.26,0.61,3.54,0.61
		c1.54,0,2.92-0.3,4.13-0.89s2.31-1.35,3.31-2.29V227.65z M707.4,208.41h5.21v-4.37h-2.46c-1.02-1.27-2.16-2.17-3.43-2.69
		s-2.84-0.79-4.72-0.79c-1.46,0-2.75,0.2-3.88,0.58s-2.09,0.93-2.88,1.61c-0.79,0.68-1.39,1.5-1.8,2.45s-0.62,1.98-0.62,3.1
		c0,1.69,0.5,3.1,1.49,4.23c0.99,1.13,2.51,2.05,4.56,2.78l5.03,1.88c1.32,0.47,2.26,1.01,2.81,1.6s0.83,1.31,0.83,2.16
		c0,0.56-0.14,1.06-0.41,1.5s-0.64,0.82-1.1,1.13c-0.47,0.31-1,0.55-1.61,0.71c-0.61,0.16-1.24,0.24-1.9,0.24
		c-0.68,0-1.34-0.08-1.99-0.23s-1.24-0.39-1.75-0.71s-0.93-0.74-1.24-1.26c-0.31-0.52-0.47-1.14-0.47-1.87h-5.26v4.37h2.64
		c0.69,1.08,1.68,1.96,2.97,2.62s2.95,0.99,5,0.99c1.47,0,2.81-0.19,4.01-0.57c1.2-0.38,2.23-0.91,3.08-1.6
		c0.85-0.69,1.51-1.52,1.98-2.49c0.47-0.97,0.7-2.04,0.7-3.21c0-1.74-0.5-3.24-1.5-4.49s-2.58-2.24-4.75-2.97l-5.05-1.78
		c-1.25-0.44-2.15-0.92-2.68-1.44c-0.53-0.52-0.8-1.21-0.8-2.09c0-0.51,0.11-0.97,0.34-1.38c0.23-0.42,0.55-0.77,0.95-1.05
		s0.89-0.51,1.46-0.66s1.19-0.23,1.87-0.23c0.61,0,1.24,0.07,1.88,0.22c0.64,0.14,1.23,0.37,1.75,0.68
		c0.52,0.31,0.95,0.72,1.28,1.22C707.23,207.09,707.4,207.7,707.4,208.41z M662.42,205.72h2.08l8.58,22.34h4.67l8.61-22.34h2.26
		v-4.37h-8.33v4.37h1.6l-6.35,18.13l-6.5-18.13h2.46v-4.37h-9.09V205.72z M658.55,201.2c-0.78-0.03-1.56-0.05-2.34-0.05
		s-1.61,0-2.49,0c-0.66,0-1.27,0.1-1.84,0.29c-0.57,0.19-1.08,0.46-1.55,0.81c-0.47,0.35-0.89,0.75-1.27,1.22
		c-0.38,0.46-0.72,0.97-1.03,1.51v-3.63h-8.4v4.37h3.66l-0.03,17.57h-3.63v4.37h13.05v-4.37h-4.47v-12.7
		c0.17-0.91,0.44-1.71,0.83-2.38c0.38-0.67,0.83-1.22,1.33-1.65c0.51-0.43,1.05-0.75,1.64-0.96c0.58-0.21,1.16-0.32,1.71-0.32v1.62
		h4.82V201.2z M626.03,205.13c0.8,0.34,1.45,0.81,1.96,1.42s0.88,1.33,1.13,2.16s0.4,1.73,0.47,2.72h-13.63
		c0.17-1.05,0.43-2,0.77-2.84s0.81-1.56,1.38-2.15c0.58-0.58,1.27-1.03,2.09-1.34c0.82-0.31,1.78-0.47,2.88-0.47
		C624.26,204.62,625.24,204.79,626.03,205.13z M634.64,215.11c0-0.63-0.01-1.27-0.04-1.93s-0.08-1.31-0.17-1.96
		c-0.17-1.32-0.47-2.62-0.9-3.88s-1.07-2.4-1.9-3.39c-0.84-0.99-1.92-1.79-3.25-2.39c-1.33-0.6-2.98-0.9-4.96-0.9
		c-2.05,0-3.84,0.36-5.38,1.09s-2.83,1.71-3.87,2.96c-1.04,1.25-1.82,2.7-2.35,4.37c-0.52,1.67-0.79,3.44-0.79,5.32
		c0,2.32,0.31,4.35,0.93,6.09s1.47,3.2,2.56,4.37s2.4,2.05,3.91,2.64s3.16,0.89,4.94,0.89c1.88,0,3.69-0.29,5.43-0.86
		s3.48-1.46,5.21-2.64l-1.9-3.22c-1.42,0.81-2.78,1.41-4.08,1.79c-1.29,0.38-2.63,0.57-4,0.57c-1.74,0-3.3-0.43-4.68-1.28
		c-1.38-0.85-2.38-2.13-3.01-3.82c-0.2-0.56-0.36-1.15-0.47-1.77c-0.11-0.62-0.17-1.3-0.17-2.04H634.64z M581.94,205.72h2.08
		l8.58,22.34h4.67l8.61-22.34h2.26v-4.37h-8.33v4.37h1.6l-6.35,18.13l-6.5-18.13h2.46v-4.37h-9.09V205.72z M551.33,192.51h3.61
		v30.77h-3.96v4.37h12.49v-4.37h-3.81v-15.44c0.98-0.78,2.03-1.43,3.15-1.94c1.12-0.52,2.22-0.78,3.3-0.78
		c1.91,0,3.38,0.52,4.41,1.56c1.02,1.04,1.54,2.57,1.54,4.58v12.01h-3.61v4.37h12.49v-4.37h-3.96v-12.59c0-1.69-0.22-3.16-0.65-4.41
		c-0.43-1.24-1.04-2.26-1.84-3.06s-1.76-1.39-2.89-1.78s-2.4-0.58-3.81-0.58c-0.8,0-1.56,0.08-2.29,0.25s-1.43,0.41-2.11,0.71
		s-1.32,0.66-1.94,1.08c-0.62,0.41-1.16,0.86-1.64,1.33h-0.15v-16.1h-8.33V192.51z M548.16,201.2c-0.78-0.03-1.56-0.05-2.34-0.05
		s-1.61,0-2.49,0c-0.66,0-1.27,0.1-1.84,0.29c-0.57,0.19-1.08,0.46-1.55,0.81c-0.47,0.35-0.89,0.75-1.27,1.22
		c-0.38,0.46-0.72,0.97-1.03,1.51v-3.63h-8.4v4.37h3.66l-0.03,17.57h-3.63v4.37h13.05v-4.37h-4.47v-12.7
		c0.17-0.91,0.44-1.71,0.83-2.38c0.38-0.67,0.83-1.22,1.33-1.65c0.51-0.43,1.05-0.75,1.64-0.96c0.58-0.21,1.16-0.32,1.71-0.32v1.62
		h4.82V201.2z M497.79,193.55h3.66v29.73h-3.66v4.37h27.57v-10.87h-5.21v6.5h-13.74v-13.05h11.55v-4.37h-11.55v-12.31h13.74v6.5
		h5.21v-10.89h-27.57V193.55z"/>
	<path class="st0" d="M981.03,263.13c0.8,0.34,1.45,0.81,1.96,1.42s0.88,1.33,1.13,2.16s0.4,1.73,0.47,2.72h-13.63
		c0.17-1.05,0.43-2,0.77-2.84s0.81-1.56,1.38-2.15c0.58-0.58,1.27-1.03,2.09-1.34c0.82-0.31,1.78-0.47,2.88-0.47
		C979.25,262.62,980.23,262.79,981.03,263.13z M989.63,273.11c0-0.63-0.01-1.27-0.04-1.93s-0.08-1.31-0.17-1.96
		c-0.17-1.32-0.47-2.62-0.9-3.88s-1.07-2.4-1.9-3.39c-0.84-0.99-1.92-1.79-3.25-2.39c-1.33-0.6-2.98-0.9-4.96-0.9
		c-2.05,0-3.84,0.36-5.38,1.09s-2.83,1.71-3.87,2.96c-1.04,1.25-1.82,2.7-2.35,4.37c-0.52,1.67-0.79,3.44-0.79,5.32
		c0,2.32,0.31,4.35,0.93,6.09s1.47,3.2,2.56,4.37s2.4,2.05,3.91,2.64s3.16,0.89,4.94,0.89c1.88,0,3.69-0.29,5.43-0.86
		s3.48-1.46,5.21-2.64l-1.9-3.22c-1.42,0.81-2.78,1.41-4.08,1.79c-1.29,0.38-2.63,0.57-4,0.57c-1.74,0-3.3-0.43-4.68-1.28
		c-1.38-0.85-2.38-2.13-3.01-3.82c-0.2-0.56-0.36-1.15-0.47-1.77c-0.11-0.62-0.17-1.3-0.17-2.04H989.63z M950.09,250.51h3.81v30.77
		h-3.81v4.37h12.49v-4.37h-3.96v-35.14h-8.53V250.51z M925.79,268.26c0.43-1.24,1.02-2.27,1.78-3.1s1.62-1.46,2.62-1.88
		s2.04-0.63,3.16-0.63c1.17,0,2.26,0.21,3.28,0.63s1.89,1.05,2.63,1.88s1.32,1.86,1.74,3.1s0.63,2.65,0.63,4.24
		c0,1.52-0.21,2.89-0.63,4.11s-1.01,2.26-1.75,3.11c-0.75,0.86-1.62,1.51-2.63,1.97s-2.09,0.69-3.26,0.69
		c-1.12,0-2.17-0.23-3.16-0.7c-0.99-0.47-1.86-1.13-2.62-1.98c-0.75-0.86-1.35-1.89-1.78-3.11s-0.65-2.58-0.65-4.09
		C925.15,270.91,925.36,269.5,925.79,268.26z M921.13,278.16c0.64,1.71,1.54,3.18,2.69,4.4c1.15,1.23,2.53,2.18,4.14,2.86
		s3.4,1.02,5.38,1.02c1.95,0,3.73-0.34,5.34-1.03c1.62-0.68,3-1.64,4.15-2.88s2.05-2.71,2.69-4.43c0.64-1.72,0.96-3.6,0.96-5.65
		c0-2.08-0.32-3.98-0.96-5.69s-1.54-3.17-2.69-4.38c-1.15-1.21-2.54-2.15-4.15-2.81s-3.4-0.99-5.34-0.99c-1.93,0-3.7,0.33-5.31,0.99
		s-3,1.6-4.16,2.83c-1.17,1.23-2.08,2.7-2.73,4.41s-0.99,3.61-1,5.69C920.16,274.57,920.49,276.45,921.13,278.16z M888.3,250.51
		h4.47v30.77h-4.32v4.37h11.25v-4.37h-2.18v-7.39H901l10.77,11.76h5.56v-4.37h-3.17l-8.73-9.32l8-8.25h3.33v-4.37h-9.98v4.37h1.57
		l-6.25,6.45h-4.57v-19.65h0.05v-4.37h-9.27V250.51z M879.08,266.41h5.21v-4.37h-2.46c-1.02-1.27-2.16-2.17-3.43-2.69
		s-2.84-0.79-4.72-0.79c-1.46,0-2.75,0.2-3.88,0.58s-2.09,0.93-2.88,1.61c-0.79,0.68-1.39,1.5-1.8,2.45s-0.62,1.98-0.62,3.1
		c0,1.69,0.5,3.1,1.49,4.23c0.99,1.13,2.51,2.05,4.56,2.78l5.03,1.88c1.32,0.47,2.26,1.01,2.81,1.6s0.83,1.31,0.83,2.16
		c0,0.56-0.14,1.06-0.41,1.5s-0.64,0.82-1.1,1.13c-0.47,0.31-1,0.55-1.61,0.71c-0.61,0.16-1.24,0.24-1.9,0.24
		c-0.68,0-1.34-0.08-1.99-0.23s-1.24-0.39-1.75-0.71s-0.93-0.74-1.24-1.26c-0.31-0.52-0.47-1.14-0.47-1.87h-5.26v4.37h2.64
		c0.69,1.08,1.68,1.96,2.97,2.62s2.95,0.99,5,0.99c1.47,0,2.81-0.19,4.01-0.57c1.2-0.38,2.23-0.91,3.08-1.6
		c0.85-0.69,1.51-1.52,1.98-2.49c0.47-0.97,0.7-2.04,0.7-3.21c0-1.74-0.5-3.24-1.5-4.49s-2.58-2.24-4.75-2.97l-5.05-1.78
		c-1.25-0.44-2.15-0.92-2.68-1.44c-0.53-0.52-0.8-1.21-0.8-2.09c0-0.51,0.11-0.97,0.34-1.38c0.23-0.42,0.55-0.77,0.95-1.05
		s0.89-0.51,1.46-0.66s1.19-0.23,1.87-0.23c0.61,0,1.24,0.07,1.88,0.22c0.64,0.14,1.23,0.37,1.75,0.68
		c0.52,0.31,0.95,0.72,1.28,1.22C878.92,265.09,879.08,265.7,879.08,266.41z M852.15,251.22c0.16,0.37,0.38,0.7,0.65,0.98
		c0.27,0.28,0.59,0.5,0.95,0.66c0.36,0.16,0.76,0.24,1.18,0.24c0.41,0,0.79-0.08,1.16-0.24c0.36-0.16,0.68-0.38,0.95-0.66
		c0.27-0.28,0.49-0.6,0.65-0.98s0.24-0.77,0.24-1.19c0-0.41-0.08-0.79-0.24-1.14s-0.38-0.67-0.65-0.94s-0.59-0.49-0.95-0.65
		c-0.36-0.16-0.75-0.24-1.16-0.24c-0.42,0-0.82,0.08-1.18,0.24c-0.36,0.16-0.68,0.38-0.95,0.65s-0.49,0.58-0.65,0.94
		s-0.24,0.74-0.24,1.14C851.91,250.45,851.99,250.85,852.15,251.22z M848.79,263.72h3.73v23.44c0,1.98-0.34,3.58-1.03,4.79
		c-0.69,1.21-1.78,1.92-3.29,2.14l0.48,3.53c1.37-0.03,2.59-0.29,3.66-0.76s1.97-1.14,2.7-1.99c0.74-0.85,1.3-1.89,1.69-3.1
		c0.39-1.21,0.58-2.57,0.58-4.07v-28.34h-8.53V263.72z M823,272.5c0-1.59,0.22-3,0.65-4.24s1.02-2.27,1.78-3.1s1.62-1.46,2.62-1.89
		c0.99-0.43,2.04-0.65,3.16-0.65c0.78,0,1.52,0.09,2.23,0.28s1.37,0.47,1.98,0.86l-11.15,14.24c-0.41-0.76-0.72-1.6-0.94-2.53
		C823.11,274.56,823,273.57,823,272.5z M839.48,272.5c0,1.52-0.21,2.89-0.63,4.1c-0.42,1.21-1.01,2.24-1.75,3.08
		s-1.62,1.5-2.63,1.96s-2.09,0.69-3.26,0.69c-0.78,0-1.52-0.11-2.23-0.33s-1.38-0.54-2.01-0.96l11.2-14.32
		c0.42,0.76,0.75,1.62,0.98,2.59S839.48,271.33,839.48,272.5z M817.08,287.2h5.05l2.03-2.62c1,0.59,2.08,1.05,3.25,1.37
		s2.43,0.48,3.78,0.48c2,0,3.81-0.33,5.43-1c1.62-0.67,3.01-1.62,4.15-2.84c1.14-1.23,2.02-2.7,2.64-4.42
		c0.62-1.72,0.93-3.63,0.93-5.73c0-1.95-0.28-3.72-0.84-5.33s-1.35-3.02-2.36-4.24l5.36-6.86h-5.03l-3.38,4.32
		c-0.98-0.58-2.05-1.02-3.2-1.32s-2.39-0.46-3.71-0.46c-1.93,0-3.7,0.34-5.31,1.02s-2.99,1.63-4.15,2.86
		c-1.16,1.23-2.06,2.7-2.69,4.4s-0.95,3.6-0.95,5.66c0,1.91,0.26,3.66,0.79,5.26s1.29,3,2.29,4.21L817.08,287.2z M784.15,250.51
		h3.61v30.77h-3.96v4.37h12.49v-4.37h-3.81v-15.44c0.98-0.78,2.03-1.43,3.15-1.94c1.12-0.52,2.22-0.78,3.3-0.78
		c1.91,0,3.38,0.52,4.41,1.56c1.02,1.04,1.54,2.57,1.54,4.58v12.01h-3.61v4.37h12.49v-4.37h-3.96v-12.59c0-1.69-0.22-3.16-0.65-4.41
		c-0.43-1.24-1.04-2.26-1.84-3.06s-1.76-1.39-2.89-1.78s-2.4-0.58-3.81-0.58c-0.8,0-1.56,0.08-2.29,0.25s-1.43,0.41-2.11,0.71
		s-1.32,0.66-1.94,1.08c-0.62,0.41-1.16,0.86-1.64,1.33h-0.15v-16.1h-8.33V250.51z M774.4,266.41h5.21v-4.37h-2.46
		c-1.02-1.27-2.16-2.17-3.43-2.69s-2.84-0.79-4.72-0.79c-1.46,0-2.75,0.2-3.88,0.58s-2.09,0.93-2.88,1.61
		c-0.79,0.68-1.39,1.5-1.8,2.45s-0.62,1.98-0.62,3.1c0,1.69,0.5,3.1,1.49,4.23c0.99,1.13,2.51,2.05,4.56,2.78l5.03,1.88
		c1.32,0.47,2.26,1.01,2.81,1.6s0.83,1.31,0.83,2.16c0,0.56-0.14,1.06-0.41,1.5s-0.64,0.82-1.1,1.13c-0.47,0.31-1,0.55-1.61,0.71
		c-0.61,0.16-1.24,0.24-1.9,0.24c-0.68,0-1.34-0.08-1.99-0.23s-1.24-0.39-1.75-0.71s-0.93-0.74-1.24-1.26
		c-0.31-0.52-0.47-1.14-0.47-1.87h-5.26v4.37h2.64c0.69,1.08,1.68,1.96,2.97,2.62s2.95,0.99,5,0.99c1.47,0,2.81-0.19,4.01-0.57
		c1.2-0.38,2.23-0.91,3.08-1.6c0.85-0.69,1.51-1.52,1.98-2.49c0.47-0.97,0.7-2.04,0.7-3.21c0-1.74-0.5-3.24-1.5-4.49
		s-2.58-2.24-4.75-2.97l-5.05-1.78c-1.25-0.44-2.15-0.92-2.68-1.44c-0.53-0.52-0.8-1.21-0.8-2.09c0-0.51,0.11-0.97,0.34-1.38
		c0.23-0.42,0.55-0.77,0.95-1.05c0.41-0.29,0.89-0.51,1.46-0.66s1.19-0.23,1.87-0.23c0.61,0,1.24,0.07,1.88,0.22
		c0.64,0.14,1.23,0.37,1.75,0.68c0.52,0.31,0.95,0.72,1.28,1.22C774.23,265.09,774.4,265.7,774.4,266.41z M742.03,285.65h12.29
		v-4.37h-3.66v-12.59c0-1.69-0.22-3.16-0.65-4.41c-0.43-1.24-1.04-2.26-1.84-3.06s-1.76-1.39-2.89-1.78s-2.4-0.58-3.81-0.58
		c-0.83,0-1.62,0.09-2.37,0.28s-1.48,0.44-2.17,0.76s-1.36,0.7-1.99,1.14s-1.23,0.91-1.79,1.4h-0.05v-3.1h-8.38v4.37h3.66v17.57
		h-3.66v4.37H737v-4.37h-3.71v-15.41c1-0.78,2.06-1.43,3.17-1.96s2.23-0.79,3.33-0.79c1.91,0,3.38,0.52,4.41,1.56
		c1.02,1.04,1.54,2.57,1.54,4.58v12.01h-3.71V285.65z M700.01,268.26c0.43-1.24,1.02-2.27,1.78-3.1s1.62-1.46,2.62-1.88
		s2.04-0.63,3.16-0.63c1.17,0,2.26,0.21,3.28,0.63s1.89,1.05,2.63,1.88s1.32,1.86,1.74,3.1s0.63,2.65,0.63,4.24
		c0,1.52-0.21,2.89-0.63,4.11s-1.01,2.26-1.75,3.11c-0.75,0.86-1.62,1.51-2.63,1.97s-2.09,0.69-3.26,0.69
		c-1.12,0-2.17-0.23-3.16-0.7c-0.99-0.47-1.86-1.13-2.62-1.98c-0.75-0.86-1.35-1.89-1.78-3.11s-0.65-2.58-0.65-4.09
		C699.36,270.91,699.58,269.5,700.01,268.26z M695.35,278.16c0.64,1.71,1.54,3.18,2.69,4.4c1.15,1.23,2.53,2.18,4.14,2.86
		s3.4,1.02,5.38,1.02c1.95,0,3.73-0.34,5.34-1.03c1.62-0.68,3-1.64,4.15-2.88s2.05-2.71,2.69-4.43c0.64-1.72,0.96-3.6,0.96-5.65
		c0-2.08-0.32-3.98-0.96-5.69s-1.54-3.17-2.69-4.38c-1.15-1.21-2.54-2.15-4.15-2.81s-3.4-0.99-5.34-0.99c-1.93,0-3.7,0.33-5.31,0.99
		c-1.61,0.66-3,1.6-4.16,2.83c-1.17,1.23-2.08,2.7-2.73,4.41s-0.99,3.61-1,5.69C694.38,274.57,694.71,276.45,695.35,278.16z
		 M681.94,251.33c0.18,0.41,0.42,0.77,0.71,1.08c0.3,0.31,0.65,0.56,1.05,0.74c0.41,0.18,0.84,0.27,1.29,0.27
		c0.44,0,0.86-0.09,1.26-0.27c0.4-0.18,0.75-0.42,1.04-0.74c0.3-0.31,0.53-0.67,0.71-1.08s0.27-0.84,0.27-1.29
		c0-0.44-0.09-0.86-0.27-1.26c-0.18-0.4-0.42-0.75-0.71-1.04c-0.3-0.29-0.64-0.53-1.04-0.71c-0.4-0.18-0.82-0.27-1.26-0.27
		c-0.46,0-0.89,0.09-1.29,0.27c-0.41,0.18-0.76,0.42-1.05,0.71c-0.3,0.3-0.53,0.64-0.71,1.04c-0.18,0.4-0.27,0.82-0.27,1.26
		C681.68,250.49,681.77,250.92,681.94,251.33z M678.76,263.72h3.81v17.57h-3.76v4.37h12.49v-4.37h-3.96v-21.94h-8.58V263.72z
		 M669.11,266.41h5.21v-4.37h-2.46c-1.02-1.27-2.16-2.17-3.43-2.69s-2.84-0.79-4.72-0.79c-1.46,0-2.75,0.2-3.88,0.58
		s-2.09,0.93-2.88,1.61c-0.79,0.68-1.39,1.5-1.8,2.45s-0.62,1.98-0.62,3.1c0,1.69,0.5,3.1,1.49,4.23c0.99,1.13,2.51,2.05,4.56,2.78
		l5.03,1.88c1.32,0.47,2.26,1.01,2.81,1.6s0.83,1.31,0.83,2.16c0,0.56-0.14,1.06-0.41,1.5s-0.64,0.82-1.1,1.13
		c-0.47,0.31-1,0.55-1.61,0.71c-0.61,0.16-1.24,0.24-1.9,0.24c-0.68,0-1.34-0.08-1.99-0.23s-1.24-0.39-1.75-0.71
		s-0.93-0.74-1.24-1.26c-0.31-0.52-0.47-1.14-0.47-1.87h-5.26v4.37h2.64c0.69,1.08,1.68,1.96,2.97,2.62s2.95,0.99,5,0.99
		c1.47,0,2.81-0.19,4.01-0.57c1.2-0.38,2.23-0.91,3.08-1.6c0.85-0.69,1.51-1.52,1.98-2.49c0.47-0.97,0.7-2.04,0.7-3.21
		c0-1.74-0.5-3.24-1.5-4.49s-2.58-2.24-4.75-2.97l-5.05-1.78c-1.25-0.44-2.15-0.92-2.68-1.44c-0.53-0.52-0.8-1.21-0.8-2.09
		c0-0.51,0.11-0.97,0.34-1.38c0.23-0.42,0.55-0.77,0.95-1.05s0.89-0.51,1.46-0.66s1.19-0.23,1.87-0.23c0.61,0,1.24,0.07,1.88,0.22
		c0.64,0.14,1.23,0.37,1.75,0.68c0.52,0.31,0.95,0.72,1.28,1.22C668.94,265.09,669.11,265.7,669.11,266.41z M643.97,266.41h5.21
		v-4.37h-2.46c-1.02-1.27-2.16-2.17-3.43-2.69s-2.84-0.79-4.72-0.79c-1.46,0-2.75,0.2-3.88,0.58s-2.09,0.93-2.88,1.61
		c-0.79,0.68-1.39,1.5-1.8,2.45s-0.62,1.98-0.62,3.1c0,1.69,0.5,3.1,1.49,4.23c0.99,1.13,2.51,2.05,4.56,2.78l5.03,1.88
		c1.32,0.47,2.26,1.01,2.81,1.6s0.83,1.31,0.83,2.16c0,0.56-0.14,1.06-0.41,1.5s-0.64,0.82-1.1,1.13c-0.47,0.31-1,0.55-1.61,0.71
		c-0.61,0.16-1.24,0.24-1.9,0.24c-0.68,0-1.34-0.08-1.99-0.23s-1.24-0.39-1.75-0.71s-0.93-0.74-1.24-1.26
		c-0.31-0.52-0.47-1.14-0.47-1.87h-5.26v4.37h2.64c0.69,1.08,1.68,1.96,2.97,2.62s2.95,0.99,5,0.99c1.47,0,2.81-0.19,4.01-0.57
		c1.2-0.38,2.23-0.91,3.08-1.6c0.85-0.69,1.51-1.52,1.98-2.49c0.47-0.97,0.7-2.04,0.7-3.21c0-1.74-0.5-3.24-1.5-4.49
		s-2.58-2.24-4.75-2.97l-5.05-1.78c-1.25-0.44-2.15-0.92-2.68-1.44c-0.53-0.52-0.8-1.21-0.8-2.09c0-0.51,0.11-0.97,0.34-1.38
		c0.23-0.42,0.55-0.77,0.95-1.05s0.89-0.51,1.46-0.66s1.19-0.23,1.87-0.23c0.61,0,1.24,0.07,1.88,0.22
		c0.64,0.14,1.23,0.37,1.75,0.68c0.52,0.31,0.95,0.72,1.28,1.22C643.8,265.09,643.97,265.7,643.97,266.41z M614.75,263.13
		c0.8,0.34,1.45,0.81,1.96,1.42s0.88,1.33,1.13,2.16s0.4,1.73,0.47,2.72h-13.63c0.17-1.05,0.43-2,0.77-2.84s0.81-1.56,1.38-2.15
		c0.58-0.58,1.27-1.03,2.09-1.34c0.82-0.31,1.78-0.47,2.88-0.47C612.97,262.62,613.96,262.79,614.75,263.13z M623.36,273.11
		c0-0.63-0.01-1.27-0.04-1.93s-0.08-1.31-0.17-1.96c-0.17-1.32-0.47-2.62-0.9-3.88s-1.07-2.4-1.9-3.39
		c-0.84-0.99-1.92-1.79-3.25-2.39c-1.33-0.6-2.98-0.9-4.96-0.9c-2.05,0-3.84,0.36-5.38,1.09s-2.83,1.71-3.87,2.96
		c-1.04,1.25-1.82,2.7-2.35,4.37c-0.52,1.67-0.79,3.44-0.79,5.32c0,2.32,0.31,4.35,0.93,6.09s1.47,3.2,2.56,4.37s2.4,2.05,3.91,2.64
		s3.16,0.89,4.94,0.89c1.88,0,3.69-0.29,5.43-0.86s3.48-1.46,5.21-2.64l-1.9-3.22c-1.42,0.81-2.78,1.41-4.08,1.79
		c-1.29,0.38-2.63,0.57-4,0.57c-1.74,0-3.3-0.43-4.68-1.28c-1.38-0.85-2.38-2.13-3.01-3.82c-0.2-0.56-0.36-1.15-0.47-1.77
		c-0.11-0.62-0.17-1.3-0.17-2.04H623.36z M590.71,255.08c0-1.69,0.4-2.97,1.21-3.85c0.8-0.87,1.91-1.31,3.31-1.31
		c0.95,0,1.86,0.1,2.73,0.3s1.58,0.45,2.12,0.74l1.45-3.38c-0.34-0.17-0.72-0.34-1.16-0.51s-0.93-0.33-1.49-0.47
		c-0.56-0.14-1.19-0.26-1.9-0.34s-1.51-0.13-2.41-0.13c-1.29,0-2.45,0.19-3.5,0.56s-1.95,0.94-2.69,1.7s-1.32,1.71-1.73,2.84
		s-0.63,2.46-0.66,3.99v4.11h-4.34v3.83h4.34v18.1h-3.96v4.37h12.8v-4.37h-4.11v-18.1h6.09v-3.83h-6.09V255.08z M557.45,268.26
		c0.43-1.24,1.02-2.27,1.78-3.1s1.62-1.46,2.62-1.88s2.04-0.63,3.16-0.63c1.17,0,2.26,0.21,3.28,0.63s1.89,1.05,2.63,1.88
		s1.32,1.86,1.74,3.1s0.63,2.65,0.63,4.24c0,1.52-0.21,2.89-0.63,4.11s-1.01,2.26-1.75,3.11c-0.75,0.86-1.62,1.51-2.63,1.97
		s-2.09,0.69-3.26,0.69c-1.12,0-2.17-0.23-3.16-0.7c-0.99-0.47-1.86-1.13-2.62-1.98c-0.75-0.86-1.35-1.89-1.78-3.11
		s-0.65-2.58-0.65-4.09C556.8,270.91,557.02,269.5,557.45,268.26z M552.79,278.16c0.64,1.71,1.54,3.18,2.69,4.4
		c1.15,1.23,2.53,2.18,4.14,2.86s3.4,1.02,5.38,1.02c1.95,0,3.73-0.34,5.34-1.03c1.62-0.68,3-1.64,4.15-2.88s2.05-2.71,2.69-4.43
		c0.64-1.72,0.96-3.6,0.96-5.65c0-2.08-0.32-3.98-0.96-5.69s-1.54-3.17-2.69-4.38c-1.15-1.21-2.54-2.15-4.15-2.81
		s-3.4-0.99-5.34-0.99c-1.93,0-3.7,0.33-5.31,0.99s-3,1.6-4.16,2.83c-1.17,1.23-2.08,2.7-2.73,4.41s-0.99,3.61-1,5.69
		C551.82,274.57,552.15,276.45,552.79,278.16z M547.83,259.2c-0.78-0.03-1.56-0.05-2.34-0.05s-1.61,0-2.49,0
		c-0.66,0-1.27,0.1-1.84,0.29c-0.57,0.19-1.08,0.46-1.55,0.81c-0.47,0.35-0.89,0.75-1.27,1.22c-0.38,0.46-0.72,0.97-1.03,1.51v-3.63
		h-8.4v4.37h3.66l-0.03,17.57h-3.63v4.37h13.05v-4.37h-4.47v-12.7c0.17-0.91,0.44-1.71,0.83-2.38c0.38-0.67,0.83-1.22,1.33-1.65
		c0.51-0.43,1.05-0.75,1.64-0.96c0.58-0.21,1.16-0.32,1.71-0.32v1.62h4.82V259.2z M512.72,251.55c2.52,0,4.36,0.53,5.51,1.59
		c1.15,1.06,1.73,2.53,1.73,4.43c0,1-0.17,1.88-0.5,2.64s-0.79,1.4-1.37,1.9c-0.58,0.51-1.28,0.89-2.08,1.15
		c-0.8,0.26-1.69,0.39-2.65,0.39h-6.93v-12.11H512.72z M497.79,251.55h3.66v29.73h-3.66v4.37h12.49v-4.37h-3.86v-13.46h6.83
		c1.79,0,3.42-0.27,4.89-0.81s2.72-1.28,3.77-2.21s1.86-2.02,2.44-3.26c0.58-1.24,0.86-2.57,0.86-3.97c0-1.69-0.29-3.19-0.88-4.49
		s-1.41-2.39-2.46-3.26c-1.06-0.87-2.31-1.53-3.76-1.98c-1.45-0.45-3.03-0.67-4.76-0.67h-15.56V251.55z"/>
	<g>
		<path class="st0" d="M41.74,78.52C56.83,88.72,75.16,94.71,94.7,94.7c13.02,0,25.53-2.65,36.87-7.45
			c17.02-7.2,31.44-19.18,41.65-34.29C183.42,37.87,189.41,19.54,189.4,0h-21h-21c0,7.33-1.47,14.21-4.13,20.51
			c-3.98,9.43-10.7,17.52-19.12,23.21c-8.44,5.69-18.46,8.98-29.45,8.99c-7.33,0-14.21-1.47-20.51-4.13
			c-9.43-3.98-17.52-10.69-23.21-19.12C45.3,21.01,42.01,10.99,42,0H0c0,13.02,2.65,25.53,7.45,36.87
			C14.65,53.89,26.63,68.31,41.74,78.52z"/>
	</g>
	<g>
		<path class="st0" d="M242.04,243.57c-7.33,0-14.21-1.47-20.51-4.13c-9.43-3.98-17.52-10.69-23.21-19.12
			c-5.68-8.44-8.98-18.46-8.99-29.45c0-7.33,1.47-14.21,4.13-20.51c3.98-9.43,10.69-17.52,19.12-23.21
			c8.44-5.69,18.46-8.98,29.45-8.99v-42c-13.02,0-25.53,2.65-36.87,7.45c-17.02,7.2-31.44,19.18-41.65,34.29
			c-10.21,15.09-16.19,33.42-16.19,52.96c0,13.02,2.65,25.53,7.45,36.87c7.2,17.02,19.18,31.44,34.29,41.65
			c15.09,10.21,33.42,16.19,52.96,16.19v-21V243.57z"/>
	</g>
	<g>
		<path class="st0" d="M300.65,227.57c7.26,17.16,19.34,31.7,34.57,41.99c14.93,10.1,33.02,16.09,52.31,16.3v-42.01
			c-7.03-0.14-13.65-1.6-19.72-4.17c-9.57-4.04-17.78-10.85-23.55-19.4c-5.77-8.56-9.11-18.74-9.12-29.88V96.16h-42v94.24
			C293.13,203.53,295.81,216.14,300.65,227.57z"/>
	</g>
</g>
</svg>
