<?xml version="1.0" encoding="utf-8"?>
<!-- Generator: Adobe Illustrator 25.4.1, SVG Export Plug-In . SVG Version: 6.00 Build 0)  -->
<svg version="1.1" id="Layer_1" xmlns="http://www.w3.org/2000/svg" xmlns:xlink="http://www.w3.org/1999/xlink" x="0px" y="0px"
	 viewBox="0 0 687 135" style="enable-background:new 0 0 687 135;" xml:space="preserve">
<g>
	<path d="M165.5,87.1c0,0.3-0.2,0.5-0.5,0.6c-0.3,0.1-1.1,0.1-2.4,0.1c-0.3,0-1.3,0-2.8-0.1c-3.1-0.1-5.2-0.1-6.4-0.1
		c-1.4,0-2.6,0-3.6,0.1c-2.1,0.1-3.5,0.1-4.3,0.1c-1.1,0-1.7-0.2-1.7-0.6c0-0.4,1.2-0.6,3.6-0.7c0.6,0,1,0,1.3-0.1
		c0.7-0.1,1-0.3,1-0.8c0-0.2-0.3-1.1-0.8-2.6l-1.3-4.1c-0.3-0.9-0.8-2.6-1.6-5.1h-1.1H140c-1.8,0-3.6,0-5.6,0.1
		c-0.4,0.8-1.1,2.7-2.1,5.6l-1.4,4.1c-0.2,0.6-0.3,1.1-0.3,1.5c0,0.7,0.5,1.2,1.4,1.4c0.2,0,1.2,0.1,3.1,0.3c0.6,0,0.9,0.2,0.9,0.5
		c0,0.4-0.4,0.5-1.1,0.5h-10.3c-0.3,0-0.5,0-0.8,0c-0.6,0-0.9-0.2-0.9-0.6c0-0.3,0.6-0.4,1.9-0.5c1.7-0.1,2.7-0.4,3.2-0.9
		c0.5-0.5,1.2-2.3,2.3-5.3c0.8-2.1,1.9-5.2,3.4-9.3l7.6-20.9c0.4-0.9,0.9-2.4,1.6-4.3c0.5-1.4,0.8-2.1,1.1-2.1s0.7,1,1.4,2.9
		c0.8,2.5,4.5,12.2,11,29.2c0.8,2.2,1.7,4.4,2.5,6.6c0.7,1.9,1.4,3.1,2.1,3.5c0.5,0.3,1.8,0.5,3.9,0.4
		C165.3,86.5,165.5,86.7,165.5,87.1z M145.6,72.4c0-0.1-0.2-0.5-0.4-1.2c-1.7-4.8-2.9-8.3-3.7-10.2c-0.2-0.5-0.5-1.3-0.8-2.4
		l-0.4-1.1c-0.8,1.8-1.7,4.3-2.7,7.5c-1.2,3.6-2.1,6-2.6,7.5c0.4,0,0.8,0,1.4,0c0.5,0,1,0,1.4,0h3.5
		C142.1,72.4,143.6,72.4,145.6,72.4z"/>
	<path d="M194.2,84.4c0,0.3-0.3,0.8-1,1.4c-1.8,1.7-4,2.5-6.6,2.5c-1.7,0-3-0.4-3.7-1.1c-0.8-0.7-1.3-2-1.5-3.9
		c-1.9,3.4-4.5,5.1-7.7,5.1c-1.8,0-3.3-0.6-4.4-1.7c-1.1-1.1-1.7-2.6-1.7-4.4c0-5.3,4.5-8.4,13.5-9.3v-1.3c0-4.2-0.1-6.8-0.4-7.7
		l-0.1-0.3c-0.6-2.1-2.1-3.1-4.5-3.1c-1.4,0-2.5,0.4-3.3,1.2c-0.8,0.8-1.3,1.6-1.3,2.3c0,0.4,0.5,0.7,1.5,0.8c1.5,0.1,2.3,1,2.3,2.8
		c0,0.9-0.3,1.7-0.9,2.3c-0.6,0.6-1.4,0.9-2.4,0.9c-1.2,0-2.2-0.4-3-1.1c-0.8-0.7-1.2-1.7-1.2-2.8c0-1.8,0.9-3.4,2.7-4.9
		c1.8-1.5,4.2-2.2,7.1-2.2c4.3,0,7.4,0.8,9.1,2.3c1.4,1.3,2.1,3.6,2.1,6.8v10.7c0,2.1,0,3.3,0.1,3.6c0.2,1.8,0.8,2.6,1.8,2.6
		c0.7,0,1.6-0.5,2.6-1.5c0.2-0.2,0.4-0.3,0.5-0.3C194.1,84.1,194.2,84.2,194.2,84.4z M181.1,76.9v-3.1c-4.1,0.8-6.1,3.1-6.1,6.9
		c0,2.9,1,4.4,3,4.4c1.1,0,1.9-0.6,2.4-1.9C180.9,82,181.1,79.9,181.1,76.9z"/>
	<path d="M217.7,64.5c0,1.2-0.4,2.2-1.1,3c-0.7,0.8-1.6,1.2-2.8,1.2c-2.3,0-3.4-1-3.4-3.1c0-0.7,0.3-1.4,0.8-2.1
		c0.1-0.2,0.2-0.3,0.2-0.4c0-0.4-0.3-0.6-0.8-0.6c-1.4,0-2.5,1.1-3.2,3.3c-0.4,1.3-0.6,4.3-0.6,9.2v4.6v5.5c0,1.1,0.6,1.7,1.7,1.8
		c0.7,0,1.5,0.1,2.4,0.1c0.5,0,0.7,0.2,0.7,0.4c0,0.3-0.2,0.5-0.6,0.5h-1.3c-0.4,0-2.2,0-5.5,0c0.2,0-0.8,0-2.8,0h-3.1h-2.4
		c-0.4,0-0.9,0-1.4,0c-0.5,0-0.7-0.1-0.7-0.4c0-0.3,0.3-0.4,0.9-0.4c1.7,0,2.7-0.2,3.1-0.5c0.4-0.3,0.5-1.2,0.5-2.8l-0.1-16.9
		c0-1.4-0.2-2.4-0.6-2.9c-0.4-0.5-1.3-0.9-2.7-1c-1.1-0.1-1.7-0.1-1.9-0.2c-0.1,0-0.2-0.2-0.2-0.4s0.2-0.4,0.5-0.4
		c0.4,0,0.7,0,1.1,0h1.3c3.2,0,6.7-0.7,10.4-2c0.2,0.8,0.3,1.8,0.3,2.9v2.6c0.8-2,1.7-3.5,2.6-4.3s2.2-1.2,3.7-1.2
		c1.4,0,2.6,0.4,3.5,1.3C217.3,62,217.7,63.2,217.7,64.5z"/>
	<path d="M251.5,87.5c0,0.3-0.2,0.4-0.6,0.4c0,0-0.4,0-1.3,0c-0.9,0-1.6,0-2.2,0h-1.6c-3.6,0-5.8-0.1-6.6-0.2h-1l-1.5,0.2
		c-0.5,0-0.8-0.1-0.8-0.5c0-0.3,0.1-0.4,0.3-0.4h1.4c0.9,0,1.4-0.2,1.6-0.8c0.1-0.3,0.1-2.4,0.1-6.3v-9.3c0-3.9-0.2-6.2-0.6-6.9
		c-0.5-1.1-1.6-1.6-3.1-1.6c-1.6,0-2.9,0.7-3.7,2.2c-0.4,0.7-0.6,2.2-0.6,4.6v9.9c0,3.1,0,4.7,0,5v0.8v1.5c0,0.6,0.8,0.9,2.6,0.9
		c0.4,0,0.6,0.1,0.6,0.4c0,0.3-0.3,0.4-0.8,0.4h-0.5c-0.3-0.1-0.8-0.2-1.5-0.2h-2.8l-3.5,0.1l-3.7,0.1h-1.9c-0.6,0-0.9-0.1-0.9-0.4
		c0-0.1,0-0.2,0.1-0.3c0.1,0,0.3-0.1,0.6-0.1c1.6,0,2.5-0.1,2.8-0.2c0.3-0.1,0.5-0.6,0.6-1.4c0-0.5,0.1-3,0.1-7.5V55
		c0-4.5-0.1-7.1-0.3-7.8c-0.2-0.7-1.1-1-2.7-1c-1.2,0-1.8-0.1-1.8-0.4c0-0.3,0.7-0.4,2.1-0.5c3.2-0.2,6.2-0.8,9.1-1.6
		c0.5-0.2,0.9-0.3,1.2-0.3c0.3,0,0.5,1.2,0.5,3.5v1.3c0,0.8,0,1.9,0,3.3c0,1.3,0,2.3,0,2.8v10c1.2-1.7,2.4-2.9,3.5-3.5
		c1.1-0.6,2.7-0.9,4.7-0.9c4.1,0,6.7,1.7,7.8,5c0.4,1.1,0.6,2.8,0.6,5.3v14.6c0,1.1,0.2,1.8,0.5,2c0.4,0.3,1.2,0.4,2.7,0.4
		C251.3,87.1,251.5,87.2,251.5,87.5z"/>
	<path d="M286.5,85.7c0,0.3-0.4,0.5-1.1,0.6c-3.8,0.1-6.4,0.3-7.9,0.6c-1.5,0.3-2.7,0.8-3.8,1.5c-0.3,0.2-0.5,0.3-0.7,0.3
		c-0.2,0-0.3-0.2-0.3-0.5c0-0.6,0-1.1,0-1.4c0-0.4,0-0.8,0-1.3c0-0.4,0-0.7-0.1-1c-2.6,2.8-5.5,4.2-8.5,4.2c-2.7,0-4.9-0.9-6.5-2.6
		c-1-1.1-1.5-3.1-1.5-6v-4.5c0-0.5,0-1.7,0-3.7s0-4.7,0-8.2c0-0.9-0.1-1.5-0.4-1.7c-0.3-0.2-1-0.3-2.3-0.4c-1.1,0-1.6-0.2-1.6-0.5
		c0-0.3,0.3-0.5,0.9-0.5h0.7c0.6,0,1.6,0,2.9,0.1c1.3,0.1,2.1,0.1,2.6,0.1c0.1,0,0.5,0,1.3-0.1c0.8-0.1,1.9-0.1,3.4-0.1h1.2v6.8
		c0,3.2,0,5.6-0.1,7.1c-0.1,1.5-0.1,2.2-0.1,2c0,4.4,0.3,7.2,0.8,8.3c0.6,1.1,1.5,1.6,2.7,1.6c1.4,0,2.7-0.8,3.9-2.3
		c0.4-0.5,0.6-0.9,0.7-1.4c0.1-0.5,0.1-1.7,0.1-3.6V68.1c0-3.1,0-4.9-0.1-5.5c-0.1-0.8-0.6-1.2-1.5-1.2h-1.7c-0.6,0-0.9-0.2-0.9-0.5
		c0-0.3,1.1-0.4,3.4-0.4c2,0,5.1,0,9.3-0.1c0,1.6,0,4.1,0,7.7v12.7c0,2,0,3.1,0.1,3.5c0.1,0.4,0.4,0.6,0.9,0.7
		c0.4,0.1,1.5,0.1,3.4,0.1C286.2,85.2,286.5,85.4,286.5,85.7z"/>
	<path d="M307.1,79c0,2.8-0.9,5.1-2.6,6.8c-1.7,1.7-3.9,2.6-6.6,2.6c-1.3,0-2.9-0.3-4.8-1c-1.5-0.5-2.5-0.8-2.9-0.8
		c-0.8,0-1.3,0.3-1.6,0.9s-0.4,0.9-0.6,0.9c-0.2,0-0.4-0.1-0.4-0.4c0-0.3,0-0.7,0.1-1.2c0.1-0.8,0.2-2.2,0.2-4.2c0-0.1,0-0.3,0-0.6
		c0-0.3,0-0.8,0-1.4v-1.1c0-0.5,0.1-0.7,0.3-0.7c0.2,0,0.4,0.3,0.6,0.9c0.4,2.2,1.4,4.1,3.2,5.6c1.7,1.5,3.7,2.2,5.9,2.2
		c1.4,0,2.5-0.4,3.3-1.3c0.9-0.9,1.3-2,1.3-3.4c0-1.1-0.4-2-1.2-2.8c-0.6-0.5-2.2-1.2-4.7-2.1c-3.1-1-5.4-2.3-6.8-3.8
		c-1.4-1.5-2.1-3.4-2.1-5.7c0-2.5,0.8-4.6,2.5-6.3c1.7-1.7,3.7-2.6,6.1-2.6c0.9,0,2.5,0.3,4.8,0.9c0.3,0.1,0.6,0.1,0.8,0.1
		c0.9,0,1.6-0.6,2.1-1.7c0.1-0.2,0.2-0.3,0.3-0.3c0.3,0,0.4,0.3,0.4,0.8l-0.1,1.2c0,0.2-0.1,0.5-0.1,0.9c0,1.7,0.1,3.5,0.3,5.3v0.3
		c0,0.3-0.1,0.5-0.4,0.5c-0.2,0-0.4-0.2-0.5-0.6c-1.2-4.3-3.7-6.4-7.4-6.4c-1.4,0-2.5,0.4-3.4,1.1c-0.9,0.8-1.3,1.7-1.3,2.9
		c0,1.1,0.4,1.9,1.1,2.6c0.8,0.6,2.2,1.3,4.4,2.1c3.8,1.3,6.4,2.7,7.7,4C306.4,74.8,307.1,76.7,307.1,79z"/>
	<path d="M362.5,87.2c0,0.4-0.8,0.6-2.3,0.6c-1.3,0-3.3,0-5.8,0c-1.9,0-3.2,0-3.9,0h-3.5h-2.8c-0.9,0-1.4-0.2-1.4-0.6
		c0-0.3,0.1-0.5,0.3-0.5c0.2,0,1-0.1,2.2-0.1c0.7,0,1-0.2,1-0.6c0-0.2-1.1-1.8-3.4-5l-9.2-12.8c-0.5-0.5-0.9-1-1.2-1.3v15.8
		c0,1.9,0.2,3,0.5,3.3c0.3,0.4,1.4,0.6,3.1,0.7c1,0,1.5,0.2,1.5,0.6c0,0.4-0.4,0.6-1.1,0.6h-4c-2.6,0-5.3,0-8.1,0
		c-0.4,0-1.1,0-1.9,0c-0.9,0-1.8,0-2.7,0H319c-0.7,0-1-0.2-1-0.6c0-0.4,0.7-0.6,2.1-0.6c1.4,0,2.3-0.2,2.6-0.6s0.5-1.3,0.5-2.8V47.2
		c0-0.6-0.1-1-0.4-1.2c-0.4-0.2-1.3-0.4-2.7-0.4c-1.2,0-1.8-0.2-1.8-0.6c0-0.4,0.3-0.5,0.9-0.5l7.6,0.2c0.1,0,0.3,0,0.8,0
		c0.5,0,0.9,0,1.3,0l3.9-0.2h2.6c0.5,0,1,0,1.5,0c0.5,0,0.8,0.2,0.8,0.6c0,0.3-0.5,0.5-1.5,0.5c-1.7,0.1-2.6,0.2-2.9,0.5
		c-0.3,0.2-0.5,1-0.5,2.2v16.6c1.1-0.9,4.9-5,11.4-12.4c2.9-3.3,4.3-5.3,4.3-6.2c0-0.3-0.2-0.5-0.6-0.5c-0.4-0.1-1.4-0.1-3.2-0.1
		c-0.6,0-0.9-0.2-0.9-0.6c0-0.4,0.5-0.6,1.5-0.6h2.8c0.1,0,0.3,0,0.6,0c0.4,0,0.7,0,1,0h6.5c0.6,0,0.9,0.2,0.9,0.6
		c0,0.4-0.3,0.6-1,0.6c-1.5,0-2.6,0.1-3.2,0.3c-0.6,0.2-1.2,0.7-2,1.5c-3.9,4.1-7.9,8.6-12.2,13.5c0.7,1,2.7,3.6,6,7.9
		c2.3,2.9,5.6,7.1,9.8,12.6c1.9,2.5,3.1,4,3.7,4.5c0.6,0.5,1.4,0.7,2.6,0.7C361.8,86.7,362.5,86.9,362.5,87.2z"/>
	<path d="M389.8,84.4c0,0.3-0.3,0.8-1,1.4c-1.8,1.7-4,2.5-6.6,2.5c-1.7,0-3-0.4-3.7-1.1c-0.8-0.7-1.3-2-1.5-3.9
		c-1.9,3.4-4.5,5.1-7.7,5.1c-1.8,0-3.3-0.6-4.4-1.7c-1.1-1.1-1.7-2.6-1.7-4.4c0-5.3,4.5-8.4,13.5-9.3v-1.3c0-4.2-0.1-6.8-0.4-7.7
		l-0.1-0.3c-0.6-2.1-2.1-3.1-4.5-3.1c-1.4,0-2.5,0.4-3.3,1.2c-0.8,0.8-1.3,1.6-1.3,2.3c0,0.4,0.5,0.7,1.5,0.8c1.5,0.1,2.3,1,2.3,2.8
		c0,0.9-0.3,1.7-0.9,2.3c-0.6,0.6-1.4,0.9-2.4,0.9c-1.2,0-2.2-0.4-3-1.1c-0.8-0.7-1.2-1.7-1.2-2.8c0-1.8,0.9-3.4,2.7-4.9
		c1.8-1.5,4.2-2.2,7.1-2.2c4.3,0,7.4,0.8,9.1,2.3c1.4,1.3,2.1,3.6,2.1,6.8v10.7c0,2.1,0,3.3,0.1,3.6c0.2,1.8,0.8,2.6,1.8,2.6
		c0.7,0,1.6-0.5,2.6-1.5c0.2-0.2,0.4-0.3,0.5-0.3C389.6,84.1,389.8,84.2,389.8,84.4z M376.6,76.9v-3.1c-4.1,0.8-6.1,3.1-6.1,6.9
		c0,2.9,1,4.4,3,4.4c1.1,0,1.9-0.6,2.4-1.9S376.6,79.9,376.6,76.9z"/>
	<path d="M410.3,83.7c0,0.5-0.4,1.1-1.2,1.8c-2.1,2-4.9,2.9-8.5,2.9c-3.3,0-5.5-0.8-6.6-2.4c-0.4-0.6-0.7-1.2-0.7-1.8
		c-0.1-0.5-0.1-1.9-0.1-4.2v-3c0.1-0.8,0.1-1.6,0.1-2.5l-0.1-1.3v-5.6V63c0-0.8-0.1-1.2-0.3-1.3c-0.2-0.1-0.8-0.2-1.9-0.2
		c-1.3,0-1.9-0.2-1.9-0.5c0-0.3,0.2-0.4,0.7-0.5c3.9-0.1,7.3-2.3,10.2-6.4c0.4-0.6,0.7-0.9,0.9-0.9c0.3,0,0.4,0.3,0.4,0.9
		c0,3.6,0.1,5.6,0.4,5.9c0.3,0.3,1.4,0.5,3.1,0.5c1.8,0,3-0.1,3.7-0.3c0.1,0,0.2-0.1,0.3-0.1c0.2,0,0.3,0.1,0.3,0.4
		c0,0.6-0.3,0.9-0.8,0.9c-1.7,0-3.6,0.1-5.7,0.1c-0.2,0-0.5,0-0.9,0v1.3c0,11.1,0.1,17.7,0.3,19.6c0.4,2.4,1.6,3.6,3.6,3.6
		c0.9,0,2-0.6,3.4-1.9c0.7-0.6,1.1-0.9,1.3-0.9C410.2,83.4,410.3,83.5,410.3,83.7z"/>
	<path d="M435.2,80c0,0.9-0.5,2.1-1.6,3.6c-2.3,3.2-5.4,4.8-9.2,4.8c-4.2,0-7.7-1.3-10.4-4c-2.7-2.7-4.1-6.1-4.1-10.3
		c0-4.1,1.3-7.5,4-10.3c2.6-2.7,5.9-4.1,9.8-4.1c2.7,0,5,0.6,6.8,1.8c2.1,1.3,3.4,3.2,4.1,5.6c0.2,0.8,0.3,1.7,0.4,2.7
		c-1,0.1-4.8,0.2-11.6,0.3c-1,0-2.4,0-4,0.1c-0.1,1.5-0.2,2.8-0.2,3.8c0,4.9,1,8.3,3.1,10.4c1.2,1.2,2.7,1.8,4.5,1.8
		c1.5,0,2.9-0.5,4.2-1.5c1.4-1,2.4-2.3,3.1-3.9c0.3-0.8,0.6-1.2,0.8-1.2C435.1,79.7,435.2,79.8,435.2,80z M427.3,69.1
		c0-3.2-0.2-5.4-0.7-6.7c-0.5-1.2-1.4-1.9-2.6-1.9c-2.6,0-4,2.8-4.4,8.5c0.9,0,2.7,0,5.5,0C425.9,69.1,426.6,69.1,427.3,69.1z"/>
	<path d="M468.6,86.5c0,0.3-0.4,0.4-1.3,0.4h-2.8c-2,0-4.2,0.4-6.5,1.4c-0.3,0.1-0.4,0.1-0.4,0.1c-0.4,0-0.6-0.4-0.6-1.1
		c0-0.4-0.1-0.9-0.2-1.6c-1.7,1.8-3.9,2.7-6.6,2.7c-3.7,0-6.7-1.4-9.1-4.1c-2.4-2.7-3.6-6.2-3.6-10.3c0-4.3,1.2-7.7,3.6-10.3
		c2.4-2.6,5.6-3.9,9.6-3.9c2.6,0,4.7,1,6.3,2.9V54c0-3.8-0.2-6-0.5-6.7c-0.3-0.7-1.4-1-3.3-1c-1.1,0-1.6-0.1-1.6-0.4
		c0-0.3,0.3-0.4,0.8-0.4c3.8,0,7.5-0.6,11-1.7c0.5-0.2,0.9-0.3,1.1-0.3c0.5,0,0.7,0.5,0.7,1.5v3.1v6v29.9c0,0.7,0.1,1.2,0.3,1.4
		c0.3,0.4,1,0.5,2.2,0.5C468.3,86,468.6,86.1,468.6,86.5z M457,80.9V67.2c0-1.9-0.3-3.3-0.9-4.2c-0.8-1.2-1.9-1.8-3.3-1.8
		c-4,0-6.1,4.5-6.1,13.4c0,4,0.5,7,1.5,9.2c1,2.2,2.5,3.3,4.3,3.3c1.1,0,2.1-0.5,3.1-1.5C456.6,84.6,457,83,457,80.9z"/>
	<path d="M493.5,64.5c0,1.2-0.4,2.2-1.1,3c-0.7,0.8-1.6,1.2-2.8,1.2c-2.3,0-3.4-1-3.4-3.1c0-0.7,0.3-1.4,0.8-2.1
		c0.1-0.2,0.2-0.3,0.2-0.4c0-0.4-0.3-0.6-0.8-0.6c-1.4,0-2.5,1.1-3.2,3.3c-0.4,1.3-0.6,4.3-0.6,9.2v4.6v5.5c0,1.1,0.6,1.7,1.7,1.8
		c0.7,0,1.5,0.1,2.4,0.1c0.5,0,0.7,0.2,0.7,0.4c0,0.3-0.2,0.5-0.6,0.5h-1.3c-0.4,0-2.2,0-5.5,0c0.2,0-0.8,0-2.8,0h-3.1h-2.4
		c-0.4,0-0.9,0-1.4,0c-0.5,0-0.7-0.1-0.7-0.4c0-0.3,0.3-0.4,0.9-0.4c1.7,0,2.7-0.2,3.1-0.5s0.5-1.2,0.5-2.8l-0.1-16.9
		c0-1.4-0.2-2.4-0.6-2.9c-0.4-0.5-1.3-0.9-2.7-1c-1.1-0.1-1.7-0.1-1.9-0.2c-0.1,0-0.2-0.2-0.2-0.4s0.2-0.4,0.5-0.4
		c0.4,0,0.7,0,1.1,0h1.3c3.2,0,6.7-0.7,10.4-2c0.2,0.8,0.3,1.8,0.3,2.9v2.6c0.8-2,1.7-3.5,2.6-4.3c0.9-0.8,2.2-1.2,3.7-1.2
		c1.4,0,2.6,0.4,3.5,1.3C493,62,493.5,63.2,493.5,64.5z"/>
	<path d="M522.9,84.4c0,0.3-0.3,0.8-1,1.4c-1.8,1.7-4,2.5-6.6,2.5c-1.7,0-3-0.4-3.7-1.1c-0.8-0.7-1.3-2-1.5-3.9
		c-1.9,3.4-4.5,5.1-7.7,5.1c-1.8,0-3.3-0.6-4.4-1.7c-1.1-1.1-1.7-2.6-1.7-4.4c0-5.3,4.5-8.4,13.5-9.3v-1.3c0-4.2-0.1-6.8-0.4-7.7
		l-0.1-0.3c-0.6-2.1-2.1-3.1-4.5-3.1c-1.4,0-2.5,0.4-3.3,1.2c-0.8,0.8-1.3,1.6-1.3,2.3c0,0.4,0.5,0.7,1.5,0.8c1.5,0.1,2.3,1,2.3,2.8
		c0,0.9-0.3,1.7-0.9,2.3c-0.6,0.6-1.4,0.9-2.4,0.9c-1.2,0-2.2-0.4-3-1.1c-0.8-0.7-1.2-1.7-1.2-2.8c0-1.8,0.9-3.4,2.7-4.9
		c1.8-1.5,4.2-2.2,7.1-2.2c4.3,0,7.4,0.8,9.1,2.3c1.4,1.3,2.1,3.6,2.1,6.8v10.7c0,2.1,0,3.3,0.1,3.6c0.2,1.8,0.8,2.6,1.8,2.6
		c0.7,0,1.6-0.5,2.6-1.5c0.2-0.2,0.4-0.3,0.5-0.3C522.8,84.1,522.9,84.2,522.9,84.4z M509.8,76.9v-3.1c-4.1,0.8-6.1,3.1-6.1,6.9
		c0,2.9,1,4.4,3,4.4c1.1,0,1.9-0.6,2.4-1.9S509.8,79.9,509.8,76.9z"/>
	<path d="M539.5,87.3c0,0.3-0.8,0.5-2.4,0.5c-0.4,0-1.5,0-3.5-0.1c-1,0-2-0.1-2.9-0.1c-0.9,0-2.6,0-5.1,0.1l-1.9,0.1
		c-0.9,0-1.4-0.1-1.4-0.4c0-0.3,0.5-0.5,1.4-0.4c1.5,0,2.3-0.1,2.5-0.4c0.2-0.3,0.3-1.6,0.3-3.8v-33c0-1.4-0.1-2.3-0.4-2.5
		c-0.3-0.3-1.2-0.4-2.6-0.4c-1.1,0-1.6-0.2-1.6-0.5c0-0.4,0.5-0.6,1.6-0.6c4.7-0.2,8.5-0.9,11.4-2.1c0,1.3,0,8.6,0,22v15.6
		c0,2.8,0.1,4.5,0.2,5c0.1,0.5,0.7,0.7,1.5,0.7h1.9C539.2,86.8,539.5,87,539.5,87.3z"/>
	<path d="M560.8,79c0,2.8-0.9,5.1-2.6,6.8c-1.7,1.7-3.9,2.6-6.6,2.6c-1.3,0-2.9-0.3-4.8-1c-1.5-0.5-2.5-0.8-2.9-0.8
		c-0.8,0-1.3,0.3-1.6,0.9s-0.4,0.9-0.6,0.9c-0.2,0-0.4-0.1-0.4-0.4c0-0.3,0-0.7,0.1-1.2c0.1-0.8,0.2-2.2,0.2-4.2c0-0.1,0-0.3,0-0.6
		c0-0.3,0-0.8,0-1.4v-1.1c0-0.5,0.1-0.7,0.3-0.7c0.2,0,0.4,0.3,0.6,0.9c0.4,2.2,1.4,4.1,3.2,5.6c1.7,1.5,3.7,2.2,5.9,2.2
		c1.4,0,2.5-0.4,3.3-1.3c0.9-0.9,1.3-2,1.3-3.4c0-1.1-0.4-2-1.2-2.8c-0.6-0.5-2.2-1.2-4.7-2.1c-3.1-1-5.4-2.3-6.8-3.8
		c-1.4-1.5-2.1-3.4-2.1-5.7c0-2.5,0.8-4.6,2.5-6.3c1.7-1.7,3.7-2.6,6.1-2.6c0.9,0,2.5,0.3,4.8,0.9c0.3,0.1,0.6,0.1,0.8,0.1
		c0.9,0,1.6-0.6,2.1-1.7c0.1-0.2,0.2-0.3,0.3-0.3c0.3,0,0.4,0.3,0.4,0.8l-0.1,1.2c0,0.2-0.1,0.5-0.1,0.9c0,1.7,0.1,3.5,0.3,5.3v0.3
		c0,0.3-0.1,0.5-0.4,0.5c-0.2,0-0.4-0.2-0.5-0.6c-1.2-4.3-3.7-6.4-7.4-6.4c-1.4,0-2.5,0.4-3.4,1.1c-0.9,0.8-1.3,1.7-1.3,2.9
		c0,1.1,0.4,1.9,1.1,2.6c0.8,0.6,2.2,1.3,4.4,2.1c3.8,1.3,6.4,2.7,7.7,4C560.1,74.8,560.8,76.7,560.8,79z"/>
	<path d="M596.4,87.3c0,0.3-0.8,0.4-2.3,0.4H593c-0.8,0-1.9,0-3.2,0c-1.4,0-2.7,0-3.9,0c-1.5,0-2.7,0-3.5,0c-0.8,0-1.4,0-1.7,0
		c-0.6,0-0.9-0.1-0.9-0.4c0-0.3,0.6-0.5,1.7-0.5c0.7,0,1.1-0.3,1.1-0.7c0-0.4-0.9-2-2.6-4.9c-0.5-0.8-1.2-1.9-2.2-3.5
		c-0.7-1.2-1.6-2.7-2.8-4.6v9.2c0,2.2,0.1,3.5,0.2,3.9c0.1,0.4,0.6,0.6,1.4,0.6c0.2,0,0.5,0,0.6,0h0.5c0.4,0,0.6,0.2,0.6,0.5
		s-0.2,0.5-0.7,0.5h-0.3h-1.6h-2.1h-3.9h-6.1c-0.2,0-0.4,0-0.7,0c-0.5,0-0.7-0.1-0.7-0.4s0.5-0.5,1.6-0.5c1.4,0,2.2-0.2,2.4-0.4
		c0.2-0.2,0.3-1.3,0.3-3.1v-33c0-1.6-0.2-2.6-0.5-3c-0.4-0.4-1.3-0.5-2.9-0.5c-0.8,0-1.2-0.2-1.2-0.5c0-0.3,0.1-0.4,0.3-0.5
		c0.2,0,0.8-0.1,1.8-0.1c4.2-0.2,7.2-0.7,8.9-1.6c0.6-0.3,1.1-0.5,1.5-0.6c0.2,0.6,0.3,1.7,0.3,3.4l0.3,6.7c0,2.3,0,5.4,0,9.5v9.2
		c0.7-0.5,1.7-1.7,3.2-3.4c0.6-0.7,1.6-1.8,2.8-3.2c2-2.3,3-3.5,3-3.7c0-0.2-0.1-0.3-0.4-0.4c-0.3,0-1.1-0.1-2.5-0.1
		c-1,0-1.4-0.2-1.4-0.5c0-0.3,0.3-0.4,0.8-0.4h4.8h4.9c0.8,0,1.1,0.1,1.1,0.4s-0.9,0.4-2.6,0.5c-1.1,0-2.1,0.4-2.8,1.1
		c-1.3,1.3-3,3-5,5.3l7.2,10.9c0.4,0.6,1,1.6,1.8,2.8c0.1,0.2,0.4,0.6,0.9,1.4l1,1.5l0.5,0.7c0.5,0.7,0.8,1.2,1.1,1.3
		c0.3,0.2,0.9,0.3,1.7,0.3S596.4,87,596.4,87.3z"/>
	<path d="M624.4,74.4c0,4.5-1.8,8.1-5.3,10.9c-2.8,2.2-5.8,3.3-9.1,3.3c-3.9,0-7.3-1.4-10.2-4.2c-2.9-2.8-4.3-6.2-4.3-10
		c0-4,1.4-7.4,4.3-10.3c2.9-2.8,6.3-4.2,10.4-4.2c3.9,0,7.2,1.4,10,4.3C623,66.9,624.4,70.4,624.4,74.4z M614.9,74.5
		c0-5.2-0.4-8.7-1.1-10.7c-0.8-2.1-2.1-3.2-3.8-3.2c-1.6,0-2.9,1.1-3.8,3.4c-0.9,2.2-1.4,5.3-1.4,9.3c0,5.5,0.5,9.4,1.6,11.7
		c0.9,1.8,2.1,2.8,3.7,2.8c2,0,3.2-1.2,3.9-3.5C614.6,81.9,614.9,78.7,614.9,74.5z"/>
	<path d="M643.7,87.3c0,0.3-0.8,0.5-2.4,0.5c-0.4,0-1.5,0-3.5-0.1c-1,0-2-0.1-2.9-0.1c-0.9,0-2.6,0-5.1,0.1l-1.9,0.1
		c-0.9,0-1.4-0.1-1.4-0.4c0-0.3,0.5-0.5,1.4-0.4c1.5,0,2.3-0.1,2.5-0.4c0.2-0.3,0.3-1.6,0.3-3.8v-33c0-1.4-0.1-2.3-0.4-2.5
		c-0.3-0.3-1.2-0.4-2.6-0.4c-1.1,0-1.6-0.2-1.6-0.5c0-0.4,0.5-0.6,1.6-0.6c4.7-0.2,8.5-0.9,11.4-2.1c0,1.3,0,8.6,0,22v15.6
		c0,2.8,0.1,4.5,0.2,5c0.1,0.5,0.7,0.7,1.5,0.7h1.9C643.4,86.8,643.7,87,643.7,87.3z"/>
	<path d="M670.3,80c0,0.9-0.5,2.1-1.6,3.6c-2.3,3.2-5.4,4.8-9.2,4.8c-4.2,0-7.7-1.3-10.4-4c-2.7-2.7-4.1-6.1-4.1-10.3
		c0-4.1,1.3-7.5,4-10.3c2.6-2.7,5.9-4.1,9.8-4.1c2.7,0,5,0.6,6.8,1.8c2.1,1.3,3.4,3.2,4.1,5.6c0.2,0.8,0.3,1.7,0.4,2.7
		c-1,0.1-4.8,0.2-11.6,0.3c-1,0-2.4,0-4,0.1c-0.1,1.5-0.2,2.8-0.2,3.8c0,4.9,1,8.3,3.1,10.4c1.2,1.2,2.7,1.8,4.5,1.8
		c1.5,0,2.9-0.5,4.2-1.5c1.4-1,2.4-2.3,3.1-3.9c0.3-0.8,0.6-1.2,0.8-1.2C670.3,79.7,670.3,79.8,670.3,80z M662.4,69.1
		c0-3.2-0.2-5.4-0.7-6.7c-0.5-1.2-1.4-1.9-2.6-1.9c-2.6,0-4,2.8-4.4,8.5c0.9,0,2.7,0,5.5,0C661.1,69.1,661.8,69.1,662.4,69.1z"/>
</g>
<g>
	<path d="M51,14c0.1,0,0.1,0.1,0.2,0.1c0.2,0.1,0.4,0.1,0.6,0c0.3-0.1,0.5-0.1,0.8-0.2c0.3-0.1,0.5-0.2,0.8-0.2
		c0.8-0.2,1.7-0.2,2.5-0.1c0.2,0,0.3,0,0.5-0.1c0.3,0,0.6-0.1,0.9-0.1c0.5,0,1.1,0,1.6-0.1c0.1-0.1,0.1-0.2,0.2-0.3
		c5.9,0,11.7,0,17.5,0c0.4,0.5,0.9,0.6,1.4,0.5c0.1,0,0.2,0,0.4,0c1,0,2,0,2.9,0.1c0.4,0,0.9,0.2,1.3,0.3c0.2,0.1,0.5,0.1,0.7,0.1
		c0.2,0,0.5,0.1,0.7,0.1c0.3,0.1,0.6,0.1,0.8-0.1c0,0,0.1,0,0.2,0c0.4,0.3,1,0.3,1.4,0.4c0.5,0.1,1,0.2,1.4,0.5
		c0.3,0.2,0.6,0.2,0.9,0.2c0.5-0.1,1,0,1.4,0.1c0.4,0.1,0.8,0.3,1.2,0.4c0.6,0.1,1.2,0.2,1.8,0.3c0.3,0,0.6,0.1,0.9,0.1
		c0.1,0,0.2,0,0.3,0.1c0.8,0.5,1.6,0.6,2.5,0.7c0.2,0,0.3,0.1,0.5,0.2c0.3,0.2,0.6,0.4,0.9,0.4c0.7-0.1,1.2,0.2,1.7,0.5
		c0.2,0.1,0.4,0.2,0.5,0.2c0.4,0.1,0.8,0.1,1.1,0.1c0.3,0.1,0.6,0.1,0.8,0.3c0.2,0.2,0.5,0.3,0.8,0.2c0.2,0,0.4,0,0.6,0.1
		c0.1,0.1,0.2,0.1,0.4,0.2c0.2,0.1,0.4,0.2,0.6,0.3c0.2,0.1,0.3,0.2,0.5,0.2c0.4,0,0.8,0,1.1,0.2c0.2,0.1,0.4,0.2,0.6,0.2
		c0,0,0.1,0,0.1,0.1c0.2,0.2,0.5,0.3,0.8,0.3c0.4,0,0.7,0.2,1,0.4c0.1,0.1,0.2,0.2,0.3,0.2c0.3,0,0.5,0.2,0.7,0.3
		c0.2,0.1,0.5,0.1,0.7,0.2c0.1,0.1,0.3,0.1,0.4,0.2c0.3,0.3,0.7,0.5,1.1,0.5c0.2,0,0.4,0.1,0.5,0.2c0.2,0.2,0.4,0.3,0.6,0.3
		c0.4,0,0.7,0.2,0.9,0.4c0.2,0.2,0.4,0.3,0.7,0.3c0.2,0,0.4,0.1,0.5,0.3c0.3,0.3,0.7,0.5,1.1,0.8c0.1,0.1,0.2,0.2,0.3,0.3
		c0.1,0.3,0.1,0.5,0.1,0.8c0,0.2-0.1,0.3-0.3,0.4c-0.4,0.2-0.5,0.4-0.4,0.8c0.1,0.5,0,0.8-0.4,1.1c-0.3,0.3-0.4,0.7-0.5,1.2
		c0,0.3,0,0.6-0.1,0.8c0,0.1,0,0.2-0.1,0.2c-0.2,0.2-0.2,0.4-0.3,0.6c0,0.1-0.1,0.3-0.1,0.4c-0.1,0.3-0.2,0.6-0.1,0.9
		c0.2,0.6,0.1,1.1,0,1.7c0,0.3-0.1,0.5-0.2,0.8c-0.1,0.4-0.1,0.8,0,1.2c0.1,0.6,0.2,1.1,0.1,1.7c-0.1,0.5,0,1,0,1.4
		c0,0.6,0.2,1.2,0,1.9c-0.1,0.3,0,0.5,0.1,0.8c0.1,0.2,0.1,0.3,0.2,0.5c0.1,0.2,0.1,0.4,0.2,0.6c0.1,0.3,0.2,0.6,0.2,0.9
		c0,0.3,0,0.7,0.1,1c0,0.2,0,0.4,0,0.6c0,0.3,0,0.7,0,1c0.1,0.4,0.2,0.8,0.2,1.2c0.1,0.5,0.2,1.1,0.4,1.6c0.3,0.6,0.3,1.3,0.1,1.9
		c0,0.2,0,0.3,0,0.5c0.1,0.4,0.3,0.9,0.5,1.3c0.2,0.4,0.2,0.8,0.2,1.3c0,0.4,0.1,0.7,0.1,1.1c0,0.2,0,0.3,0,0.5c0,0.8,0,1.6,0,2.4
		c0,0.2,0,0.4,0,0.6c0,0.2,0,0.5-0.1,0.7c-0.1,0.4-0.1,0.7,0,1c0.1,0.2,0.1,0.4,0,0.6c-0.2,0.4-0.2,0.9,0,1.3c0.1,0.4,0.1,0.8,0,1.2
		c-0.1,0.2,0,0.5,0,0.7c0,0.2,0.1,0.4,0.1,0.5c0,0.6,0,1.3,0,1.9c0,0.1,0,0.2,0,0.4c-0.1,0.7-0.2,1.3-0.3,2c0,0.1,0,0.1,0,0.2
		c-0.1,0.3-0.3,0.7-0.4,1c-0.1,0.3-0.2,0.6-0.1,1c0.1,0.4,0,0.7-0.1,1c-0.2,0.3-0.3,0.8-0.4,1.1c-0.2,0.3-0.3,0.7-0.2,1.1
		c0.1,0.4-0.1,0.7-0.3,1c-0.3,0.3-0.4,0.6-0.5,1c0,0.2-0.2,0.4-0.3,0.5c-0.3,0.3-0.5,0.7-0.4,1.1c0,0.3,0,0.6-0.3,0.8
		c-0.1,0.1-0.1,0.2-0.2,0.3c-0.2,0.4-0.4,0.8-0.6,1.3c-0.2,0.3-0.3,0.7-0.5,1c-0.1,0.2-0.3,0.4-0.4,0.6c-0.2,0.2-0.3,0.4-0.3,0.6
		c0,0.3-0.1,0.5-0.4,0.7c-0.2,0.1-0.4,0.4-0.4,0.6c0,0.2-0.2,0.3-0.3,0.5c-0.2,0.3-0.4,0.6-0.6,0.9c-0.1,0.2-0.3,0.3-0.4,0.5
		c-0.1,0.2-0.2,0.3-0.3,0.5c-0.1,0.1-0.2,0.3-0.2,0.4c-0.1,0.2-0.3,0.4-0.4,0.6c-0.3,0.7-0.8,1.2-1.3,1.8c-0.5,0.5-1,1.1-1.4,1.6
		c-0.1,0.1-0.1,0.2-0.2,0.2c-0.1,0.2-0.3,0.4-0.5,0.6c-0.2,0.2-0.5,0.4-0.7,0.7c-0.3,0.4-0.6,0.9-1.1,1.2c-0.3,0.2-0.5,0.4-0.6,0.7
		c-0.1,0.2-0.3,0.4-0.5,0.5c-0.4,0.3-0.7,0.6-1,0.9c-0.3,0.3-0.7,0.6-1,0.9c-0.1,0.1-0.2,0.2-0.3,0.3c-0.3,0.4-0.6,0.6-1,0.9
		c-0.5,0.4-1,0.8-1.5,1.2c-0.1,0.1-0.2,0.1-0.3,0.2c-0.2,0.1-0.3,0.3-0.5,0.4c0,0,0,0,0,0c-0.4,0.2-0.6,0.5-0.9,0.8
		c-0.1,0.2-0.4,0.3-0.6,0.4c-0.5,0.2-0.8,0.6-1.3,0.8c-0.2,0-0.3,0.2-0.4,0.3c-0.3,0.2-0.5,0.5-0.9,0.5c-0.1,0-0.3,0.2-0.4,0.2
		c-0.2,0.1-0.3,0.2-0.5,0.3c-0.1,0.1-0.3,0.2-0.4,0.4c-0.1,0.1-0.2,0.2-0.4,0.3c-0.1,0-0.2,0.1-0.3,0.1c-0.1,0.1-0.3,0.1-0.4,0.2
		c-0.2,0.1-0.4,0.1-0.5,0.2c-0.2,0.1-0.4,0.2-0.5,0.4c-0.2,0.1-0.3,0.2-0.6,0.2c-0.1,0-0.2,0.1-0.3,0.1c-0.3,0.2-0.6,0.5-0.9,0.6
		c-0.3,0.1-0.6,0.3-0.9,0.5c-0.2,0.1-0.5,0.2-0.6,0.4c0,0-0.1,0.1-0.1,0.1c-0.3,0.2-0.7,0.3-1,0.5c-0.1,0.1-0.2,0.2-0.4,0.2
		c-0.3,0.2-0.5,0.4-0.8,0.6c-0.1,0-0.1,0.1-0.2,0.1c-0.5,0.1-0.9,0.4-1.3,0.6c-0.1,0.1-0.2,0.1-0.4,0.1c-0.2,0-0.4,0.1-0.5,0.2
		c-0.4,0.3-0.7,0.5-1.1,0.6c-0.1,0-0.1,0-0.2,0.1c-0.3,0.2-0.6,0.4-0.9,0.7c-0.1,0.1-0.2,0.1-0.3,0.1c-0.2,0.1-0.4,0.1-0.5,0.2
		c-0.2,0.2-0.4,0.2-0.6,0.3c-0.2,0-0.4,0.1-0.6,0.3c-0.2,0.2-0.3,0.3-0.6,0.3c-0.1,0-0.2,0.1-0.3,0.1c-0.3,0.4-0.8,0.5-1.2,0.8
		c-0.5,0.3-1,0.6-1.4,0.9c-0.3,0.3-0.6,0.6-0.8,0.9c-0.1,0.1-0.2,0.2-0.3,0.3c0,0,0,0,0,0c-0.3,0.5-0.9,0.7-1.2,1.3
		c-0.1,0.1-0.2,0.2-0.3,0.3c-0.2,0.1-0.3,0.3-0.3,0.5c0,0.2-0.1,0.3-0.3,0.5c-0.1,0.1-0.2,0.2-0.2,0.2c-0.3,0.4-0.6,0.9-0.9,1.3
		c-0.1,0.1-0.1,0.2-0.2,0.3c-0.1,0.2-0.2,0.4-0.3,0.6c-0.3,0.3-0.4,0.6-0.5,1c0,0.3-0.1,0.6-0.3,0.8c-0.2,0.2-0.3,0.4-0.5,0.6
		c-0.2,0.3-0.5,0.3-0.7,0c-0.2-0.3-0.5-0.6-0.6-1c-0.1-0.2-0.1-0.4-0.1-0.6c-0.1-0.5-0.2-0.8-0.6-1.1c-0.1-0.1-0.2-0.3-0.3-0.4
		c-0.1-0.2-0.2-0.3-0.3-0.4c-0.2-0.1-0.3-0.3-0.4-0.5c-0.3-0.4-0.6-0.7-0.8-1c-0.3-0.4-0.6-0.8-0.9-1.2c0,0-0.1-0.1-0.1-0.1
		c-0.4-0.3-0.7-0.6-1.1-0.9c0,0-0.1-0.1-0.1-0.1c-0.3-0.3-0.6-0.5-0.9-0.8c-0.4-0.3-0.8-0.6-1.1-0.9c-0.3-0.3-0.6-0.4-0.8-0.6
		c-0.4-0.3-0.9-0.6-1.3-0.9c-0.1,0-0.1-0.1-0.2-0.2c-0.1-0.1-0.2-0.3-0.4-0.3c-0.3-0.1-0.6-0.3-0.9-0.4c-0.2-0.1-0.4-0.2-0.5-0.3
		c-0.2-0.1-0.4-0.2-0.6-0.3c-0.1-0.1-0.2-0.1-0.2-0.2c-0.1-0.1-0.2-0.1-0.3-0.1c-0.3,0-0.5-0.2-0.7-0.3c-0.3-0.2-0.7-0.3-1-0.5
		c-0.1,0-0.2-0.1-0.3-0.1c-0.4-0.3-0.8-0.5-1.3-0.6c0,0-0.1,0-0.1,0c-0.3-0.2-0.7-0.5-1-0.7c-0.1,0-0.1-0.1-0.2-0.1
		c-0.5,0-0.8-0.4-1.1-0.7c-0.1-0.1-0.2-0.2-0.3-0.2c-0.4-0.1-0.8-0.4-1.2-0.5c-0.1,0-0.1-0.1-0.2-0.1c-0.2-0.2-0.4-0.3-0.7-0.5
		c0,0,0,0-0.1,0c-0.4-0.4-0.9-0.6-1.4-0.8c-0.1-0.1-0.2-0.2-0.3-0.3c-0.1-0.2-0.3-0.2-0.5-0.3c-0.4-0.2-0.8-0.3-1.2-0.6
		c-0.2-0.2-0.4-0.4-0.7-0.6c0,0-0.1-0.1-0.1-0.1c-0.2-0.1-0.4-0.2-0.6-0.2c-0.3-0.1-0.6-0.3-0.8-0.5c-0.3-0.2-0.6-0.4-0.9-0.7
		c-0.2-0.2-0.5-0.4-0.7-0.6c-0.1-0.1-0.1-0.1-0.2-0.1c-0.3-0.1-0.6-0.3-0.9-0.4c-0.1-0.1-0.2-0.2-0.3-0.3c-0.1-0.1-0.1-0.2-0.2-0.3
		c-0.5-0.2-0.8-0.7-1.2-1c-0.5-0.5-1-1-1.6-1.5c-0.4-0.3-0.8-0.8-1.1-1.2c-0.3-0.3-0.6-0.6-1-1c-0.5-0.5-0.9-1-1.4-1.4
		c-0.4-0.4-0.8-0.8-1.1-1.3c-0.1-0.2-0.2-0.4-0.4-0.5c-0.6-0.5-1-1.3-1.5-1.9c-0.3-0.4-0.5-0.8-0.7-1.2c-0.4-0.6-0.8-1.3-1.2-1.9
		c-0.1-0.1-0.1-0.3-0.2-0.4c-0.1-0.2-0.2-0.4-0.3-0.6c-0.4-0.7-0.8-1.4-1.3-2.1c-0.2-0.3-0.4-0.7-0.6-1c-0.2-0.3-0.3-0.7-0.4-1
		c-0.1-0.3-0.3-0.5-0.5-0.7c-0.1-0.1-0.2-0.3-0.2-0.4c0-0.4-0.1-0.7-0.4-1.1c-0.3-0.3-0.4-0.7-0.6-1.1c-0.1-0.3-0.2-0.6-0.4-0.9
		c-0.1-0.2-0.2-0.4-0.2-0.6c0-0.1,0-0.2,0-0.4c0-0.6-0.2-1.1-0.6-1.5c-0.2-0.2-0.2-0.4-0.2-0.7c0.1-0.4-0.1-0.7-0.2-1.1
		c-0.1-0.2-0.1-0.3-0.1-0.5c-0.1-0.3-0.2-0.5-0.3-0.8c-0.2-0.5-0.4-1-0.2-1.6c0.2-0.6,0-1.2-0.2-1.8c-0.1-0.3-0.1-0.5-0.2-0.8
		c0-0.2-0.1-0.3-0.1-0.5c0-0.2-0.1-0.4-0.1-0.6c-0.1-0.6-0.1-1.2-0.1-1.8c0-2.1,0-4.2,0-6.3c0-0.3,0.1-0.6,0.1-0.9
		c0-0.2,0.1-0.4,0.1-0.6c0-0.1,0-0.2,0-0.2c0.2-0.4,0.3-0.9,0.3-1.4c0-0.2,0-0.4,0.1-0.5c0.2-0.3,0.2-0.6,0.1-0.9
		c-0.1-0.3-0.1-0.6,0-0.9c0-0.2,0-0.4,0-0.6c0-0.6,0-1.1,0.3-1.6c0.2-0.2,0.2-0.6,0.3-0.9c0.1-0.2,0.1-0.5,0.2-0.7
		c0.1-0.2,0.1-0.4,0.1-0.7c-0.1-0.5-0.1-1.1,0.2-1.6c0.2-0.3,0.3-0.6,0.4-0.9c0.1-0.2,0.1-0.5,0-0.7c-0.1-0.4,0-0.8,0.1-1.2
		c0.3-0.9,0.4-1.7,0.5-2.6c0-0.3,0.1-0.5,0.2-0.8c0.1-0.3,0.1-0.6,0-0.9c-0.1-0.2-0.1-0.4-0.1-0.6c0-0.6,0-1.3,0.2-1.9
		c0.1-0.3,0.1-0.7-0.1-1.1c-0.2-0.5-0.3-1-0.3-1.5c0-0.2-0.1-0.4-0.2-0.6c-0.2-0.3-0.3-0.6-0.2-0.9c0-0.1,0-0.1,0-0.2
		c0.1-0.7-0.2-1.2-0.5-1.7c-0.2-0.2-0.2-0.5-0.2-0.8c0.1-0.3-0.1-0.6-0.3-0.9c-0.1-0.1-0.2-0.2-0.3-0.3c-0.2-0.1-0.2-0.3-0.2-0.5
		c0-0.2-0.1-0.4-0.2-0.6c-0.2-0.3-0.5-0.6-0.6-1c-0.1-0.3-0.2-0.6-0.2-0.9c0-0.2,0.1-0.3,0.3-0.4c0.2-0.1,0.4-0.2,0.5-0.2
		c0.2-0.1,0.4-0.2,0.5-0.4c0.2-0.3,0.5-0.5,0.9-0.5c0.2,0,0.4-0.1,0.6-0.3c0.2-0.3,0.6-0.6,1-0.6c0.1,0,0.2-0.1,0.2-0.1
		c0.3-0.2,0.5-0.4,0.8-0.5c0.1-0.1,0.3-0.1,0.4-0.1c0.2,0,0.4-0.1,0.6-0.2c0.3-0.3,0.6-0.5,1.1-0.5c0.1,0,0.3-0.1,0.4-0.2
		c0.2-0.1,0.3-0.2,0.4-0.4c0.2-0.2,0.4-0.3,0.8-0.3c0.2,0,0.4-0.1,0.5-0.2c0.2-0.1,0.3-0.2,0.4-0.3c0.1-0.1,0.2-0.1,0.4-0.1
		c0.4,0,0.7-0.1,1-0.3C28.9,20,29,20,29.1,20c0.3-0.1,0.6-0.2,0.9-0.4c0.1,0,0.2,0,0.4,0c0.2,0,0.4-0.1,0.6-0.2
		c0.3-0.3,0.7-0.5,1.1-0.5c0.2,0,0.4-0.1,0.6-0.2c0.2-0.1,0.4-0.2,0.6-0.3c0.2-0.1,0.4-0.2,0.6-0.2c0.1,0,0.2-0.1,0.3,0
		c0.5,0.1,0.9-0.1,1.3-0.2c0.2,0,0.3-0.2,0.5-0.3c0.1-0.1,0.2-0.1,0.3-0.1c0.2,0,0.4-0.1,0.6-0.2c0.1-0.1,0.3-0.1,0.4,0
		c0.3,0,0.5,0,0.7-0.2c0.1-0.2,0.3-0.2,0.5-0.3c0.2,0,0.5-0.1,0.7-0.2c0.1-0.1,0.2-0.1,0.3,0c0.3,0.2,0.6,0.1,0.9-0.1
		c0.3-0.2,0.7-0.3,1.2-0.4c0,0,0,0,0,0c0.6-0.2,1.2-0.1,1.8-0.2c0.1,0,0.2,0,0.4,0c0.2-0.1,0.5-0.1,0.7-0.2c0.4-0.3,0.9-0.3,1.3-0.4
		c0.3,0,0.6,0,0.8-0.1c0.1,0,0.2,0,0.3-0.1c0.2-0.1,0.3-0.2,0.5-0.1c0.2,0.1,0.5,0.1,0.7-0.1c0.2-0.2,0.5-0.3,0.8-0.4
		c0.3,0,0.6-0.1,0.9-0.1C50.4,14.3,50.4,14.3,51,14z M20.3,67.2C20.2,67.2,20.2,67.2,20.3,67.2c0,0.5,0,1,0.1,1.5
		c0,0.2,0.2,0.4,0.3,0.7c0.3,0.6,0.3,1.2,0.3,1.8c0.1,0.5,0.1,1.1,0.3,1.6c0.1,0.3,0.2,0.5,0.3,0.8c0.1,0.5,0.2,0.9,0.3,1.4
		c0,0.2,0.1,0.4,0.2,0.5c0.3,0.3,0.4,0.7,0.5,1.2c0,0.4,0.2,0.7,0.5,1c0.1,0.1,0.2,0.3,0.2,0.5c0.1,0.2,0,0.3,0.1,0.5
		c0.1,0.2,0.1,0.5,0.3,0.7c0.3,0.3,0.4,0.6,0.5,1c0.1,0.3,0.2,0.6,0.4,0.8c0.2,0.2,0.3,0.5,0.4,0.8c0,0.3,0.2,0.5,0.4,0.7
		c0.1,0.1,0.2,0.2,0.3,0.4c0.2,0.4,0.3,0.7,0.6,1c0.1,0.1,0.1,0.2,0.1,0.4c0.1,0.2,0.1,0.5,0.3,0.7c0.4,0.4,0.6,0.9,1,1.3
		c0.1,0.1,0.2,0.3,0.3,0.5c0.2,0.3,0.3,0.7,0.6,1c0.1,0.1,0.1,0.3,0.2,0.4c0.1,0.2,0.2,0.4,0.3,0.5c0.1,0.1,0.3,0.2,0.4,0.4
		c0.2,0.4,0.5,0.8,0.8,1.2c0.3,0.3,0.4,0.7,0.7,0.9c0,0,0.1,0.1,0.1,0.2c0.1,0.3,0.3,0.5,0.5,0.6c0.1,0,0.2,0.1,0.3,0.2
		c0.2,0.2,0.4,0.4,0.6,0.6c0.1,0.1,0.2,0.2,0.3,0.3c0.1,0.1,0.2,0.2,0.3,0.3c0.3,0.4,0.6,0.8,1.1,1.1c0.1,0,0.1,0.1,0.2,0.2
		c0.1,0.2,0.3,0.3,0.5,0.5c0.1,0.1,0.2,0.2,0.3,0.3c0.4,0.4,0.7,0.9,1.1,1.2c0.5,0.3,0.8,0.8,1.2,1.1c0.1,0.1,0.3,0.2,0.4,0.3
		c0.1,0.1,0.3,0.2,0.4,0.3c0.1,0.2,0.3,0.3,0.6,0.4c0.2,0.1,0.4,0.2,0.5,0.3c0.2,0.1,0.4,0.3,0.6,0.4c0.2,0.1,0.5,0.3,0.6,0.5
		c0.1,0.2,0.3,0.2,0.5,0.3c0.1,0.1,0.3,0.1,0.3,0.2c0.1,0.3,0.4,0.4,0.6,0.5c0.3,0.1,0.5,0.3,0.8,0.5c0.2,0.2,0.4,0.3,0.6,0.3
		c0.2,0,0.4,0.1,0.5,0.3c0.3,0.3,0.6,0.5,1,0.6c0.1,0,0.3,0.1,0.4,0.3c0.1,0.1,0.3,0.2,0.4,0.3c0.4,0.1,0.8,0.3,1.1,0.6
		c0.1,0.1,0.2,0.1,0.3,0.2c0.3,0.1,0.6,0.2,0.8,0.4c0.2,0.1,0.4,0.3,0.5,0.4c0.5,0.3,1,0.5,1.5,0.7c0.3,0.1,0.6,0.2,0.8,0.5
		c0.3,0.4,0.7,0.6,1.2,0.7c0.1,0,0.2,0.1,0.3,0.2c0.1,0.1,0.3,0.1,0.4,0.2c0.4,0.2,0.9,0.3,1.3,0.7c0.1,0.1,0.2,0.1,0.3,0.1
		c0.5,0.1,0.9,0.3,1.3,0.7c0.1,0.1,0.2,0.2,0.3,0.2c0.4,0.1,0.7,0.3,1,0.5c0.1,0.1,0.3,0.2,0.4,0.3c0.2,0.1,0.5,0.3,0.7,0.4
		c0.1,0.1,0.3,0.2,0.4,0.3c0.2,0.2,0.5,0.3,0.7,0.5c0.2,0.1,0.3,0.3,0.4,0.4c0.2,0.1,0.3,0.3,0.5,0.4c0.1,0.1,0.3,0.2,0.4,0.3
		c0.2,0.1,0.4,0.3,0.6,0.4c0.1,0.1,0.1,0.2,0.2,0.2c0.6,0.3,1,0.8,1.4,1.3c0.1,0.1,0.2,0.2,0.3,0.2c0.4,0.4,0.8,0.7,1.1,1.1
		c0.1,0.1,0.2,0.3,0.3,0.4c0.2,0.2,0.3,0.4,0.4,0.6c0.1,0.2,0.2,0.4,0.4,0.5c0.1,0.1,0.2,0.2,0.4,0.3c0.1,0.1,0.2,0.3,0.3,0.4
		c0.2,0.2,0.3,0.4,0.4,0.6c0.1,0.3,0.2,0.7,0.6,1c0.3,0.2,0.4,0.2,0.6,0c0.3-0.3,0.6-0.6,0.7-1c0.1-0.3,0.2-0.5,0.4-0.6
		c0.1-0.1,0.2-0.2,0.2-0.3c0.3-0.6,0.8-1,1.2-1.6c0.2-0.3,0.4-0.5,0.6-0.7c0.1-0.1,0.2-0.2,0.3-0.4c0.1-0.1,0.2-0.2,0.3-0.4
		c0.1-0.1,0.1-0.2,0.1-0.2c0.4-0.2,0.6-0.6,1-0.8c0.2-0.2,0.3-0.3,0.5-0.5c0.1-0.1,0.2-0.2,0.4-0.3c0.2-0.1,0.4-0.3,0.6-0.4
		c0.2-0.1,0.3-0.3,0.5-0.4c0.2-0.2,0.4-0.3,0.6-0.5c0.2-0.2,0.5-0.4,0.8-0.4c0.1,0,0.2-0.1,0.3-0.2c0.3-0.2,0.6-0.5,1.1-0.5
		c0.2,0,0.3-0.1,0.4-0.2c0.2-0.1,0.4-0.3,0.7-0.4c0.4-0.2,0.7-0.3,1-0.7c0-0.1,0.1-0.1,0.2-0.1c0.4-0.2,0.7-0.4,1.1-0.6
		c0.2-0.1,0.3-0.1,0.5-0.2c0.2-0.1,0.4-0.1,0.6-0.2c0.4-0.2,0.9-0.5,1.3-0.8c0.4-0.2,0.8-0.5,1.2-0.6c0.5-0.3,1.1-0.5,1.7-0.7
		c0.1-0.1,0.3-0.2,0.4-0.3c0.3-0.3,0.7-0.5,1.1-0.6c0.1,0,0.3-0.1,0.4-0.2c0.2-0.2,0.5-0.4,0.8-0.5c0.3-0.1,0.7-0.2,0.9-0.5
		c0,0,0.1,0,0.1-0.1c0.4-0.3,0.9-0.6,1.3-0.8c0.1-0.1,0.2-0.1,0.3-0.1c0.3,0,0.5-0.2,0.7-0.4c0.3-0.3,0.6-0.4,0.9-0.5
		c0.2,0,0.3-0.1,0.4-0.2c0.2-0.2,0.4-0.3,0.6-0.4c0.2-0.2,0.5-0.3,0.7-0.4c0.3-0.2,0.6-0.4,0.8-0.6c0.1-0.1,0.2-0.1,0.2-0.2
		c0.1-0.1,0.1-0.2,0.2-0.2c0.5-0.2,0.8-0.6,1.2-0.9c0.7-0.6,1.4-1.2,2.2-1.7c0.1,0,0.1-0.1,0.1-0.1c0.4-0.4,0.8-0.8,1.2-1.2
		c0,0,0.1,0,0.1-0.1c0.2-0.2,0.4-0.3,0.5-0.5c0.4-0.3,0.7-0.6,1-1c0.3-0.4,0.8-0.8,1.2-1.2c0,0,0.1-0.1,0.1-0.1
		c0.1-0.1,0.2-0.2,0.3-0.3c0.2-0.1,0.3-0.3,0.5-0.5c0.1-0.2,0.3-0.3,0.4-0.5c0.1-0.1,0.2-0.2,0.2-0.2c0.2-0.2,0.3-0.5,0.6-0.7
		c0.1,0,0.1-0.1,0.1-0.1c0.2-0.2,0.4-0.4,0.6-0.7c0.4-0.5,0.8-1,1.2-1.5c0.1-0.2,0.3-0.3,0.4-0.5c0.1-0.1,0.2-0.3,0.3-0.4
		c0.1-0.2,0.2-0.3,0.3-0.5c0.2-0.3,0.3-0.5,0.5-0.8c0.1-0.2,0.2-0.5,0.4-0.6c0.2-0.1,0.3-0.2,0.3-0.4c0.1-0.2,0.1-0.4,0.3-0.5
		c0.2-0.2,0.4-0.5,0.5-0.8c0.1-0.2,0.1-0.5,0.3-0.6c0.3-0.2,0.4-0.5,0.4-0.8c0.1-0.3,0.2-0.6,0.5-0.8c0.2-0.1,0.3-0.3,0.3-0.6
		c0-0.4,0.2-0.7,0.5-0.9c0.1-0.1,0.2-0.4,0.3-0.6c0.1-0.3,0.2-0.7,0.3-1c0.3-0.5,0.4-0.9,0.5-1.4c0-0.2,0.1-0.4,0.2-0.6
		c0.3-0.3,0.5-0.7,0.4-1.2c0-0.3,0.1-0.6,0.4-0.9c0.1-0.2,0.2-0.4,0.3-0.6c0.1-0.6,0.1-1.2,0.2-1.7c0.1-0.5,0.2-1,0.3-1.5
		c0-0.3,0.2-0.5,0.2-0.8c0.2-1.1,0.2-2.2,0.3-3.3c0-0.4,0.1-0.8,0.1-1.2c0.1-0.4,0.2-0.9,0.2-1.3c0.1-0.6,0.1-1.2,0.1-1.8
		c0-0.2,0-0.4,0-0.6c0-0.2,0-0.4,0-0.6c0.1-0.7,0-1.3,0-2c0-0.7-0.2-1.4-0.4-2.1c-0.1-0.5-0.1-1-0.1-1.6c0-0.2-0.1-0.4-0.1-0.6
		c0.1-1.3-0.3-2.5-0.5-3.7c-0.1-0.6-0.3-1.2-0.3-1.7c0-0.8-0.2-1.6-0.3-2.5c0-0.1-0.1-0.1-0.1-0.2c-0.1-0.4-0.2-0.7-0.3-1.1
		c0-0.2,0-0.4,0-0.6c-0.1-0.7-0.2-1.4-0.3-2.2c0-0.3-0.1-0.5-0.2-0.8c-0.2-0.4-0.2-0.8-0.2-1.2c0-0.3,0-0.5,0-0.8
		c0-0.7-0.1-1.3-0.1-2c0-0.6,0-1.1,0-1.7c0-0.6,0-1.3,0-1.9c0-0.5,0.1-1,0.4-1.4c0.2-0.2,0.2-0.5,0.2-0.8c0-0.5,0.1-0.9,0.1-1.4
		c0-0.3,0.1-0.5,0.3-0.7c0,0,0.1-0.1,0.1-0.2c0.1-0.4,0.2-0.7,0.3-1.1c0-0.2,0.1-0.4,0.1-0.6c0.1-0.2,0.2-0.4,0.2-0.6
		c0-0.3,0.2-0.6,0.3-0.8c0.2-0.4,0.1-0.7-0.3-1c-0.5-0.3-0.9-0.5-1.4-0.7c-0.4-0.2-0.8-0.4-1.3-0.6c-0.2-0.1-0.4-0.2-0.6-0.3
		c-0.2-0.1-0.4-0.2-0.6-0.3c-0.5-0.1-1-0.2-1.4-0.6c-0.2-0.2-0.5-0.3-0.7-0.3c-0.5,0-0.8-0.3-1.2-0.5c-0.2-0.1-0.3-0.2-0.5-0.2
		c-0.5-0.1-1-0.1-1.5-0.5c0,0-0.1,0-0.1-0.1c-0.5-0.2-1-0.4-1.6-0.4c-0.1,0-0.2,0-0.2-0.1c-0.2-0.1-0.4-0.2-0.5-0.3
		c-0.2-0.1-0.5-0.2-0.7-0.3c-0.3,0-0.6-0.2-0.9-0.4c-0.3-0.2-0.6-0.3-1-0.4c-0.8-0.1-1.6-0.2-2.3-0.6c-0.4-0.2-0.9-0.3-1.3-0.3
		c-0.4,0-0.8-0.1-1.1-0.4c-0.1-0.1-0.1-0.1-0.2-0.1c-0.4-0.1-0.7-0.2-1.1-0.2c-0.3,0-0.6-0.1-0.9-0.2c-0.1-0.1-0.3-0.2-0.4-0.2
		c-0.5-0.1-0.9-0.2-1.4-0.2c-0.2,0-0.4,0-0.6-0.1c-0.7-0.2-1.5-0.3-2.2-0.5c-0.6-0.2-1.3-0.3-2-0.3c-0.5,0-1,0-1.4-0.2
		c-0.2-0.1-0.4-0.2-0.7-0.3c-0.4-0.2-0.9-0.2-1.3-0.3c-0.4,0-0.8,0-1.3,0c-0.6,0-1.2-0.3-1.8-0.4c-0.5-0.1-1-0.2-1.5-0.2
		c-1.3-0.1-2.7-0.1-4-0.1c-0.4,0-0.8,0-1.1,0c-1-0.1-2-0.2-3-0.2c-0.2,0-0.3,0-0.5,0c-0.5,0-0.9,0-1.4,0c-0.4,0-0.8,0.1-1.2,0.1
		c-0.3,0-0.6,0-0.9,0c-0.9,0-1.7,0-2.6,0c-0.9,0.1-1.9,0.1-2.8,0.1c-0.4,0-0.8,0-1.3,0.1c-0.7,0-1.3,0.1-2,0.1
		c-0.8,0.1-1.6,0.1-2.4,0.3c-0.4,0.1-0.8,0.2-1.1,0.3c-0.6,0.1-1.2,0.1-1.8,0.1c-0.6,0-1.3,0-1.9,0.2c-0.2,0.1-0.4,0.1-0.5,0.2
		c-0.6,0.3-1.2,0.3-1.8,0.3c-0.8,0-1.6,0.1-2.3,0.4c-0.2,0.1-0.5,0.2-0.7,0.2c-0.7,0.1-1.4,0.2-2,0.2c-0.6,0.1-1.2,0.1-1.6,0.5
		c-0.2,0.1-0.4,0.1-0.6,0.2c-0.1,0-0.3,0-0.5,0c-0.4,0.1-0.8,0.1-1.1,0.4c-0.3,0.3-0.7,0.4-1,0.4c-0.8,0-1.5,0.2-2.1,0.6
		c-0.1,0-0.2,0.1-0.2,0.1c-0.4,0.1-0.8,0.1-1.2,0.1c-0.3,0.1-0.6,0.1-0.9,0.4c-0.1,0.1-0.2,0.2-0.4,0.2C33.5,20,33.3,20,33,20
		c-0.4,0-0.7,0.1-0.9,0.4c-0.2,0.2-0.5,0.3-0.8,0.4c-0.4,0.1-0.8,0.1-1.1,0.4c-0.2,0.2-0.5,0.3-0.8,0.3c-0.3,0-0.6,0.1-0.9,0.3
		c-0.3,0.2-0.6,0.3-0.9,0.5c-0.2,0.1-0.5,0.2-0.7,0.3c-0.4,0.2-0.8,0.5-1.3,0.6c-0.2,0.1-0.4,0.2-0.7,0.3c-0.2,0.1-0.4,0.1-0.5,0.2
		c-0.2,0.1-0.4,0.1-0.5,0.2c-0.2,0.1-0.4,0.3-0.6,0.4c-0.1,0.1-0.2,0.1-0.3,0.1c-0.5,0-0.8,0.3-1.2,0.6c-0.4,0.4-0.9,0.6-1.4,0.8
		c-0.4,0.2-0.6,0.6-0.5,1c0.1,0.3,0.2,0.5,0.4,0.7c0.2,0.2,0.3,0.4,0.4,0.7c0.2,0.3,0.3,0.7,0.4,1.1c0.1,0.1,0.2,0.3,0.2,0.4
		c0.1,0.6,0.2,1.2,0.3,1.8c0,0.2,0.1,0.4,0.2,0.6c0.4,0.4,0.5,0.9,0.5,1.4c-0.1,0.7,0.3,1.4,0.3,2.1c0,0,0,0.1,0,0.1
		c0.2,0.3,0.2,0.7,0.3,1.1c0.1,0.7,0.1,1.5,0.1,2.2c0,0.7-0.1,1.4-0.1,2.1c0,0.1-0.1,0.3-0.2,0.4c-0.1,0.2-0.2,0.5-0.3,0.7
		c-0.1,0.5-0.1,1-0.2,1.5c0,0.3-0.1,0.6-0.2,0.9c-0.1,0.4-0.4,0.7-0.4,1.1c0,0.5-0.1,1-0.1,1.5c-0.1,0.5-0.1,0.9-0.3,1.3
		c-0.1,0.2-0.2,0.5-0.2,0.8c-0.1,0.5-0.1,1.1-0.1,1.7c0,0.6-0.1,1.1-0.1,1.7c-0.1,0.4-0.1,0.8-0.3,1.2c-0.1,0.1-0.1,0.2-0.1,0.3
		c0,0.7-0.1,1.4-0.1,2.1c0,0.3,0,0.6-0.1,0.8c-0.1,0.3-0.1,0.6,0,0.9c0,0.1,0,0.3,0,0.4c0,0.2,0,0.5,0,0.7c0,1.6,0,3.3,0,4.9
		c0,0.1,0,0.3,0,0.4C20.1,65.3,20.2,66.3,20.3,67.2z"/>
	<path d="M64,15.7c0.5,0,1,0,1.5,0c0.4,0,0.7,0,1.1,0c0.7,0,1.4,0,2.1,0c0.3,0,0.7-0.1,1,0c0.5,0,1,0,1.5,0.1c0.5,0,1.1,0.1,1.6,0.1
		c0.2,0,0.4,0.1,0.6,0c0.7,0,1.5,0.1,2.2,0.2c0.1,0,0.2,0,0.4,0.1c0.7,0.2,1.4,0.3,2.2,0.3c1,0,2,0.1,3,0.2c0.1,0,0.2,0,0.2,0.1
		c0.3,0.2,0.7,0.2,1,0.3c0.4,0.1,0.9,0.1,1.3,0.1c0.5,0.1,1,0.1,1.5,0.2c0.2,0,0.4,0.2,0.6,0.2c0.2,0.1,0.4,0.1,0.7,0.2
		c0.6,0.1,1.3,0.1,1.9,0.2c0.5,0,1,0.1,1.4,0.2c0.3,0,0.6,0.1,0.9,0.3c0.3,0.1,0.7,0.2,1,0.3c0.4,0.1,0.8,0.1,1.2,0.2
		c0.3,0.1,0.7,0.2,1,0.4c0,0,0.1,0.1,0.1,0.1c0.6,0.1,1.2,0.3,1.8,0.3c0.4,0.1,0.7,0.2,1.1,0.4c0.1,0,0.1,0.1,0.2,0.1
		c0.6,0.1,1.2,0.2,1.9,0.4c0.2,0,0.4,0.1,0.6,0.2c0.3,0.1,0.6,0.2,0.9,0.3c0.4,0.1,0.8,0.3,1.2,0.4c0.4,0.1,0.7,0.3,1.1,0.4
		c0.7,0.2,1.4,0.3,2.1,0.6c0.3,0.1,0.7,0.2,1,0.3c0.3,0.1,0.7,0.3,1,0.4c0.3,0.1,0.6,0.2,0.9,0.3c0.4,0.1,0.7,0.4,1.1,0.5
		c0.7,0.2,1.4,0.6,2.1,0.9c0.4,0.2,0.9,0.4,1.4,0.5c0.5,0.2,0.8,0.6,0.8,1.1c0,0.9-0.2,1.7-0.6,2.4c-0.2,0.3-0.2,0.6-0.3,1
		c-0.1,0.3,0,0.6-0.1,0.9c-0.1,0.4-0.2,0.7-0.3,1.1c0,0.1-0.1,0.2-0.1,0.3c-0.2,0.8-0.2,1.7-0.2,2.5c0,1.1,0,2.1,0,3.2
		c0,0.6,0.1,1.3,0.1,1.9c0,0.3,0,0.5,0.1,0.8c0.1,0.5,0.2,0.9,0.4,1.4c0.1,0.3,0.1,0.6,0.1,0.9c0.1,0.9,0.2,1.7,0.4,2.5
		c0.2,0.7,0.3,1.4,0.3,2.1c0,0.6,0.1,1.2,0.1,1.8c0,0.3,0.1,0.6,0.2,0.9c0.3,0.7,0.3,1.4,0.4,2.2c0,1.4,0.1,2.7,0.1,4.1
		c0,0.1,0,0.1,0,0.2c0.2,0.6,0.1,1.3,0.1,1.9c0,0.2,0,0.4,0.1,0.6c0.1,0.4,0.2,0.7,0.1,1.1c-0.2,0.5-0.2,1.1-0.2,1.6
		c0,0.6,0,1.2,0,1.8c0,1-0.1,2-0.1,3c0,0.4-0.1,0.9-0.1,1.3c-0.1,0.3-0.2,0.6-0.3,0.9c-0.2,0.5-0.2,1-0.3,1.5c0,0.5,0,0.9-0.1,1.4
		c0,0.3-0.1,0.6-0.3,0.8c-0.2,0.3-0.3,0.5-0.4,0.9c0,0.3-0.1,0.5-0.1,0.8c0,0.2-0.1,0.4-0.3,0.6c-0.3,0.2-0.4,0.6-0.4,0.9
		c0,0.5-0.1,0.9-0.4,1.3c-0.2,0.3-0.3,0.7-0.4,1c0,0.3-0.1,0.6-0.4,0.9c-0.1,0.1-0.2,0.3-0.3,0.5c-0.2,0.5-0.4,1-0.7,1.4
		c0,0,0,0.1,0,0.1c-0.1,0.5-0.5,0.9-0.7,1.3c-0.1,0.1-0.1,0.2-0.1,0.3c-0.1,0.3-0.2,0.4-0.4,0.6c-0.2,0.2-0.3,0.4-0.4,0.6
		c-0.2,0.4-0.4,0.8-0.7,1.1c-0.3,0.4-0.6,0.9-0.9,1.4c-0.1,0.2-0.2,0.3-0.4,0.5c-0.1,0.2-0.2,0.3-0.3,0.5c-0.1,0.1-0.1,0.2-0.2,0.2
		c-0.3,0.4-0.6,0.7-0.9,1.1c-0.1,0.1-0.1,0.1-0.2,0.2c-0.4,0.6-0.9,1.1-1.5,1.6c-0.4,0.4-0.7,0.8-1.1,1.2c-0.1,0.1-0.2,0.2-0.4,0.4
		c-0.2,0.2-0.3,0.3-0.5,0.5c-0.3,0.3-0.7,0.7-1,1c-0.4,0.3-0.8,0.7-1.2,1c0,0,0,0,0,0c-0.7,0.4-1.3,1.1-2,1.6
		c-0.1,0.1-0.2,0.2-0.3,0.3c-0.2,0.1-0.3,0.2-0.5,0.4c-0.1,0.1-0.2,0.1-0.3,0.1c-0.3,0.3-0.7,0.5-1.1,0.7c-0.1,0-0.2,0.1-0.2,0.1
		c-0.3,0.4-0.9,0.7-1.3,1c-0.2,0.1-0.4,0.2-0.6,0.3c-0.3,0.2-0.5,0.3-0.7,0.5c0,0-0.1,0.1-0.1,0.1c-0.4,0.1-0.8,0.3-1.1,0.7
		c-0.2,0.2-0.4,0.2-0.7,0.3c-0.1,0-0.1,0-0.2,0.1c-0.5,0.4-1.1,0.5-1.6,0.9c-0.1,0-0.1,0.1-0.2,0.2c-0.1,0.1-0.3,0.2-0.4,0.2
		c-0.4,0.1-0.8,0.3-1.1,0.6c-0.1,0.1-0.2,0.2-0.3,0.2c-0.5,0.1-0.9,0.4-1.3,0.7c-0.1,0.1-0.3,0.2-0.5,0.2c-0.4,0.1-0.8,0.3-1.1,0.5
		c-0.2,0.1-0.5,0.2-0.7,0.3c-0.3,0.2-0.6,0.4-1,0.5c-0.7,0.3-1.2,0.8-1.9,1c-0.4,0.1-0.7,0.4-1.1,0.5c0,0-0.1,0.1-0.1,0.1
		c-0.4,0.1-0.7,0.4-1.1,0.5c0,0,0,0,0,0c-0.4,0.2-0.8,0.5-1.2,0.7c-0.4,0.2-0.8,0.4-1.1,0.5c-0.1,0-0.1,0.1-0.2,0.1
		c-0.3,0.4-0.8,0.6-1.2,0.8c-0.1,0.1-0.2,0.1-0.3,0.2c-0.2,0.2-0.4,0.3-0.6,0.4c-0.3,0.3-0.7,0.4-1.1,0.7c-0.7,0.6-1.3,1.2-1.9,1.9
		c-0.3,0.3-0.5,0.6-0.8,0.9c-0.2,0.2-0.4,0.5-0.6,0.7c-0.1,0.2-0.3,0.3-0.4,0.5c-0.1,0.2-0.2,0.4-0.3,0.6c-0.1,0.1-0.1,0.2-0.2,0.3
		c-0.2,0.3-0.6,0.4-0.8,0c-0.3-0.5-0.8-0.9-1-1.5c-0.1-0.2-0.2-0.3-0.3-0.4c-0.1-0.2-0.3-0.3-0.5-0.5c-0.1-0.1-0.1-0.2-0.2-0.3
		c-0.2-0.2-0.4-0.4-0.6-0.7c-0.1-0.1-0.2-0.2-0.3-0.3c-0.1,0-0.1-0.1-0.2-0.1c-0.3-0.3-0.6-0.7-0.9-1c-0.1-0.2-0.3-0.3-0.5-0.4
		c-0.2-0.1-0.3-0.2-0.5-0.3c-0.2-0.2-0.5-0.3-0.7-0.5c-0.2-0.2-0.4-0.3-0.7-0.5c-0.1,0-0.1-0.1-0.1-0.1c-0.5-0.3-1-0.6-1.5-0.9
		c0,0,0,0-0.1,0c-0.5,0-0.9-0.4-1.3-0.6c-0.1-0.1-0.2-0.1-0.3-0.1c-0.4-0.1-0.7-0.5-1.1-0.7c-0.3-0.1-0.5-0.2-0.8-0.4
		c-0.1,0-0.1,0-0.2-0.1c-0.4-0.2-0.8-0.5-1.2-0.7c-0.5-0.3-1-0.6-1.3-1c0,0-0.1-0.1-0.1-0.1c-0.5-0.3-0.9-0.5-1.4-0.8
		c-0.1,0-0.2-0.1-0.3-0.1c-0.2-0.1-0.4-0.2-0.5-0.3c-0.3-0.4-0.7-0.5-1.1-0.6c-0.1,0-0.3-0.1-0.3-0.2c-0.3-0.3-0.7-0.5-1-0.6
		c-0.2-0.1-0.4-0.2-0.6-0.3c-0.1,0-0.1-0.1-0.2-0.1c-0.4-0.2-0.8-0.4-1.2-0.8c-0.1-0.1-0.3-0.2-0.5-0.2c-0.2-0.1-0.4-0.2-0.5-0.3
		c-0.2-0.2-0.4-0.3-0.6-0.4c-0.3-0.1-0.6-0.2-0.8-0.5c-0.1-0.1-0.2-0.2-0.3-0.2c-0.5-0.1-0.9-0.4-1.2-0.7c-0.3-0.3-0.6-0.5-0.8-0.8
		c-0.1-0.1-0.2-0.1-0.4-0.2c-0.1-0.1-0.3-0.1-0.4-0.2c-0.7-0.5-1.4-1.2-2-1.8c-0.2-0.1-0.3-0.3-0.5-0.4c0,0-0.1,0-0.1-0.1
		c-0.3-0.4-0.7-0.7-1.1-1c-0.2-0.2-0.4-0.3-0.6-0.5c0,0-0.1-0.1-0.1-0.1c-0.3-0.3-0.6-0.7-0.9-1c-0.4-0.4-0.8-0.7-1.2-1.1
		c-0.3-0.3-0.7-0.7-1-1.1c-0.1-0.1-0.2-0.3-0.3-0.4c-0.1-0.1-0.1-0.2-0.2-0.2c-0.2-0.3-0.4-0.7-0.7-0.9c-0.4-0.4-0.6-0.9-1-1.3
		c-0.1-0.1-0.2-0.3-0.2-0.4c-0.2-0.3-0.4-0.6-0.6-0.9c-0.1-0.2-0.2-0.3-0.3-0.5c-0.4-0.4-0.7-0.9-0.9-1.5c0,0,0-0.1-0.1-0.1
		c-0.4-0.3-0.5-0.8-0.6-1.2c-0.1-0.2-0.2-0.4-0.3-0.5c-0.1-0.2-0.2-0.4-0.3-0.5c-0.1-0.3-0.2-0.5-0.4-0.7c-0.2-0.2-0.3-0.4-0.4-0.7
		c-0.1-0.4-0.3-0.8-0.6-1.2c-0.1-0.1-0.1-0.3-0.2-0.4c-0.1-0.4-0.2-0.8-0.5-1.2c-0.3-0.3-0.3-0.7-0.4-1.1c0-0.3-0.1-0.7-0.3-0.9
		c-0.3-0.4-0.4-0.9-0.5-1.3c0-0.6-0.2-1.1-0.4-1.6c-0.2-0.4-0.2-0.8-0.3-1.2c0-0.3,0-0.7-0.1-1c-0.1-0.4-0.1-0.8-0.2-1.2
		c0,0,0-0.1-0.1-0.1c-0.4-0.4-0.4-0.9-0.4-1.5c0-1-0.2-2-0.5-3c-0.1-0.3-0.2-0.7-0.1-1c0-1.1-0.1-2.1-0.2-3.2c0-0.1,0-0.2,0-0.2
		c0-1,0-2,0-3c0-0.5,0.1-1.1,0.2-1.6c0-0.4,0.1-0.7,0.1-1.1c0-0.2,0-0.4,0.1-0.6c0.3-0.8,0.4-1.7,0.5-2.6c0-0.5,0.1-0.9,0.4-1.4
		c0.1-0.2,0.2-0.5,0.2-0.8c0.1-0.8,0.2-1.6,0.3-2.4c0-0.1,0-0.1,0-0.2c0.4-0.9,0.5-1.8,0.7-2.7c0-0.2,0.1-0.4,0.2-0.5
		c0.3-0.5,0.4-1,0.4-1.5c0-0.6,0.1-1.1,0.1-1.7c0-0.1,0-0.2,0-0.3c0-0.7,0-1.3,0-2c0-1-0.1-1.9-0.1-2.9c0-0.4,0-0.8-0.1-1.2
		c0-0.2-0.1-0.5-0.2-0.7c-0.2-0.4-0.3-0.7-0.4-1.1c-0.1-0.6-0.2-1.1-0.4-1.6c-0.2-0.5-0.3-1-0.4-1.5c-0.1-0.2-0.2-0.5-0.4-0.7
		c-0.2-0.3-0.4-0.6-0.5-0.9c-0.1-0.3,0-0.6,0.3-0.8c0.2-0.1,0.3-0.3,0.5-0.4c0.1-0.1,0.2-0.1,0.3-0.2c0.4-0.2,0.8-0.4,1.2-0.7
		c0.1-0.1,0.2-0.1,0.3-0.2c0.5-0.1,1-0.3,1.4-0.6c0.3-0.2,0.6-0.2,0.9-0.3c0.4-0.1,0.7-0.3,1-0.4c0.1,0,0.2-0.1,0.2-0.1
		c0.6-0.3,1.2-0.5,1.8-0.8c0.3-0.1,0.7-0.2,1-0.3c0.3-0.1,0.5-0.2,0.8-0.3c0.5-0.3,1-0.5,1.6-0.6c0.2,0,0.3-0.2,0.5-0.2
		c0.4-0.1,0.8-0.3,1.2-0.4c0.4-0.1,0.7-0.2,1-0.4c0.3-0.2,0.6-0.2,0.9-0.3c0.5-0.1,1-0.2,1.5-0.3c0.4-0.1,0.8-0.3,1.2-0.4
		c0.4-0.1,0.9-0.2,1.4-0.3c0.1,0,0.1,0,0.2,0c0.5-0.3,1.1-0.4,1.7-0.6c0.1,0,0.2,0,0.3,0c0.5,0,1-0.2,1.4-0.4c0.1,0,0.2,0,0.3-0.1
		c0.7-0.1,1.3-0.2,2-0.3c0.5-0.1,1-0.1,1.5-0.2c0.2,0,0.4-0.1,0.5-0.2c0.3-0.2,0.7-0.2,1.1-0.2c0.4-0.1,0.9-0.1,1.3-0.2
		c0.3-0.1,0.6-0.2,0.9-0.3c0.4-0.1,0.7-0.2,1.1-0.2c0.8-0.1,1.6-0.2,2.5-0.3c0.5-0.1,1.1-0.2,1.6-0.3c0.4-0.1,0.8-0.1,1.2-0.2
		c0.5,0,1-0.1,1.5-0.1c1.2,0,2.3,0,3.5-0.1C63.5,15.7,63.8,15.7,64,15.7C64,15.7,64,15.7,64,15.7z M41.6,21c-0.6-0.2-0.7-0.2-1,0
		c-0.4,0.3-0.9,0.4-1.4,0.5c-0.1,0-0.3,0-0.4,0.1c-0.2,0.1-0.4,0.1-0.6,0.1c-0.3-0.1-0.5,0-0.7,0.2c-0.2,0.2-0.4,0.3-0.7,0.3
		c-0.2,0-0.3,0.1-0.4,0.2c-0.1,0.1-0.2,0.2-0.3,0.1c-0.4-0.2-0.7,0-0.9,0.3c-0.1,0.1-0.3,0.2-0.5,0.2c-0.2,0-0.3,0.1-0.5,0.2
		c-0.1,0-0.3,0.2-0.4,0.1c-0.3-0.1-0.4,0.1-0.6,0.2c-0.2,0.1-0.4,0.3-0.6,0.4c-0.1,0.1-0.2,0.1-0.3,0.1c-0.3-0.1-0.6,0-0.9,0.3
		c-0.1,0.1-0.3,0.2-0.5,0.2c-0.2,0-0.4,0.1-0.6,0.2C30,25,29.8,25,29.5,25c-0.1,0-0.2,0.1-0.4,0.1c-0.3,0.1-0.5,0.3-0.7,0.5
		c-0.1,0-0.2,0-0.3,0c-0.2,0-0.5,0-0.6,0.1c-0.4,0.3-1,0.3-1.4,0.6c0,0-0.1,0-0.2,0c-0.2,0-0.4,0.1-0.5,0.2
		c-0.3,0.2-0.5,0.4-0.8,0.6c-0.1,0-0.2,0.1-0.2,0.1c-0.3,0-0.4,0.1-0.4,0.4c-0.1,0.4,0,1.1,0.4,1.4c0.3,0.2,0.4,0.5,0.3,0.8
		c-0.1,0.5,0.1,0.9,0.3,1.4c0,0.1,0.1,0.2,0.2,0.2c0.3,0.2,0.3,0.4,0.3,0.7c-0.1,0.3,0,0.6,0.1,1c0.1,0.3,0.1,0.5,0.2,0.8
		c0,0.1,0.1,0.3,0.1,0.4c0.1,0.5,0.3,1,0.3,1.5c0,0.5,0.1,1,0.1,1.5c0,0.8,0,1.6,0,2.4c0,0.6-0.1,1.1-0.1,1.7c0,0.2,0,0.5-0.1,0.7
		c-0.1,0.4-0.2,0.9-0.4,1.3c-0.2,0.5-0.3,1-0.2,1.5c0,0.2,0,0.3-0.1,0.4c-0.3,0.1-0.4,0.5-0.5,0.8c-0.1,0.4-0.2,0.7-0.2,1.1
		c0.1,0.4,0,0.7-0.3,1c-0.1,0.1-0.1,0.2-0.1,0.3c-0.1,0.3-0.1,0.6-0.2,1c-0.2,0.5-0.2,1.1-0.1,1.6c0.1,0.6-0.1,1.2-0.3,1.7
		c-0.1,0.4-0.2,0.7-0.3,1.1c0,0.3-0.1,0.6-0.2,1C23.1,55,23,55.1,23,55.2c0.1,0.5,0.1,1,0,1.5c0,0.2,0,0.3,0,0.5
		c0,0.5,0,0.9,0.1,1.4c0,0.7,0,1.5,0,2.2c0,0.1,0,0.3,0,0.4c0.1,0.4,0.1,0.8,0,1.2c-0.1,0.3-0.1,0.6,0.1,1c0,0.1,0.1,0.2,0.1,0.3
		c0,0.5,0,1,0.1,1.5c0,0.5,0.1,0.9,0.1,1.4c0,0.1,0.1,0.2,0.1,0.3c0.2,0.5,0.3,1.1,0.3,1.6c0,0.3,0,0.6,0.1,0.9
		c0.1,0.4,0.2,0.7,0.2,1.1c0,0.3,0,0.6,0.3,0.9c0.4,0.3,0.4,0.7,0.3,1.1c-0.1,0.2,0,0.5,0.1,0.7c0.1,0.4,0.3,0.7,0.7,0.9
		c0,0.2,0,0.4,0,0.6c-0.1,0.6,0.1,1.1,0.5,1.6c0.1,0.1,0.2,0.3,0.2,0.4c0,0.2,0,0.3,0,0.5c0,0.2,0.1,0.4,0.1,0.6
		c0.1,0.4,0.3,0.7,0.5,0.9c0.1,0.1,0.1,0.2,0.2,0.3c0.2,0.4,0.3,0.8,0.6,1.1c0,0,0.1,0.1,0.1,0.1c0.1,0.5,0.4,1,0.7,1.4
		c0.1,0.1,0.1,0.2,0.1,0.3c0.1,0.4,0.3,0.9,0.7,1.2c0.1,0.1,0.2,0.2,0.2,0.3c0.1,0.3,0.2,0.5,0.4,0.6c0.1,0.1,0.2,0.2,0.3,0.4
		c0.2,0.4,0.3,0.8,0.7,1.1c0.1,0.1,0.1,0.1,0.1,0.2c0,0.3,0.2,0.5,0.4,0.7c0.1,0.1,0.2,0.2,0.3,0.3c0.5,0.7,0.9,1.4,1.5,2
		C33,88.9,33,89,33.1,89c0,0.1,0.1,0.2,0.2,0.3c0.4,0.3,0.7,0.7,1,1c0.1,0.1,0.2,0.1,0.3,0.2c0.3,0.5,0.9,0.7,1.2,1.2
		c0,0.1,0.1,0.1,0.2,0.1c0.1,0.1,0.2,0.1,0.3,0.2c0.3,0.3,0.5,0.7,0.8,0.9c0.6,0.6,1.3,1.2,2,1.7c0.2,0.2,0.5,0.3,0.6,0.6
		c0.1,0.1,0.2,0.2,0.3,0.2c0.4,0.2,0.7,0.4,1,0.7c0.3,0.3,0.6,0.6,1,0.8c0,0,0,0,0,0c0.2,0.1,0.4,0.3,0.6,0.5
		c0.1,0.1,0.2,0.3,0.4,0.3c0.4,0,0.6,0.2,0.8,0.5c0.1,0.2,0.2,0.2,0.4,0.3c0.2,0.1,0.4,0.1,0.6,0.2c0.4,0.2,0.8,0.3,1,0.6
		c0,0,0,0,0,0c0.3,0.1,0.6,0.3,0.7,0.6c0.1,0,0.1,0,0.1,0c0.5,0,0.9,0.3,1.2,0.6c0.1,0.1,0.2,0.2,0.4,0.2c0.5,0,0.8,0.2,1.1,0.5
		c0.2,0.1,0.3,0.2,0.5,0.3c0.3,0.1,0.6,0.2,0.8,0.5c0.1,0.2,0.3,0.3,0.5,0.5c0.5,0.4,1.3,0.5,1.8,0.9c0.1,0.1,0.2,0.2,0.3,0.2
		c0.1,0.1,0.2,0.2,0.3,0.2c0.4,0.1,0.7,0.4,1,0.7c0.1,0.1,0.1,0.2,0.2,0.2c0.2,0.1,0.5,0.2,0.7,0.3c0.2,0.1,0.3,0.2,0.4,0.3
		c0.2,0.1,0.3,0.3,0.5,0.4c0.4,0.2,0.8,0.4,1.3,0.5c0.1,0,0.2,0.1,0.3,0.2c0.3,0.2,0.6,0.4,0.9,0.6c0,0,0.1,0,0.2,0
		c0.2,0.1,0.5,0.2,0.7,0.3c0.3,0.3,0.7,0.6,1.1,0.8c0.1,0,0.1,0.1,0.2,0.2c0.2,0.1,0.3,0.3,0.5,0.4c0.2,0.1,0.3,0.2,0.5,0.3
		c0.3,0.2,0.6,0.5,0.9,0.7c0.4,0.3,0.7,0.6,1.1,0.9c0.1,0,0.1,0.1,0.1,0.2c0.1,0.2,0.3,0.3,0.4,0.5c0.1,0.1,0.3,0.3,0.4,0.4
		c0.4,0.5,0.8,1,1.2,1.6c0.1,0,0.2,0,0.3,0c0.1,0,0.2,0,0.3,0.1c0.2,0.1,0.4,0.1,0.5-0.1c0.1-0.1,0.1-0.3,0.2-0.3
		c0.3-0.2,0.6-0.5,0.8-0.9c0.5-0.3,0.7-0.8,1.1-1.2c0.4-0.4,0.9-0.8,1.4-1c0.2-0.1,0.4-0.2,0.6-0.4c0.2-0.3,0.4-0.6,0.7-0.8
		c0.4-0.3,0.7-0.5,1.2-0.7c0.2-0.1,0.3-0.2,0.4-0.3c0.1-0.1,0.2-0.1,0.2-0.2c0.4-0.2,0.7-0.5,1.1-0.7c0.2-0.1,0.4-0.2,0.6-0.3
		c0.2-0.1,0.4-0.2,0.5-0.3c0.2-0.2,0.5-0.4,0.9-0.4c0.3,0,0.5-0.1,0.7-0.3c0.2-0.2,0.4-0.4,0.7-0.4c0.4,0,0.6-0.2,0.9-0.4
		c0.2-0.2,0.5-0.5,0.9-0.5c0.3,0,0.5-0.1,0.7-0.3c0.2-0.2,0.5-0.5,0.9-0.5c0.2,0,0.4-0.1,0.5-0.2c0.2-0.2,0.4-0.2,0.6-0.2
		c0.5,0,0.9-0.2,1.1-0.6c0.1-0.3,0.4-0.4,0.7-0.4c0.4,0,0.6-0.2,0.8-0.4c0.3-0.3,0.6-0.5,1-0.4c0.3,0,0.5-0.1,0.6-0.3
		c0.2-0.2,0.4-0.4,0.7-0.4c0.2,0,0.3-0.1,0.4-0.3c0.1-0.2,0.2-0.3,0.4-0.3c0.2-0.1,0.3-0.2,0.4-0.3c0.1-0.1,0.2-0.2,0.4-0.3
		c0.6-0.1,1.1-0.5,1.7-0.7c0.2-0.1,0.4-0.2,0.6-0.3c0.3-0.1,0.6-0.3,0.7-0.6c0,0,0.1-0.1,0.1-0.1c0.5-0.4,1-0.8,1.5-1
		c0.2-0.1,0.4-0.2,0.5-0.4c0.1-0.1,0.2-0.2,0.4-0.3c0.2-0.1,0.3-0.3,0.5-0.4c0.3-0.2,0.6-0.5,0.9-0.7c0.4-0.3,0.8-0.5,1.2-0.9
		c0.2-0.2,0.3-0.3,0.5-0.4c0.3-0.3,0.7-0.6,1-0.9c0,0,0-0.1,0.1-0.1c0.3-0.3,0.7-0.7,1-1c0.3-0.2,0.5-0.5,0.8-0.7
		c0.3-0.3,0.6-0.6,0.9-0.9c0.2-0.2,0.4-0.4,0.6-0.6c0.2-0.3,0.5-0.6,0.8-0.9c0.3-0.2,0.5-0.5,0.7-0.8c0,0,0,0,0-0.1
		c0.4-0.6,0.9-1.1,1.3-1.7c0.3-0.5,0.7-0.9,1-1.4c0-0.1,0.1-0.1,0.1-0.2c0.2-0.3,0.4-0.6,0.6-0.9c0.1-0.1,0.1-0.3,0.2-0.3
		c0.3-0.2,0.4-0.5,0.6-0.8c0.1-0.1,0.1-0.3,0.2-0.4c0.2-0.3,0.3-0.6,0.5-0.9c0.1-0.3,0.3-0.6,0.5-0.8c0.2-0.2,0.3-0.4,0.4-0.6
		c0.1-0.3,0.2-0.5,0.3-0.8c0.3-0.5,0.5-1.1,0.6-1.7c0-0.1,0-0.3,0.1-0.4c0.3-0.2,0.2-0.6,0.3-0.9c0-0.1,0-0.1,0-0.2
		c0.2-0.4,0.3-0.8,0.3-1.3c0,0,0,0,0-0.1c0.4-0.2,0.6-0.6,0.6-1.1c0-0.3,0-0.6,0-0.8c0-0.2,0-0.4,0-0.6c0.4-0.2,0.5-0.5,0.6-0.9
		c0-0.2,0.1-0.5,0.1-0.7c0-0.3,0.1-0.6,0.1-0.9c0-0.3,0-0.7,0-1c0-0.1,0-0.2,0-0.4c0-0.4,0.1-0.8,0.2-1.2c0.2-0.5,0.2-1,0.2-1.5
		c0-1.6,0.1-3.3,0.1-4.9c0-0.7,0-1.4-0.1-2.2c0-0.4,0-0.8,0-1.2c0-0.2-0.1-0.5-0.1-0.7c0-0.2-0.1-0.5-0.1-0.7c0-0.4,0-0.7-0.1-1.1
		c0-0.1-0.1-0.3-0.1-0.4c0-0.5-0.1-0.9-0.1-1.4c0-0.3,0-0.7,0-1c0-0.2,0-0.4,0-0.6c-0.1-0.4-0.2-0.8-0.2-1.2c0-0.2,0-0.3,0-0.5
		c0-0.4,0-0.8-0.4-1.1c-0.1-0.1-0.2-0.2-0.2-0.4c0-0.5-0.1-0.9-0.2-1.3c0-0.1,0-0.2,0-0.3c-0.1-0.5-0.1-1.1-0.4-1.5
		c-0.1-0.1-0.1-0.2-0.1-0.3c0-0.6-0.1-1.3-0.2-1.9c-0.1-0.6-0.1-1.3-0.2-1.9c0-0.7,0-1.3-0.1-2c-0.1-0.5-0.1-1,0-1.5
		c0.1-0.5,0.1-1,0.1-1.6c-0.1-1,0-2,0.3-3c0.1-0.3,0.1-0.7,0-1.1c-0.2-0.7-0.1-1.3,0.3-1.9c0.1-0.1,0.1-0.3,0.2-0.4
		c0.1-0.3,0.1-0.6,0.2-0.8c0.2-0.3,0.1-0.5-0.1-0.7c-0.3-0.2-0.6-0.4-0.9-0.4c-0.1,0-0.3,0-0.3-0.1c-0.3-0.2-0.6-0.3-0.9-0.5
		c-0.4-0.3-0.8-0.4-1.3-0.4c-0.1,0-0.2,0-0.2-0.1c-0.2-0.1-0.3-0.2-0.5-0.3c-0.2-0.2-0.4-0.3-0.7-0.2c-0.2,0-0.3-0.1-0.5-0.2
		c-0.3-0.2-0.6-0.4-1-0.4c-0.1,0-0.3-0.1-0.3-0.2c-0.2-0.2-0.4-0.2-0.7-0.3c-0.5,0-0.9-0.2-1.3-0.4c-0.1-0.1-0.3-0.2-0.5-0.2
		c-0.4,0.1-0.7,0-1.1-0.2c-0.1,0-0.1,0-0.2,0c-0.2,0-0.4-0.1-0.5-0.2c-0.2-0.1-0.3-0.3-0.5-0.3c-0.4,0-0.8,0-1.1-0.2
		c-0.1,0-0.2,0-0.3,0c-0.2,0-0.4-0.1-0.6-0.3c-0.2-0.2-0.4-0.3-0.7-0.2c-0.2,0.1-0.3,0-0.5-0.1c-0.1-0.1-0.2-0.1-0.3-0.1
		c-0.5,0-0.9-0.2-1.3-0.4c-0.2-0.1-0.4-0.3-0.6-0.2c-0.5,0.1-0.8-0.1-1.3-0.2c-0.1,0-0.3,0-0.4,0c-0.3,0-0.6-0.2-0.9-0.4
		c-0.3-0.2-0.6-0.3-0.9-0.1c-0.1,0.1-0.3,0-0.4-0.1c-0.1,0-0.2-0.1-0.4-0.1c-0.3-0.1-0.6-0.1-1-0.1c-0.2,0-0.4-0.1-0.5-0.3
		c-0.2-0.3-0.5-0.3-0.8-0.2c-0.2,0.1-0.3,0.1-0.5,0c-0.2-0.1-0.3-0.1-0.5-0.1c-0.2,0-0.4,0-0.6,0c-0.3,0-0.6-0.1-0.9-0.1
		c-0.8,0-1.5-0.2-2.3-0.5c-0.2-0.1-0.5-0.1-0.7,0c-0.1,0.1-0.3,0-0.4-0.1c-0.1-0.1-0.2-0.1-0.4-0.1c-0.8,0-1.5,0-2.3-0.1
		c-0.6,0-1.2-0.1-1.6-0.5c-0.2-0.1-0.4-0.2-0.6-0.1c-0.2,0.1-0.4,0.1-0.6-0.1c-0.1-0.1-0.2-0.1-0.4-0.1c-1.2,0-2.4,0-3.7-0.1
		c-0.1,0-0.2,0-0.4,0c-0.4,0-0.7-0.1-1.1-0.3C70.4,17.1,70,17,69.5,17c-0.4,0-0.9,0.1-1.3,0.1c-0.4,0-0.7-0.1-1.1,0
		c-0.8,0-1.6,0-2.4,0.1c-0.4,0-0.8,0.1-1.1,0.1c-0.5,0-1,0.2-1.5,0.2c-0.9,0-1.8,0-2.7,0.2c-0.5,0.1-1.1,0.1-1.7,0.1
		c-0.5,0-1,0-1.5,0c-0.1,0-0.3,0-0.4,0.1c-0.2,0.1-0.3,0.1-0.5,0.1c-0.3-0.1-0.5,0-0.6,0.2c-0.1,0.2-0.3,0.3-0.5,0.3
		c-0.6,0-1.1,0.1-1.7,0.1c-0.2,0-0.5,0-0.7,0.2c-0.1,0.1-0.3,0.1-0.4,0.1c-0.3-0.2-0.6,0-0.9,0.1c-0.3,0.1-0.6,0.3-0.9,0.3
		c-0.7,0.1-1.4,0.1-2,0.1c-0.1,0-0.3,0.1-0.4,0.1c-0.1,0.1-0.3,0.1-0.4,0c-0.3-0.2-0.5,0-0.7,0.2c-0.2,0.2-0.4,0.3-0.7,0.4
		c-0.3,0-0.6,0-0.9,0.1c-0.1,0-0.3,0.1-0.4,0.1c-0.1,0.1-0.3,0.2-0.5,0.1c-0.2-0.1-0.4,0-0.5,0.1c-0.2,0.2-0.5,0.3-0.8,0.3
		C42.1,20.7,41.8,20.8,41.6,21z"/>
	<path d="M96.1,38.1c-0.1,0.2-0.2,0.3-0.3,0.5c-0.1,0.1-0.2,0.3,0,0.5c0.2-0.1,0.4-0.1,0.5-0.2c0.1-0.1,0.2-0.3,0.2-0.5
		c0,0,0.1,0,0.1,0c0.3,0.1,0.5-0.1,0.8-0.3c0.3-0.3,0.7-0.5,1-0.8c0.1-0.1,0.2-0.2,0.3-0.3c0.1-0.2,0.3-0.3,0.6-0.4
		c0.2-0.1,0.4-0.2,0.6-0.2c0.2-0.1,0.3-0.1,0.5,0.1c0.1,0.1,0.1,0.3,0.1,0.4c0,0,0,0.1,0,0.1c0,0.5-0.4,0.8-0.8,1.2
		c-0.2,0.2-0.5,0.4-0.7,0.6c-0.1,0-0.1,0.1-0.2,0.1c-0.3,0-0.4,0.3-0.6,0.4c-0.4,0.2-0.7,0.7-1.2,0.8c-0.1,0-0.2,0.1-0.3,0.2
		c-0.4,0.5-0.9,0.8-1.4,1.1c-0.8,0.5-1.5,1.2-2.3,1.8c-0.3,0.3-0.7,0.5-1,0.8c-0.1,0.1-0.2,0.1-0.3,0.2c-0.2,0.1-0.3,0.3-0.5,0.5
		c-0.1,0.1-0.2,0.2-0.3,0.3c-0.3,0.2-0.6,0.3-0.8,0.6c0,0.1-0.1,0.1-0.2,0.2c-0.3,0.2-0.5,0.3-0.8,0.5c-0.1,0.1-0.3,0.1-0.4,0.2
		c-0.1,0.1-0.2,0.1-0.3,0.2c-0.3,0.2-0.3,0.4,0,0.6c0.4,0,0.6-0.1,0.8-0.5c0.1-0.2,0.3-0.4,0.6-0.4c0.2-0.1,0.3-0.2,0.5-0.3
		c0.1-0.1,0.3-0.2,0.4-0.3c0.2-0.1,0.4-0.2,0.6-0.3c0.2-0.2,0.5-0.4,0.8-0.4c0.1,0,0.3-0.2,0.4-0.3c0.2-0.1,0.4-0.3,0.6-0.4
		c0.4-0.2,0.8-0.5,1.2-0.8c0.3-0.2,0.6-0.4,1-0.6c0.1,0,0.1-0.1,0.2-0.1c0.3-0.3,0.7-0.5,1-0.8c0.2-0.1,0.3-0.2,0.5-0.3
		c0.4-0.2,0.8-0.5,1.2-0.7c0.1-0.1,0.3-0.1,0.4-0.1c0.3,0,0.5-0.1,0.7-0.3c0.3-0.3,0.6-0.5,1-0.5c0.1,0,0.3-0.1,0.4-0.3
		c0.2-0.2,0.4-0.4,0.7-0.5c0.2-0.1,0.3-0.2,0.5-0.3c0.2-0.2,0.5-0.4,0.8-0.4c0.1,0,0.2-0.1,0.3-0.1c0.3-0.3,0.6-0.5,0.9-0.8
		c0.3-0.3,0.7-0.4,1.2-0.4c0.3,0,0.5,0.3,0.4,0.6c-0.1,0.4-0.3,0.7-0.7,0.9c-0.4,0.2-0.8,0.4-1.1,0.7c-0.1,0.1-0.2,0.1-0.4,0.2
		c-0.2,0.1-0.5,0.2-0.6,0.4c-0.2,0.2-0.4,0.3-0.7,0.5c-0.2,0.1-0.4,0.2-0.6,0.4c-0.1,0.1-0.3,0.3-0.5,0.3c-0.4,0.1-0.7,0.2-0.9,0.5
		c-0.1,0.2-0.3,0.2-0.5,0.3c-0.3,0-0.5,0.2-0.7,0.4c-0.1,0.2-0.4,0.2-0.5,0.4c-0.2,0.1-0.4,0.3-0.6,0.4c-0.2,0.1-0.4,0.3-0.6,0.3
		c-0.4,0.1-0.7,0.3-1,0.6c-0.2,0.1-0.3,0.2-0.5,0.3c-0.2,0.1-0.3,0.2-0.5,0.4c-0.1,0.2-0.3,0.3-0.5,0.4c-0.1,0-0.2,0.1-0.3,0.2
		c-0.2,0.2-0.5,0.4-0.8,0.5c-0.2,0.1-0.3,0.2-0.5,0.3c-0.2,0.1-0.3,0.3-0.5,0.3c-0.4,0.1-0.7,0.3-1,0.6c-0.6,0.5-1.2,0.9-1.9,1.2
		c-0.2,0.1-0.3,0.2-0.4,0.3c-0.1,0.2-0.3,0.2-0.5,0.3c-0.2,0.1-0.4,0.2-0.5,0.3c-0.1,0.1-0.1,0.1-0.1,0.3c0.3,0.1,0.6,0.1,0.8,0
		c0.1,0,0.2-0.1,0.3-0.2c0.1-0.3,0.4-0.4,0.7-0.5c0.1,0,0.2,0,0.3-0.1c0.2,0,0.3-0.1,0.4-0.3c0.1-0.2,0.3-0.3,0.6-0.4
		c0.4-0.1,0.7-0.2,0.9-0.5c0.1-0.1,0.3-0.2,0.5-0.2c0.2-0.1,0.4-0.2,0.5-0.3c0.3-0.2,0.6-0.4,0.8-0.6c0.1-0.1,0.2-0.1,0.2-0.2
		c0.2-0.3,0.5-0.4,0.8-0.6c0.4-0.3,0.9-0.5,1.4-0.7c0,0,0.1,0,0.1,0c0.4-0.3,0.8-0.5,1.2-0.8c0.3-0.2,0.6-0.4,0.9-0.5
		c0.2-0.1,0.4-0.2,0.6-0.4c0,0,0.1-0.1,0.1-0.1c0.4-0.1,0.7-0.3,1-0.5c0.1-0.1,0.3-0.2,0.4-0.2c0.4-0.2,0.7-0.4,1.1-0.7
		c0.7-0.4,1.3-0.8,2-1.2c0.1-0.1,0.3-0.1,0.4-0.2c0.2-0.1,0.4-0.3,0.6-0.4c0.2-0.1,0.4-0.2,0.5-0.4c0.2-0.1,0.3-0.2,0.5-0.3
		c0.3-0.3,0.7-0.4,1.1-0.3c0.4,0.1,0.5,0.5,0.2,0.7c-0.1,0.1-0.3,0.3-0.4,0.5c-0.1,0.2-0.3,0.3-0.5,0.4c-0.1,0-0.3,0.1-0.4,0.2
		c-0.2,0.2-0.3,0.2-0.5,0.3c-0.2,0-0.4,0.1-0.5,0.2c-0.7,0.5-1.5,0.8-2.1,1.4c-0.4,0.4-0.8,0.6-1.3,0.9c0,0-0.1,0.1-0.1,0.1
		c-0.4,0.1-0.7,0.4-1.1,0.6c-0.2,0.1-0.4,0.2-0.7,0.3c-0.1,0.1-0.3,0.1-0.4,0.2c-0.2,0.1-0.5,0.3-0.7,0.4c-0.2,0.1-0.4,0.3-0.7,0.4
		c-0.2,0.1-0.4,0.2-0.6,0.3c-0.2,0.1-0.4,0.3-0.6,0.4c-0.2,0.1-0.5,0.3-0.7,0.4c-0.4,0.1-0.7,0.4-0.9,0.7c-0.1,0.1-0.2,0.2-0.4,0.2
		c-0.1,0-0.2,0-0.2,0.1c-0.4,0.4-0.9,0.6-1.4,0.8c-0.3,0.1-0.5,0.4-0.8,0.5c-0.2,0.1-0.4,0.2-0.6,0.2c-0.1,0.1-0.3,0.1-0.3,0.4
		c0.1,0,0.2,0.1,0.3,0.1c0.3,0,0.6,0,0.9-0.1c0.2,0,0.3-0.1,0.4-0.3c0.1-0.2,0.3-0.3,0.5-0.3c0.3-0.1,0.6-0.2,0.8-0.5
		c0.1-0.2,0.3-0.3,0.5-0.3c0.4,0,0.7-0.2,1-0.5c0.2-0.3,0.5-0.3,0.8-0.4c0.1,0,0.3-0.1,0.3-0.1c0.3-0.4,0.7-0.5,1.1-0.7
		c0.2-0.1,0.3-0.2,0.5-0.3c0.2-0.1,0.3-0.2,0.5-0.3c0.5-0.2,0.9-0.3,1.3-0.7c0,0,0.1-0.1,0.2-0.1c0.4-0.1,0.8-0.3,1.1-0.6
		c0.1-0.1,0.2-0.2,0.3-0.2c0.3-0.1,0.6-0.3,0.9-0.5c0.3-0.2,0.6-0.4,0.9-0.4c0.3,0,0.6-0.1,0.8-0.2c0.2-0.1,0.3-0.2,0.5-0.4
		c0.1-0.1,0.3-0.2,0.5-0.2c0.2,0,0.3-0.2,0.5-0.3c0.3-0.2,0.6-0.2,0.8,0c0.1,0.1,0.1,0.1,0.2,0.2c0,0.1,0.1,0.3,0.1,0.4
		c0.1,0.4-0.1,0.6-0.4,0.7c-0.3,0-0.4,0.2-0.6,0.4c-0.2,0.2-0.4,0.3-0.6,0.3c-0.2,0-0.5,0-0.7,0.1c-0.1,0-0.3,0.1-0.4,0.2
		c-0.2,0.3-0.6,0.4-0.9,0.6c-0.2,0.1-0.5,0.3-0.7,0.4c-0.2,0.1-0.3,0.2-0.5,0.3c-0.4,0.1-0.8,0.3-1.2,0.6c-0.2,0.1-0.4,0.2-0.6,0.3
		c-0.2,0.1-0.4,0.2-0.6,0.4c-0.1,0-0.1,0.1-0.1,0.3c0.5,0.1,1,0.1,1.5-0.2c0.3-0.3,0.6-0.4,1-0.4c0.2,0,0.4-0.1,0.6-0.3
		c0.4-0.4,1-0.6,1.5-0.6c0.2,0,0.3-0.1,0.5-0.1c0.2,0,0.4,0.1,0.4,0.3c0,0.1,0,0.3,0,0.4c0,0.2-0.1,0.3-0.3,0.4
		c-0.4,0.2-0.8,0.5-1.3,0.7c-0.1,0.1-0.2,0.1-0.3,0.1c-0.2,0-0.4,0.1-0.6,0.2c-0.2,0.3-0.6,0.4-0.9,0.4c-0.3,0-0.6,0.2-1,0.3
		c-0.1,0-0.1,0.1-0.1,0.1c0,0.1,0.1,0.1,0.1,0.2c0.1,0.2,0.1,0.5,0,0.7c-0.1,0.2-0.2,0.4-0.3,0.5c-0.2,0.2-0.4,0.4-0.6,0.6
		c-0.2,0-0.3,0-0.5,0c-0.3,0-0.5,0.1-0.7,0.3c-0.1,0.1-0.2,0.1-0.4,0.2c-0.5,0.1-0.9,0.3-1.2,0.7c0,0,0,0,0,0.1
		c-0.4,0.2-0.9,0.4-1.3,0.6c-0.2,0.1-0.4,0.1-0.5,0.2c-0.2,0.2-0.5,0.2-0.8,0.3c-0.2,0-0.3,0-0.5,0c-0.2,0.1-0.4,0.2-0.6,0.4
		c-0.1,0.2-0.3,0.3-0.5,0.3c-0.3,0-0.5,0.1-0.7,0.3c-0.1,0.1-0.2,0.1-0.4,0.1c-0.2,0-0.3,0-0.5,0.1c-0.3,0.2-0.6,0.3-0.9,0.3
		c-0.2,0-0.3,0.1-0.5,0.2c-0.2,0.1-0.3,0.2-0.6,0.1c-0.1-0.1-0.3,0-0.4,0.1c-0.3,0.3-0.6,0.3-1,0.4c-0.1,0-0.3,0.1-0.4,0.1
		c-0.2,0-0.3,0.1-0.5,0.1c-0.2,0-0.4,0.1-0.5,0.2c-0.2,0.2-0.5,0.4-0.8,0.4c-0.2,0-0.5,0.1-0.6,0.3c-0.2,0.3-0.4,0.4-0.7,0.4
		c-0.3,0-0.6,0.1-0.9,0.3c0,0.1-0.1,0.1-0.2,0.1c-0.3,0-0.5,0.1-0.7,0.2c-0.2,0.1-0.5,0.1-0.8,0.2c-0.2,0-0.4,0.1-0.5,0.2
		c-0.2,0.1-0.3,0.2-0.5,0.1c-0.1,0-0.3,0-0.4,0.1c-0.3,0.2-0.6,0.3-0.9,0.4c0,0-0.1,0-0.1,0c-0.2,0.1-0.5,0.3-0.7,0.3
		c-0.3,0.1-0.5,0-0.8,0.2c-0.3,0.2-0.6,0.2-0.9,0.3c-0.1,0-0.1,0.1-0.2,0.1c0.1,0.1,0.1,0.2,0.2,0.2c0.4,0.3,0.9,0.6,1.3,0.8
		c0.3,0.2,0.6,0.3,0.7,0.6c0,0,0.1,0.1,0.1,0.1c0.3,0.1,0.6,0.3,0.9,0.4c0.2,0.1,0.4,0.1,0.6,0c0.4-0.1,0.8-0.1,1.2,0.2
		c0.1,0.1,0.3,0.1,0.4,0.1c0.2,0,0.4,0.1,0.6,0.2c0.3,0.3,0.6,0.3,0.9,0.2c0.3,0,0.6-0.1,0.9-0.1c0.3,0,0.6,0.1,0.8,0.3
		c0.5,0.5,1.1,0.8,1.8,0.8c0.1,0,0.1,0,0.2,0c0.5-0.2,0.9,0,1.3,0.2c0.1,0.1,0.3,0.1,0.4,0.1c0.5,0,0.9,0.2,1.3,0.6
		c0.2,0.2,0.4,0.3,0.7,0.5c0.3,0.2,0.7,0.2,1,0c0.2-0.1,0.5-0.1,0.8-0.1c0.5,0,0.9,0.1,1.4,0.2c0.2,0,0.5,0.1,0.6,0.3
		c0.2,0.2,0.4,0.2,0.7,0.2c0.1,0,0.3,0.1,0.4,0.1c0.2,0,0.4,0.1,0.6,0.1c0.3,0,0.6,0.1,0.9,0.3c0.1,0.1,0.3,0.1,0.5,0.2
		c0.2,0,0.3,0,0.5,0.1c0.1,0.1,0.3,0.1,0.5,0.1c0.3,0,0.6,0.1,0.8,0.4c0.1,0.1,0.1,0.1,0.2,0.2c0.6,0.2,1,0.8,1.3,1.3
		c0.4,0.5,0.9,0.6,1.5,0.6c0.4,0,0.8-0.1,1.3,0c0.2,0,0.3,0.2,0.5,0.3c0.2,0.1,0.3,0.2,0.5,0.4c0.1,0.1,0.3,0.2,0.4,0.3
		c0.2,0.1,0.3,0.3,0.5,0.3c0.2,0,0.4,0.1,0.6,0.3c0.5,0.4,1.1,0.7,1.3,1.3c0,0.1,0.1,0.2,0.2,0.3c0.5,0.5,0.3,1-0.1,1.4
		c-0.1,0.2-0.3,0.3-0.4,0.4c-0.5,0.6-1.1,0.6-1.8,0.5c-0.3,0-0.6-0.2-0.9-0.2c-0.1,0-0.2,0-0.3,0c-0.5,0.2-0.9,0-1.4-0.2
		c-0.2-0.1-0.3-0.2-0.5-0.2c-0.2,0-0.4-0.1-0.6-0.2c-0.3-0.3-0.6-0.3-1-0.2c-0.3,0.1-0.7,0.1-1,0.2c-0.4,0.2-0.9,0.2-1.4,0.2
		c-0.4,0-0.8,0-1.2-0.2c-0.2-0.1-0.4-0.1-0.6-0.1c-0.3,0-0.6,0-0.9-0.1c-0.1,0-0.3-0.1-0.4-0.1c-0.3-0.2-0.6-0.3-1-0.2
		c-0.3-0.2-0.5-0.4-0.8-0.6c-0.1-0.1-0.3-0.2-0.4-0.2c-0.3,0-0.5-0.2-0.7-0.3c-0.4-0.4-0.9-0.7-1.4-1c-0.2-0.1-0.3-0.2-0.4-0.4
		c0,0,0-0.1-0.1-0.1c-0.6-0.7-0.6-0.8-1.6-0.8c-0.3,0-0.5-0.1-0.7-0.2c-0.2-0.1-0.4-0.2-0.5-0.2c-0.2,0-0.4-0.1-0.6-0.3
		c-0.5-0.6-1.3-0.9-2.1-0.9c-0.3,0-0.5-0.1-0.7-0.2c-0.4-0.3-0.9-0.5-1.3-0.9C82.3,66,82.1,66,82,65.9c-0.3,0-0.6,0-0.9-0.1
		c-0.1,0-0.2,0-0.4,0c-0.3,0.1-0.5,0-0.7-0.2c-0.2-0.2-0.4-0.3-0.6-0.4c-0.5-0.3-0.9-0.3-1.3,0c-0.3,0.2-0.6,0.3-1,0.3
		c-0.5,0-1.1,0.1-1.6,0c-0.7,0-1.4-0.1-2.1-0.2c-0.3,0-0.6-0.1-0.9-0.3c-0.2-0.1-0.4-0.2-0.6-0.1c-0.2,0-0.3,0-0.5-0.1
		c-0.1-0.1-0.2-0.1-0.3-0.1c-0.6,0-1.1-0.3-1.6-0.6c-0.4-0.2-0.6-0.2-0.8,0.2c-0.2,0.3-0.2,0.7-0.1,1c0.2,0.5,0.2,1,0,1.5
		c-0.1,0.3-0.1,0.6,0.1,0.9c0.2,0.4,0.3,0.9,0.3,1.3c0,0.9,0,1.7,0.3,2.6c0.2,0.7,0.2,1.4,0.2,2.1c0,0.4,0.1,0.7,0.4,1
		c0.1,0.1,0.2,0.3,0.2,0.4c0.1,0.1,0.1,0.3,0.1,0.4c0.1,0.2,0.1,0.5,0.3,0.5c0.4,0.1,0.8,0.2,1.1-0.1c0.2-0.2,0.5-0.4,0.7-0.6
		c0.1-0.1,0.1-0.2,0.2-0.3c0.2-0.3,0.3-0.7,0.5-1c0.1-0.1,0.2-0.2,0.4-0.3c0.1-0.1,0.3-0.1,0.5-0.2c0.1-0.1,0.3-0.1,0.4,0
		c0.3,0.2,0.6,0.1,0.9,0c0.3-0.1,0.3-0.1,0.6,0.1c0.1,0.1,0.2,0.2,0.3,0.2c0.3,0.1,0.3,0.4,0.4,0.6c0.1,0.2,0.2,0.4,0.4,0.5
		c0.3,0.2,0.3,0.5,0.3,0.9c0,0.2-0.1,0.3-0.1,0.5c-0.1,0.3,0,0.5,0.1,0.7c0.2,0.5,0.2,1,0.1,1.4c-0.1,0.3,0,0.6,0.2,0.8
		c0.2,0.2,0.3,0.5,0.1,0.8c-0.1,0.1,0,0.2,0,0.4c0,0.6,0,1.3,0,1.9c0,0.1,0,0.3,0,0.4c-0.1,0.4-0.1,0.7-0.2,1.1
		c0,0.3-0.1,0.5-0.2,0.8c0,0.2-0.1,0.5-0.1,0.7c0,0.1,0,0.2,0.1,0.3c0.1,0.4,0,0.8-0.3,1.1c-0.3,0.2-0.4,0.5-0.5,0.9
		c0,0.2-0.1,0.4-0.3,0.5c-0.3,0.4-0.5,0.8-0.6,1.3c0,0.1-0.1,0.2-0.2,0.3c-0.2,0.2-0.4,0.5-0.5,0.8c0,0.1-0.1,0.2-0.2,0.3
		c-0.4,0.3-0.6,0.7-0.9,1.1c-0.1,0.1-0.1,0.2-0.2,0.3c-0.3,0.5-0.8,0.5-1.3,0.5c-0.4,0-0.7-0.4-0.7-0.7c0-0.1,0.1-0.2,0.2-0.4
		c0.1-0.2,0.3-0.3,0.3-0.5c0.2-0.4,0.3-0.8,0.4-1.1c0.1-0.2,0.1-0.3,0.2-0.5c0.1-0.3,0.2-0.7,0.3-1c0.1-0.2,0.2-0.5,0.3-0.7
		c0.1-0.2,0.2-0.5,0.2-0.7c0-0.3,0.1-0.6,0.2-0.8c0.1-0.3,0.2-0.5,0.3-0.8c0.1-0.3,0-0.5-0.3-0.6c-0.5-0.1-1-0.3-1.5,0.1
		c-0.1,0.1-0.2,0.1-0.4,0c-0.1,0-0.2-0.1-0.2-0.1c-0.6,0.4-0.8,0.9-0.6,1.3c0.2,0.5,0,1-0.1,1.5c0,0.1-0.1,0.2-0.2,0.3
		c-0.4,0.4-0.6,0.9-0.5,1.5c0.1,0.3,0,0.5-0.3,0.6c-0.3,0.1-0.4,0.3-0.5,0.6c0,0.3-0.1,0.5-0.4,0.8c-0.2,0.2-0.5,0.4-0.6,0.8
		c0,0.1-0.1,0.2-0.2,0.3c-0.2,0.2-0.3,0.3-0.5,0.5c-0.3,0.3-0.9,0.5-1.3,0.2c-0.4-0.2-0.4-0.6-0.1-0.9c0.1-0.1,0.2-0.2,0.2-0.3
		c0.1-0.1,0.2-0.3,0.3-0.4c0.1-0.1,0.2-0.3,0.2-0.4c0-0.4,0.2-0.7,0.6-0.9c0-0.1,0-0.2,0-0.4c0-0.2,0-0.4,0.1-0.5
		c0.1-0.3,0.1-0.6,0-0.9c-0.1-0.4-0.1-0.8,0.1-1.2c0.1-0.3,0.2-0.7,0.3-1c0.1-0.2,0-0.4-0.2-0.5c-0.2-0.1-0.3-0.2-0.4-0.3
		c-0.2-0.1-0.3-0.1-0.5,0c-0.1,0.1-0.3,0.2-0.4,0.3c-0.4,0-0.2-0.3-0.4-0.5c-0.2,0-0.4-0.1-0.7-0.2c-0.2,0.1-0.3,0.2-0.3,0.4
		c0,0.1-0.1,0.3-0.2,0.4c-0.2,0.4-0.3,0.7-0.2,1.1c0.1,0.3,0,0.6-0.3,0.8c-0.2,0.1-0.3,0.3-0.3,0.5c0,0.5-0.3,1-0.5,1.4
		c-0.1,0.2-0.2,0.5-0.3,0.7c0,0.1-0.1,0.1-0.1,0.2c-0.3,0.5-0.7,1-1,1.4c-0.2,0.2-0.4,0.4-0.6,0.5c-0.4,0.2-0.9-0.1-0.9-0.5
		c0-0.3,0-0.5,0.2-0.7c0.3-0.4,0.5-0.9,0.7-1.4c0.1-0.1,0.1-0.3,0.1-0.5c0-0.6,0-1.2,0.1-1.8c0.1-0.5,0.1-1,0.1-1.5
		c0-0.1,0-0.3-0.1-0.4c-0.1-0.6-0.3-1.2-0.2-1.9c0.1-0.5,0-1-0.5-1.3c-0.4-0.2-0.4-0.7-0.2-1c0.1-0.3,0.1-0.5,0-0.8
		c-0.1-0.1-0.2-0.3-0.3-0.4c-0.3-0.3-0.5-0.6-0.4-1c0.1-0.5,0-0.9-0.2-1.4c-0.3-0.6-0.1-1.2,0.1-1.7c0.1-0.1,0.2-0.3,0.4-0.4
		c0.1-0.1,0.2-0.2,0.3-0.3c0.1-0.4,0.4-0.5,0.8-0.5c0.4-0.1,0.7-0.1,1.1,0c0.1,0.1,0.3,0.2,0.3,0.3c0.2,0.3,0.4,0.6,0.6,0.9
		c0.2,0.2,0.2,0.2,0.5,0.1c0,0,0.1,0,0.1,0c0.4,0.3,0.9,0.2,1.4,0.3c0.2,0.1,0.4-0.1,0.5-0.3c0.3-0.6,0.3-1.1,0-1.7
		c-0.2-0.4-0.3-0.8-0.2-1.2c0-0.2-0.1-0.5-0.1-0.7c0-0.5,0-1.1-0.1-1.6c0-0.1,0-0.2,0-0.3c0.1-0.5,0.2-0.9-0.1-1.4
		c-0.1-0.1,0-0.2,0-0.4c0-0.5,0-1.1-0.1-1.6c0-0.1-0.1-0.2-0.1-0.3c-0.3-0.5-0.3-1-0.3-1.6c0-0.4,0.1-0.9,0-1.3
		c0-0.2-0.1-0.4-0.3-0.6c-0.1-0.2-0.4-0.2-0.6-0.1c-0.1,0.1-0.2,0.2-0.2,0.3c-0.2,0.4-0.5,0.6-0.9,0.7c-0.2,0-0.4,0.2-0.6,0.3
		c-0.2,0.2-0.5,0.5-0.7,0.8c-0.3,0.4-0.7,0.6-1.2,0.6c-0.1,0-0.2,0-0.4,0c-0.4-0.1-0.8,0.1-1.2,0.3c0,0-0.1,0-0.1,0.1
		c-0.4,0.4-0.9,0.6-1.3,0.8c0,0-0.1,0.1-0.1,0.1c-0.2,0.2-0.4,0.3-0.7,0.2c-0.3,0-0.5,0.1-0.6,0.3c-0.1,0.1-0.3,0.2-0.4,0.3
		c-0.1,0.1-0.2,0.1-0.4,0.1c-0.4,0-0.7,0.1-1,0.4c-0.2,0.2-0.5,0.3-0.8,0.3c-0.2,0-0.4,0.1-0.6,0.2c-0.3,0.3-0.7,0.5-1.2,0.6
		c-0.4,0-0.7,0.4-1.1,0.5c-0.2,0.1-0.4,0.2-0.6,0.2c-0.1,0.1-0.3,0.1-0.4,0.2c-0.3,0.3-0.7,0.5-1.1,0.6c-0.2,0.1-0.4,0.2-0.6,0.3
		c-0.1,0.1-0.3,0.1-0.4,0.2c-0.2,0.1-0.3,0.1-0.5,0.2c-0.1,0.1-0.3,0.1-0.4,0.1c-0.3-0.1-0.6,0-0.8,0.3c-0.2,0.2-0.4,0.3-0.7,0.4
		c-0.3,0-0.5,0.2-0.7,0.4c-0.2,0.2-0.5,0.3-0.7,0.4c-0.2,0-0.3,0.1-0.5,0.2c-0.1,0.1-0.3,0.2-0.4,0.2c-0.2,0-0.4,0-0.5,0.2
		c-0.2,0.3-0.5,0.5-0.8,0.8c-0.2,0.2-0.5,0.3-0.8,0.3c-0.3,0-0.6,0-0.8,0c-0.3,0-0.5,0.1-0.6,0.3c-0.1,0.2-0.2,0.2-0.4,0.2
		c-0.1,0-0.2,0-0.3,0.1c-0.2,0.1-0.4,0.2-0.7,0.2c-0.1,0-0.3,0.1-0.3,0.2c-0.2,0.3-0.5,0.4-0.8,0.3c-0.4-0.1-0.8,0.1-1.1,0.4
		c-0.3,0.4-0.7,0.6-1.2,0.5c-0.3,0-0.7-0.1-1-0.2c-0.3-0.1-0.3-0.3-0.2-0.6c0.1-0.3,0-0.6-0.2-0.8c-0.3-0.4-0.3-0.6,0.1-0.9
		c0.2-0.1,0.3-0.3,0.5-0.4c0.1-0.1,0.2-0.1,0.3-0.2c0.2-0.1,0.4-0.2,0.6-0.3c0.2-0.1,0.4,0,0.6,0c0.1-0.1,0.2-0.1,0.2-0.2
		c0.2-0.3,0.5-0.3,0.8-0.3c0.2,0,0.4,0,0.5,0.1c0.1-0.2,0.2-0.3,0.3-0.4c0.1-0.3,0.4-0.5,0.7-0.5c0.4,0,0.6-0.3,0.8-0.6
		c0.3-0.6,0.8-1,1.6-1c0.2,0,0.4-0.1,0.6-0.1c0.2,0,0.3-0.1,0.4,0.1c0.2,0.2,0.4,0.1,0.6,0.1c0-0.1,0.1-0.1,0.1-0.1
		c0.1-0.4,0.3-0.6,0.6-0.6c0.4,0,0.6-0.1,0.7-0.5c0-0.1,0.2-0.2,0.3-0.2c0.1-0.1,0.3-0.1,0.4-0.2c0.4-0.1,0.5-0.1,0.7,0.3
		c0,0.1,0.1,0.2,0.2,0.2c0.2,0.2,0.3,0.2,0.5,0c0-0.4-0.4-0.4-0.5-0.6c0.1-0.3,0.3-0.6,0.7-0.5c0.5,0,0.8-0.2,1-0.5
		c0.1-0.1,0.2-0.2,0.4-0.2c0.2-0.1,0.4-0.1,0.7-0.2c0.3-0.1,0.6-0.2,0.7-0.5c0.1-0.1,0.2-0.2,0.4-0.2c0.3,0,0.6-0.1,0.8-0.2
		c0.1-0.1,0.2-0.1,0.3-0.1c0.3,0.1,0.5,0,0.7-0.2c0.2-0.2,0.4-0.3,0.7-0.3c0.2,0,0.4-0.1,0.6-0.3c0.2-0.2,0.4-0.3,0.6-0.3
		c0.3-0.1,0.7-0.2,1-0.3c0.1,0,0.2-0.2,0.3-0.3c0.3-0.3,0.6-0.4,1-0.5c0.2-0.1,0.4-0.2,0.6-0.4c0.2-0.1,0.3-0.3,0.6-0.3
		c0.2,0,0.5-0.1,0.6-0.3c0.1-0.1,0.2-0.1,0.3-0.1c0.2,0,0.4-0.1,0.5-0.2c0.7-0.4,1.2-0.9,1.7-1.4c0.2-0.2,0.5-0.3,0.8-0.3
		c0.1,0,0.3-0.1,0.4-0.1c0.1,0,0.3,0,0.4,0c0.2,0,0.5-0.1,0.7-0.2c0.2-0.1,0.2-0.2,0.1-0.4c-0.1-0.1-0.2-0.2-0.3-0.2
		c-0.2-0.1-0.4-0.1-0.5-0.3c-0.2-0.2-0.4-0.2-0.7-0.2c-0.3,0.1-0.6-0.1-0.9-0.2c0,0-0.1,0-0.1-0.1c-0.2-0.3-0.4-0.4-0.7-0.3
		c-0.5-0.2-1-0.4-1.5-0.6c-0.1,0-0.2-0.1-0.3-0.2c-0.2-0.3-0.5-0.3-0.8-0.3c-0.3,0-0.5,0-0.8-0.1c-0.1,0-0.3-0.1-0.4-0.2
		C54,59.1,53.8,59,53.5,59c-0.2,0.1-0.3,0-0.4-0.1c-0.1-0.1-0.3-0.2-0.5-0.2c-0.2,0-0.3-0.1-0.5-0.1c-0.2-0.1-0.4-0.2-0.6-0.4
		c-0.1-0.2-0.3-0.3-0.6-0.3c-0.3,0-0.5-0.1-0.7-0.4c-0.1-0.2-0.3-0.3-0.6-0.2c-0.2,0.1-0.4,0-0.6-0.1c-0.3-0.1-0.6-0.2-0.9-0.3
		c-0.2-0.1-0.4-0.2-0.6-0.3c-0.2-0.2-0.4-0.3-0.6-0.3c-0.3,0-0.6-0.1-0.9-0.4c-0.2-0.2-0.3-0.3-0.6-0.4c-0.2,0-0.4-0.1-0.5-0.3
		c-0.4-0.5-0.8-0.5-1.2,0c-0.2,0.3-0.5,0.5-0.6,0.8c0,0.1-0.1,0.1-0.2,0.2c-0.5,0.4-0.8,0.9-1.2,1.3c-0.1,0.1-0.2,0.2-0.4,0.3
		c-0.3,0.2-0.6,0.5-1.1,0.6c-0.3,0-0.5,0.2-0.6,0.5c-0.1,0.3-0.3,0.4-0.6,0.4c-0.1,0-0.2,0-0.3,0c-0.2,0-0.3,0.1-0.4,0.2
		c-0.1,0.1-0.3,0.2-0.5,0.2C38,59.9,37.9,60,37.8,60c-0.3,0.2-0.6,0.2-0.9,0.3c-0.8,0-1.7,0.1-2.5,0.1c-0.5,0-0.9,0-1.4-0.1
		c-0.3,0-0.5-0.2-0.6-0.4c-0.1-0.2-0.3-0.2-0.5-0.2c-0.5,0-0.9-0.2-1.2-0.6c-0.1-0.1-0.3-0.2-0.4-0.3c-0.1,0-0.1-0.1-0.2-0.1
		c-0.3-0.3-0.6-0.7-0.8-1c0-0.1-0.1-0.1-0.1-0.2c-0.4-0.3-0.6-0.8-0.9-1.2c-0.3-0.4-0.5-0.9-0.6-1.4c-0.1-0.3-0.2-0.6-0.2-0.9
		c0-0.1,0-0.2-0.1-0.2c-0.4-0.6-0.4-1.3-0.4-2c0.1-0.6,0.1-1.1,0.2-1.7c0-0.1,0.1-0.3,0.1-0.4c0.2-0.4,0.2-0.8,0.2-1.2
		c0-0.1,0-0.2,0-0.3c0.1-0.4,0.2-0.9,0.2-1.3c0-0.1,0-0.2,0.1-0.3c0.3-0.2,0.4-0.5,0.5-0.8c0.1-0.2,0.2-0.4,0.3-0.6
		c0.4-0.6,0.7-1.1,1.1-1.7c0.1-0.2,0.4-0.4,0.6-0.5c0.1-0.1,0.3-0.2,0.4-0.3c0.1-0.1,0.2-0.2,0.4-0.2c0.5-0.1,0.7-0.4,1.1-0.7
		c0.1-0.1,0.3-0.2,0.5-0.2c0.3-0.1,0.7-0.2,0.9-0.4c0.2-0.2,0.4-0.2,0.6-0.3c0.4-0.1,0.8-0.1,1.2-0.1c0.5,0,1,0.1,1.5,0.1
		c0.3,0,0.5,0.1,0.8,0.2c0.2,0.1,0.4,0.2,0.6,0.2c0.1,0.1,0.3,0.2,0.4,0.2c0.5,0,0.8,0.3,1.2,0.5c0.2,0.1,0.4,0.3,0.7,0.3
		c0.1,0,0.3,0.1,0.4,0.2c0.4,0.3,0.9,0.6,1.2,0.9c0.6,0.7,1.3,1.3,1.7,2.1c0,0.1,0.1,0.1,0.1,0.2c0.2,0.7,0.1,0.6,0.7,1.2
		c0,0,0,0.1,0,0.1c-0.1,0.5,0.1,0.9,0.3,1.3c0,0.1,0.2,0.3,0.3,0.4c0.2,0.2,0.3,0.4,0.3,0.7c0,0.5,0,1.1,0,1.6
		c0,0.5,0.2,0.7,0.7,0.7c0.5,0,1,0,1.5,0.1c0.3,0,0.5,0.1,0.6,0.4c0.2,0.3,0.5,0.4,0.8,0.1c0.2-0.1,0.3-0.1,0.4,0
		c0.1,0.1,0.3,0.1,0.4,0.1c0.4,0,0.7,0.1,0.9,0.5c0.1,0.2,0.3,0.3,0.5,0.2c0.2,0,0.4,0,0.7,0c0.4,0,0.8,0.1,1.1,0.1
		c0.3,0,0.6,0.1,0.8,0.4c0.1,0.2,0.3,0.3,0.5,0.2c0.2,0,0.3,0,0.4,0.1c0.1,0.1,0.3,0.1,0.5,0.1c0.6,0.1,1.1,0.1,1.7,0.1
		c0.2,0,0.3,0.1,0.4,0.3c0.2,0.3,0.4,0.4,0.8,0.2c0.1,0,0.2-0.1,0.3-0.1c0.4,0.3,1,0.3,1.5,0.3c0.3,0,0.6,0.1,0.8,0.3
		c0.1,0.1,0.2,0.2,0.4,0.3c0.1,0,0.2-0.1,0.4-0.1c0,0,0.1,0,0.1,0c0.6,0.4,1.3,0.3,1.9,0.4c0.4,0,0.7-0.2,0.5-0.6
		C64,54.4,64,53.9,64,53.3c0-0.8-0.1-1.6-0.1-2.4c0-0.3,0-0.6,0.1-0.9c0.2-0.7,0-1.4-0.4-2.1c-0.1-0.2-0.1-0.4-0.2-0.6
		c-0.2-0.9-0.2-1.9-0.2-2.8c0-1,0-2,0-3c0-1,0-2,0.1-3c0-0.4,0.1-0.8,0.1-1.2c0-0.2-0.1-0.5-0.1-0.7c0-1.3,0-2.5,0.1-3.8
		c0-0.3,0.1-0.6,0.4-0.9c0.3-0.4,0.5-0.8,0.3-1.3c-0.1-0.4-0.1-0.7,0-1.1c0.1-0.2,0.1-0.4,0.4-0.5c0.1,0,0.2-0.2,0.2-0.3
		c0.1-0.3,0.3-0.5,0.4-0.8c0.1-0.3,0.3-0.5,0.5-0.7c0,0,0.1-0.1,0.1-0.1c0.1-0.5,0.6-0.6,0.8-1c0.1-0.1,0.2-0.1,0.4-0.2
		c0.2,0,0.4,0,0.6,0c0.1,0,0.3,0.1,0.4,0.2c0.3,0.5,0.6,0.9,0.9,1.5c0.1,0.3,0.1,0.6,0.2,0.9c0,0.4,0.1,0.7,0.1,1.1
		c0,0.3,0,0.7,0.1,1c0,0.4-0.1,0.7-0.1,1.1c0,0.2,0,0.4,0,0.6c0,0.2,0.1,0.4,0.2,0.6c0.2,0.6,0.1,1.2-0.1,1.8
		c-0.2,0.4-0.2,0.8,0,1.2c0.1,0.2,0.1,0.4,0.1,0.6c0.1,0.5,0.1,0.9,0.1,1.4c0,1.5,0,3.1,0,4.6c0,0.7,0.2,1.4,0.3,2.1
		c0.1,0.7,0.1,1.4,0.1,2.1c0,0.8,0,1.6,0,2.4c0,0.4-0.1,0.8-0.2,1.2c-0.1,0.3-0.2,0.7-0.2,1.1c0,0.4-0.2,0.8-0.3,1.2
		c-0.1,0.5-0.1,0.9,0.2,1.4c0.1,0.2,0.1,0.4,0,0.7c-0.2,0.3-0.2,0.5-0.1,0.9c0.1,0.2,0.1,0.4,0,0.6C68.8,56.8,69,57,69.5,57
		c0.2,0,0.5,0,0.7-0.2c0.1-0.1,0.2-0.1,0.3-0.1c0.1-0.1,0.3-0.1,0.3-0.2c0.2-0.2,0.5-0.4,0.7-0.5c0.1,0,0.2-0.1,0.3-0.2
		c0.4-0.4,0.9-0.8,1.4-1.2c0.1-0.1,0.2-0.1,0.3-0.2c0.1-0.1,0.2-0.1,0.3-0.2c0.2-0.1,0.4-0.3,0.6-0.5c0,0,0.1-0.1,0.1-0.1
		c0.3-0.3,0.6-0.5,0.9-0.8c0.2-0.3,0.5-0.5,0.8-0.7c0.4-0.3,0.9-0.5,1.3-0.8c0.1,0,0.2-0.1,0.2-0.2c0.2-0.1,0.3-0.3,0.5-0.4
		c0.2-0.2,0.3-0.3,0.5-0.5c0.1-0.1,0.1-0.2,0.2-0.2c0.3-0.1,0.5-0.3,0.6-0.5c0.1-0.2,0.3-0.3,0.6-0.3c0.1,0,0.2,0,0.3,0
		c0.3,0,0.5-0.2,0.6-0.4c0.1-0.1,0.2-0.2,0.3-0.4c0.1-0.1,0.2-0.1,0.3-0.2c0.1-0.3,0.4-0.5,0.7-0.6c0.4-0.2,0.7-0.5,1-0.7
		c0.1,0,0.2-0.1,0.2-0.1c0.1,0,0.2-0.1,0.2-0.2c0.1-0.3,0.4-0.5,0.7-0.5c0,0,0.1,0,0.1-0.1c0.3-0.3,0.6-0.6,1-0.8c0,0,0.1,0,0.1-0.1
		c0.2-0.5,0.6-0.7,0.9-1c0.3-0.2,0.6-0.4,0.8-0.6c0.1-0.1,0.3-0.2,0.4-0.4c0.2-0.2,0.4-0.4,0.7-0.5c0.5-0.2,1-0.6,1.5-1
		c0.2-0.2,0.4-0.3,0.6-0.5c0,0,0.1,0,0.1-0.1c0.3-0.4,0.7-0.5,1.1-0.7c0.5-0.3,0.9-0.6,1.2-1c0.1-0.1,0.2-0.3,0.4-0.4
		c0.5-0.4,0.9-0.7,1.4-1.1C95.3,37.6,95.8,37.7,96.1,38.1z M76.7,63.6C76.7,63.6,76.7,63.6,76.7,63.6c0.1,0,0.3,0,0.4,0
		c0.3,0,0.5-0.1,0.6-0.4c0.1-0.2,0.2-0.4,0.2-0.6c0-0.2,0-0.4-0.1-0.5c-0.3-0.4-0.6-0.7-1.1-1c-0.2-0.1-0.4-0.3-0.6-0.4
		c-0.2-0.1-0.3-0.2-0.5-0.3c-0.3-0.1-0.5-0.2-0.7-0.4c-0.3-0.3-0.7-0.5-1.1-0.5c-0.4-0.1-0.7-0.2-1.1-0.3c-0.6-0.2-1.2-0.4-1.8-0.4
		c-0.5,0-1-0.1-1.3-0.5C69.5,58,69.1,58,68.8,58c-0.2,0-0.5,0-0.7,0c-0.3,0-0.5-0.1-0.6-0.4c-0.1-0.2-0.3-0.3-0.5-0.4
		c-0.2,0-0.3-0.1-0.5-0.1c-0.7,0-1.4,0-2.1-0.1c-0.3,0-0.6-0.1-0.9-0.3c-0.4-0.3-0.9-0.4-1.4-0.3c-0.1,0-0.2,0-0.2,0
		c-0.7,0-1.4,0-2-0.5c-0.4-0.3-0.9-0.3-1.3-0.3c-0.4,0-0.8-0.1-1.2-0.4c-0.3-0.3-0.8-0.4-1.2-0.4c-0.5,0-1,0-1.5,0
		c-0.4,0-0.9,0-1.3-0.2c-0.2-0.1-0.3-0.2-0.5-0.3c-0.1,0-0.2-0.1-0.3-0.1c-0.3,0-0.6-0.1-1-0.1c-0.6,0-1.1-0.1-1.5-0.5
		c-0.2-0.2-0.5-0.3-0.8-0.3c-0.3,0-0.6,0-0.8-0.1c-0.3-0.1-0.6-0.3-1-0.4c-0.1,0-0.2-0.1-0.3-0.1c-0.5,0-1,0-1.4-0.2
		c-0.1,0-0.2,0-0.3,0c-0.2,0-0.4,0.2-0.4,0.4c0,0.3,0.1,0.5,0.4,0.7c0.3,0.1,0.4,0.3,0.6,0.5c0.1,0.1,0.2,0.2,0.3,0.3
		c0.2,0.1,0.5,0.2,0.8,0.3c0.1,0,0.2,0.1,0.3,0.1c0.3,0.4,0.7,0.5,1.1,0.6c0.2,0,0.4,0.2,0.5,0.3c0.1,0.1,0.2,0.2,0.4,0.2
		c0.4,0.1,0.7,0.1,1.1,0.1c0.3,0.1,0.7,0.1,0.9,0.3c0.4,0.3,0.7,0.5,1.2,0.5c0.3,0,0.5,0.2,0.8,0.3c0.3,0.2,0.6,0.3,0.9,0.4
		c0.4,0,0.9,0.1,1.2,0.5c0,0.1,0.1,0.1,0.2,0.1c0.3,0.1,0.6,0.1,1,0.1c0.5,0.1,0.9,0.1,1.3,0.5c0.1,0.1,0.2,0.1,0.3,0.2
		c0.3,0.1,0.6,0.1,0.9,0.2c0.3,0.1,0.6,0.1,0.8,0.3c0.2,0.1,0.4,0.2,0.6,0.3c0.3,0.1,0.5,0.1,0.8,0.1c0.3,0.1,0.6,0.1,0.8,0.3
		c0.3,0.2,0.5,0.4,0.8,0.3c0.1,0,0.1,0,0.2,0c0.4,0.1,0.8,0.1,1.2,0.2c0.4,0,0.9,0,1.3,0.3c0.4,0.2,0.7,0.4,1.2,0.4
		c0.3,0,0.7,0.1,1,0.3c0.5,0.3,0.9,0.5,1.5,0.6c0.5,0.1,1,0.2,1.5,0.3c0.4,0.1,0.7,0.2,1.1,0.3c0.6,0.1,1.3,0.1,1.9,0.2
		c0.4,0,0.7,0.1,1,0.2c0.3,0.1,0.6,0.2,0.9,0.3C75.9,63.6,76.3,63.6,76.7,63.6z M67.3,56.5c0.2-0.1,0.3-0.2,0.3-0.4
		c0-0.3,0-0.5,0-0.8c0-0.9,0-1.8,0-2.7c0-0.1,0-0.2,0-0.3c0.1-0.8,0.2-1.5,0.1-2.3c-0.1-0.3-0.1-0.7-0.1-1c0-0.4,0.1-0.7,0.1-1.1
		c0-0.4,0-0.8,0-1.2c0-0.6-0.1-1.3-0.1-1.9c0-0.2,0-0.4,0-0.6c0-0.3,0-0.6-0.1-0.9c0-0.7,0-1.4,0-2c-0.1-1-0.1-2-0.1-3
		c0-0.2,0-0.4,0-0.6c-0.1-0.6-0.2-1.3-0.3-1.9c0-0.7-0.1-1.4,0-2.1c0-0.2,0-0.4,0-0.7C67.1,32,67,31.1,67,30.2c0-0.3,0-0.6-0.1-0.9
		c0-0.3-0.2-0.6-0.5-0.6c-0.2-0.1-0.6,0.1-0.7,0.3c-0.1,0.2-0.2,0.4-0.5,0.5c-0.1,0-0.1,0.2-0.2,0.3c0,0.1-0.1,0.3-0.1,0.4
		c-0.1,0.7-0.1,1.3-0.3,2c-0.1,0.3-0.1,0.7-0.3,1.1c-0.2,0.5-0.1,1-0.1,1.6c0,0.6,0.1,1.3,0,1.9c0,0.4,0,0.8,0.1,1.1
		c0,0.1,0.1,0.2,0.1,0.3c0,0.3-0.1,0.6-0.1,0.9c0,0.2,0,0.5,0,0.7c0,0.2,0,0.5,0,0.7c0,0.5-0.1,1.1-0.1,1.6c0,0.4,0,0.7,0,1.1
		c0,1,0,1.9,0.1,2.9c0,0.4,0.2,0.9,0.4,1.3c0.2,0.7,0.2,1.4,0.3,2c0,1.1,0,2.1,0,3.2c0,0.2,0,0.4,0,0.6c0.1,0.4,0.1,0.9,0.2,1.3
		c0,0.2,0.1,0.4,0.2,0.5c0.2,0.2,0.3,0.5,0.4,0.8c0.1,0.4,0.3,0.5,0.7,0.5C66.7,56.3,67.1,56.3,67.3,56.5z M36.5,59.2
		c0.5,0.1,0.9-0.1,1.2-0.4c0.1-0.1,0.2-0.1,0.3-0.2c0.1,0,0.2-0.1,0.2-0.1c0.3,0,0.6-0.1,0.9-0.1c0.3,0,0.5-0.1,0.7-0.4
		c0.1-0.2,0.3-0.3,0.5-0.4c0.2-0.1,0.4-0.2,0.5-0.4c0.1-0.1,0.1-0.2,0.2-0.2c0.3-0.1,0.5-0.3,0.7-0.6c0.1-0.1,0.2-0.1,0.3-0.2
		c0.1-0.1,0.3-0.3,0.4-0.4c0.1-0.2,0.2-0.4,0.4-0.5c0.2-0.1,0.3-0.3,0.4-0.5c0.1-0.2,0.1-0.5,0.3-0.7c0.3-0.4,0.4-0.9,0.4-1.4
		c0-0.4,0.1-0.7,0.3-1c0.2-0.4,0.3-0.8,0.3-1.2c0-0.4-0.1-0.7-0.1-1.1c0-0.2,0-0.3-0.1-0.5c-0.2-0.4-0.3-0.8-0.4-1.3
		c0-0.4-0.1-0.6-0.4-0.9c-0.1-0.2-0.2-0.4-0.3-0.6c-0.1-0.3-0.2-0.5-0.4-0.7c-0.1-0.1-0.1-0.1-0.2-0.2c-0.3-0.6-0.9-0.9-1.2-1.4
		c0,0,0,0,0,0c-0.6-0.3-1-0.7-1.7-0.8c-0.2,0-0.4-0.1-0.4-0.3c-0.2-0.3-0.4-0.4-0.8-0.4c-0.4-0.1-0.8-0.1-1.1-0.4
		c-0.3-0.3-0.6-0.4-0.9-0.3c-0.3,0-0.7,0-1,0c-0.4,0-0.8,0-1.1,0.3c-0.3,0.4-0.8,0.5-1.2,0.6c-0.1,0-0.2,0.1-0.3,0.1
		c-0.3,0.3-0.6,0.4-0.9,0.5c-0.3,0.1-0.5,0.3-0.7,0.5c-0.1,0.2-0.3,0.3-0.5,0.4c-0.2,0.1-0.3,0.3-0.4,0.6c-0.1,0.2-0.2,0.5-0.4,0.7
		c-0.2,0.3-0.4,0.5-0.5,0.9c-0.1,0.3-0.2,0.5-0.4,0.7c-0.1,0.1-0.2,0.2-0.2,0.3c-0.1,0.5-0.3,1-0.1,1.6c0,0.2,0,0.4,0,0.6
		c-0.1,0.4-0.2,0.7-0.3,1.1c-0.1,0.3,0,0.5,0.2,0.5c0.2,0,0.4-0.1,0.4-0.3c0-0.1,0.1-0.1,0.1-0.2c0-0.3,0-0.6-0.1-0.9
		c0-0.2-0.1-0.3,0-0.5c0.1-0.4,0.3-0.8,0.5-1.2c0.1-0.3,0.4-0.6,0.6-0.8c0.1-0.1,0.2-0.2,0.3-0.4c0.1-0.3,0.3-0.5,0.4-0.8
		c0.2-0.6,0.6-1,1-1.4c0.4-0.3,0.8-0.5,1.3-0.6c0.1,0,0.3,0,0.4-0.1c0.5-0.1,0.8-0.4,1.3-0.6c0.6-0.3,1.3-0.4,1.9-0.1
		c0.3,0.2,0.7,0.3,1.1,0.2c0.2,0,0.5,0,0.7,0c0.2,0,0.3,0.1,0.5,0.2c0.2,0.2,0.4,0.3,0.7,0.5c0.2,0.2,0.5,0.3,0.6,0.5
		c0.2,0.2,0.4,0.5,0.7,0.7c0.4,0.3,0.7,0.6,1,1c0.2,0.3,0.4,0.6,0.5,0.9c0.2,0.5,0.2,1,0.1,1.5c0,0.4,0,0.7,0.3,0.9
		c0.4,0.5,0.5,1.1,0.2,1.7c-0.2,0.3-0.4,0.6-0.5,0.9c-0.1,0.1-0.1,0.2-0.1,0.4c0,0.5-0.2,0.9-0.3,1.3c0,0.1-0.1,0.3-0.1,0.4
		c0,0.3-0.1,0.5-0.3,0.8c-0.1,0.1-0.3,0.2-0.4,0.4c-0.3,0.4-0.8,0.5-1.2,0.6c-0.4,0.1-0.7,0.2-0.9,0.5c-0.2,0.3-0.5,0.5-0.7,0.7
		c-0.2,0.2-0.4,0.3-0.7,0.3c-0.3,0-0.5,0-0.8,0c-0.5,0.1-1.1,0-1.5,0.4c0,0-0.1,0-0.1,0.1c-0.6,0.3-1.2,0.3-1.8,0.2
		c-0.6-0.1-1-0.5-1.5-0.9c-0.3-0.3-0.5-0.5-0.9-0.5c-0.4-0.1-0.7-0.3-0.9-0.6c-0.1-0.1-0.2-0.2-0.3-0.4c-0.2-0.2-0.4-0.4-0.4-0.7
		c0-0.3-0.1-0.5-0.3-0.8c-0.1-0.1-0.1-0.2-0.2-0.3c-0.1-0.2-0.3-0.4-0.5-0.6c-0.2-0.2-0.3-0.1-0.4,0.1c0,0.1,0,0.2,0,0.3
		c0,0.4,0,0.7,0.2,1.1c0.1,0.3,0.2,0.5,0.4,0.6c0.1,0.1,0.2,0.2,0.3,0.4c0.2,0.2,0.3,0.5,0.5,0.7c0.4,0.5,0.9,1,1.3,1.5
		c0.2,0.2,0.4,0.5,0.7,0.5c0.1,0,0.3,0.1,0.4,0.1c0.1,0,0.3,0.1,0.4,0.2c0.3,0.3,0.7,0.4,1.1,0.4c0.6,0,1.2,0,1.8,0
		C35.7,59.2,36.1,59.2,36.5,59.2z M97.4,71C97.4,71,97.4,71,97.4,71c0.2,0,0.4,0,0.6,0c0.2,0,0.4,0,0.6-0.1c0.3-0.1,0.7-0.2,0.9-0.5
		c0.1-0.1,0.2-0.2,0.3-0.3c0.4-0.3,0.4-0.8,0.2-1.2c-0.1-0.1-0.2-0.2-0.3-0.4c-0.1-0.3-0.3-0.5-0.6-0.7c-0.2-0.1-0.3-0.3-0.5-0.4
		c-0.1-0.1-0.1-0.1-0.2-0.1c-0.4-0.2-0.8-0.3-1.2-0.5c-0.6-0.4-1.2-0.5-1.9-0.5c-0.4,0-0.8-0.1-1.2-0.3c-0.4-0.2-0.9-0.2-1.4-0.3
		c-0.5,0-1,0-1.5,0c-0.2,0-0.4,0-0.5,0.3c0,0.1-0.1,0.3-0.1,0.4c0,0.5,0,1,0.3,1.4c0,0,0.1,0.1,0.1,0.1c0.1,0.5,0.5,0.8,0.8,1.1
		c0.3,0.3,0.6,0.5,0.9,0.8c0.2,0.2,0.4,0.3,0.6,0.3c0.4,0.1,0.8,0.2,1.1,0.5c0.2,0.2,0.4,0.3,0.7,0.3C96,70.9,96.7,71,97.4,71z
		 M70.3,80.6c-0.3-0.3-0.3-0.6-0.3-1c0-0.1,0-0.3,0-0.4c-0.2-0.4-0.2-0.8-0.2-1.2c0-0.1,0-0.3-0.1-0.4c-0.2-0.4-0.4-0.7-0.2-1.2
		c0,0,0,0,0-0.1c0-0.4-0.1-0.5-0.5-0.5c-0.3,0-0.7,0-1,0c-0.3,0-0.5,0.2-0.5,0.5c0,0.3,0.2,0.5,0.4,0.7c0.2,0.2,0.3,0.4,0.3,0.6
		c0.1,0.4,0.2,0.8,0.4,1.2c0.2,0.2,0.2,0.5,0.1,0.8c0,0.1,0,0.3,0,0.4c0.2,0.4,0.3,0.8,0.3,1.2c0,0.4,0,0.7,0,1.1
		c0,0.3,0.1,0.5,0.2,0.8c0.2,0.3,0.3,0.7,0.4,1.1c0.2,0.9,0.1,1.7,0,2.6c0,0.1,0,0.1,0,0.2c-0.1,0.3-0.3,0.5-0.4,0.8
		c0,0.1-0.1,0.2-0.1,0.2c0,0.3-0.1,0.5-0.1,0.8c0,0.3,0,0.7,0.1,1c0,0.1,0.1,0.2,0.3,0.2c0.2,0,0.2-0.1,0.2-0.3c0-0.2,0-0.5,0.1-0.7
		c0.1-0.4,0.1-0.9,0.4-1.2c0.1-0.1,0.2-0.3,0.2-0.4c0.3-1,0.2-2,0.1-3c0-0.4,0-0.7,0-1.1c0-0.3,0.1-0.6,0.1-0.9
		c0-0.2-0.1-0.4-0.1-0.6c0-0.2,0-0.4,0.1-0.5c0.1-0.2,0.3-0.3,0.6-0.2c0.2,0.1,0.4,0.1,0.6,0.2c0.5,0,1,0.1,1.5,0.1
		c0.4,0,0.7-0.1,0.9-0.5c0.1-0.2,0.1-0.4,0-0.5c-0.1-0.2-0.3-0.1-0.4-0.1c-0.6,0.1-1.3,0.2-1.9,0.2c-0.2,0-0.3,0.1-0.5,0.1
		C70.8,80.7,70.5,80.8,70.3,80.6z M75.9,75.3C75.9,75.3,75.8,75.3,75.9,75.3c-0.1-0.1-0.2-0.1-0.3-0.1c-0.5-0.3-1.2-0.2-1.6,0.1
		c-0.2,0.2-0.3,0.4-0.2,0.7c0,0.1,0.1,0.3,0.2,0.4c0.2,0.3,0.3,0.6,0.3,0.9c0,0.3,0.1,0.6,0.4,0.7c0.2,0.1,0.2,0.2,0.2,0.4
		c0,0.4,0,0.8-0.2,1.2c-0.1,0.2-0.1,0.5,0,0.7c0.2,0.3,0.3,0.6,0.3,0.9c0,0.2-0.1,0.4-0.1,0.5c-0.1,0.2-0.2,0.5,0,0.8
		c0.2,0.3,0.2,0.6,0.1,1C75,83.7,74.9,84,75,84.2c0,0.2,0,0.3,0,0.5c0,0.3-0.1,0.6-0.1,0.9c0.1,0.6,0.1,1.2,0.1,1.8
		c0,0.1,0,0.3,0,0.4c0.3,0,0.3,0,0.4-0.1c0.1-0.3,0.3-0.6,0.4-0.9c0.1-0.4,0.1-0.8,0.2-1.3c0-0.1,0.1-0.2,0.1-0.3
		c0.1-0.2,0.2-0.5,0.3-0.7c0.1-0.3,0.1-0.7,0.1-1c0-0.5,0-1.1,0-1.6c0-1,0-1.9,0-2.9c0-0.2-0.1-0.4-0.1-0.7c0-0.1-0.1-0.2-0.1-0.4
		c-0.1-0.4-0.2-0.9-0.3-1.3c-0.1-0.3-0.1-0.6-0.1-0.8C75.9,75.6,75.9,75.5,75.9,75.3z M68.3,74.5c0-0.2,0-0.4-0.1-0.5
		c-0.2-0.4-0.3-0.8-0.3-1.3c0-1.3-0.1-2.7-0.1-4c0-0.3,0.1-0.6,0.1-0.9c0-1.3,0-2.5-0.2-3.8c0-0.2-0.1-0.3-0.2-0.4
		c-0.2-0.1-0.5-0.2-0.8-0.3c-0.4,0-0.7,0.4-0.6,0.8c0.2,0.5,0.2,1.1,0.2,1.6c0,0.1,0,0.2,0,0.3c0.2,0.6,0.2,1.2,0.2,1.8
		c0,0.5,0,1,0,1.6c0.1,1,0.2,1.9,0.2,2.9c0,0.5,0,1.1,0.3,1.6c0,0.1,0,0.1,0,0.2C67.1,74.7,67.7,75,68.3,74.5z M63.9,83.2
		c0,0-0.1-0.1-0.2-0.2c-0.1-0.1-0.1-0.2-0.1-0.3c0.1-0.3,0-0.5-0.1-0.8c-0.2-0.3-0.2-0.6-0.2-0.9c0-0.3,0-0.6,0-0.9
		c-0.1-0.5-0.3-1-0.2-1.6c-0.3-0.2-0.5-0.4-0.5-0.7c0-0.3-0.1-0.6-0.1-0.9c0-0.3-0.3-0.5-0.6-0.5c-0.4,0-0.6,0.2-0.6,0.5
		c0,0.4,0,0.8-0.1,1.1c0,0,0,0.1,0,0.1c0.1,0.4,0.1,0.7,0.2,1.1c0,0.3,0.1,0.5,0.3,0.7c0.2,0.2,0.2,0.5,0.2,0.7
		c0,0.7,0.2,1.3,0.6,1.9c0.3,0.5,0.4,1.1,0.3,1.7c0,0.2,0,0.5,0,0.7c0,0.2,0.1,0.3,0.2,0.5c0.3,0.2,0.4,0.5,0.4,0.9
		c0,0.2,0,0.3,0,0.5c0,0.1,0,0.3,0.2,0.3c0.2-0.2,0.2-0.2,0.2-0.4c0-0.1,0-0.2,0-0.4C63.9,85.5,63.9,84.4,63.9,83.2z M38.9,52.1
		c-0.1,0-0.1,0-0.1,0c0,0-0.1,0-0.1,0c-0.2,0.2-0.5,0.2-0.7,0c-0.1-0.1-0.3-0.2-0.4-0.4c-0.1-0.1-0.3-0.2-0.5-0.2
		c-0.4,0.1-0.6,0-0.8-0.3c-0.1-0.2-0.3-0.3-0.6-0.3c-0.1,0-0.2,0-0.4,0c-0.2,0.1-0.4,0-0.6-0.1c-0.3-0.1-0.5-0.4-0.6-0.6
		c-0.1-0.2-0.2-0.5-0.3-0.7c-0.1-0.2-0.3-0.2-0.4,0c0,0.1-0.1,0.2-0.1,0.2c0,0.4,0,0.7,0,1.1c0,0.2,0.1,0.4,0.3,0.6
		c0.3,0.4,0.6,0.7,0.9,1.1c0.2,0.3,0.5,0.4,0.8,0.4c0.4,0,0.9,0,1.3,0.1c0.3,0,0.6,0.1,0.8,0.5c0.1,0.3,0.4,0.4,0.7,0.3
		c0.3,0,0.4-0.2,0.5-0.5c0-0.1,0-0.2,0-0.4c0-0.2,0-0.5,0.2-0.7C38.8,52.3,38.8,52.2,38.9,52.1z M33,47.9c0,0,0.1,0,0.1,0
		c0.4,0,0.6,0.2,0.8,0.6c0,0.1,0.1,0.1,0.1,0.2c0.1,0.2,0.3,0.3,0.5,0.3c0.2,0,0.4,0,0.6,0c0.4,0.1,0.8,0,1.1-0.1
		c0.2-0.1,0.4-0.1,0.6,0c0.2,0.1,0.3,0.1,0.5,0.2c0.1,0,0.2,0.1,0.3-0.1c-0.1-0.3-0.2-0.7-0.5-0.9c-0.2-0.1-0.4-0.2-0.7-0.3
		c-0.1,0-0.3,0-0.4,0c-0.3,0-0.6,0-0.9,0c-0.3,0-0.6-0.2-0.6-0.4c-0.1-0.4,0.1-0.7,0.4-1c0.4-0.3,0.8-0.5,1.3-0.3c0.1,0,0.2,0,0.3,0
		c0.1-0.2,0.1-0.3-0.1-0.4c-0.1-0.1-0.3-0.2-0.4-0.3c-0.2-0.2-0.2-0.3-0.1-0.5c0-0.1,0.1-0.1,0.1-0.2c0.2-0.2,0.2-0.3,0.1-0.5
		c-0.3-0.2-0.5-0.2-0.7-0.1c-0.2,0.1-0.3,0.3-0.2,0.6c0,0,0,0.1,0,0.1c0.1,0.2,0,0.4-0.2,0.5c-0.3,0.2-0.5,0.5-0.7,0.7
		c-0.1,0.1-0.1,0.1-0.2,0.2c-0.6,0.3-1,0.7-1.4,1.2C32.9,47.5,32.9,47.7,33,47.9z M63.4,78.5c0.1,0.1,0.2,0.1,0.2,0.2
		c0.3,0.1,0.5,0.1,0.8,0.2c0.4,0.1,0.8,0.2,1.3,0c0.1,0,0.2-0.1,0.3-0.1c0.1,0,0.2,0,0.3,0c0.1,0.4,0,0.6-0.4,0.6
		c-0.1,0-0.2,0-0.4,0c-0.3,0-0.6,0-0.9,0.1c-0.3,0.1-0.5,0.3-0.5,0.7c0,0.3,0.2,0.5,0.5,0.6c0.3,0.1,0.7,0.1,1,0.1
		c0.2,0,0.5,0,0.7,0c0.3,0,0.5,0,0.7-0.3c0.1-0.1,0.3-0.2,0.4-0.3c0.1-0.1,0.2-0.1,0.3-0.2c0.3-0.2,0.4-0.4,0.2-0.8
		c-0.1-0.2-0.3-0.3-0.5-0.4c-0.3-0.1-0.6-0.1-0.9-0.2c-0.1-0.2-0.1-0.3,0-0.4c0.1-0.1,0.2-0.2,0.2-0.2c0.2-0.2,0.2-0.4,0.1-0.6
		c-0.4-0.2-0.7-0.2-0.9,0.1c-0.3,0.5-0.7,0.6-1.1,0.5c-0.4,0-0.8,0.1-1.2,0.2C63.6,78.3,63.5,78.4,63.4,78.5z M101.6,70.5
		c-0.1,0.3,0.1,0.5,0.2,0.7c0.1,0.1,0.2,0.2,0.3,0.3c0.4,0.2,0.8,0.2,1.2,0.2c0.4-0.1,0.7-0.1,1.1,0c0.3,0.1,0.4,0.3,0.6,0.4
		c0.2,0.1,0.3,0.1,0.5,0c0.2-0.1,0.3-0.7,0.2-0.9c-0.1-0.2-0.3-0.4-0.5-0.5c-0.5-0.2-0.9-0.4-1.2-0.8c-0.1-0.1-0.2-0.2-0.3-0.2
		c-0.2-0.1-0.4-0.2-0.6-0.3c-0.3-0.1-0.6-0.2-0.9,0c-0.2,0.1-0.3,0.2-0.4,0.3C101.7,70,101.6,70.2,101.6,70.5z M89.5,65.7
		c0-0.5-0.1-0.6-0.5-0.9c-0.2-0.1-0.3-0.3-0.4-0.4c-0.1-0.1-0.2-0.2-0.3-0.2c-0.2,0-0.4-0.1-0.7-0.1c-0.3,0-0.6,0-0.9,0.1
		c-0.3,0.2-0.4,0.4-0.3,0.7c0.1,0.2,0.1,0.4,0.1,0.6c0.2,0.8,0.7,1.3,1.5,1.5c0.1,0,0.3,0.1,0.4,0C89,66.9,89.5,66.4,89.5,65.7z
		 M64.1,83.2C64.1,83.3,64.1,83.3,64.1,83.2c0.1,0.1,0.1,0.1,0.2,0.1c0.5,0,0.8,0.3,1,0.7c0,0.1,0.1,0.1,0.1,0.2
		c0.1,0.1,0.2,0.2,0.3,0.1c0.3-0.2,0.7-0.2,1.1-0.2c0.3,0,0.4,0.1,0.4,0.3c0.1,0.3,0.3,0.4,0.5,0.3c0.2-0.1,0.4-0.2,0.4-0.5
		c-0.1-0.1-0.2-0.2-0.3-0.2c0-0.2,0.1-0.3,0.2-0.4c0.2-0.2,0.2-0.4,0.1-0.6c-0.1-0.2-0.4-0.3-0.6-0.4c-0.2-0.1-0.4-0.2-0.6-0.2
		c-0.2,0-0.3-0.1-0.5-0.1c-0.4,0.1-0.9,0.2-1.3,0.3c-0.2,0-0.3,0.1-0.5,0.2C64.3,82.9,64.2,83,64.1,83.2z M71.5,83.3
		c0.4,0,0.7-0.1,1-0.1c0.1,0,0.3,0,0.4,0c0.5,0,0.9-0.2,1.2-0.6c0,0,0-0.1,0.1-0.1c0.2-0.3,0.2-0.4-0.1-0.6
		c-0.4-0.3-0.8-0.3-1.2-0.3c-0.4,0-0.8,0.1-1.2,0.1c-0.1,0-0.3,0-0.4,0.1c-0.3,0.1-0.4,0.4-0.3,0.6C71.2,82.9,71.4,83.1,71.5,83.3z
		 M31.9,50.3c-0.2,0.1-0.3,0.2-0.2,0.5c0,0.2,0,0.5,0,0.7c0,0.3,0,0.7-0.1,1c0,0.2,0.1,0.3,0.2,0.5c0.2,0.2,0.3,0.4,0.5,0.6
		c0.1,0.1,0.1,0.2,0.2,0.2c0.2,0.2,0.4,0.4,0.7,0.5c0.1,0.1,0.2,0.2,0.3,0.2c0.4,0,0.9,0.1,1.3,0.1c0.1,0,0.3-0.1,0.4-0.1
		c0,0,0-0.1,0-0.1c-0.1-0.1-0.2-0.1-0.3-0.2c-0.4-0.2-0.7-0.3-1.1-0.5c-0.3-0.1-0.5-0.4-0.7-0.6c-0.4-0.3-0.7-0.8-0.8-1.3
		c-0.1-0.4-0.1-0.8-0.2-1.2C32.1,50.6,32.1,50.4,31.9,50.3z M85.8,64.7c-0.1-0.1-0.1-0.2-0.2-0.2c-0.3-0.2-0.6-0.5-0.8-0.9
		c-0.1-0.2-0.2-0.3-0.4-0.3c-0.3,0-0.5,0-0.8-0.1c-0.1,0-0.3,0-0.4,0c-0.2,0.1-0.4,0.3-0.3,0.5c0.1,0.3,0.3,0.6,0.5,0.8
		c0.2,0.1,0.3,0.2,0.4,0.4c0.3,0.4,1,0.6,1.5,0.2C85.5,65.1,85.6,64.9,85.8,64.7z M81.7,63.6c0-0.4-0.4-0.8-0.8-0.9
		c-0.2-0.1-0.4-0.1-0.7-0.2c-0.1,0-0.3,0-0.4,0.1c-0.2,0.2-0.2,0.4-0.1,0.7c0.3,0.5,0.7,0.7,1.3,0.8C81.4,64.1,81.7,64,81.7,63.6z
		 M70.9,79.2C70.9,79.2,70.9,79.2,70.9,79.2c0.1,0.1,0.2,0.2,0.4,0.2c0.5,0.1,1,0.1,1.5,0.1c0.6,0.1,0.7,0,1-0.5c0,0,0,0,0-0.1
		c0.1-0.2,0.2-0.4,0-0.5c-0.1-0.1-0.5-0.1-0.6,0c-0.4,0.4-0.8,0.4-1.3,0.4c-0.2,0-0.5,0.1-0.7,0.1C71,79,71,79.1,70.9,79.2z
		 M41,53.4C41,53.4,41,53.4,41,53.4c0-0.1,0-0.2-0.1-0.2c-0.1-0.2-0.2-0.4-0.5-0.5c-0.2-0.1-0.4,0-0.5,0.2c-0.1,0.2-0.2,0.3-0.3,0.5
		c-0.1,0.2-0.1,0.4-0.1,0.6c0,0.2,0.1,0.3,0.3,0.4c0.1,0,0.2,0,0.3,0.1c0.3,0.1,0.4,0,0.6-0.3c0-0.1,0.1-0.2,0.1-0.3
		C40.9,53.7,40.9,53.5,41,53.4z M73,77.1c-0.1,0-0.2,0-0.3,0c-0.3,0-0.6,0.1-0.8,0.1c-0.4,0.1-0.7,0.1-1.1,0.2
		c-0.1,0-0.3,0.1-0.2,0.3c0,0,0.1,0.1,0.1,0.1c0.6,0.1,1.2,0.2,1.9,0.2c0.3,0,0.5-0.1,0.5-0.5C72.9,77.4,72.9,77.3,73,77.1z
		 M37.5,56.3c0.2,0,0.4,0,0.6-0.1c0.1-0.1,0.3-0.2,0.3-0.3c0.1-0.1,0.1-0.3,0.1-0.5c0-0.3-0.4-0.6-0.7-0.5c-0.2,0.1-0.5,0.4-0.7,0.6
		C37,55.6,36.9,55.8,37,56C37.1,56.2,37.3,56.3,37.5,56.3z M35.1,56.2c0-0.3-0.1-0.5-0.4-0.5c-0.3,0-0.5,0-0.8,0.1
		c-0.2,0-0.3,0.1-0.3,0.3c0,0.3,0.4,0.8,0.7,0.8C34.8,57,35.1,56.7,35.1,56.2z M41.1,51.2c0.4-0.1,0.6-0.5,1-0.7
		c0.1-0.5-0.4-0.9-0.8-0.8c-0.1,0-0.2,0-0.2,0.1c-0.3,0.4-0.5,0.7-0.2,1.2C40.9,51.1,41,51.1,41.1,51.2z M31.7,55.3
		c0.1,0,0.1,0,0.2,0c0.4,0,0.5-0.3,0.3-0.6c-0.2-0.3-0.4-0.5-0.6-0.6c-0.3-0.1-0.6,0.1-0.6,0.4C30.9,55,31.2,55.3,31.7,55.3z
		 M37.8,45.4c0.1,0.1,0.2,0.1,0.3,0.2c0.1,0.1,0.3,0.1,0.4,0.1c0.2,0.1,0.4,0,0.6-0.2c0.1-0.3,0-0.6-0.2-0.7
		c-0.2-0.1-0.4-0.1-0.6-0.1C37.9,44.7,37.7,45,37.8,45.4z M30.3,51.3c-0.3,0.1-0.7,0.1-0.9,0.4c-0.2,0.2-0.1,0.5,0.2,0.6
		c0.1,0,0.2,0,0.4,0c0.2,0,0.4,0,0.5-0.3C30.6,51.8,30.6,51.5,30.3,51.3z M30.1,48.7c0,0.4,0.1,0.5,0.3,0.6c0.4,0.1,0.9-0.4,0.8-0.8
		c0-0.1-0.1-0.2-0.2-0.2c-0.2,0-0.5-0.1-0.7,0C30.2,48.3,30.1,48.5,30.1,48.7z M40.8,47c-0.3,0-0.4,0.1-0.5,0.3
		c-0.1,0.2,0,0.4,0.2,0.5c0.1,0.1,0.2,0.1,0.3,0.2c0.3,0.1,0.5,0,0.6-0.3c0.1-0.3,0-0.5-0.3-0.6C41,47,40.9,47,40.8,47z M32.6,46.1
		c0.1,0,0.2,0,0.3,0c0.3,0,0.4-0.2,0.3-0.5c-0.1-0.3-0.4-0.4-0.7-0.3c-0.1,0.1-0.2,0.2-0.3,0.3C32,45.8,32,46,32.3,46.1
		C32.4,46.1,32.5,46.1,32.6,46.1z M94,50.7c0.3,0.1,0.6,0.1,0.9-0.1c0.2-0.1,0.2-0.2,0.1-0.4c-0.2,0-0.5,0-0.7,0
		C94.1,50.2,94,50.4,94,50.7z M97.4,47.5c0.4,0.2,0.7,0.1,1,0.1c0.1,0,0.2-0.1,0.3-0.2c-0.1-0.1-0.1-0.2-0.2-0.2
		C98.1,47.2,97.7,47.2,97.4,47.5z M87.8,50.5c0,0.2,0.1,0.3,0.3,0.2c0.2,0,0.3-0.1,0.5-0.1c0.1-0.1,0.1-0.2-0.1-0.3
		C88.3,50.2,88,50.3,87.8,50.5z M96.8,48c-0.3-0.1-0.6-0.1-0.8,0c-0.1,0-0.1,0.1-0.2,0.2C96.1,48.4,96.5,48.4,96.8,48z M83.8,52.8
		c-0.1-0.2-0.3-0.3-0.5-0.3c-0.1,0-0.2,0.1-0.2,0.3c0,0.2,0.1,0.2,0.3,0.2C83.5,53,83.6,53,83.8,52.8z M95.5,39.3
		c-0.4,0-0.7,0.2-0.7,0.5C95.2,39.9,95.5,39.7,95.5,39.3z"/>
</g>
</svg>
