<?xml version="1.0" encoding="utf-8"?>
<!-- Generator: Adobe Illustrator 25.4.1, SVG Export Plug-In . SVG Version: 6.00 Build 0)  -->
<svg version="1.1" xmlns="http://www.w3.org/2000/svg" xmlns:xlink="http://www.w3.org/1999/xlink" x="0px" y="0px"
	 viewBox="0 0 595.5 842.2" style="enable-background:new 0 0 595.5 842.2;" xml:space="preserve">
<style type="text/css">
	.st0{fill:url(#SVGID_1_);}
	.st1{fill:#F8B193;}
	.st2{fill:#6CB0E1;}
	.st3{clip-path:url(#SVGID_00000107546051281658271460000012463148884942401699_);}
	.st4{fill:#305FB0;}
	.st5{fill:#5A94D5;}
	.st6{fill:#B0DDF6;}
	.st7{fill:#4577C4;}
	.st8{clip-path:url(#SVGID_00000103966330808777059800000008218512600531823518_);}
	.st9{clip-path:url(#SVGID_00000171713711731103095270000000094313488602414763_);}
	.st10{fill:#FFC4AB;}
	.st11{fill:#255C92;}
	.st12{clip-path:url(#SVGID_00000118357955650432303950000017010169888875681196_);}
	.st13{fill:#662400;}
	.st14{fill:#FFFFFF;}
</style>
<g id="Layer_2">
	<g transform="matrix( 1, 0, 0, 1, 0,0) ">
		<g>
			<g id="Layer0_0_FILL_00000057849674187902738570000018089855323128306830_">
				
					<linearGradient id="SVGID_1_" gradientUnits="userSpaceOnUse" x1="308.9803" y1="315.1003" x2="303.8727" y2="700.7345" gradientTransform="matrix(1 0 0 -1 0 844)">
					<stop  offset="0" style="stop-color:#6CB0E1;stop-opacity:0"/>
					<stop  offset="1" style="stop-color:#6CB0E1;stop-opacity:0.349"/>
				</linearGradient>
				<path class="st0" d="M565.3,550.1c9.9-32,14.8-66.3,14.8-103c0-85-26.6-157.6-79.7-217.7c-53.2-60.1-117.3-90.2-192.5-90.2
					s-139.3,30.1-192.5,90.2C62.3,289.4,35.7,362,35.7,447.1c0,36.6,4.9,71,14.8,103H565.3z"/>
			</g>
		</g>
	</g>
</g>
<g id="Layer_1">
	<path class="st1" d="M330.4,303.3l14.2,22.9h80v32.2H320l-22.3-37.2l-31.6-52.7l32.7-15.9L330.4,303.3"/>
	<path class="st2" d="M298.8,252.6l31.6,50.7l-32.8,17.9l-31.6-52.7L298.8,252.6"/>
	<g>
		<defs>
			<rect id="SVGID_00000118362151637994734850000004439915225261943693_" x="501" y="257" width="27.4" height="24"/>
		</defs>
		<clipPath id="SVGID_00000042719238541451544390000017635148507022167719_">
			<use xlink:href="#SVGID_00000118362151637994734850000004439915225261943693_"  style="overflow:visible;"/>
		</clipPath>
		<g style="clip-path:url(#SVGID_00000042719238541451544390000017635148507022167719_);">
			<path class="st4" d="M528.3,257.4l-13.5,23.4l-13.3-20.2L528.3,257.4z"/>
		</g>
	</g>
	<path class="st5" d="M456.8,266l35.5,53.8L136,555l-35.5-53.8L456.8,266"/>
	<path class="st4" d="M127.4,483.5l-26.9,17.8L136,555l26.9-17.8L127.4,483.5"/>
	<path class="st6" d="M136,555l-20.2,13.3c-14.9,9.8-34.8,5.7-44.6-9.1c-9.8-14.9-5.7-34.8,9.1-44.7l20.2-13.3L136,555"/>
	<path class="st7" d="M136.2,496.9l329.4-217.5l4.4,6.7L140.7,503.6L136.2,496.9"/>
	<path class="st7" d="M149.6,517.1L479,299.6l4.4,6.7L154,523.8L149.6,517.1"/>
	<g>
		<defs>
			<rect id="SVGID_00000139257777986455103700000017204864376342555818_" x="35.7" y="427" width="166.3" height="75"/>
		</defs>
		<clipPath id="SVGID_00000116953652510917017910000010428112713673349000_">
			<use xlink:href="#SVGID_00000139257777986455103700000017204864376342555818_"  style="overflow:visible;"/>
		</clipPath>
		<g style="clip-path:url(#SVGID_00000116953652510917017910000010428112713673349000_);">
			<path class="st7" d="M201.3,434.6l-100.8,66.6l-64.7-24.9l74-48.8L201.3,434.6"/>
		</g>
	</g>
	<g>
		<defs>
			<rect id="SVGID_00000041258452713095349060000012260346117417609904_" x="133" y="488" width="104" height="136.3"/>
		</defs>
		<clipPath id="SVGID_00000158707075238926953060000012211733413417593487_">
			<use xlink:href="#SVGID_00000041258452713095349060000012260346117417609904_"  style="overflow:visible;"/>
		</clipPath>
		<g style="clip-path:url(#SVGID_00000158707075238926953060000012211733413417593487_);">
			<path class="st7" d="M236.8,488.4L136,555l-2.6,69.3l74-48.8L236.8,488.4"/>
		</g>
	</g>
	<path class="st2" d="M303.8,269.9c0,5.2-1.2,10.3-3.6,14.9l-50.6,97.7H183l12.1-109.2c2.3-20.4,19.5-35.8,40-35.8h36.3
		C289.3,237.5,303.8,252,303.8,269.9"/>
	<path class="st2" d="M240.5,259.5l20.2,36.8l-0.2,0.1l-33.1,16.5l-18.9-36.3c-5-9.6-0.5-21.4,9.6-25.3c2.1-0.8,4.3-1.2,6.5-1.2
		C231,250.1,237.2,253.5,240.5,259.5"/>
	<path class="st10" d="M247.4,237.5v-31.9l24.2,15.3v16.7l-8.1,17.1L247.4,237.5"/>
	<path class="st11" d="M341.6,344.4c-8.5-6.4-19.6-8.2-29.6-4.8l-128.9,43c0,23.8,23.3,40.6,45.9,33.1l75-25l-46.7,128.9h76.3
		c1,0,1.4-1.3,0.5-1.9l-22.1-14.3l41-122.9C357.3,367.3,352.7,352.8,341.6,344.4"/>
	<path class="st10" d="M400.5,342.3v28.2c0,2.2-1.8,4-4,4H284c-15,0-28.8-8.3-35.7-21.7l-20.8-40l33.1-16.5l0.2-0.1l23.1,42h88.6
		l4-12.1h3.4c2.6,0,4.7,2.1,4.7,4.6l0.1,7.5h11.9C398.7,338.2,400.5,340.1,400.5,342.3"/>
	<path class="st10" d="M255.5,201.3h16.1v32.2c-8.9,0-16.1-7.2-16.1-16.1V201.3"/>
	<path class="st10" d="M247.4,184.9h36.2v28.2c0,8.9-7.2,16.1-16.1,16.1c-11.1,0-20.1-9-20.1-20.1V184.9"/>
	<g>
		<defs>
			<rect id="SVGID_00000081614348342050408220000002424720060409892001_" x="239" y="169.1" width="57" height="40.9"/>
		</defs>
		<clipPath id="SVGID_00000080893598648914274780000002807049031993698180_">
			<use xlink:href="#SVGID_00000081614348342050408220000002424720060409892001_"  style="overflow:visible;"/>
		</clipPath>
		<g style="clip-path:url(#SVGID_00000080893598648914274780000002807049031993698180_);">
			<path class="st13" d="M295.8,169.1v8.1c0,8.9-7.2,16.1-16.1,16.1h-16.1c0,8.9-7.2,16.1-16.1,16.1h-8.1v-26.2
				c0-7.8,6.3-14.1,14.1-14.1H295.8"/>
		</g>
	</g>
	<path class="st10" d="M255.5,209.1c0,4.4-3.6,8.1-8.1,8.1s-8.1-3.6-8.1-8.1s3.6-8.1,8.1-8.1S255.5,204.7,255.5,209.1"/>
</g>
<g id="Layer_3">
	<polygon class="st14" points="501.5,260.6 514.8,280.8 492.3,319.8 456.8,266 	"/>
</g>
</svg>
