
<svg xmlns="http://www.w3.org/2000/svg" version="1.1" xmlns:xlink="http://www.w3.org/1999/xlink" preserveAspectRatio="none" x="0px" y="0px" width="720px" height="720px" viewBox="0 0 720 720">
<defs>
<linearGradient id="Gradient_1" gradientUnits="userSpaceOnUse" x1="462.40000000000003" y1="535.75" x2="455.8" y2="31.849999999999994" spreadMethod="pad">
<stop  offset="0%" stop-color="#6CB0E1" stop-opacity="0"/>

<stop  offset="100%" stop-color="#6CB0E1" stop-opacity="0.34901960784313724"/>
</linearGradient>

<g id="Layer0_0_FILL">
<path fill="url(#Gradient_1)" stroke="none" d="
M 841.35 563
Q 863.2 500.3 863.2 428.55 863.2 262.05 745.5 144.3 627.75 26.6 461.25 26.6 294.75 26.6 177.05 144.3 59.25 262.05 59.25 428.55 59.25 500.3 81.15 563
L 841.35 563 Z"/>
</g>

<g id="Layer0_1_FILL">
<path fill="#E7F1F7" stroke="none" d="
M 261.3 525
Q 261.3 520.9 230.65 517.95 200.05 515.05 156.65 515.05 113.3 515.05 82.65 517.95 52.05 520.9 52.05 525 52.05 529.15 82.65 532.1 113.3 534.95 156.65 534.95 200.05 534.95 230.65 532.1 261.3 529.15 261.3 525 Z"/>
</g>

<g id="Layer0_2_MEMBER_0_FILL">
<path fill="#FFFFFF" stroke="none" d="
M 276.6 190.05
L 276.6 170.35 260.1 170.35 260.1 190.05 276.6 190.05 Z"/>
</g>

<g id="Layer0_2_MEMBER_1_FILL">
<path fill="#FFFFFF" stroke="none" d="
M 301.45 145.65
Q 298.5 124.4 293.35 120.8 290.05 118.45 285.15 116.95 284.8 122.25 288.9 140.15 292.35 155.5 294.75 162.7 294.75 168.4 299.55 169.6 301.95 170.15 304.35 169.6 302.95 156.5 301.45 145.65 Z"/>
</g>

<g id="Layer0_2_MEMBER_2_FILL">
<path fill="#FFFFFF" stroke="none" d="
M 289.85 158
L 289 159.7
Q 288.15 161.6 288.3 162.65 288.6 164.3 293.95 170.35 294.85 170.7 297.2 171.8 299.65 172.55 302.5 171.5 305.3 170.45 304.65 166.85
L 303.5 163.5
Q 300.25 160.3 295.5 158 292.55 156.55 290.9 157.15
L 289.85 158 Z"/>
</g>

<g id="Layer0_2_MEMBER_3_FILL">
<path fill="#000000" stroke="none" d="
M 258.15 324.3
Q 258.7 323.45 258.65 322.95
L 258.55 322.6
Q 256.95 323.2 254.4 322.65
L 252.15 322
Q 251.75 322.55 252 323.2 252 323.8 252.1 328 252.15 332.2 251.95 333.6 251.7 335.6 248.15 342.95
L 248.15 344.1
Q 252.05 345.45 255.5 344.8 257.2 344.5 258.15 343.9 258.35 342.75 258.4 338.9
L 258.4 335.3
Q 257.6 332.95 257.8 328.4
L 258.15 324.3 Z"/>
</g>

<g id="Layer0_2_MEMBER_4_FILL">
<path fill="#000000" stroke="none" d="
M 284.75 323.2
Q 284.95 322.55 284.55 322 283.6 322.4 282.3 322.65 279.75 323.2 278.2 322.6
L 278.1 322.95
Q 278.05 323.45 278.55 324.3
L 278.9 328.4
Q 279.1 332.95 278.3 335.3
L 278.35 338.9
Q 278.4 342.75 278.55 343.9
L 281.25 344.8
Q 284.7 345.45 288.55 344.1
L 288.55 342.95
Q 285.05 335.6 284.75 333.6 284.55 332.2 284.65 328 284.75 323.8 284.75 323.2 Z"/>
</g>

<g id="Layer0_2_MEMBER_5_FILL">
<path fill="#0B3A68" stroke="none" d="
M 251.2 180.2
L 249.65 184.2
Q 247.85 190.65 246.95 202.85 243.9 241.9 250.15 324
L 251.2 325.6
Q 253.35 327.05 258.65 326.35 259.35 326.25 262.15 301.2 265.5 271 268.2 233.15 268.2 232.7 268.8 232.65 269.4 232.55 269.45 233.25 269.7 235.8 274 283.5 277.75 325.1 278.05 325.4 279.2 326.5 281.15 326.7 283.6 326.9 286.05 325.4 288.6 291.8 289.8 256.85 292.2 186.9 285.5 180.2
L 251.2 180.2 Z"/>
</g>

<g id="Layer0_2_MEMBER_6_FILL">
<path fill="#000000" stroke="none" d="
M 279.65 76.85
L 256.55 75.85 255.1 79.85
Q 253.65 84.7 253.35 88.95 252.45 102.6 264 105.4
L 267.95 105.75
Q 272.6 105.7 275.9 103.9 286.4 98.15 279.65 76.85 Z"/>
</g>

<g id="Layer0_2_MEMBER_7_FILL">
<path fill="#FFFFFF" stroke="none" d="
M 217.1 395.05
L 219.25 395.9
Q 221.95 396.75 225 396.6 227.45 391 229.4 386.5 233.15 377.75 234.65 371.35 235.4 368.15 235.15 364.2 234.7 360.4 234.6 359.35 232.35 359.55 230.45 360.55 228.85 361.35 227.95 362.45 225.15 365.8 221.3 379.35 219.3 386.35 217.1 395.05 Z"/>
</g>

<g id="Layer0_2_MEMBER_8_MEMBER_0_FILL">
<path fill="#FFC4AB" stroke="none" d="
M 274.35 91.2
Q 271.5 93.15 268.6 95.25 262.8 99.55 262.75 100.65 262.05 113.05 260.5 116.6 260.45 116.75 259.7 117 258.55 117.4 258.4 117.45
L 258.4 132.4 279.2 129.25 279.2 115.95 277.2 115.7
Q 275 110.9 274.45 100.6
L 274.35 91.2 Z"/>
</g>

<g id="Layer0_2_MEMBER_8_MEMBER_1_FILL">
<path fill="#000000" fill-opacity="0.09803921568627451" stroke="none" d="
M 276.45 113.65
Q 274.85 108.65 274.45 100.25
L 264.65 98.4
Q 262.75 100.15 262.75 100.65 262.55 105 262.05 109 265.3 111.75 268.45 113.15 273 115.1 276.45 113.65 Z"/>
</g>

<g id="Layer0_2_MEMBER_8_MEMBER_2_MEMBER_0_FILL">
<path fill="#FFC4AB" stroke="none" d="
M 257.2 96.05
L 257.5 97.85
Q 258.15 101.05 261.45 104.85 264.45 108.35 266.95 109.35
L 267.25 109.45
Q 267.7 109.55 268.4 109.55 269.5 109.55 269.85 109.35 272.35 108.35 275.4 104.85 278.65 101.05 279.3 97.85
L 279.65 96.05
Q 280.7 96.05 281.15 95.8 282.2 95.3 282.8 93.6 283.75 90.85 283.2 88.85 282.6 86.6 280.3 88.3 280.4 85.65 280.35 82.95
L 280.25 80.75
Q 279.75 72.65 268.4 72.95 257.05 72.65 256.55 80.75
L 256.45 82.95
Q 256.4 85.65 256.5 88.3 254.2 86.6 253.5 88.6 252.9 90.35 253.85 93.05 254.9 96.05 257.2 96.05 Z"/>
</g>

<g id="Layer0_2_MEMBER_8_MEMBER_2_MEMBER_1_FILL">
<path fill="#000000" stroke="none" d="
M 255.45 87.75
L 256.1 88.6
Q 256.85 89.45 257.15 89.4 257.4 89.4 264.2 87.95 271.6 85.4 275.55 79.55
L 277 84.25
Q 278.5 89.1 278.85 89.8 279.6 91.25 280.65 87.85 281.35 83.15 280.15 78.5 277.8 69.2 268.4 69.55 264.35 69.3 260.7 71.45 253.4 75.7 255.45 87.75 Z"/>
</g>

<g id="Layer0_2_MEMBER_9_FILL">
<path fill="#FFFFFF" stroke="none" d="
M 276.9 148.45
Q 277 148.25 277.2 115.2
L 275.8 111.4 268.8 114.4
Q 267.15 113.9 264.3 112.45
L 261.75 111.1 260.1 116.25 260.1 151.45
Q 276.85 148.6 276.9 148.45 Z"/>
</g>

<g id="Layer0_2_MEMBER_10_MEMBER_0_FILL">
<path fill="#0B3A68" stroke="none" d="
M 287.3 116.9
Q 287.05 116.6 286.1 116.7 284.75 116.9 281.95 116.25 278.7 115.35 277.2 115 276.85 123.1 273.35 133.55 270.1 143.3 268.55 143.3 267 143.3 263.7 132.9 260.25 121.85 260.5 115.1 257.45 116.15 255.75 116.7 252.75 117.65 251.2 117.35 250 117.1 249.5 117.45 249.2 117.9 249.05 117.95
L 246.8 128
Q 244.6 138.35 244.8 140.15 245.1 142.35 245.35 147.2 245.9 151.2 248.05 152.7
L 248.75 159.85
Q 249.4 168.25 249.25 174.3 249.2 176.8 248.9 179.9 248.65 182.15 248.75 183.35
L 248.8 183.9
Q 248.9 184.5 249.45 184.8 253.4 187 260.9 187.75
L 268.65 176.05 276.4 187.85
Q 282.75 187.15 287.65 185 288.2 184.75 288.05 183.35 287.35 180.5 286.75 172.95 286.3 166.25 286.6 158.45
L 287 152
Q 289.3 150.45 290.25 147.35 290.65 146 291.45 140.75 291.9 137.95 287.45 117.4 287.4 117.1 287.3 116.9 Z"/>
</g>

<g id="Layer0_2_MEMBER_11_FILL">
<path fill="#6CB0E1" stroke="none" d="
M 287.75 97
Q 287.55 97 287.55 97.2
L 287.55 110.2
Q 287.55 110.8 285.75 117.15 283.9 123.5 283.9 124.35
L 283.9 145.9
Q 283.9 146.85 284.65 147.5 285.4 148.2 286.4 148.2
L 293.2 148.2
Q 294.25 148.2 295 147.5 295.7 146.85 295.7 145.9
L 295.7 124.35
Q 293.6 115.9 292.05 110.2
L 292.05 97.2
Q 292.05 97 291.9 97
L 287.75 97 Z"/>
</g>

<g id="Layer0_2_MEMBER_12_MEMBER_0_FILL">
<path fill="#FFFFFF" stroke="none" d="
M 287.5 140.65
Q 291.45 141 295.3 140.1
L 295.3 125.55 284.3 125.55 284.3 140.1 287.5 140.65 Z"/>
</g>

<g id="Layer0_2_MEMBER_13_FILL">
<path fill="#0B3A68" stroke="none" d="
M 287.75 94.1
Q 287.55 94.1 287.55 94.3
L 287.55 106.35 292.05 106.35 292.05 94.3
Q 292.05 94.1 291.9 94.1
L 287.75 94.1 Z"/>
</g>

<g id="Layer0_2_MEMBER_14_FILL">
<path fill="#0B3A68" stroke="none" d="
M 292.35 98
L 292.35 96.05
Q 292.35 95.85 292.15 95.85
L 287.45 95.85
Q 287.25 95.85 287.25 96.05
L 287.25 98
Q 287.25 98.2 287.45 98.2
L 292.15 98.2
Q 292.35 98.2 292.35 98 Z"/>
</g>

<g id="Layer0_2_MEMBER_15_FILL">
<path fill="#FFC4AB" stroke="none" d="
M 269.2 165.55
L 268.65 165.6
Q 267 166 263 166.25
L 259.35 166.45 257.35 171.1 262.05 172.1
Q 263.3 173.4 268.15 174
L 270.4 175.55
Q 272 175.35 273.5 173.8 275.05 172.2 274.5 171.05 273.8 169.7 272.7 168.2 271.45 166.5 270.65 166 269.95 165.6 269.2 165.55 Z"/>
</g>

<g id="Layer0_2_MEMBER_16_MEMBER_0_FILL">
<path fill="#000000" stroke="none" d="
M 268.15 118.85
L 268.15 116.8 263.75 114.65
Q 263.15 114.55 262.65 114.65 261.7 114.95 262.25 116.3
L 263.35 118.15 262.75 119.7
Q 262.25 121.25 262.7 121.5 263.5 121.9 268.15 118.85 Z"/>
</g>

<g id="Layer0_2_MEMBER_16_MEMBER_1_FILL">
<path fill="#000000" stroke="none" d="
M 269.45 116.8
L 269.45 118.85
Q 274.15 121.9 274.9 121.5 275.65 121.1 274.25 118.15
L 275.4 116.3
Q 275.95 114.95 274.95 114.65
L 273.9 114.65 269.45 116.8 Z"/>
</g>

<g id="Layer0_2_MEMBER_16_MEMBER_2_FILL">
<path fill="#000000" stroke="none" d="
M 269.55 116.75
Q 269.25 116.5 268.85 116.5 268.5 116.5 268.2 116.75 267.9 117 267.9 117.35
L 267.9 118.55
Q 267.9 118.9 268.2 119.15 268.5 119.4 268.85 119.4 269.25 119.4 269.55 119.15 269.85 118.9 269.85 118.55
L 269.85 117.35
Q 269.85 117 269.55 116.75 Z"/>
</g>

<g id="Layer0_2_MEMBER_17_MEMBER_0_FILL">
<path fill="#999999" stroke="none" d="
M 262.75 148.65
Q 262.5 149.05 262.85 149.7
L 263.1 150.15
Q 263.5 150.8 264.3 151.25 265.1 151.7 265.85 151.7
L 300.9 151.7
Q 301.65 151.7 302.45 151.25 303.3 150.8 303.65 150.15
L 303.9 149.7
Q 304.3 149.05 304 148.65 303.75 148.2 303 148.2
L 263.7 148.2
Q 263 148.2 262.75 148.65 Z"/>
</g>

<g id="Layer0_2_MEMBER_17_MEMBER_1_FILL">
<path fill="#CCCCCC" stroke="none" d="
M 307.7 147.95
L 308.4 146.8 258.35 146.8 259.05 147.95
Q 259.5 148.55 260.35 149 261.2 149.4 261.9 149.4
L 304.8 149.4
Q 305.55 149.4 306.4 149 307.25 148.55 307.7 147.95 Z"/>
</g>

<g id="Layer0_2_MEMBER_17_MEMBER_2_FILL">
<path fill="#F2C1A8" stroke="none" d="
M 282.75 151.45
Q 282.2 151.2 281.65 151.55
L 281.15 151.95
Q 283.8 154.65 283.4 154.65 283.1 154.65 281.9 153.75
L 280.75 152.85
Q 279.45 151.6 278.45 151.55
L 277.75 151.7 278.7 153.05
Q 277 151.6 275.85 151.75
L 275.1 152.2
Q 275.4 152.2 279.8 156.25 284.45 160.55 285.2 161 286.75 161.95 290.35 162.65 291.65 159.55 291.1 158.15 290.95 157.75 290.2 156.9
L 289.5 156.1
Q 289.85 155.45 290.05 153.9 290.25 152.45 290.5 152.1 290.7 151.7 289.8 151.7 289.25 151.7 288.35 153.45 287.4 155.2 287.1 155.3 286.65 155.4 284.95 153.6 283.05 151.6 282.75 151.45 Z"/>
</g>

<g id="Layer0_2_MEMBER_18_FILL">
<path fill="#FFFFFF" stroke="none" d="
M 229.45 163.8
Q 227.7 168.05 228.5 169.85 229.3 171.65 243.3 172.05 250.3 172.25 257.1 172.1
L 258.65 169.8
Q 260.2 167.05 260.1 164.95 253.35 163.65 246.4 162.4 232.45 159.85 231.3 159.9
L 229.45 163.8 Z"/>
</g>

<g id="Layer0_3_FILL">
<path fill="#FFC4AB" stroke="none" d="
M 179.85 430.15
Q 182.7 434.65 185.9 435.25 189 436 194.15 426.65 199.15 417.05 199.05 413.1 198.8 409.05 195.3 407.65 192.1 406.25 187.75 406.8 183.8 413.75 180.5 419.7 177.2 425.45 179.85 430.15 Z"/>
</g>

<g id="Layer0_3_MEMBER_0_FILL">
<path fill="#255C92" stroke="none" d="
M 129.6 343.25
Q 130.25 337 131.35 331.35
L 124.6 334.1
Q 119.35 342.7 117.2 348.95 115 355.15 112.25 363 109.45 370.8 107.25 378.1 105.05 385.4 91.25 431.25 95.0544921875 436.8876953125 105 435.45
L 123.55 372.9
Q 128.2 357.1 129.6 343.25 Z"/>
</g>

<g id="Layer0_3_MEMBER_1_FILL">
<path fill="#374F67" stroke="none" d="
M 200.05 373.6
L 193.8 372
Q 192.65 374.7 192.2 376.05 191.4 378.55 191.6 379.25 191.95 380.45 193.4 381.3 194.6 381.95 196.05 382.1 197.9 382.25 199.65 381.35 201.4 380.4 201.5 379.25 201.55 378.9 201.3 378.45 200.85 377.65 200.7 377.25 200.05 375.75 200.05 373.6 Z"/>
</g>

<g id="Layer0_3_MEMBER_2_FILL">
<path fill="#374F67" stroke="none" d="
M 124.55 513.55
L 124.55 506.4 119.25 507.5 118.65 509.55
Q 109.6865234375 510.2103515625 107.05 511.7 104.41015625 513.251171875 106.3 513.4 108.1861328125 513.591796875 111.35 513.65 114.573046875 513.759375 117.75 513.6 120.9255859375 513.4921875 124.55 513.55 Z"/>
</g>

<g id="Layer0_3_MEMBER_3_FILL">
<path fill="#255C92" stroke="none" d="
M 253.1 273.35
Q 251.6 246.2 249.5 220.35
L 228.5 221.2 224.65 235.65 247.3 372.9
Q 249.7 373.95 252.3 373.8 254.4 373.7 256.35 372.7 255.9 323.65 253.1 273.35 Z"/>
</g>

<g id="Layer0_3_MEMBER_4_FILL">
<path fill="#255C92" stroke="none" d="
M 282.75 398.05
Q 257.05 399.5 243.05 400.4
L 285.5 610.35
Q 288.85 611.9 292.65 611.15 295.9 610.6 298.5 608.4 295.25 526.6 287.7 446.4 285.45 421.8 282.75 398.05 Z"/>
</g>

<g id="Layer0_3_MEMBER_5_FILL">
<path fill="#FFFFFF" stroke="none" d="
M 226.5 128.95
Q 217.65 127.05 208.35 126.95
L 193 129.3
Q 194.9 150.95 196.5 167.5 198.9 192.05 202.4 223.15 213.6 226.4 225.3 226.35 237.9 226.3 249.75 222.3 250.3 205.75 249.2 190.85 248.8 185.05 247.9 176.9 246.3 163 245.7 157.05 244.4 143.7 243.65 134.5 235.5 130.95 226.5 128.95 Z"/>
</g>

<g id="Layer0_3_MEMBER_6_FILL">
<path fill="#FFC4AB" stroke="none" d="
M 231.6 115.85
L 214.35 110.85
Q 214.3 112.65 213.95 115.15 213.05 121.6 210.65 127.95
L 224.65 135.6 230.8 132.35
Q 230.3 128.8 230.35 125.2 230.4 120.4 231.6 115.85 Z"/>
</g>

<g id="Layer0_3_MEMBER_7_FILL">
<path fill="#6CB0E1" stroke="none" d="
M 217.35 132.95
L 221.75 135.8 223.35 182.65 233.3 192.85 237.25 181.95 226.75 136.25 229.7 133.4 228.2 130.6 224.35 131.4 219.15 130.5 217.35 132.95 Z"/>
</g>

<g id="Layer0_3_MEMBER_8_FILL">
<path fill="#255C92" stroke="none" d="
M 246.85 225
L 246.05 217.35
Q 240.9 218.2 235.25 218.5 226.05 218.95 217.1 217.85
L 216.6 226.25
Q 225.15 227.8 233.55 227.25 240.4 226.8 246.85 225 Z"/>
</g>

<g id="Layer0_3_MEMBER_9_FILL">
<path fill="#000000" fill-opacity="0.14901960784313725" stroke="none" d="
M 223.15 226.7
L 220.25 225.95 201.5 238.8
Q 205.6 239.4 209.35 238.95 215.9 238.15 220.3 234.35 221.9 233.05 223.25 231.15
L 223.15 226.7 Z"/>
</g>

<g id="Layer0_3_MEMBER_10_FILL">
<path fill="#255C92" stroke="none" d="
M 199.15 127.95
Q 195.5 128.65 192.1 129.8
L 195.6 159.7 200.3 239.2
Q 207.7 239.5 214.15 236.25 218.65 234 221.95 230.35 222.9 207.45 220.45 185.15 217.2 155.65 208.05 127 203.6 127.1 199.15 127.95 Z"/>
</g>

<g id="Layer0_3_MEMBER_11_FILL">
<path fill="#000000" fill-opacity="0.14901960784313725" stroke="none" d="
M 241.7 223.9
L 242.1 227.4 250.15 234.25 241.7 223.9 Z"/>
</g>

<g id="Layer0_3_MEMBER_12_FILL">
<path fill="#255C92" stroke="none" d="
M 834.15 62.9
Q 832.25 63.3 829.45 64.15 826.1 65.35 823.3 67 818.6 99.15 816.25 131.35 814.5 154.75 813.9 177.5
L 823.85 167.6 827.3 130.2
Q 830.55 96.35 834.15 62.9 Z"/>
</g>

<g id="Layer0_3_MEMBER_13_FILL">
<path fill="#000000" fill-opacity="0.14901960784313725" stroke="none" d="
M 238.9 140.4
L 235.75 132.05 239.95 149.3
Q 240.55 151.85 241.85 157.95
L 243.6 166.55 240.4 176.85
Q 240.65 176.35 242.65 171.8
L 244.85 166.65 244.8 166.45
Q 244.4 162.45 243.4 157.65 242.6 153.3 241.45 148.95 240.25 144.35 238.9 140.4 Z"/>
</g>

<g id="Layer0_3_MEMBER_14_FILL">
<path fill="#000000" fill-opacity="0.14901960784313725" stroke="none" d="
M 206.1 147
Q 206.15 140.9 206.25 137.8
L 206.55 128.65
Q 205.65 134 205.35 137.75 204.75 143.85 204.65 146.95
L 204.8 165.6 211.2 172.9
Q 212.7 174.25 214.85 175.9 217.45 177.7 218.85 178.45 216.7 176.8 215.2 175.45 213.3 173.7 211.85 172.2
L 206.25 165.1
Q 206.296875 162.0642578125 206.2 156.15 206.05 150.05 206.1 147 Z"/>
</g>

<g id="Layer0_3_MEMBER_15_FILL">
<path fill="#FFFFFF" stroke="none" d="
M 234 130.25
L 230.5 124.2 225.9 129.35 229.05 137.65 234 130.25 Z"/>
</g>

<g id="Layer0_3_MEMBER_16_FILL">
<path fill="#FFFFFF" stroke="none" d="
M 221.95 129.35
L 212.35 122.05 208.05 127 219.35 138.05 221.95 129.35 Z"/>
</g>

<g id="Layer0_3_MEMBER_17_FILL">
<path fill="#000000" fill-opacity="0.14901960784313725" stroke="none" d="
M 195.3 183.05
L 200.35 197.8
Q 208.6 196.85 215.3 192.1 220.55 188.35 224.25 182.45
L 195.3 183.05 Z"/>
</g>

<g id="Layer0_3_MEMBER_18_FILL">
<path fill="#000000" fill-opacity="0.14901960784313725" stroke="none" d="
M 239.45 184.35
Q 240.9 185.85 242.5 187.1 245.85 189.6 249.8 190.7
L 249.4 187.1 239.45 184.35 Z"/>
</g>

<g id="Layer0_3_MEMBER_19_FILL">
<path fill="#000000" fill-opacity="0.14901960784313725" stroke="none" d="
M 205.9 160.65
L 205.8 153.1
Q 204.5 149.5 202.65 146.1 200.8 142.6 198.35 139.45
L 205.9 160.65 Z"/>
</g>

<g id="Layer0_3_MEMBER_20_FILL">
<path fill="#000000" fill-opacity="0.058823529411764705" stroke="none" d="
M 325.55 143.75
Q 324.95 139.3 324.85 136.15
L 294.3 145
Q 295.45 149.35 296.05 153.85 312.1 165.05 326.35 148.45 325.9 146.1 325.55 143.75 Z"/>
</g>

<g id="Layer0_3_MEMBER_21_FILL">
<path fill="#FFC4AB" stroke="none" d="
M 321.25 83.05
Q 316 79.7 310.5 78.05 299.65 74.65 290 78.05 283.75 80.2 279 84.8
L 281.1 122.8
Q 281.41328125 127.82265625 282.85 129.4 285.7439453125 132.6802734375 289.05 135.15 292.6943359375 137.7890625 296.95 139.5 300.983203125 141.1767578125 306.3 139.15 309.439453125 137.84765625 313.35 134.7 317.2728515625 131.56328125 319.95 127.9 322.6703125 124.2767578125 322.15 116.1
L 321.25 83.05 Z"/>
</g>

<g id="Layer0_3_MEMBER_22_FILL">
<path fill="#1F191A" stroke="none" d="
M 852.75 34.35
Q 857.15234375 31.345703125 855.3 22.65 853.44765625 14.004296875 848.4 5.7 843.8 2.4 838.05 2.6 833.7 2.75 829.85 5.05 827.55 6.35 826 8 822.9 9.35 820.8 12.05 819.3 13.95 818.4 16.65 819.1 22 821.4 27.25 823.2 31.55 826.3 34.95 825.1443359375 30.9205078125 824.45 27.95 823.74765625 24.9673828125 824.05 24.45 834.1 22.2 840.9 17.45 843.6 15.6 843.35 14.35
L 852.75 34.35 Z"/>
</g>

<g id="Layer0_3_MEMBER_23_FILL">
<path fill="#FFC4AB" stroke="none" d="
M 214.35 107.8
L 214.35 103
Q 214.1 100.8 212.2 99.95 211 99.45 209.7 99.95 208.5 100.35 207.9 101.3 206.9 102.85 207.95 105.1 208.95 107.25 210.95 107.95 212.4 108.45 214.35 107.8 Z"/>
</g>

<g id="Layer0_3_MEMBER_24_FILL">
<path fill="#F3F0E7" stroke="none" d="
M 107.2 358.2
L 78.85 370.1
Q 81.6 392.7 97.1 413.1
L 126.3 409.5
Q 112.05 389.1 107.2 358.2 Z"/>
</g>

<g id="Layer0_3_MEMBER_25_FILL">
<path fill="#FFC4AB" stroke="none" d="
M 821.45 127.9
L 823.95 120.2
Q 822.204296875 116.75625 818.25 114.8 814.2869140625 112.8810546875 809.55 112.8 804.8130859375 112.78046875 803.75 115.4 802.6865234375 118.070703125 805.35 122.4
L 821.45 127.9 Z"/>
</g>

<g id="Layer0_3_MEMBER_26_FILL">
<path fill="#255C92" stroke="none" d="
M 870.3 60.2
Q 868.7 72.8 866.65 84.25 864.8 94.65 859.4 111.15 846.15 114 836.65 115.25 828.7 116.35 820 115.95 817.3 118.05 816.75 121 815.85 125 818.55 128.4 828.55 131.7 838.6 132.45 853.9 133.6 871.1 129.95 880.05 117.6 884.15 103.2 893.05 71.65 881.95 63.15 877.6 59.75 870.3 60.2 Z"/>
</g>

<g id="Layer0_4_FILL">
<path fill="#BC775A" stroke="none" d="
M 91.9 416.5
Q 94.45 417 95.75 416.15 97.05 415.4 95.6 410.45 94.05 405.5 92.65 404.2 91.25 402.9 89.55 403.6 87.7 409.6 88.6 412.7 89.4 415.8 91.9 416.5 Z"/>
</g>

<g id="Layer0_4_MEMBER_0_FILL">
<path fill="#A0634A" stroke="none" d="
M 82.65 346.7
L 86.65 365.45
Q 86.95 365.9 87.5 366.35 88.45 367.1 89.55 367.15 91.6 367.2 92.7 365.25 92.95 333.55 90.2 303.4
L 89.05 291.85 72.85 296.55
Q 77.5 322 82.65 346.7 Z"/>
</g>

<g id="Layer0_4_MEMBER_1_FILL">
<path fill="#1F191A" stroke="none" d="
M 73.55 135.55
Q 72.85 138.75 72.6 140.25 75.6 146.7 81.3 149.65 85.35 151.75 90.7 151.75 100.5 151.75 108.55 146.85 112.65 144.4 116.1 140.65 115.1 135.55 112.7 131.05 111 127.8 108.75 125.2
L 82.4 113.7
Q 76.25 124.15 73.55 135.55 Z"/>
</g>

<g id="Layer0_4_MEMBER_2_FILL">
<path fill="#374F67" stroke="none" d="
M 68.05 507
Q 66.65 506.7 65.35 507.05 64 507.45 63.15 508.4 61.95 509.75 62.05 511.8 62.2 513.9 63.75 515.55 67.925 516.6943359375 72.1 515.55 69.8 512.95 68.7 509.8 68.2 508.3 68.05 507 Z"/>
</g>

<g id="Layer0_4_MEMBER_3_FILL">
<path fill="#48627C" stroke="none" d="
M 76.9 156.15
Q 72 176.05 65.95 193.9 59.55 212.7 51.9 230.35 52.85 232.4 55.05 233.65 57 234.7 59.15 234.55 69.25 221.65 74.85 206.35 80.5 190.95 81.25 174.4
L 76.9 156.15 Z"/>
</g>

<g id="Layer0_4_MEMBER_4_FILL">
<path fill="#BC775A" stroke="none" d="
M 99.9 330.9
Q 101.95 316.4 101.95 311.3
L 101.4 296.1 86.05 297.4
Q 86.45 322.75 87.4 348.85
L 88.2 368.4
Q 88.5 370 90 370.5 90.9 370.75 91.85 370.3 92.75 369.85 93.2 368.9 97.4 348.7 99.9 330.9 Z"/>
</g>

<g id="Layer0_4_MEMBER_5_FILL">
<path fill="#587491" stroke="none" d="
M 109.6 238.5
Q 107.6 226.4 101.3 214.7
L 68.7 217.45
Q 67.2 223.65 66.3 230.6 65.05 240.7 65.45 251.1 65.7 257.6 67 269.25 69.1 286.65 73.15 302.9 83.75 306.8 94 304.4 99.6 303.1 104.6 300 106.9 285.6 108.1 275.65 111.3 248.75 109.6 238.5 Z"/>
</g>

<g id="Layer0_4_MEMBER_6_FILL">
<path fill="#6CB0E1" stroke="none" d="
M 63.35 386.9
Q 63.45 391.15 62.65 395.05 61.55 400.35 59 405 61.95 407.65 65.4 409.3 70.75 412 77 412.35
L 79.5 409.15 80.85 412.25
Q 82.85 411.8 84.8 410.8 86.6 409.8 88.1 408.4 87.3 404.2 86.8 400.2 85.75 392.35 85.85 384.75 87.1 383.65 87.85 382.55 89.6 379.8 89.35 376.15
L 86.3 370.3
Q 83.7 365.25 80.65 358.75 75.8 356.9 70.45 356.9 62.65 356.85 55.55 360.85 57.5 366.05 58.75 370.05 61.5 378.75 63.35 386.9 Z"/>
</g>

<g id="Layer0_4_MEMBER_7_FILL">
<path fill="#BC775A" stroke="none" d="
M 98.75 138.2
L 83.95 143.15
Q 84.55 145.75 84.75 148.15 85.1 152.25 84.55 156.05 86 156.6 87.55 156.9 92.5 157.9 97.45 156.65
L 98.75 138.2 Z"/>
</g>

<g id="Layer0_4_MEMBER_8_FILL">
<path fill="#FFFFFF" stroke="none" d="
M 97.95 150.15
Q 95.85 151.95 93.4 153.05 90.75 154.3 87.65 154.8 86.4 153.95 85.7 152.8 85.1 151.85 84.85 150.6
L 81.5 154.65
Q 81.05 157.5 82.45 159.15 83.25 160.05 84.2 160.35
L 87.4 156.85 89.85 161.3
Q 93.3 161.15 96.45 159.25 99 157.75 101.1 154.85
L 97.95 150.15 Z"/>
</g>

<g id="Layer0_4_MEMBER_9_FILL">
<path fill="#374F67" stroke="none" d="
M 66.55 512.8
Q 66.4 510.85 66.45 509.55
L 64.45 508.95 64.15 512 63.1 509 60.25 509.8
Q 59.95 512.35 60.3 515.3
L 60.7 518
Q 64.225 519.780859375 67.75 518 66.8 515.45 66.55 512.8 Z"/>
</g>

<g id="Layer0_4_MEMBER_10_FILL">
<path fill="#587491" stroke="none" d="
M 107.15 157.05
Q 103.95 155.55 101.05 154.75 96.1 159.7 92.2 165.85 81.95 182.15 81.95 203.8 81.95 216.8 85.6 230.25 90 232.3 95.2 233.25 103.55 234.75 112.15 232.5
L 103.85 210.45
Q 102.45 206.05 102 201.8 100.25 187.1 107.45 172.65
L 110.5 159
Q 108.9 157.95 107.15 157.05 Z"/>
</g>

<g id="Layer0_4_MEMBER_11_FILL">
<path fill="#48627C" stroke="none" d="
M 108.2 233.25
Q 105.5 233.65 101.6 233.5 93.8 233.2 88.05 229.85 86.25 228.8 84.75 227.5
L 85.05 231.6
Q 93.25 234.05 102.25 233.9 104.85 233.85 106.7 233.6 108.2 233.35 108.2 233.25 Z"/>
</g>

<g id="Layer0_4_MEMBER_12_FILL">
<path fill="#587491" stroke="none" d="
M 76.2 155.9
L 64.7 179.4
Q 64.7 183.75 65.65 187.7 66.15 189.6 66.6 190.9 67.65 198.6 67.55 206.15 67.45 210.8 66.6 218.95 65.95 224.65 64.9 231.2 67 230.3 68.65 228.9 69.9 227.9 70.9 226.65 71.4 209.55 70.55 193.35 70.25 187.3 69.8 181.5 71.15 176.85 73.35 171.3 77.05 162.3 81.8 154.3
L 76.2 155.9 Z"/>
</g>

<g id="Layer0_4_MEMBER_13_FILL">
<path fill="#48627C" stroke="none" d="
M 70.9 225.3
L 70.4 227.6 66.45 230.55
Q 68.3 230.55 69.8 230.2 70.9 229.9 71.8 229.5
L 71.75 228
Q 71.55 226.5 70.9 225.3 Z"/>
</g>

<g id="Layer0_4_MEMBER_14_FILL">
<path fill="#48627C" stroke="none" d="
M 100.85 215.2
Q 101.45 213.95 101.05 212.15
L 88.45 213.5
Q 88.35 214.95 89 215.95 90.6 218.35 95.05 218.1 99.55 217.8 100.85 215.2 Z"/>
</g>

<g id="Layer0_4_MEMBER_15_FILL">
<path fill="#9CC3E0" stroke="none" d="
M 89.15 160.05
L 87.4 156.85 84.5 160.05 81.35 162.65 82.65 165.25 85.85 161.3 85.85 166 88.5 165.5 87.8 160.7 89.15 160.05 Z"/>
</g>

<g id="Layer0_4_MEMBER_16_FILL">
<path fill="#000000" fill-opacity="0.09803921568627451" stroke="none" d="
M 74.75 352.65
Q 74.9 350.95 75.3 349.1
L 64.25 345.4 64.25 347.1
Q 70.15 355.05 74.75 352.65 Z"/>
</g>

<g id="Layer0_4_MEMBER_17_FILL">
<path fill="#BC775A" stroke="none" d="
M 78.75 328.55
Q 75.2 327.35 71.8 327.8 68.4 328.25 65.45 330.25 63.75 331.4 62.4 332.95 61.6 337.6 61.95 342.1 62.01171875 343.0271484375 62.15 344.05 62.25234375 345.437109375 63.55 346.6 65.262109375 348.2912109375 67.35 349.5 68.46640625 350.169921875 69.7 350.7 72.3 352.2388671875 74.9 350.7 76.8681640625 349.4177734375 78.5 347.65 78.9330078125 347.1650390625 79.3 346.7 80.3611328125 345.425 80.35 344.15
L 78.75 328.55 Z"/>
</g>

<g id="Layer0_4_MEMBER_18_FILL">
<path fill="#1F191A" stroke="none" d="
M 77.5 127.1
Q 78.55 123.9 79.6 121.6 80.75 119 82.3 116.3 83.25 117.95 84.05 118.95 86.8 122.45 90.7 124.8 93.05 126.3 98.35 127.95 104.65 129.9 111 131.05 111.7 128.35 111.65 125.6 111.6 121 109.5 117.3 106.4 111.8 99.85 109.45 93.2 107 85.8 108.8 82.4 109.15 80.35 111.1 78.75 112.6 77.9 116.15 76.65 121.35 77.5 127.1 Z"/>
</g>

<g id="Layer0_4_MEMBER_19_FILL">
<path fill="#BC775A" stroke="none" d="
M 52.1 418.5
Q 54.55 419 55.9 418.15 57.2 417.35 55.7 412.45 54.15 407.5 52.8 406.25 51.35 404.9 49.7 405.65 47.85 411.6 48.8 414.7 49.6 417.8 52.1 418.5 Z"/>
</g>

<g id="Layer0_4_MEMBER_20_FILL">
<path fill="#587491" stroke="none" d="
M 108.8 158.05
Q 105.65 162.55 103.2 166.8 101.35 169.95 99.55 173.55 102.65 185.65 104.9 198.9 107.9 216.2 108.95 233.65 110.9 234.8 113.2 235.1 115.6 235.4 117.95 234.6 118.75 216.25 117.2 198.6 115.45 178.65 110.8 159.15
L 108.8 158.05 Z"/>
</g>

<g id="Layer0_5_MEMBER_0_MEMBER_0_FILL">
<path fill="#333333" stroke="none" d="
M 814.55 507.45
Q 814.3 506.65 812.65 505.75 809.5 503.9 807.05 501.9 804.25 499.5 804.25 498.15
L 797.9 498.15 796.05 503.6
Q 795.85 504.45 796.15 505.25 796.4 506.05 801.8 507.05 807.15 508 809.7 508.75 812.25 509.45 813.2 509.3 814.15 509.15 814.45 508.7 814.75 508.2 814.55 507.45 Z"/>
</g>

<g id="Layer0_5_MEMBER_0_MEMBER_1_FILL">
<path fill="#333333" stroke="none" d="
M 778.7 506.4
L 772.75 504.6 770.5 511.85
Q 770.3 512.7 770.6 513.5 770.85 514.3 776.25 515.3 781.6 516.25 784.15 517 786.7 517.7 787.65 517.55 788.6 517.4 788.9 516.95 789.2 516.45 789 515.7 788.75 514.9 787.1 514 783.95 512.15 781.5 510.15 778.7 507.75 778.7 506.4 Z"/>
</g>

<g id="Layer0_5_MEMBER_0_MEMBER_2_FILL">
<path fill="#255C92" stroke="none" d="
M 556.65 406.65
Q 550.15 408.2 528.25 407.3 506.4 406.25 504.45 408.6 502.4 411 504.15 593 513 600.75 521.65 597.25 529 496.5 537.25 452.75 552.3 472.75 537.65 587.85 549.65 595.9 557.5 590.15 564 551.65 568.55 505.05 573.1 458.45 575.3 418.2
L 556.75 413.05
Q 557.05 410.05 556.65 406.65 Z"/>
</g>

<g id="Layer0_5_MEMBER_0_MEMBER_3_FILL">
<path fill="#587491" stroke="none" d="
M 485.75 278.4
Q 465.25 286.85 465.95 294.15 466.7 301.4 474 344.7 481.35 388 480.95 415 493.46875 430.4166015625 521.05 415.65 521.2943359375 415.58984375 521.55 415.5 522.0333984375 415.4033203125 522.4 414.95
L 522.6 414.95
Q 527.55 410.8 530 382.05 532.8 350.9 529.7 334.25 525.05 306.95 522.15 293.4 516.7 268.7 511.95 270.3 496.5 274.15 485.75 278.4 Z"/>
</g>

<g id="Layer0_5_MEMBER_0_MEMBER_4_MEMBER_0_FILL">
<path fill="#F2C1A8" stroke="none" d="
M 391.05 321.95
Q 390.2 317.25 389.2 315.8 387.4 313.25 383.05 314.15 378.7 315.05 378.35 318.1 378.25 318.7 379.25 324.5 379.85 327.85 382.3 329.9 384.55 331.85 386.95 331.4 389.25 331 390.45 328.2 391.65 325.45 391.05 321.95 Z"/>
</g>

<g id="Layer0_5_MEMBER_0_MEMBER_4_MEMBER_1_FILL">
<path fill="#92341D" stroke="none" d="
M 380.2 313.65
Q 378.8 314.35 377.85 316 376.75 318 377.2 320.3 377.85 323.7 378.2 323.8
L 379.1 322.7
Q 378.95 321.95 379 321 379 319.05 379.8 317.95 380.6 316.85 381.85 316.45 382.5 316.3 383 316.3
L 380.2 313.65 Z"/>
</g>

<g id="Layer0_5_MEMBER_0_MEMBER_4_MEMBER_2_FILL">
<path fill="#F2C1A8" stroke="none" d="
M 380.7 326.8
L 378.95 322.85
Q 378.35 323.05 378.15 323.85 377.85 324.85 378.7 326 379.65 327.25 380.25 327.15 380.6 327.1 380.7 326.8 Z"/>
</g>

<g id="Layer0_5_MEMBER_0_MEMBER_4_MEMBER_3_FILL">
<path fill="#F2C1A8" stroke="none" d="
M 389.85 320.2
L 390.5 324.45 391.05 324.5
Q 391.65 324.25 391.75 322.7 391.9 321.3 391.1 320.6 390.5 320.05 389.85 320.2 Z"/>
</g>

<g id="Layer0_5_MEMBER_0_MEMBER_4_MEMBER_4_FILL">
<path fill="#350200" stroke="none" d="
M 391.25 317.35
Q 390.9 314.85 388.6 313.55 386.35 312.25 383.75 312.9
L 383.55 316.2 385.1 315.65
Q 386.9 315.25 388 316.05 389.15 316.8 389.8 318.6 390.15 319.5 390.25 320.25
L 391.45 321
Q 391.75 320.75 391.25 317.35 Z"/>
</g>

<g id="Layer0_5_MEMBER_0_MEMBER_4_MEMBER_5_FILL">
<path fill="#255C92" stroke="none" d="
M 376.6 316
Q 376.75 317.8 377.05 319.45 382.2 314.65 390.75 315.35 389.65 312.05 389.1 311 388.35 309.55 387.35 309.15 385.3 308.35 382.15 309.05 378.85 309.8 377.05 311.6 376.3 312.4 376.6 316 Z"/>
</g>

<g id="Layer0_5_MEMBER_0_MEMBER_4_MEMBER_6_MEMBER_0_FILL">
<path fill="#000000" fill-opacity="0.09803921568627451" stroke="none" d="
M 383.45 315.9
Q 386.8 315 390.75 315.35 389.6 312 389.1 311 388.4 309.6 387.35 309.15 385 308.25 381.5 309.25
L 383.45 315.9 Z"/>
</g>

<g id="Layer0_5_MEMBER_0_MEMBER_4_MEMBER_7_FILL">
<path fill="#255C92" stroke="none" d="
M 377.65 318
L 377.05 319.45
Q 378.4 318.5 382.1 317.3 387.1 315.6 391 315.85 391.15 315.8 390.75 315.35 390.5 314.95 389.4 314.75 387.25 314.3 383.2 315.3 379.1 316.35 377.65 318 Z"/>
</g>

<g id="Layer0_5_MEMBER_0_MEMBER_5_MEMBER_0_FILL">
<path fill="#D4AB99" stroke="none" d="
M 400.95 322.6
L 384.75 330.1 386.55 352.15 403 349.05 400.95 322.6 Z"/>
</g>

<g id="Layer0_5_MEMBER_0_MEMBER_5_MEMBER_1_FILL">
<path fill="#FFC4AB" stroke="none" d="
M 400.95 322.6
L 402.6 349.15 420.6 348.4 418.65 324.8 400.95 322.6 Z"/>
</g>

<g id="Layer0_5_MEMBER_0_MEMBER_6_FILL">
<path fill="#D4AB99" stroke="none" d="
M 696.9 409.15
L 665.45 403.65 661.3 452.7 693.05 448.9 696.9 409.15 Z"/>
</g>

<g id="Layer0_5_MEMBER_0_MEMBER_7_FILL">
<path fill="#FFC4AB" stroke="none" d="
M 399.1 348.7
L 401.15 375.8 421.25 372.65 419.25 348.25 399.1 348.7 Z"/>
</g>

<g id="Layer0_5_MEMBER_0_MEMBER_8_FILL">
<path fill="#F2C1A8" stroke="none" d="
M 389.3 366.05
L 386.9 367.1 387.25 367.9
Q 387.7 369 388.1 370.7 388.6 372.9 389.35 373.95 390.15 375.1 391.45 375.3 394.65 375.8 395.1 375.25 395.3 374.95 394.1 374.1 392.7 373.1 392.5 372.5
L 392.05 370.55 392.5 370.85
Q 393.1 371.2 393.8 371.45 394.55 371.7 394.6 371.3 394.65 370.95 394.3 370.7 392.55 368.7 391.85 368.2 390.05 366.8 389.3 366.05 Z"/>
</g>

<g id="Layer0_5_MEMBER_0_MEMBER_9_FILL">
<path fill="#AFC4DB" stroke="none" d="
M 378.65 333.45
L 377.75 332.95
Q 375.45 332.5 374.5 333.1 372.75 334.15 372.6 338.75 372.45 343.5 373.95 349.85 375.2 355.25 376.5 357.75 377.7 359.9 382.05 365.05 386.6 370.35 387.45 370.35 387.5 370.45 389.25 368.75 390.15 367.9 391 367.05 384.8 353.4 383.55 350.9 382.85 349.5 381.7 342.8 380.5 336 380.25 335.45 379.65 334.15 378.65 333.45 Z"/>
</g>

<g id="Layer0_5_MEMBER_1_MEMBER_0_FILL">
<path fill="#FFFFFF" stroke="none" d="
M 417.35 341.45
L 418.75 341.4 416.15 338.9 413.9 341.55 415.4 341.5 415.8 346.4 417.9 346.3 417.35 341.45 Z"/>
</g>

<g id="Layer0_5_MEMBER_1_MEMBER_1_FILL">
<path fill="#FFFFFF" stroke="none" d="
M 413.5 343.5
L 414.4 343.45 412.75 341.9 411.4 343.55 412.35 343.5 412.55 346.55 413.85 346.5 413.5 343.5 Z"/>
</g>

<g id="Layer0_5_MEMBER_2_MEMBER_0_FILL">
<path fill="#FFFFFF" stroke="none" d="
M 417.9 366.1
L 419.2 366.05 416.7 363.55 414.5 366.3 416 366.2 416.45 371.5 418.45 371.2 417.9 366.1 Z"/>
</g>

<g id="Layer0_6_FILL">
<path fill="#7E5341" stroke="none" d="
M 234.4 403
Q 234.4 401.25 234.2 403.55 234.3 403.45 234.4 403 Z"/>
</g>

<g id="Layer0_6_MEMBER_0_FILL">
<path fill="#7E5341" stroke="none" d="
M 303.2 494.3
Q 303.1 493.45 303.1 492.85 302.4 493.25 301.05 492.5 299.65 491.7 298.45 492.4 297.2 493.1 296.65 493.15 294.3 497.5 293.65 500.45 292.95 503.4 292.95 504.75 292.9 506.05 293.4 507.7 293.9 509.3 295.9 509.1 297.85 508.9 298.55 508.45 299.2 507.95 299.7 507 300.15 506 300.25 505.45 300.4 505.2 300.8 504.65 301.2 504 301.95 503.95 302.7 503.85 302.9 502.4 303.05 500.95 303.3 499.15 303.5 497.35 303.2 494.3 Z"/>
</g>

<g id="Layer0_6_MEMBER_1_FILL">
<path fill="#333333" stroke="none" d="
M 332.35 370.9
L 326.75 369.45
Q 325.95 371.1 325.3 373.05 324.55 375.35 324.75 375.95 325.05 377.05 326.35 377.75 327.45 378.35 328.75 378.5 330.45 378.6 332 377.8 333.55 377 333.6 375.95 333.65 375.65 333.4 375.25 333.05 374.5 332.9 374.15 332.25 372.5 332.35 370.9 Z"/>
</g>

<g id="Layer0_6_MEMBER_2_FILL">
<path fill="#333333" stroke="none" d="
M 832.9 508.75
L 832.3 510.85
Q 831.5 511.15 829.25 511.8 827 512.4 824.25 512.9 822.504296875 513.2513671875 822.6 513.95 822.6875 514.6458984375 824.45 514.9 826.2587890625 515.1990234375 830.6 514.45 834.9958984375 513.758203125 838.35 513.65
L 838.35 507.7 832.9 508.75 Z"/>
</g>

<g id="Layer0_6_MEMBER_3_FILL">
<path fill="#255C92" stroke="none" d="
M 357.85 234.1
L 354 246.5 374.75 370.25
Q 376.85 371.2 379.2 371.05 381.2 370.95 382.85 370.05 382.4 324.75 379.95 280.95 378.65 257.75 376.7 233.35
L 357.85 234.1 Z"/>
</g>

<g id="Layer0_6_MEMBER_4_FILL">
<path fill="#255C92" stroke="none" d="
M 361.85 234.1
L 335.8 232.6
Q 333.95 249.55 332.55 264.3 327.55 317.2 325.45 370.65 327.15 372.05 329.25 372.45 331.8 372.9 333.95 371.9
L 361.85 234.1 Z"/>
</g>

<g id="Layer0_6_MEMBER_5_FILL">
<path fill="#FFFFFF" stroke="none" d="
M 848.05 357.9
Q 841.95 359.15 836.1 361.75 833.15 381.3 832.25 401.05 831.75 411.45 831.9 422.95 840.85 427.7611328125 849.05 427.3 857.3 426.8888671875 864.85 423.5 866.8 403.3 868.95 384.75 871 367.35 872.15 358.15 859.8 355.5 848.05 357.9 Z"/>
</g>

<g id="Layer0_6_MEMBER_6_FILL">
<path fill="#7E5341" stroke="none" d="
M 360.65 139.6
L 345.2 135.1 344.8 138.95
Q 343.95 144.8 341.85 150.45
L 354.4 157.35 359.9 154.4
Q 359.45 151 359.5 148 359.65 143.4 360.65 139.6 Z"/>
</g>

<g id="Layer0_6_MEMBER_7_FILL">
<path fill="#000000" fill-opacity="0.2" stroke="none" d="
M 313.9 244.5
Q 313.5 241.35 312.55 235.05
L 311.9 228.65 286.3 236.1
Q 287.7 241.45 288.15 247.65 303.3 262.25 313.9 244.5 Z"/>
</g>

<g id="Layer0_6_MEMBER_8_FILL">
<path fill="#FFC4AB" stroke="none" d="
M 675.7 437.9
Q 675.6 436.9 675.6 437.65 675.65 437.85 675.7 437.9 Z"/>

<path fill="#7E5341" stroke="none" d="
M 676.6 438
Q 676.3 441.05 676.5 442.85 676.75 444.65 676.9 446.1 677.1 447.55 677.85 447.65 678.6 447.7 679 448.35 679.4 448.9 679.55 449.15 679.65 449.7 680.1 450.7 680.6 451.65 681.25 452.15 681.95 452.6 683.9 452.8 685.9 453 686.4 451.4 686.9 449.75 686.85 448.45 686.85 447.1 686.15 444.15 685.5 441.2 683.15 436.85 682.6 436.8 681.35 436.1 680.15 435.4 678.75 436.2 677.4 436.95 676.7 436.55 676.7 437.15 676.6 438 Z"/>
</g>

<g id="Layer0_6_MEMBER_9_FILL">
<path fill="#FFFFFF" stroke="none" d="
M 331.9 159.85
Q 329.1 155.15 325 151.65 317.8 171.8 314.95 192.5 312.05 212.95 313.35 233.7 316.95 235.45 320.95 235.5 324.2 235.55 327.45 234.4 326.45 216.35 329.15 198.55 331.35 184.35 335.9 170.55 334.9 164.9 331.9 159.85 Z"/>
</g>

<g id="Layer0_6_MEMBER_10_FILL">
<path fill="#1F191A" stroke="none" d="
M 660.6 339.65
Q 656.85 336.8 652.7 337 649.5 337.15 646.8 339.15 644.1 341.2 642.75 344.45 642.25 348.8 643.35 352.95 643.85 354.9 644.8 357.05
L 662.8 356.65 663.35 354.1
Q 664.4 349.35 664.65 344.5 663.351953125 341.6515625 660.6 339.65 Z"/>
</g>

<g id="Layer0_6_MEMBER_11_FILL">
<path fill="#7E5341" stroke="none" d="
M 662.7 345.75
Q 660.2529296875 342.9265625 656.7 342.25 653.14765625 341.567578125 649.75 342.3 646.3505859375 343.044140625 644.3 346.1
L 645.15 363.55
Q 646.7 365.55 648.45 366.8 651.05 368.65 654.15 369.45 656.35 368.65 658.5 367.05 661 365.15 662.7 362.5
L 662.7 345.75 Z"/>
</g>

<g id="Layer0_6_MEMBER_12_FILL">
<path fill="#7E5341" stroke="none" d="
M 343.7 132.35
L 343.7 128.05
Q 343.45 126.05 341.75 125.3 340.7 124.9 339.55 125.3 338.45 125.7 337.9 126.55 337 127.95 337.95 129.9 338.85 131.9 340.65 132.5 342.1 133 343.7 132.35 Z"/>
</g>

<g id="Layer0_6_MEMBER_13_FILL">
<path fill="#7E5341" stroke="none" d="
M 366.7 133.6
Q 368.5 133.05 369.55 131.15 370.6 129.2 369.8 127.8 369.3 126.9 368.25 126.45 367.1 125.95 366 126.35 364.3 126.9 363.9 128.95
L 363.65 133.25
Q 365.25 134 366.7 133.6 Z"/>
</g>

<g id="Layer0_6_MEMBER_14_FILL">
<path fill="#FFFFFF" stroke="none" d="
M 308.9 494.35
L 321.55 447.55 325.2 432.4 316.85 434.9
Q 311.30625 441.2892578125 307.9 457.9 303.8 477.65 299.35 491.2 300.9 493.25 303.45 494.15 306.25 495.15 308.9 494.35 Z"/>
</g>

<g id="Layer0_6_MEMBER_15_FILL">
<path fill="#97C9EE" stroke="none" d="
M 295 262.4
L 292.85 268.05 296.15 269.65 295 262.4
M 302.3 261.95
L 299.55 269.2 303.95 266.85 302.3 261.95 Z"/>
</g>

<g id="Layer0_6_MEMBER_16_FILL">
<path fill="#0B3A68" stroke="none" d="
M 300.45 275.65
L 306.9 270.6 304.3 266.35 296.6 268 291 266.55 288.8 271.5 293.1 276.35 275.9 355.5 283.6 374.85 298.1 357.2 300.45 275.65 Z"/>
</g>

<g id="Layer0_6_MEMBER_17_FILL">
<path fill="#E9F5FF" stroke="none" d="
M 358.35 159.15
L 362.8 152.5 359.65 147.05 355.5 151.7 358.35 159.15 Z"/>
</g>

<g id="Layer0_6_MEMBER_18_FILL">
<path fill="#E9F5FF" stroke="none" d="
M 339.5 149.6
L 349.65 159.5 352 151.7 343.4 145.15 339.5 149.6 Z"/>
</g>

<g id="Layer0_7_MEMBER_0_FILL">
<path fill="#255C92" stroke="none" d="
M 238.1 132.1
Q 239.15 137.3 239.75 143.05 241.65 162.45 236.35 181.8 240.4 184.3 244.9 185.75 254.1 188.75 264.5 187 264.05 177.85 261.55 169.5 260.4 165.65 258.5 161.5 257.45 159.2 253.8 151.85 249.15 142.55 244.35 134.65
L 238.1 132.1 Z"/>
</g>

<g id="Layer0_7_MEMBER_1_FILL">
<path fill="#374F67" stroke="none" d="
M 200.05 373.6
L 193.8 372
Q 192.65 374.7 192.2 376.05 191.4 378.55 191.6 379.25 191.95 380.45 193.4 381.3 194.6 381.95 196.05 382.1 197.9 382.25 199.65 381.35 201.4 380.4 201.5 379.25 201.55 378.9 201.3 378.45 200.85 377.65 200.7 377.25 200.05 375.75 200.05 373.6 Z"/>
</g>

<g id="Layer0_7_MEMBER_2_FILL">
<path fill="#374F67" stroke="none" d="
M 248.2 608.05
Q 256.9005859375 605.8482421875 265.7 607.75
L 265.7 591.6 251.85 594.4 250.3 599.75
Q 226.176953125 601.1013671875 221.85 604.7 217.5634765625 608.3576171875 221.3 609.05 225.09296875 609.73828125 232.3 610 239.500390625 610.257421875 248.2 608.05 Z"/>
</g>

<g id="Layer0_7_MEMBER_3_FILL">
<path fill="#255C92" stroke="none" d="
M 253.1 273.35
Q 251.6 246.2 249.5 220.35
L 228.5 221.2 224.65 235.65 247.3 372.9
Q 249.7 373.95 252.3 373.8 254.4 373.7 256.35 372.7 255.9 323.65 253.1 273.35 Z"/>
</g>

<g id="Layer0_7_MEMBER_4_FILL">
<path fill="#255C92" stroke="none" d="
M 232.95 221.2
Q 222.7 220.55 203.9 219.5 201.95 236.85 200.3 254.85 194.75 313.5 192.4 373.35 194.3 374.95 196.65 375.35 199.45 375.9 201.9 374.75
L 232.95 221.2 Z"/>
</g>

<g id="Layer0_7_MEMBER_5_FILL">
<path fill="#FFFFFF" stroke="none" d="
M 226.5 128.95
Q 217.65 127.05 208.35 126.95
L 193 129.3
Q 194.9 150.95 196.5 167.5 198.9 192.05 202.4 223.15 213.6 226.4 225.3 226.35 237.9 226.3 249.75 222.3 250.3 205.75 249.2 190.85 248.8 185.05 247.9 176.9 246.3 163 245.7 157.05 244.4 143.7 243.65 134.5 235.5 130.95 226.5 128.95 Z"/>
</g>

<g id="Layer0_7_MEMBER_6_FILL">
<path fill="#FFC4AB" stroke="none" d="
M 231.6 115.85
L 214.35 110.85
Q 214.3 112.65 213.95 115.15 213.05 121.6 210.65 127.95
L 224.65 135.6 230.8 132.35
Q 230.3 128.8 230.35 125.2 230.4 120.4 231.6 115.85 Z"/>
</g>

<g id="Layer0_7_MEMBER_7_FILL">
<path fill="#6CB0E1" stroke="none" d="
M 217.35 132.95
L 221.75 135.8 223.35 182.65 233.3 192.85 237.25 181.95 226.75 136.25 229.7 133.4 228.2 130.6 224.35 131.4 219.15 130.5 217.35 132.95 Z"/>
</g>

<g id="Layer0_7_MEMBER_8_FILL">
<path fill="#255C92" stroke="none" d="
M 246.85 225
L 246.05 217.35
Q 240.9 218.2 235.25 218.5 226.05 218.95 217.1 217.85
L 216.6 226.25
Q 225.15 227.8 233.55 227.25 240.4 226.8 246.85 225 Z"/>
</g>

<g id="Layer0_7_MEMBER_9_FILL">
<path fill="#000000" fill-opacity="0.14901960784313725" stroke="none" d="
M 223.15 226.7
L 220.25 225.95 201.5 238.8
Q 205.6 239.4 209.35 238.95 215.9 238.15 220.3 234.35 221.9 233.05 223.25 231.15
L 223.15 226.7 Z"/>
</g>

<g id="Layer0_7_MEMBER_10_FILL">
<path fill="#255C92" stroke="none" d="
M 199.15 127.95
Q 195.5 128.65 192.1 129.8
L 195.6 159.7 200.3 239.2
Q 207.7 239.5 214.15 236.25 218.65 234 221.95 230.35 222.9 207.45 220.45 185.15 217.2 155.65 208.05 127 203.6 127.1 199.15 127.95 Z"/>
</g>

<g id="Layer0_7_MEMBER_11_FILL">
<path fill="#000000" fill-opacity="0.14901960784313725" stroke="none" d="
M 241.7 223.9
L 242.1 227.4 250.15 234.25 241.7 223.9 Z"/>
</g>

<g id="Layer0_7_MEMBER_12_FILL">
<path fill="#255C92" stroke="none" d="
M 238 131.9
Q 235.4 131.1 233.65 130.75 236.95 161.5 239.95 192.7
L 243.15 227.1 252.3 236.25
Q 251.75 215.3 250.15 193.75 247.95 164.1 243.65 134.5 241.05 133 238 131.9 Z"/>
</g>

<g id="Layer0_7_MEMBER_13_FILL">
<path fill="#000000" fill-opacity="0.14901960784313725" stroke="none" d="
M 238.9 140.4
L 235.75 132.05 239.95 149.3
Q 240.55 151.85 241.85 157.95
L 243.6 166.55 240.4 176.85
Q 240.65 176.35 242.65 171.8
L 244.85 166.65 244.8 166.45
Q 244.4 162.45 243.4 157.65 242.6 153.3 241.45 148.95 240.25 144.35 238.9 140.4 Z"/>
</g>

<g id="Layer0_7_MEMBER_14_FILL">
<path fill="#000000" fill-opacity="0.14901960784313725" stroke="none" d="
M 206.1 147
Q 206.15 140.9 206.25 137.8
L 206.55 128.65
Q 205.65 134 205.35 137.75 204.75 143.85 204.65 146.95
L 204.8 165.6 211.2 172.9
Q 212.7 174.25 214.85 175.9 217.45 177.7 218.85 178.45 216.7 176.8 215.2 175.45 213.3 173.7 211.85 172.2
L 206.25 165.1
Q 206.296875 162.0642578125 206.2 156.15 206.05 150.05 206.1 147 Z"/>
</g>

<g id="Layer0_7_MEMBER_15_FILL">
<path fill="#FFFFFF" stroke="none" d="
M 234 130.25
L 230.5 124.2 225.9 129.35 229.05 137.65 234 130.25 Z"/>
</g>

<g id="Layer0_7_MEMBER_16_FILL">
<path fill="#FFFFFF" stroke="none" d="
M 221.95 129.35
L 212.35 122.05 208.05 127 219.35 138.05 221.95 129.35 Z"/>
</g>

<g id="Layer0_7_MEMBER_17_FILL">
<path fill="#000000" fill-opacity="0.14901960784313725" stroke="none" d="
M 195.3 183.05
L 200.35 197.8
Q 208.6 196.85 215.3 192.1 220.55 188.35 224.25 182.45
L 195.3 183.05 Z"/>
</g>

<g id="Layer0_7_MEMBER_18_FILL">
<path fill="#255C92" stroke="none" d="
M 231.75 179.75
Q 236.5 183.4 242 185.4 250.55 188.5 259.35 187.4 260.15 179.75 256.95 173.2 255.5 170.2 253.35 167.8 250.65 168.2 247.2 169.1 245.5 169.5 243.5 170.1 240.55 172.8 238.2 174.7 234.7 177.65 231.75 179.75 Z"/>
</g>

<g id="Layer0_7_MEMBER_19_FILL">
<path fill="#FFC4AB" stroke="none" d="
M 240.6 160.95
Q 237.5 162.45 235.9 165.6
L 244 171.15 254.35 167.3
Q 253.6 164.55 251.6 162.6 249.6 160.65 246.95 160.1 243.7 159.4 240.6 160.95 Z"/>
</g>

<g id="Layer0_7_MEMBER_20_FILL">
<path fill="#255C92" stroke="none" d="
M 200.35 128.25
Q 193.65 127.85 189.65 130.95 179.45 138.8 187.6 167.85 191.4 181.1 199.65 192.45 216 190.75 229.85 182.85 237.9 178.25 244.9 171.55 245.75 167.65 243.5 164.7 241.8 162.45 238.75 161.75 231.65 165.55 224.65 167.8 216.25 170.5 208.1 171.45 205.45 159.95 203.75 150.4 201.85 139.85 200.35 128.25 Z"/>
</g>

<g id="Layer0_7_MEMBER_21_FILL">
<path fill="#FFC4AB" stroke="none" d="
M 214.3 173.9
Q 220.4 172.25 220.8 169.35 221 167.7 218.25 165.8 216.3 164.45 213.85 163.45 209.7 161.75 205.15 162.4 203.8 165.25 203.8 167.95 203.75 170.75 205.15 172.4 207.9 175.65 214.3 173.9 Z"/>
</g>

<g id="Layer0_7_MEMBER_22_FILL">
<path fill="#000000" fill-opacity="0.14901960784313725" stroke="none" d="
M 239.45 184.35
Q 240.9 185.85 242.5 187.1 245.85 189.6 249.8 190.7
L 249.4 187.1 239.45 184.35 Z"/>
</g>

<g id="Layer0_7_MEMBER_23_FILL">
<path fill="#000000" fill-opacity="0.14901960784313725" stroke="none" d="
M 239.85 184.65
L 238.7 181.15 244.95 171.45
Q 242.55 173.85 240.65 175.45 237.1 178.5 233.1 180.85 234.05 181.6 235.45 182.5 237.35 183.7 239.85 184.65 Z"/>
</g>

<g id="Layer0_7_MEMBER_24_FILL">
<path fill="#000000" fill-opacity="0.14901960784313725" stroke="none" d="
M 205.9 160.65
L 205.8 153.1
Q 204.5 149.5 202.65 146.1 200.8 142.6 198.35 139.45
L 205.9 160.65 Z"/>
</g>

<g id="Layer0_7_MEMBER_25_FILL">
<path fill="#000000" fill-opacity="0.058823529411764705" stroke="none" d="
M 325.55 143.75
Q 324.95 139.3 324.85 136.15
L 294.3 145
Q 295.45 149.35 296.05 153.85 312.1 165.05 326.35 148.45 325.9 146.1 325.55 143.75 Z"/>
</g>

<g id="Layer0_7_MEMBER_26_FILL">
<path fill="#FFC4AB" stroke="none" d="
M 321.25 83.05
Q 316 79.7 310.5 78.05 299.65 74.65 290 78.05 283.75 80.2 279 84.8
L 281.1 122.8
Q 281.41328125 127.82265625 282.85 129.4 285.7439453125 132.6802734375 289.05 135.15 292.6943359375 137.7890625 296.95 139.5 300.983203125 141.1767578125 306.3 139.15 309.439453125 137.84765625 313.35 134.7 317.2728515625 131.56328125 319.95 127.9 322.6703125 124.2767578125 322.15 116.1
L 321.25 83.05 Z"/>
</g>

<g id="Layer0_7_MEMBER_27_FILL">
<path fill="#FFC4AB" stroke="none" d="
M 214.35 107.8
L 214.35 103
Q 214.1 100.8 212.2 99.95 211 99.45 209.7 99.95 208.5 100.35 207.9 101.3 206.9 102.85 207.95 105.1 208.95 107.25 210.95 107.95 212.4 108.45 214.35 107.8 Z"/>
</g>

<g id="Layer0_7_MEMBER_28_FILL">
<path fill="#FFC4AB" stroke="none" d="
M 236.3 100.75
Q 235 101.25 234.6 103.45 234.2 105.75 234.95 108.8 236.15 109.1 237.25 108.65 239.1 107.95 239.8 105.55 240.5 103.1 239.25 101.7 238.75 101.05 237.9 100.8 237 100.45 236.3 100.75 Z"/>
</g>

<g id="Layer0_7_MEMBER_29_FILL">
<path fill="#1F191A" stroke="none" d="
M 219.35 74.25
Q 214.2 75.45 210.9 79.45 208.5 87.8 210.35 96.05 210.85 98.25 211.85 100.75
L 214.8 85.55
Q 217.55 87.1 220.35 88.1 227.55 90.75 235.25 90.1 235.85 91.35 236.3 92.7 237.65 96.55 237.65 100.6 239.45 96.45 240.05 92.15 240.85 86.95 240.2 82.05 238.75 79.85 237 78.55 234.45 76.65 231.35 76.15 229.6 75.05 227.25 74.45 223.25 73.35 219.35 74.25 Z"/>
</g>

<g id="Layer0_8_MEMBER_0_FILL">
<path fill="#255C92" stroke="none" d="
M 357.85 234.1
L 354 246.5 374.75 370.25
Q 376.85 371.2 379.2 371.05 381.2 370.95 382.85 370.05 382.4 324.75 379.95 280.95 378.65 257.75 376.7 233.35
L 357.85 234.1 Z"/>
</g>

<g id="Layer0_8_MEMBER_1_FILL">
<path fill="#255C92" stroke="none" d="
M 361.85 234.1
L 335.8 232.6
Q 333.95 249.55 332.55 264.3 327.55 317.2 325.45 370.65 327.15 372.05 329.25 372.45 331.8 372.9 333.95 371.9
L 361.85 234.1 Z"/>
</g>

<g id="Layer0_8_MEMBER_2_FILL">
<path fill="#6CB0E1" stroke="none" d="
M 848.05 357.9
Q 841.95 359.15 836.1 361.75 833.15 381.3 832.25 401.05 831.75 411.45 831.9 422.95 840.85 427.7611328125 849.05 427.3 857.3 426.8888671875 864.85 423.5 866.8 403.3 868.95 384.75 871 367.35 872.15 358.15 859.8 355.5 848.05 357.9 Z"/>
</g>

<g id="Layer0_8_MEMBER_3_FILL">
<path fill="#FFC4AB" stroke="none" d="
M 360.65 139.6
L 345.2 135.1 344.8 138.95
Q 343.95 144.8 341.85 150.45
L 354.4 157.35 359.9 154.4
Q 359.45 151 359.5 148 359.65 143.4 360.65 139.6 Z"/>
</g>

<g id="Layer0_8_MEMBER_4_FILL">
<path fill="#000000" fill-opacity="0.09803921568627451" stroke="none" d="
M 856.3 345.95
L 856 342.95 844 346.45
Q 844.65 348.95 844.85 351.85 851.25 356.1 857.4 350.25 856.75 348.9 856.3 345.95 Z"/>
</g>

<g id="Layer0_8_MEMBER_5_FILL">
<path fill="#FFC4AB" stroke="none" d="
M 830.3 421.15
Q 830.3 420.4 830.2 421.4 830.25 421.35 830.3 421.15
M 824.55 419.6
Q 823.3 420.3 822.75 420.35 820.4 424.7 819.75 427.65 819.1 430.6 819.1 431.95 819.05 433.25 819.5 434.9 820 436.5 822 436.3 823.95 436.1 824.65 435.65 825.3 435.15 825.8 434.2 826.25 433.2 826.35 432.65 826.5 432.4 826.9 431.85 827.3 431.2 828.05 431.15 828.8 431.05 829 429.6 829.15 428.15 829.4 426.35 829.6 424.55 829.3 421.5 829.2 420.65 829.2 420.05 828.5 420.45 827.15 419.7 825.75 418.9 824.55 419.6 Z"/>
</g>

<g id="Layer0_8_MEMBER_6_FILL">
<path fill="#FFC4AB" stroke="none" d="
M 830.3 421.15
Q 830.3 420.4 830.2 421.4 830.25 421.35 830.3 421.15
M 824.55 419.6
Q 823.3 420.3 822.75 420.35 820.4 424.7 819.75 427.65 819.1 430.6 819.1 431.95 819.05 433.25 819.5 434.9 820 436.5 822 436.3 823.95 436.1 824.65 435.65 825.3 435.15 825.8 434.2 826.25 433.2 826.35 432.65 826.5 432.4 826.9 431.85 827.3 431.2 828.05 431.15 828.8 431.05 829 429.6 829.15 428.15 829.4 426.35 829.6 424.55 829.3 421.5 829.2 420.65 829.2 420.05 828.5 420.45 827.15 419.7 825.75 418.9 824.55 419.6 Z"/>
</g>

<g id="Layer0_8_MEMBER_7_FILL">
<path fill="#333333" stroke="none" d="
M 332.35 370.9
L 326.75 369.45
Q 325.95 371.1 325.3 373.05 324.55 375.35 324.75 375.95 325.05 377.05 326.35 377.75 327.45 378.35 328.75 378.5 330.45 378.6 332 377.8 333.55 377 333.6 375.95 333.65 375.65 333.4 375.25 333.05 374.5 332.9 374.15 332.25 372.5 332.35 370.9 Z"/>
</g>

<g id="Layer0_8_MEMBER_8_FILL">
<path fill="#333333" stroke="none" d="
M 382.8 370.25
L 382 367.55 375 366.15 375.1 372.5
Q 379.1 373.35 383.25 373.7 387.6 374.1 391.65 373.95 395.35 373.85 395.35 373.45 395.4 373.3 393.15 372.85 389.6 372.2 386.75 371.45 383.8 370.65 382.8 370.25 Z"/>
</g>

<g id="Layer0_8_MEMBER_9_FILL">
<path fill="#6CB0E1" stroke="none" d="
M 380.3 196.25
Q 375.2 176.5 371.45 156.3
L 366.4 200.4 378.4 236.1
Q 381.85 237.15 385.45 235.85 388.7 234.7 390.7 232.05 385 214.6 380.3 196.25 Z"/>
</g>

<g id="Layer0_8_MEMBER_10_FILL">
<path fill="#6CB0E1" stroke="none" d="
M 331.9 159.85
Q 329.1 155.15 325 151.65 317.8 171.8 314.95 192.5 312.05 212.95 313.35 233.7 316.95 235.45 320.95 235.5 324.2 235.55 327.45 234.4 326.45 216.35 329.15 198.55 331.35 184.35 335.9 170.55 334.9 164.9 331.9 159.85 Z"/>
</g>

<g id="Layer0_8_MEMBER_11_FILL">
<path fill="#1F191A" stroke="none" d="
M 365.95 128.35
Q 367.15 125.6 367.8 123.05 369.2 117.75 368.55 112.1 366.8 107.95 363.35 105.3 359.85 102.7 355.75 102.5 350.4 102.25 345.9 106.05
L 340.35 112.2
Q 340.7 118.45 342 124.55
L 342.75 127.85 365.95 128.35 Z"/>
</g>

<g id="Layer0_8_MEMBER_12_FILL">
<path fill="#FFC4AB" stroke="none" d="
M 365.45 136.75
L 366.8 112.95
Q 363.95 110.3 360.65 109.15 355.3 107.3 349.25 109.15 346.05 110.15 343.3 111.95
L 342.85 135.35
Q 345.05 138.8 348.25 141.2 351.05 143.3 353.85 144.3 357.85 143.3 361.2 140.9 363.45 139.3 365.45 136.75 Z"/>
</g>

<g id="Layer0_8_MEMBER_13_FILL">
<path fill="#FFC4AB" stroke="none" d="
M 343.7 132.35
L 343.7 128.05
Q 343.45 126.05 341.75 125.3 340.7 124.9 339.55 125.3 338.45 125.7 337.9 126.55 337 127.95 337.95 129.9 338.85 131.9 340.65 132.5 342.1 133 343.7 132.35 Z"/>
</g>

<g id="Layer0_8_MEMBER_14_FILL">
<path fill="#FFC4AB" stroke="none" d="
M 366.7 133.6
Q 368.5 133.05 369.55 131.15 370.6 129.2 369.8 127.8 369.3 126.9 368.25 126.45 367.1 125.95 366 126.35 364.3 126.9 363.9 128.95
L 363.65 133.25
Q 365.25 134 366.7 133.6 Z"/>
</g>

<g id="Layer0_8_MEMBER_15_FILL">
<path fill="#1F191A" stroke="none" d="
M 367.45 117.6
L 367.65 111.75
Q 365.45 109.95 362.6 108.7 357.5 106.45 352.25 107.1 346.35 107.85 342 111.6
L 341.6 122.2
Q 348.6 118.95 356.55 114.9
L 362.85 111.55
Q 363.9 113.5 365.55 115.5 366.4 116.55 367.45 117.6 Z"/>
</g>

<g id="Layer0_8_MEMBER_16_FILL">
<path fill="#FFFFFF" stroke="none" d="
M 347.85 154.9
L 351.8 157.5 353.25 199.55 362.15 208.65 366.85 198.65 356.3 157.85 358.95 155.35 357.6 152.8 354.15 153.55 349.45 152.7 347.85 154.9 Z"/>
</g>

<g id="Layer0_8_MEMBER_17_FILL">
<path fill="#4E97CC" stroke="none" d="
M 358.35 159.15
L 362.8 152.5 359.65 147.05 355.5 151.7 358.35 159.15 Z"/>
</g>

<g id="Layer0_8_MEMBER_18_FILL">
<path fill="#4E97CC" stroke="none" d="
M 339.5 149.6
L 349.65 159.5 352 151.7 343.4 145.15 339.5 149.6 Z"/>
</g>

<g id="Layer0_9_MEMBER_0_FILL">
<path fill="#F8B193" stroke="none" d="
M 306.6 296.85
L 289.7 291.95
Q 289.05 297.7 288.5 304 285.6 336.65 285.9 368.7 285.95 368.75 286.75 369.7 287.85 370.7 289.15 370.65 291 370.6 292.2 368.9
L 296.4 349.25
Q 302 322.55 306.6 296.85 Z"/>
</g>

<g id="Layer0_9_MEMBER_1_FILL">
<path fill="#662400" stroke="none" d="
M 303.45 110.4
Q 297.65 104.6 290.55 103.65 283.8 102.7 277.35 106.05 270.85 109.35 266.65 115.9 264.15 118.95 261.9 122.7 259.45 126.8 257.65 131.6 258.45 137.65 259.85 145.3
L 261.15 152.2
Q 259.45 157.8 259.95 163.6 260.25 167 261.15 169.95 263.7 173.6 267.05 176.5 272.7 181.3 279.55 182.9 284.5 184.05 289.65 183.45 298.05 182.45 304.8 178.7 312.55 174.4 313.65 168.65 314.35 164.9 312.7 162.2 310.7 159 306.4 158.25 305.9 152.4 303.35 147.05 302.15 144.55 300.7 142.55 304.2 136.15 307.1 128.5 308.45 124.75 309.5 121.3 309.05 117.45 306.8 114.15 305.5 112.15 303.45 110.4 Z"/>
</g>

<g id="Layer0_9_MEMBER_2_FILL">
<path fill="#6CB0E1" stroke="none" d="
M 299.8 158.15
Q 298.25 176.35 295.1 193.5 298.8 195.95 302.95 197.1 310.25 199.2 318.2 197.35 322.9 196.25 327.3 193.9 325.05 185.75 321.45 178.65 317.95 171.75 311.5 163.2 305.95 155.8 305.25 153.7 304.25 151.25 302.85 150.25 301.7 149.4 300.45 149.3
L 299.8 158.15 Z"/>
</g>

<g id="Layer0_9_MEMBER_3_FILL">
<path fill="#374F67" stroke="none" d="
M 242.7 531.25
Q 241.25 531.65 240.3 532.75 238.9 534.3 239.05 536.55 239.15 538.95 240.9 540.75 245.1638671875 543.2794921875 250.3 540.75 247.75 537.8 246.5 534.3 246 532.8 245.7 531.2 244.15 530.9 242.7 531.25 Z"/>
</g>

<g id="Layer0_9_MEMBER_4_FILL">
<path fill="#FFC4AB" stroke="none" d="
M 276.2 312.25
Q 276.25 317.75 278.4 332.8 281.05 351.5 285.4 372.5 285.85 373.5 286.85 373.95 287.8 374.4 288.75 374.15 290.3 373.65 290.6 372
L 291.45 351.55
Q 292.5 321.9 292.85 297.75
L 276.8 296.4
Q 276.6 298.85 276.4 303.55
L 276.2 312.25 Z"/>
</g>

<g id="Layer0_9_MEMBER_5_FILL">
<path fill="#255C92" stroke="none" d="
M 313.5 227.95
Q 312.65 221.2 311 214.15
L 276.9 211.3
Q 270.35 223.4 268.25 236.2 266.4 246.7 269.8 275.05 271.25 287.2 273.5 300.5 278.8 303.75 284.55 305.1 295.55 307.6 306.3 303.5 310.75 285.7 312.75 268.35 314.15 256.25 314.4 249.35 314.85 238.5 313.5 227.95 Z"/>
</g>

<g id="Layer0_9_MEMBER_6_FILL">
<path fill="#6CB0E1" stroke="none" d="
M 271.85 165.85
Q 275.55 177.65 278.25 189.4 278.45 195 277.25 200.7 275.8 208.05 272.15 214.7 276.2 218.3 281.1 220.7 288.8 224.55 297.35 224.9
L 300.75 220.45 302.7 224.8
Q 305.7 224.1 308.2 222.7 310.55 221.5 312.85 219.4 311.85 214.65 310.95 207.95 309.65 197.3 309.65 186.4 311.25 185.15 312.45 183.3 314.95 179.45 314.6 174.4
L 310.3 166.2
Q 306.15 158 302.4 150.1 295.5 147.45 288.1 147.45 276.95 147.45 267.4 153.05 269.4 158.4 271.85 165.85 Z"/>
</g>

<g id="Layer0_9_MEMBER_7_FILL">
<path fill="#000000" fill-opacity="0.0784313725490196" stroke="none" d="
M 292.9 186.95
Q 301.1 186.45 307.7 181.55 304.2 182.85 301 183.3 293 184.45 285 181.3
L 278.55 165 283.55 185.95
Q 288.1 187.25 292.9 186.95 Z"/>
</g>

<g id="Layer0_9_MEMBER_8_FILL">
<path fill="#FFC4AB" stroke="none" d="
M 294.2 141.75
Q 294.4 139.15 295 136.5
L 279.55 131.3 280.9 150.6
Q 286.35 151.9 291.3 150.85 292.8 150.6 294.4 150 293.85 146 294.2 141.75 Z"/>
</g>

<g id="Layer0_9_MEMBER_9_FILL">
<path fill="#FFFFFF" stroke="none" d="
M 294.1 144.3
Q 293.85 145.6 293.2 146.6 292.45 147.85 291.15 148.65 288.2 148.25 285.15 146.85 282.5 145.65 280.4 143.8
L 277.15 148.75
Q 278.95 151.55 281.95 153.35 285.25 155.3 288.9 155.45
L 291.4 150.8 294.8 154.5
Q 295.9 154 296.6 153.2 297.6 152.05 297.75 150.3 297.8 149.2 297.6 148.55
L 294.1 144.3 Z"/>
</g>

<g id="Layer0_9_MEMBER_10_FILL">
<path fill="#374F67" stroke="none" d="
M 241.65 533.35
L 241.35 536.8 240.2 533.45 236.95 534.3
Q 236.65 537.15 237 540.5
L 237.5 543.5
Q 241.765234375 546.3916015625 245.35 543.5 244.35 540.55 244.05 537.7 243.95 536.35 243.95 534.05
L 241.65 533.35 Z"/>
</g>

<g id="Layer0_9_MEMBER_11_FILL">
<path fill="#000000" fill-opacity="0.0784313725490196" stroke="none" d="
M 308.55 189.8
L 274.75 191.15 278.1 207.75
Q 283.75 207.15 289.4 204.85 300.85 200.2 308.55 189.8 Z"/>
</g>

<g id="Layer0_9_MEMBER_12_FILL">
<path fill="#6CB0E1" stroke="none" d="
M 308.1 191.25
Q 304.4 194.35 300.75 197 305.85 198.65 311.3 198.2 319.3 197.55 326.1 192.55
L 322 184.9
Q 319.6 185.3 316.35 186.05
L 312.9 187
Q 310.2 189.55 308.1 191.25 Z"/>
</g>

<g id="Layer0_9_MEMBER_13_FILL">
<path fill="#FFC4AB" stroke="none" d="
M 310.9 188.45
L 319.5 184.9
Q 318.9 181.25 316.15 179.85 314 178.8 311.45 179.6 308.8 180.5 307.2 182.95
L 310.9 188.45 Z"/>
</g>

<g id="Layer0_9_MEMBER_14_FILL">
<path fill="#6CB0E1" stroke="none" d="
M 275.55 149.95
Q 269.35 150.1 266.3 153.2 262 157.6 263.75 167.9 264.75 173.65 268.7 184.55 272.05 193.45 277.3 201.9 286.7 201.7 295.85 198.4 304.95 195.1 312.45 189 313 185.95 311.45 183.55 310.35 181.7 308.35 180.8 302 183.55 295.45 184.9 290.3 186 284.35 186.3 281.3 179.35 279.25 172.05 276.3 161.35 275.55 149.95 Z"/>
</g>

<g id="Layer0_9_MEMBER_15_FILL">
<path fill="#FFC4AB" stroke="none" d="
M 283.15 181.2
Q 280.7 185.75 282.2 187.65 283.85 189.85 289.45 188.35 294.9 186.9 294.9 185.1 294.85 184.55 293.75 184 293.05 183.6 290.8 182.75 287.25 181.45 283.15 181.2 Z"/>
</g>

<g id="Layer0_9_MEMBER_16_FILL">
<path fill="#000000" fill-opacity="0.058823529411764705" stroke="none" d="
M 434.9 166.2
L 436.2 184.7
Q 451.4 195.25 460.85 184.7 461.2 180.1 462.25 175.4
L 434.9 166.2 Z"/>
</g>

<g id="Layer0_9_MEMBER_17_FILL">
<path fill="#FFC4AB" stroke="none" d="
M 435.45 118.15
Q 427.75 119.1 421.1 123.7 417.25 126.4 414.25 129.85 412.4 140.15 413.2 150.35 413.2240234375 150.68984375 413.25 151
L 413.2 150.55
Q 413.2388671875 151.9587890625 413.45 153.25 413.4666015625 153.33046875 413.45 153.4 414.398046875 158.573828125 418.2 162.2 419.8875 163.901953125 425.4 167.1 427.5470703125 168.430078125 429.85 169.5 436.524609375 173.240625 442.8 169.5 447.0427734375 166.6802734375 450.5 162.9 451.5533203125 161.7625 452.5 160.55 455.2697265625 156.325 454.4 152.1
L 454.35 152.1
Q 450.955859375 136.30234375 451.05 119.95 443.45 117.1 435.45 118.15 Z"/>
</g>

<g id="Layer0_9_MEMBER_18_FILL">
<path fill="#662400" stroke="none" d="
M 296.8 108.45
Q 298.6 110.7 301.4 111.5 302.85 111.95 304.55 111.85 303.35 109.25 302.7 106.5 302.45 105.5 302.1 103.35 301.95 102.1 301.5 101.45 299.75 98.8 293.7 98.8 284.65 97.85 277.25 100.95 269.85 104.05 266.65 110.2 264.3 114.5 264.55 120.2 272.35 122.45 280 120.6 284.2 119.6 288 117.35 292.2 114.7 294.9 111.2 295.85 109.95 296.8 108.45 Z"/>
</g>
</defs>

<g transform="matrix( 0.81097412109375, 0, 0, 0.81097412109375, -14,57.95) ">
<use xlink:href="#Layer0_0_FILL"/>
</g>

<g transform="matrix( 2.6300048828125, 0, 0, -2.6158447265625, -55.35,1992.2) ">
<use xlink:href="#Layer0_1_FILL"/>
</g>

<g transform="matrix( -1.61663818359375, 0, 0, 1.5205230712890625, 611.6,99.45) ">
<use xlink:href="#Layer0_2_MEMBER_0_FILL"/>
</g>

<g transform="matrix( -1.61663818359375, 0, 0, 1.5205230712890625, 611.6,99.45) ">
<use xlink:href="#Layer0_2_MEMBER_1_FILL"/>
</g>

<g transform="matrix( -1.61663818359375, 0, 0, 1.5205230712890625, 611.6,99.45) ">
<use xlink:href="#Layer0_2_MEMBER_2_FILL"/>
</g>

<g transform="matrix( -1.61663818359375, 0, 0, 1.5205230712890625, 611.6,99.45) ">
<use xlink:href="#Layer0_2_MEMBER_3_FILL"/>
</g>

<g transform="matrix( -1.61663818359375, 0, 0, 1.5205230712890625, 611.6,99.45) ">
<use xlink:href="#Layer0_2_MEMBER_4_FILL"/>
</g>

<g transform="matrix( -1.61663818359375, 0, 0, 1.5205230712890625, 611.6,99.45) ">
<use xlink:href="#Layer0_2_MEMBER_5_FILL"/>
</g>

<g transform="matrix( -1.61663818359375, 0, 0, 1.5205230712890625, 611.6,99.45) ">
<use xlink:href="#Layer0_2_MEMBER_6_FILL"/>
</g>

<g transform="matrix( -1.995208740234375, 0, 0, 1.876617431640625, 671.5,-395.4) ">
<use xlink:href="#Layer0_2_MEMBER_7_FILL"/>
</g>

<g transform="matrix( -1.616607666015625, 0, 0, 1.5203094482421875, 611.5,98.9) ">
<use xlink:href="#Layer0_2_MEMBER_8_MEMBER_0_FILL"/>
</g>

<g transform="matrix( -1.616607666015625, 0, 0, 1.5203094482421875, 611.5,98.9) ">
<use xlink:href="#Layer0_2_MEMBER_8_MEMBER_1_FILL"/>
</g>

<g transform="matrix( -1.6165618896484375, 0, 0, 1.5200958251953125, 611.4,98.4) ">
<use xlink:href="#Layer0_2_MEMBER_8_MEMBER_2_MEMBER_0_FILL"/>
</g>

<g transform="matrix( -1.6165618896484375, 0, 0, 1.5200958251953125, 611.4,98.4) ">
<use xlink:href="#Layer0_2_MEMBER_8_MEMBER_2_MEMBER_1_FILL"/>
</g>

<g transform="matrix( -1.61663818359375, 0, 0, 1.5205230712890625, 611.6,99.45) ">
<use xlink:href="#Layer0_2_MEMBER_9_FILL"/>
</g>

<g transform="matrix( -1.616607666015625, 0, 0, 1.5203094482421875, 611.5,98.9) ">
<use xlink:href="#Layer0_2_MEMBER_10_MEMBER_0_FILL"/>
</g>

<g transform="matrix( -1.61663818359375, 0, 0, 1.5205230712890625, 611.6,99.45) ">
<use xlink:href="#Layer0_2_MEMBER_11_FILL"/>
</g>

<g transform="matrix( -1.6164398193359375, 0, 0, 1.5203704833984375, 611.6,99.45) ">
<use xlink:href="#Layer0_2_MEMBER_12_MEMBER_0_FILL"/>
</g>

<g transform="matrix( -1.61663818359375, 0, 0, 1.5205230712890625, 611.6,99.45) ">
<use xlink:href="#Layer0_2_MEMBER_13_FILL"/>
</g>

<g transform="matrix( -1.61663818359375, 0, 0, 1.5205230712890625, 611.6,99.45) ">
<use xlink:href="#Layer0_2_MEMBER_14_FILL"/>
</g>

<g transform="matrix( -1.61663818359375, 0, 0, 1.5205230712890625, 611.6,99.45) ">
<use xlink:href="#Layer0_2_MEMBER_15_FILL"/>
</g>

<g transform="matrix( -1.6164398193359375, 0, 0, 1.5203704833984375, 611.6,99.45) ">
<use xlink:href="#Layer0_2_MEMBER_16_MEMBER_0_FILL"/>
</g>

<g transform="matrix( -1.6164398193359375, 0, 0, 1.5203704833984375, 611.6,99.45) ">
<use xlink:href="#Layer0_2_MEMBER_16_MEMBER_1_FILL"/>
</g>

<g transform="matrix( -1.6164398193359375, 0, 0, 1.5203704833984375, 611.6,99.45) ">
<use xlink:href="#Layer0_2_MEMBER_16_MEMBER_2_FILL"/>
</g>

<g transform="matrix( -1.616607666015625, 0, 0, 1.5204925537109375, 611.6,99.35) ">
<use xlink:href="#Layer0_2_MEMBER_17_MEMBER_0_FILL"/>
</g>

<g transform="matrix( -1.616607666015625, 0, 0, 1.5204925537109375, 611.6,99.35) ">
<use xlink:href="#Layer0_2_MEMBER_17_MEMBER_1_FILL"/>
</g>

<g transform="matrix( -1.616607666015625, 0, 0, 1.5204925537109375, 611.6,99.35) ">
<use xlink:href="#Layer0_2_MEMBER_17_MEMBER_2_FILL"/>
</g>

<g transform="matrix( -1.61663818359375, 0, 0, 1.5205230712890625, 611.6,99.45) ">
<use xlink:href="#Layer0_2_MEMBER_18_FILL"/>
</g>

<g transform="matrix( 1, 0, 0.0282745361328125, 1, 975.7,-36.25) ">
<use xlink:href="#Layer0_3_FILL"/>
</g>

<g transform="matrix( 1.258697509765625, 0, 0.03558349609375, 1.258697509765625, 1042.35,-174.55) ">
<use xlink:href="#Layer0_3_MEMBER_0_FILL"/>
</g>

<g transform="matrix( -1.367279052734375, 0, 0.053192138671875, 1.8816375732421875, 1509.3,-130.15) ">
<use xlink:href="#Layer0_3_MEMBER_1_FILL"/>
</g>

<g transform="matrix( 2.00592041015625, 0, 0.05670166015625, 2.00592041015625, 937.3,-450.45) ">
<use xlink:href="#Layer0_3_MEMBER_2_FILL"/>
</g>

<g transform="matrix( -1.367279052734375, 0, 0.0386505126953125, 1.367279052734375, 1540,61.7) ">
<use xlink:href="#Layer0_3_MEMBER_3_FILL"/>
</g>

<g transform="matrix( 1, 0, -0.1123046875, 1, 1036.7,-35.75) ">
<use xlink:href="#Layer0_3_MEMBER_4_FILL"/>
</g>

<g transform="matrix( -1.367279052734375, 0, 0.0386505126953125, 1.367279052734375, 1540,61.7) ">
<use xlink:href="#Layer0_3_MEMBER_5_FILL"/>
</g>

<g transform="matrix( -1.367279052734375, 0, 0.0386505126953125, 1.367279052734375, 1540,61.7) ">
<use xlink:href="#Layer0_3_MEMBER_6_FILL"/>
</g>

<g transform="matrix( -1.367279052734375, 0, 0.0386505126953125, 1.367279052734375, 1540,61.7) ">
<use xlink:href="#Layer0_3_MEMBER_7_FILL"/>
</g>

<g transform="matrix( -1.367279052734375, 0, 0.0386505126953125, 1.367279052734375, 1540,61.7) ">
<use xlink:href="#Layer0_3_MEMBER_8_FILL"/>
</g>

<g transform="matrix( -1.367279052734375, 0, 0.0386505126953125, 1.367279052734375, 1540,61.7) ">
<use xlink:href="#Layer0_3_MEMBER_9_FILL"/>
</g>

<g transform="matrix( -1.367279052734375, 0, 0.0386505126953125, 1.367279052734375, 1540,61.7) ">
<use xlink:href="#Layer0_3_MEMBER_10_FILL"/>
</g>

<g transform="matrix( -1.367279052734375, 0, 0.0386505126953125, 1.367279052734375, 1540,61.7) ">
<use xlink:href="#Layer0_3_MEMBER_11_FILL"/>
</g>

<g transform="matrix( 1.258697509765625, 0, 0.03558349609375, 1.258697509765625, 173.05,161.2) ">
<use xlink:href="#Layer0_3_MEMBER_12_FILL"/>
</g>

<g transform="matrix( -1.367279052734375, 0, 0.0386505126953125, 1.367279052734375, 1540,61.7) ">
<use xlink:href="#Layer0_3_MEMBER_13_FILL"/>
</g>

<g transform="matrix( -1.367279052734375, 0, 0.0386505126953125, 1.367279052734375, 1540,61.7) ">
<use xlink:href="#Layer0_3_MEMBER_14_FILL"/>
</g>

<g transform="matrix( -1.367279052734375, 0, 0.0386505126953125, 1.367279052734375, 1540,61.7) ">
<use xlink:href="#Layer0_3_MEMBER_15_FILL"/>
</g>

<g transform="matrix( -1.367279052734375, 0, 0.0386505126953125, 1.367279052734375, 1540,61.7) ">
<use xlink:href="#Layer0_3_MEMBER_16_FILL"/>
</g>

<g transform="matrix( -1.367279052734375, 0, 0.0386505126953125, 1.367279052734375, 1540,61.7) ">
<use xlink:href="#Layer0_3_MEMBER_17_FILL"/>
</g>

<g transform="matrix( -1.367279052734375, 0, 0.0386505126953125, 1.367279052734375, 1540,61.7) ">
<use xlink:href="#Layer0_3_MEMBER_18_FILL"/>
</g>

<g transform="matrix( -1.367279052734375, 0, 0.0386505126953125, 1.367279052734375, 1540,61.7) ">
<use xlink:href="#Layer0_3_MEMBER_19_FILL"/>
</g>

<g transform="matrix( 0.7720794677734375, 0, 0.021820068359375, 0.7720794677734375, 997.7,108.35) ">
<use xlink:href="#Layer0_3_MEMBER_20_FILL"/>
</g>

<g transform="matrix( 0.812286376953125, -0.219207763671875, 0.2423248291015625, 0.818511962890625, 961,178.6) ">
<use xlink:href="#Layer0_3_MEMBER_21_FILL"/>
</g>

<g transform="matrix( 1.258697509765625, 0, 0.03558349609375, 1.258697509765625, 173.85,161.2) ">
<use xlink:href="#Layer0_3_MEMBER_22_FILL"/>
</g>

<g transform="matrix( -1.3105621337890625, 0.353759765625, 0.391082763671875, 1.320587158203125, 1483.9,-13.8) ">
<use xlink:href="#Layer0_3_MEMBER_23_FILL"/>
</g>

<g transform="matrix( 1.258697509765625, 0, 0.03558349609375, 1.258697509765625, 1042.35,-174.55) ">
<use xlink:href="#Layer0_3_MEMBER_24_FILL"/>
</g>

<g transform="matrix( 1.0721893310546875, -0.6292572021484375, 0.7437286376953125, 1.228057861328125, 239.3,682.4) ">
<use xlink:href="#Layer0_3_MEMBER_25_FILL"/>
</g>

<g transform="matrix( 1.258697509765625, 0, 0.03558349609375, 1.258697509765625, 173.85,161.2) ">
<use xlink:href="#Layer0_3_MEMBER_26_FILL"/>
</g>

<g transform="matrix( 2.1926116943359375, 0, 0, 2.1926116943359375, 964.85,-885.8) ">
<use xlink:href="#Layer0_4_FILL"/>
</g>

<g transform="matrix( -1.5439453125, 0, 0, 1.5439453125, 1249.85,-354.5) ">
<use xlink:href="#Layer0_4_MEMBER_0_FILL"/>
</g>

<g transform="matrix( -1.5439453125, 0, 0, 1.5439453125, 1249.85,-354.5) ">
<use xlink:href="#Layer0_4_MEMBER_1_FILL"/>
</g>

<g transform="matrix( 2.06298828125, 0, 0, 2.06298828125, 979.2,-841.05) ">
<use xlink:href="#Layer0_4_MEMBER_2_FILL"/>
</g>

<g transform="matrix( -1.5439453125, 0, 0, 1.5439453125, 1249.85,-354.5) ">
<use xlink:href="#Layer0_4_MEMBER_3_FILL"/>
</g>

<g transform="matrix( -1.5439453125, 0, 0, 1.5439453125, 1249.85,-354.5) ">
<use xlink:href="#Layer0_4_MEMBER_4_FILL"/>
</g>

<g transform="matrix( -1.5439453125, 0, 0, 1.5439453125, 1249.85,-354.5) ">
<use xlink:href="#Layer0_4_MEMBER_5_FILL"/>
</g>

<g transform="matrix( 2.06298828125, 0, 0, 2.06298828125, 964.85,-853.45) ">
<use xlink:href="#Layer0_4_MEMBER_6_FILL"/>
</g>

<g transform="matrix( -1.5439453125, 0, 0, 1.5439453125, 1249.85,-354.5) ">
<use xlink:href="#Layer0_4_MEMBER_7_FILL"/>
</g>

<g transform="matrix( -1.5439453125, 0, 0, 1.5439453125, 1249.85,-354.5) ">
<use xlink:href="#Layer0_4_MEMBER_8_FILL"/>
</g>

<g transform="matrix( 2.06298828125, 0, 0, 2.06298828125, 979.2,-841.05) ">
<use xlink:href="#Layer0_4_MEMBER_9_FILL"/>
</g>

<g transform="matrix( -1.5439453125, 0, 0, 1.5439453125, 1249.85,-354.5) ">
<use xlink:href="#Layer0_4_MEMBER_10_FILL"/>
</g>

<g transform="matrix( -1.5439453125, 0, 0, 1.5439453125, 1249.85,-354.5) ">
<use xlink:href="#Layer0_4_MEMBER_11_FILL"/>
</g>

<g transform="matrix( -1.5439453125, 0, 0, 1.5439453125, 1249.85,-354.5) ">
<use xlink:href="#Layer0_4_MEMBER_12_FILL"/>
</g>

<g transform="matrix( -1.5439453125, 0, 0, 1.5439453125, 1249.85,-354.5) ">
<use xlink:href="#Layer0_4_MEMBER_13_FILL"/>
</g>

<g transform="matrix( -1.5439453125, 0, 0, 1.5439453125, 1249.85,-354.5) ">
<use xlink:href="#Layer0_4_MEMBER_14_FILL"/>
</g>

<g transform="matrix( -1.5439453125, 0, 0, 1.5439453125, 1249.85,-354.5) ">
<use xlink:href="#Layer0_4_MEMBER_15_FILL"/>
</g>

<g transform="matrix( 2.06298828125, 0, 0, 2.06298828125, 964.85,-853.45) ">
<use xlink:href="#Layer0_4_MEMBER_16_FILL"/>
</g>

<g transform="matrix( 2.06298828125, 0, 0, 2.06298828125, 964.85,-853.45) ">
<use xlink:href="#Layer0_4_MEMBER_17_FILL"/>
</g>

<g transform="matrix( -1.5439453125, 0, 0, 1.5439453125, 1249.85,-354.5) ">
<use xlink:href="#Layer0_4_MEMBER_18_FILL"/>
</g>

<g transform="matrix( 2.192535400390625, 0, 0, 2.192535400390625, 964.85,-885.8) ">
<use xlink:href="#Layer0_4_MEMBER_19_FILL"/>
</g>

<g transform="matrix( -1.5439453125, 0, 0, 1.5439453125, 1249.85,-354.5) ">
<use xlink:href="#Layer0_4_MEMBER_20_FILL"/>
</g>

<g transform="matrix( 2.0626220703125, 0, 0, 2.1386871337890625, -1123.95,-473.7) ">
<use xlink:href="#Layer0_5_MEMBER_0_MEMBER_0_FILL"/>
</g>

<g transform="matrix( 2.0626220703125, 0, 0, 2.1386871337890625, -1105.45,-485.95) ">
<use xlink:href="#Layer0_5_MEMBER_0_MEMBER_1_FILL"/>
</g>

<g transform="matrix( 1, 0, 0, 1.0368499755859375, -19,-17.7) ">
<use xlink:href="#Layer0_5_MEMBER_0_MEMBER_2_FILL"/>
</g>

<g transform="matrix( 1, 0, 0, 1, 0,0) ">
<use xlink:href="#Layer0_5_MEMBER_0_MEMBER_3_FILL"/>
</g>

<g transform="matrix( 3.5084686279296875, 0, 0, 3.6337738037109375, -845.2,-920.65) ">
<use xlink:href="#Layer0_5_MEMBER_0_MEMBER_4_MEMBER_0_FILL"/>
</g>

<g transform="matrix( 3.5084686279296875, 0, 0, 3.6337738037109375, -845.2,-920.65) ">
<use xlink:href="#Layer0_5_MEMBER_0_MEMBER_4_MEMBER_1_FILL"/>
</g>

<g transform="matrix( 3.5084686279296875, 0, 0, 3.6337738037109375, -845.2,-920.65) ">
<use xlink:href="#Layer0_5_MEMBER_0_MEMBER_4_MEMBER_2_FILL"/>
</g>

<g transform="matrix( 3.5084686279296875, 0, 0, 3.6337738037109375, -845.2,-920.65) ">
<use xlink:href="#Layer0_5_MEMBER_0_MEMBER_4_MEMBER_3_FILL"/>
</g>

<g transform="matrix( 3.5084686279296875, 0, 0, 3.6337738037109375, -845.2,-920.65) ">
<use xlink:href="#Layer0_5_MEMBER_0_MEMBER_4_MEMBER_4_FILL"/>
</g>

<g transform="matrix( 3.5084686279296875, 0, 0, 3.6337738037109375, -845.2,-920.65) ">
<use xlink:href="#Layer0_5_MEMBER_0_MEMBER_4_MEMBER_5_FILL"/>
</g>

<g transform="matrix( 3.508087158203125, 0, 0, 3.633270263671875, -845.1,-920.15) ">
<use xlink:href="#Layer0_5_MEMBER_0_MEMBER_4_MEMBER_6_MEMBER_0_FILL"/>
</g>

<g transform="matrix( 3.5084686279296875, 0, 0, 3.6337738037109375, -845.2,-920.65) ">
<use xlink:href="#Layer0_5_MEMBER_0_MEMBER_4_MEMBER_7_FILL"/>
</g>

<g transform="matrix( 3.5084686279296875, 0, 0, 3.6337738037109375, -845.2,-920.65) ">
<use xlink:href="#Layer0_5_MEMBER_0_MEMBER_5_MEMBER_0_FILL"/>
</g>

<g transform="matrix( 3.5084686279296875, 0, 0, 3.6337738037109375, -845.2,-920.65) ">
<use xlink:href="#Layer0_5_MEMBER_0_MEMBER_5_MEMBER_1_FILL"/>
</g>

<g transform="matrix( -1.940643310546875, 0, 0, 2.010833740234375, 1847.05,-467.45) ">
<use xlink:href="#Layer0_5_MEMBER_0_MEMBER_6_FILL"/>
</g>

<g transform="matrix( 3.508941650390625, 0, 0, 3.634307861328125, -845.65,-921.25) ">
<use xlink:href="#Layer0_5_MEMBER_0_MEMBER_7_FILL"/>
</g>

<g transform="matrix( 3.508941650390625, 0, 0, 3.634307861328125, -845.65,-921.25) ">
<use xlink:href="#Layer0_5_MEMBER_0_MEMBER_8_FILL"/>
</g>

<g transform="matrix( 3.508941650390625, 0, 0, 3.634307861328125, -845.65,-921.25) ">
<use xlink:href="#Layer0_5_MEMBER_0_MEMBER_9_FILL"/>
</g>

<g transform="matrix( 3.508880615234375, 0, 0, 3.6345062255859375, -844.4,-921.55) ">
<use xlink:href="#Layer0_5_MEMBER_1_MEMBER_0_FILL"/>
</g>

<g transform="matrix( 3.508880615234375, 0, 0, 3.6345062255859375, -844.4,-921.55) ">
<use xlink:href="#Layer0_5_MEMBER_1_MEMBER_1_FILL"/>
</g>

<g transform="matrix( 3.508880615234375, 0, 0, 3.6345062255859375, -844.4,-921.55) ">
<use xlink:href="#Layer0_5_MEMBER_2_MEMBER_0_FILL"/>
</g>

<g transform="matrix( 1, 0, 0, 1, 0,0) ">
<use xlink:href="#Layer0_6_FILL"/>
</g>

<g transform="matrix( 2.299835205078125, 0, 0, 2.29827880859375, -454.65,-732.25) ">
<use xlink:href="#Layer0_6_MEMBER_0_FILL"/>
</g>

<g transform="matrix( -1.75323486328125, 0, 0, 2.0791015625, 915.4,-147.3) ">
<use xlink:href="#Layer0_6_MEMBER_1_FILL"/>
</g>

<g transform="matrix( 2.13433837890625, 0, 0, 2.1329193115234375, -1525.95,-466.65) ">
<use xlink:href="#Layer0_6_MEMBER_2_FILL"/>
</g>

<g transform="matrix( -1.6571044921875, 0, 0, 1.65594482421875, 884.4,9.65) ">
<use xlink:href="#Layer0_6_MEMBER_3_FILL"/>
</g>

<g transform="matrix( -1.6571044921875, 0, 0, 1.65594482421875, 884.4,9.65) ">
<use xlink:href="#Layer0_6_MEMBER_4_FILL"/>
</g>

<g transform="matrix( 2.13433837890625, 0, 0, 2.1329193115234375, -1515.15,-502.75) ">
<use xlink:href="#Layer0_6_MEMBER_5_FILL"/>
</g>

<g transform="matrix( -1.6571044921875, 0, 0, 1.65594482421875, 884.4,9.65) ">
<use xlink:href="#Layer0_6_MEMBER_6_FILL"/>
</g>

<g transform="matrix( 1, 0, 0, 1, 0,0) ">
<use xlink:href="#Layer0_6_MEMBER_7_FILL"/>
</g>

<g transform="matrix( 2.061614990234375, 0.551910400390625, -0.5522918701171875, 2.0601806640625, -804.05,-859.15) ">
<use xlink:href="#Layer0_6_MEMBER_8_FILL"/>
</g>

<g transform="matrix( -1.6571044921875, 0, 0, 1.9077606201171875, 884.4,-28.45) ">
<use xlink:href="#Layer0_6_MEMBER_9_FILL"/>
</g>

<g transform="matrix( 2.13433837890625, 0, 0, 2.1329193115234375, -1097.7,-539.1) ">
<use xlink:href="#Layer0_6_MEMBER_10_FILL"/>
</g>

<g transform="matrix( 2.13433837890625, 0, 0, 2.1329193115234375, -1097.7,-539.1) ">
<use xlink:href="#Layer0_6_MEMBER_11_FILL"/>
</g>

<g transform="matrix( -1.6571044921875, 0, 0, 1.65594482421875, 884.4,9.65) ">
<use xlink:href="#Layer0_6_MEMBER_12_FILL"/>
</g>

<g transform="matrix( -1.6571044921875, 0, 0, 1.65594482421875, 884.4,9.65) ">
<use xlink:href="#Layer0_6_MEMBER_13_FILL"/>
</g>

<g transform="matrix( 2.299835205078125, 0, 0, 2.29827880859375, -465.2,-729.9) ">
<use xlink:href="#Layer0_6_MEMBER_14_FILL"/>
</g>

<g transform="matrix( 1, 0, 0, 1, 0,0) ">
<use xlink:href="#Layer0_6_MEMBER_15_FILL"/>
</g>

<g transform="matrix( 1, 0, 0, 1, 0.6,-0.9) ">
<use xlink:href="#Layer0_6_MEMBER_16_FILL"/>
</g>

<g transform="matrix( -1.6571044921875, 0, 0, 1.65594482421875, 884.1,11.25) ">
<use xlink:href="#Layer0_6_MEMBER_17_FILL"/>
</g>

<g transform="matrix( -1.6571044921875, 0, 0, 1.65594482421875, 885.45,10.55) ">
<use xlink:href="#Layer0_6_MEMBER_18_FILL"/>
</g>

<g transform="matrix( 1.423309326171875, 0, 0, 1.4221954345703125, 632.3,-290.55) ">
<use xlink:href="#Layer0_7_MEMBER_0_FILL"/>
</g>

<g transform="matrix( 1.423309326171875, 0, 0, 1.4221954345703125, 632.3,-290.55) ">
<use xlink:href="#Layer0_7_MEMBER_1_FILL"/>
</g>

<g transform="matrix( -0.8036346435546875, 0, 0, 0.8030548095703125, 1198.25,-242.2) ">
<use xlink:href="#Layer0_7_MEMBER_2_FILL"/>
</g>

<g transform="matrix( 1.423309326171875, 0, 0, 1.4221954345703125, 632.3,-290.55) ">
<use xlink:href="#Layer0_7_MEMBER_3_FILL"/>
</g>

<g transform="matrix( 1.423309326171875, 0, 0, 1.4221954345703125, 632.3,-290.55) ">
<use xlink:href="#Layer0_7_MEMBER_4_FILL"/>
</g>

<g transform="matrix( 1.423309326171875, 0, 0, 1.4221954345703125, 632.3,-290.55) ">
<use xlink:href="#Layer0_7_MEMBER_5_FILL"/>
</g>

<g transform="matrix( 1.423309326171875, 0, 0, 1.4221954345703125, 632.3,-290.55) ">
<use xlink:href="#Layer0_7_MEMBER_6_FILL"/>
</g>

<g transform="matrix( 1.423309326171875, 0, 0, 1.4221954345703125, 632.3,-290.55) ">
<use xlink:href="#Layer0_7_MEMBER_7_FILL"/>
</g>

<g transform="matrix( 1.423309326171875, 0, 0, 1.4221954345703125, 632.3,-290.55) ">
<use xlink:href="#Layer0_7_MEMBER_8_FILL"/>
</g>

<g transform="matrix( 1.423309326171875, 0, 0, 1.4221954345703125, 632.3,-290.55) ">
<use xlink:href="#Layer0_7_MEMBER_9_FILL"/>
</g>

<g transform="matrix( 1.423309326171875, 0, 0, 1.4221954345703125, 632.3,-290.55) ">
<use xlink:href="#Layer0_7_MEMBER_10_FILL"/>
</g>

<g transform="matrix( 1.423309326171875, 0, 0, 1.4221954345703125, 632.3,-290.55) ">
<use xlink:href="#Layer0_7_MEMBER_11_FILL"/>
</g>

<g transform="matrix( 1.423309326171875, 0, 0, 1.4221954345703125, 632.3,-290.55) ">
<use xlink:href="#Layer0_7_MEMBER_12_FILL"/>
</g>

<g transform="matrix( 1.423309326171875, 0, 0, 1.4221954345703125, 632.3,-290.55) ">
<use xlink:href="#Layer0_7_MEMBER_13_FILL"/>
</g>

<g transform="matrix( 1.423309326171875, 0, 0, 1.4221954345703125, 632.3,-290.55) ">
<use xlink:href="#Layer0_7_MEMBER_14_FILL"/>
</g>

<g transform="matrix( 1.423309326171875, 0, 0, 1.4221954345703125, 632.3,-290.55) ">
<use xlink:href="#Layer0_7_MEMBER_15_FILL"/>
</g>

<g transform="matrix( 1.423309326171875, 0, 0, 1.4221954345703125, 632.3,-290.55) ">
<use xlink:href="#Layer0_7_MEMBER_16_FILL"/>
</g>

<g transform="matrix( 1.423309326171875, 0, 0, 1.4221954345703125, 632.3,-290.55) ">
<use xlink:href="#Layer0_7_MEMBER_17_FILL"/>
</g>

<g transform="matrix( 1.423309326171875, 0, 0, 1.4221954345703125, 632.3,-290.55) ">
<use xlink:href="#Layer0_7_MEMBER_18_FILL"/>
</g>

<g transform="matrix( 1.423309326171875, 0, 0, 1.4221954345703125, 632.3,-290.55) ">
<use xlink:href="#Layer0_7_MEMBER_19_FILL"/>
</g>

<g transform="matrix( 1.423309326171875, 0, 0, 1.4221954345703125, 632.3,-290.55) ">
<use xlink:href="#Layer0_7_MEMBER_20_FILL"/>
</g>

<g transform="matrix( 1.423309326171875, 0, 0, 1.4221954345703125, 632.3,-290.55) ">
<use xlink:href="#Layer0_7_MEMBER_21_FILL"/>
</g>

<g transform="matrix( 1.423309326171875, 0, 0, 1.4221954345703125, 632.3,-290.55) ">
<use xlink:href="#Layer0_7_MEMBER_22_FILL"/>
</g>

<g transform="matrix( 1.423309326171875, 0, 0, 1.4221954345703125, 632.3,-290.55) ">
<use xlink:href="#Layer0_7_MEMBER_23_FILL"/>
</g>

<g transform="matrix( 1.423309326171875, 0, 0, 1.4221954345703125, 632.3,-290.55) ">
<use xlink:href="#Layer0_7_MEMBER_24_FILL"/>
</g>

<g transform="matrix( -0.8036346435546875, 0, 0, 0.8030548095703125, 1198.25,-242.2) ">
<use xlink:href="#Layer0_7_MEMBER_25_FILL"/>
</g>

<g transform="matrix( -0.8820648193359375, 0, 0, 0.88140869140625, 1217.8,-242.9) ">
<use xlink:href="#Layer0_7_MEMBER_26_FILL"/>
</g>

<g transform="matrix( 1.423309326171875, 0, 0, 1.4221954345703125, 632.3,-290.55) ">
<use xlink:href="#Layer0_7_MEMBER_27_FILL"/>
</g>

<g transform="matrix( 1.423309326171875, 0, 0, 1.4221954345703125, 632.3,-290.55) ">
<use xlink:href="#Layer0_7_MEMBER_28_FILL"/>
</g>

<g transform="matrix( 1.423309326171875, 0, 0, 1.4221954345703125, 632.3,-290.55) ">
<use xlink:href="#Layer0_7_MEMBER_29_FILL"/>
</g>

<g transform="matrix( -1.7022705078125, 0, 0, 1.7022705078125, 1925.4,-391.4) ">
<use xlink:href="#Layer0_8_MEMBER_0_FILL"/>
</g>

<g transform="matrix( -1.7022705078125, 0, 0, 1.7022705078125, 1925.4,-391.4) ">
<use xlink:href="#Layer0_8_MEMBER_1_FILL"/>
</g>

<g transform="matrix( 2.192535400390625, 0, 0, 2.192535400390625, -539.9,-918.5) ">
<use xlink:href="#Layer0_8_MEMBER_2_FILL"/>
</g>

<g transform="matrix( -1.7022705078125, 0, 0, 1.7022705078125, 1925.4,-391.4) ">
<use xlink:href="#Layer0_8_MEMBER_3_FILL"/>
</g>

<g transform="matrix( 2.192535400390625, 0, 0, 2.192535400390625, -539.9,-918.5) ">
<use xlink:href="#Layer0_8_MEMBER_4_FILL"/>
</g>

<g transform="matrix( -2.192535400390625, 0, 0, 2.192535400390625, 3190.65,-919.6) ">
<use xlink:href="#Layer0_8_MEMBER_5_FILL"/>
</g>

<g transform="matrix( 2.192535400390625, 0, 0, 2.192535400390625, -539.9,-918.5) ">
<use xlink:href="#Layer0_8_MEMBER_6_FILL"/>
</g>

<g transform="matrix( -1.7022705078125, 0, 0, 1.7022705078125, 1925.4,-391.4) ">
<use xlink:href="#Layer0_8_MEMBER_7_FILL"/>
</g>

<g transform="matrix( -1.7022705078125, 0, 0, 1.7022705078125, 1925.4,-391.4) ">
<use xlink:href="#Layer0_8_MEMBER_8_FILL"/>
</g>

<g transform="matrix( -1.7022705078125, 0, 0, 1.7022705078125, 1925.4,-391.1) ">
<use xlink:href="#Layer0_8_MEMBER_9_FILL"/>
</g>

<g transform="matrix( -1.7022705078125, 0, 0, 1.7022705078125, 1925.4,-391.4) ">
<use xlink:href="#Layer0_8_MEMBER_10_FILL"/>
</g>

<g transform="matrix( -1.7022705078125, 0, 0, 1.7022705078125, 1925.4,-391.4) ">
<use xlink:href="#Layer0_8_MEMBER_11_FILL"/>
</g>

<g transform="matrix( -1.7022705078125, 0, 0, 1.7022705078125, 1925.4,-391.4) ">
<use xlink:href="#Layer0_8_MEMBER_12_FILL"/>
</g>

<g transform="matrix( -1.7022705078125, 0, 0, 1.7022705078125, 1925.4,-391.4) ">
<use xlink:href="#Layer0_8_MEMBER_13_FILL"/>
</g>

<g transform="matrix( -1.7022705078125, 0, 0, 1.7022705078125, 1925.4,-391.4) ">
<use xlink:href="#Layer0_8_MEMBER_14_FILL"/>
</g>

<g transform="matrix( -1.7022705078125, 0, 0, 1.7022705078125, 1925.4,-391.4) ">
<use xlink:href="#Layer0_8_MEMBER_15_FILL"/>
</g>

<g transform="matrix( -1.7022705078125, 0, 0, 2.02471923828125, 1925.4,-440.65) ">
<use xlink:href="#Layer0_8_MEMBER_16_FILL"/>
</g>

<g transform="matrix( -1.7022705078125, 0, 0, 1.7022705078125, 1925.4,-391.4) ">
<use xlink:href="#Layer0_8_MEMBER_17_FILL"/>
</g>

<g transform="matrix( -1.7022705078125, 0, 0, 1.7022705078125, 1925.4,-391.4) ">
<use xlink:href="#Layer0_8_MEMBER_18_FILL"/>
</g>

<g transform="matrix( 1.50787353515625, 0, 0, 1.5001220703125, -19.4,51.45) ">
<use xlink:href="#Layer0_9_MEMBER_0_FILL"/>
</g>

<g transform="matrix( 1.50787353515625, 0, 0, 1.5001220703125, -19.4,51.45) ">
<use xlink:href="#Layer0_9_MEMBER_1_FILL"/>
</g>

<g transform="matrix( 1.50787353515625, 0, 0, 1.5001220703125, -19.4,51.45) ">
<use xlink:href="#Layer0_9_MEMBER_2_FILL"/>
</g>

<g transform="matrix( 1.8231353759765625, 0, 0, 1.8243255615234375, -24,-368.65) ">
<use xlink:href="#Layer0_9_MEMBER_3_FILL"/>
</g>

<g transform="matrix( 1.50787353515625, 0, 0, 1.5001220703125, -19.4,51.45) ">
<use xlink:href="#Layer0_9_MEMBER_4_FILL"/>
</g>

<g transform="matrix( 1.50787353515625, 0, 0, 1.5001220703125, -19.4,51.45) ">
<use xlink:href="#Layer0_9_MEMBER_5_FILL"/>
</g>

<g transform="matrix( 1.50787353515625, 0, 0, 1.5001220703125, -19.4,51.45) ">
<use xlink:href="#Layer0_9_MEMBER_6_FILL"/>
</g>

<g transform="matrix( 1.50787353515625, 0, 0, 1.5001220703125, -19.4,51.45) ">
<use xlink:href="#Layer0_9_MEMBER_7_FILL"/>
</g>

<g transform="matrix( 1.50787353515625, 0, 0, 1.5001220703125, -19.4,51.45) ">
<use xlink:href="#Layer0_9_MEMBER_8_FILL"/>
</g>

<g transform="matrix( 1.50787353515625, 0, 0, 1.5001220703125, -19.4,51.45) ">
<use xlink:href="#Layer0_9_MEMBER_9_FILL"/>
</g>

<g transform="matrix( 1.8231353759765625, 0, 0, 1.8243255615234375, -24,-368.65) ">
<use xlink:href="#Layer0_9_MEMBER_10_FILL"/>
</g>

<g transform="matrix( 1.50787353515625, 0, 0, 1.5001220703125, -19.4,51.45) ">
<use xlink:href="#Layer0_9_MEMBER_11_FILL"/>
</g>

<g transform="matrix( 1.50787353515625, 0, 0, 1.5001220703125, -19.4,51.45) ">
<use xlink:href="#Layer0_9_MEMBER_12_FILL"/>
</g>

<g transform="matrix( 1.50787353515625, 0, 0, 1.5001220703125, -19.4,51.45) ">
<use xlink:href="#Layer0_9_MEMBER_13_FILL"/>
</g>

<g transform="matrix( 1.50787353515625, 0, 0, 1.5001220703125, -19.4,51.45) ">
<use xlink:href="#Layer0_9_MEMBER_14_FILL"/>
</g>

<g transform="matrix( 1.50787353515625, 0, 0, 1.5001220703125, -19.4,51.45) ">
<use xlink:href="#Layer0_9_MEMBER_15_FILL"/>
</g>

<g transform="matrix( 0.8512420654296875, 0, 0, 0.846893310546875, 31.15,105.25) ">
<use xlink:href="#Layer0_9_MEMBER_16_FILL"/>
</g>

<g transform="matrix( 0.9344635009765625, 0, 0, 0.9297637939453125, 10.9,102.05) ">
<use xlink:href="#Layer0_9_MEMBER_17_FILL"/>
</g>

<g transform="matrix( 1.50787353515625, 0, 0, 1.5001220703125, -19.4,51.45) ">
<use xlink:href="#Layer0_9_MEMBER_18_FILL"/>
</g>
</svg>
