
<svg xmlns="http://www.w3.org/2000/svg" version="1.1" xmlns:xlink="http://www.w3.org/1999/xlink" preserveAspectRatio="none" x="0px" y="0px" width="720px" height="720px" viewBox="0 0 720 720">
<defs>
<linearGradient id="Gradient_1" gradientUnits="userSpaceOnUse" x1="360.9125" y1="492.3625" x2="355.5875" y2="83.73750000000001" spreadMethod="pad">
<stop  offset="0%" stop-color="#6CB0E1" stop-opacity="0"/>

<stop  offset="100%" stop-color="#6CB0E1" stop-opacity="0.34901960784313724"/>
</linearGradient>

<g id="Layer0_0_FILL">
<path fill="url(#Gradient_1)" stroke="none" d="
M 668.3 514.55
Q 686.05 463.7 686.05 405.5 686.05 270.45 590.6 174.95 495.1 79.5 360.05 79.5 225.05 79.5 129.6 174.95 34.05 270.45 34.05 405.5 34.05 463.7 51.8 514.55
L 668.3 514.55 Z"/>
</g>

<g id="Layer0_1_FILL">
<path fill="#AFC4DB" stroke="none" d="
M 626.5 112.8
L 615.05 83.25 466.55 222.5 239.3 295.5 56.05 545.95 110.05 628.8 297.4 355.65 500.35 279.9 626.5 112.8 Z"/>
</g>

<g id="Layer0_1_MEMBER_0_FILL">
<path fill="#AFC4DB" stroke="none" d="
M 463.4 214.15
L 518.3 255.45 531.75 179.65 463.4 214.15 Z"/>
</g>

<g id="Layer0_2_FILL">
<path fill="#FFC4AB" stroke="none" d="
M 185.9 435.25
Q 189 436 194.15 426.65 199.15 417.05 199.05 413.1 198.8 409.05 195.3 407.65 192.1 406.25 187.75 406.8 183.8 413.75 180.5 419.7 177.2 425.45 179.85 430.15 182.7 434.65 185.9 435.25 Z"/>
</g>

<g id="Layer0_2_MEMBER_0_FILL">
<path fill="#255C92" stroke="none" d="
M 131.35 331.35
L 124.6 334.1
Q 119.35 342.7 117.2 348.95 115 355.15 112.25 363 109.45 370.8 107.25 378.1 105.05 385.4 91.25 431.25 95.0544921875 436.8876953125 105 435.45
L 123.55 372.9
Q 128.2 357.1 129.6 343.25 130.25 337 131.35 331.35 Z"/>
</g>

<g id="Layer0_2_MEMBER_1_FILL">
<path fill="#374F67" stroke="none" d="
M 200.7 377.25
Q 200.05 375.75 200.05 373.6
L 193.8 372
Q 192.65 374.7 192.2 376.05 191.4 378.55 191.6 379.25 191.95 380.45 193.4 381.3 194.6 381.95 196.05 382.1 197.9 382.25 199.65 381.35 201.4 380.4 201.5 379.25 201.55 378.9 201.3 378.45 200.85 377.65 200.7 377.25 Z"/>
</g>

<g id="Layer0_2_MEMBER_2_FILL">
<path fill="#374F67" stroke="none" d="
M 124.55 513.55
L 124.55 506.4 119.25 507.5 118.65 509.55
Q 109.6865234375 510.2103515625 107.05 511.7 104.41015625 513.251171875 106.3 513.4 108.1861328125 513.591796875 111.35 513.65 114.573046875 513.759375 117.75 513.6 120.9255859375 513.4921875 124.55 513.55 Z"/>
</g>

<g id="Layer0_2_MEMBER_3_FILL">
<path fill="#255C92" stroke="none" d="
M 253.1 273.35
Q 251.6 246.2 249.5 220.35
L 228.5 221.2 224.65 235.65 247.3 372.9
Q 249.7 373.95 252.3 373.8 254.4 373.7 256.35 372.7 255.9 323.65 253.1 273.35 Z"/>
</g>

<g id="Layer0_2_MEMBER_4_FILL">
<path fill="#255C92" stroke="none" d="
M 282.75 398.05
Q 257.05 399.5 243.05 400.4
L 285.5 610.35
Q 288.85 611.9 292.65 611.15 295.9 610.6 298.5 608.4 295.25 526.6 287.7 446.4 285.45 421.8 282.75 398.05 Z"/>
</g>

<g id="Layer0_2_MEMBER_5_FILL">
<path fill="#FFFFFF" stroke="none" d="
M 226.5 128.95
Q 217.65 127.05 208.35 126.95
L 193 129.3
Q 194.9 150.95 196.5 167.5 198.9 192.05 202.4 223.15 213.6 226.4 225.3 226.35 237.9 226.3 249.75 222.3 250.3 205.75 249.2 190.85 248.8 185.05 247.9 176.9 246.3 163 245.7 157.05 244.4 143.7 243.65 134.5 235.5 130.95 226.5 128.95 Z"/>
</g>

<g id="Layer0_2_MEMBER_6_FILL">
<path fill="#FFC4AB" stroke="none" d="
M 214.35 110.85
Q 214.3 112.65 213.95 115.15 213.05 121.6 210.65 127.95
L 224.65 135.6 230.8 132.35
Q 230.3 128.8 230.35 125.2 230.4 120.4 231.6 115.85
L 214.35 110.85 Z"/>
</g>

<g id="Layer0_2_MEMBER_7_FILL">
<path fill="#6CB0E1" stroke="none" d="
M 226.75 136.25
L 229.7 133.4 228.2 130.6 224.35 131.4 219.15 130.5 217.35 132.95 221.75 135.8 223.35 182.65 233.3 192.85 237.25 181.95 226.75 136.25 Z"/>
</g>

<g id="Layer0_2_MEMBER_8_FILL">
<path fill="#255C92" stroke="none" d="
M 246.85 225
L 246.05 217.35
Q 240.9 218.2 235.25 218.5 226.05 218.95 217.1 217.85
L 216.6 226.25
Q 225.15 227.8 233.55 227.25 240.4 226.8 246.85 225 Z"/>
</g>

<g id="Layer0_2_MEMBER_9_FILL">
<path fill="#000000" fill-opacity="0.14901960784313725" stroke="none" d="
M 223.25 231.15
L 223.15 226.7 220.25 225.95 201.5 238.8
Q 205.6 239.4 209.35 238.95 215.9 238.15 220.3 234.35 221.9 233.05 223.25 231.15 Z"/>
</g>

<g id="Layer0_2_MEMBER_10_FILL">
<path fill="#255C92" stroke="none" d="
M 199.15 127.95
Q 195.5 128.65 192.1 129.8
L 195.6 159.7 200.3 239.2
Q 207.7 239.5 214.15 236.25 218.65 234 221.95 230.35 222.9 207.45 220.45 185.15 217.2 155.65 208.05 127 203.6 127.1 199.15 127.95 Z"/>
</g>

<g id="Layer0_2_MEMBER_11_FILL">
<path fill="#000000" fill-opacity="0.14901960784313725" stroke="none" d="
M 241.7 223.9
L 242.1 227.4 250.15 234.25 241.7 223.9 Z"/>
</g>

<g id="Layer0_2_MEMBER_12_FILL">
<path fill="#255C92" stroke="none" d="
M 829.45 64.15
Q 826.1 65.35 823.3 67 818.6 99.15 816.25 131.35 814.5 154.75 813.9 177.5
L 823.85 167.6 827.3 130.2
Q 830.55 96.35 834.15 62.9 832.25 63.3 829.45 64.15 Z"/>
</g>

<g id="Layer0_2_MEMBER_13_FILL">
<path fill="#000000" fill-opacity="0.14901960784313725" stroke="none" d="
M 238.9 140.4
L 235.75 132.05 239.95 149.3
Q 240.55 151.85 241.85 157.95
L 243.6 166.55 240.4 176.85
Q 240.65 176.35 242.65 171.8
L 244.85 166.65 244.8 166.45
Q 244.4 162.45 243.4 157.65 242.6 153.3 241.45 148.95 240.25 144.35 238.9 140.4 Z"/>
</g>

<g id="Layer0_2_MEMBER_14_FILL">
<path fill="#000000" fill-opacity="0.14901960784313725" stroke="none" d="
M 205.35 137.75
Q 204.75 143.85 204.65 146.95
L 204.8 165.6 211.2 172.9
Q 212.7 174.25 214.85 175.9 217.45 177.7 218.85 178.45 216.7 176.8 215.2 175.45 213.3 173.7 211.85 172.2
L 206.25 165.1
Q 206.296875 162.0642578125 206.2 156.15 206.05 150.05 206.1 147 206.15 140.9 206.25 137.8
L 206.55 128.65
Q 205.65 134 205.35 137.75 Z"/>
</g>

<g id="Layer0_2_MEMBER_15_FILL">
<path fill="#FFFFFF" stroke="none" d="
M 230.5 124.2
L 225.9 129.35 229.05 137.65 234 130.25 230.5 124.2 Z"/>
</g>

<g id="Layer0_2_MEMBER_16_FILL">
<path fill="#FFFFFF" stroke="none" d="
M 219.35 138.05
L 221.95 129.35 212.35 122.05 208.05 127 219.35 138.05 Z"/>
</g>

<g id="Layer0_2_MEMBER_17_FILL">
<path fill="#000000" fill-opacity="0.14901960784313725" stroke="none" d="
M 195.3 183.05
L 200.35 197.8
Q 208.6 196.85 215.3 192.1 220.55 188.35 224.25 182.45
L 195.3 183.05 Z"/>
</g>

<g id="Layer0_2_MEMBER_18_FILL">
<path fill="#000000" fill-opacity="0.14901960784313725" stroke="none" d="
M 239.45 184.35
Q 240.9 185.85 242.5 187.1 245.85 189.6 249.8 190.7
L 249.4 187.1 239.45 184.35 Z"/>
</g>

<g id="Layer0_2_MEMBER_19_FILL">
<path fill="#000000" fill-opacity="0.14901960784313725" stroke="none" d="
M 205.9 160.65
L 205.8 153.1
Q 204.5 149.5 202.65 146.1 200.8 142.6 198.35 139.45
L 205.9 160.65 Z"/>
</g>

<g id="Layer0_2_MEMBER_20_FILL">
<path fill="#000000" fill-opacity="0.058823529411764705" stroke="none" d="
M 326.35 148.45
Q 325.9 146.1 325.55 143.75 324.95 139.3 324.85 136.15
L 294.3 145
Q 295.45 149.35 296.05 153.85 312.1 165.05 326.35 148.45 Z"/>
</g>

<g id="Layer0_2_MEMBER_21_FILL">
<path fill="#FFC4AB" stroke="none" d="
M 310.5 78.05
Q 299.65 74.65 290 78.05 283.75 80.2 279 84.8
L 281.1 122.8
Q 281.41328125 127.82265625 282.85 129.4 285.7439453125 132.6802734375 289.05 135.15 292.6943359375 137.7890625 296.95 139.5 300.983203125 141.1767578125 306.3 139.15 309.439453125 137.84765625 313.35 134.7 317.2728515625 131.56328125 319.95 127.9 322.6703125 124.2767578125 322.15 116.1
L 321.25 83.05
Q 316 79.7 310.5 78.05 Z"/>
</g>

<g id="Layer0_2_MEMBER_22_FILL">
<path fill="#1F191A" stroke="none" d="
M 852.75 34.35
Q 857.15234375 31.345703125 855.3 22.65 853.44765625 14.004296875 848.4 5.7 843.8 2.4 838.05 2.6 833.7 2.75 829.85 5.05 827.55 6.35 826 8 822.9 9.35 820.8 12.05 819.3 13.95 818.4 16.65 819.1 22 821.4 27.25 823.2 31.55 826.3 34.95 825.1443359375 30.9205078125 824.45 27.95 823.74765625 24.9673828125 824.05 24.45 834.1 22.2 840.9 17.45 843.6 15.6 843.35 14.35
L 852.75 34.35 Z"/>
</g>

<g id="Layer0_2_MEMBER_23_FILL">
<path fill="#FFC4AB" stroke="none" d="
M 214.35 103
Q 214.1 100.8 212.2 99.95 211 99.45 209.7 99.95 208.5 100.35 207.9 101.3 206.9 102.85 207.95 105.1 208.95 107.25 210.95 107.95 212.4 108.45 214.35 107.8
L 214.35 103 Z"/>
</g>

<g id="Layer0_2_MEMBER_24_FILL">
<path fill="#F3F0E7" stroke="none" d="
M 107.2 358.2
L 78.85 370.1
Q 81.6 392.7 97.1 413.1
L 126.3 409.5
Q 112.05 389.1 107.2 358.2 Z"/>
</g>

<g id="Layer0_2_MEMBER_25_FILL">
<path fill="#FFC4AB" stroke="none" d="
M 823.95 120.2
Q 822.204296875 116.75625 818.25 114.8 814.2869140625 112.8810546875 809.55 112.8 804.8130859375 112.78046875 803.75 115.4 802.6865234375 118.070703125 805.35 122.4
L 821.45 127.9 823.95 120.2 Z"/>
</g>

<g id="Layer0_2_MEMBER_26_FILL">
<path fill="#255C92" stroke="none" d="
M 881.95 63.15
Q 877.6 59.75 870.3 60.2 868.7 72.8 866.65 84.25 864.8 94.65 859.4 111.15 846.15 114 836.65 115.25 828.7 116.35 820 115.95 817.3 118.05 816.75 121 815.85 125 818.55 128.4 828.55 131.7 838.6 132.45 853.9 133.6 871.1 129.95 880.05 117.6 884.15 103.2 893.05 71.65 881.95 63.15 Z"/>
</g>

<g id="Layer0_3_FILL">
<path fill="#BC775A" stroke="none" d="
M 95.75 416.15
Q 97.05 415.4 95.6 410.45 94.05 405.5 92.65 404.2 91.25 402.9 89.55 403.6 87.7 409.6 88.6 412.7 89.4 415.8 91.9 416.5 94.45 417 95.75 416.15 Z"/>
</g>

<g id="Layer0_3_MEMBER_0_FILL">
<path fill="#A0634A" stroke="none" d="
M 89.55 367.15
Q 91.6 367.2 92.7 365.25 92.95 333.55 90.2 303.4
L 89.05 291.85 72.85 296.55
Q 77.5 322 82.65 346.7
L 86.65 365.45
Q 86.95 365.9 87.5 366.35 88.45 367.1 89.55 367.15 Z"/>
</g>

<g id="Layer0_3_MEMBER_1_FILL">
<path fill="#1F191A" stroke="none" d="
M 73.55 135.55
Q 72.85 138.75 72.6 140.25 75.6 146.7 81.3 149.65 85.35 151.75 90.7 151.75 100.5 151.75 108.55 146.85 112.65 144.4 116.1 140.65 115.1 135.55 112.7 131.05 111 127.8 108.75 125.2
L 82.4 113.7
Q 76.25 124.15 73.55 135.55 Z"/>
</g>

<g id="Layer0_3_MEMBER_2_FILL">
<path fill="#374F67" stroke="none" d="
M 68.7 509.8
Q 68.2 508.3 68.05 507 66.65 506.7 65.35 507.05 64 507.45 63.15 508.4 61.95 509.75 62.05 511.8 62.2 513.9 63.75 515.55 67.925 516.6943359375 72.1 515.55 69.8 512.95 68.7 509.8 Z"/>
</g>

<g id="Layer0_3_MEMBER_3_FILL">
<path fill="#48627C" stroke="none" d="
M 76.9 156.15
Q 72 176.05 65.95 193.9 59.55 212.7 51.9 230.35 52.85 232.4 55.05 233.65 57 234.7 59.15 234.55 69.25 221.65 74.85 206.35 80.5 190.95 81.25 174.4
L 76.9 156.15 Z"/>
</g>

<g id="Layer0_3_MEMBER_4_FILL">
<path fill="#BC775A" stroke="none" d="
M 99.9 330.9
Q 101.95 316.4 101.95 311.3
L 101.4 296.1 86.05 297.4
Q 86.45 322.75 87.4 348.85
L 88.2 368.4
Q 88.5 370 90 370.5 90.9 370.75 91.85 370.3 92.75 369.85 93.2 368.9 97.4 348.7 99.9 330.9 Z"/>
</g>

<g id="Layer0_3_MEMBER_5_FILL">
<path fill="#587491" stroke="none" d="
M 109.6 238.5
Q 107.6 226.4 101.3 214.7
L 68.7 217.45
Q 67.2 223.65 66.3 230.6 65.05 240.7 65.45 251.1 65.7 257.6 67 269.25 69.1 286.65 73.15 302.9 83.75 306.8 94 304.4 99.6 303.1 104.6 300 106.9 285.6 108.1 275.65 111.3 248.75 109.6 238.5 Z"/>
</g>

<g id="Layer0_3_MEMBER_6_FILL">
<path fill="#6CB0E1" stroke="none" d="
M 80.65 358.75
Q 75.8 356.9 70.45 356.9 62.65 356.85 55.55 360.85 57.5 366.05 58.75 370.05 61.5 378.75 63.35 386.9 63.45 391.15 62.65 395.05 61.55 400.35 59 405 61.95 407.65 65.4 409.3 70.75 412 77 412.35
L 79.5 409.15 80.85 412.25
Q 82.85 411.8 84.8 410.8 86.6 409.8 88.1 408.4 87.3 404.2 86.8 400.2 85.75 392.35 85.85 384.75 87.1 383.65 87.85 382.55 89.6 379.8 89.35 376.15
L 86.3 370.3
Q 83.7 365.25 80.65 358.75 Z"/>
</g>

<g id="Layer0_3_MEMBER_7_FILL">
<path fill="#BC775A" stroke="none" d="
M 83.95 143.15
Q 84.55 145.75 84.75 148.15 85.1 152.25 84.55 156.05 86 156.6 87.55 156.9 92.5 157.9 97.45 156.65
L 98.75 138.2 83.95 143.15 Z"/>
</g>

<g id="Layer0_3_MEMBER_8_FILL">
<path fill="#FFFFFF" stroke="none" d="
M 96.45 159.25
Q 99 157.75 101.1 154.85
L 97.95 150.15
Q 95.85 151.95 93.4 153.05 90.75 154.3 87.65 154.8 86.4 153.95 85.7 152.8 85.1 151.85 84.85 150.6
L 81.5 154.65
Q 81.05 157.5 82.45 159.15 83.25 160.05 84.2 160.35
L 87.4 156.85 89.85 161.3
Q 93.3 161.15 96.45 159.25 Z"/>
</g>

<g id="Layer0_3_MEMBER_9_FILL">
<path fill="#374F67" stroke="none" d="
M 66.55 512.8
Q 66.4 510.85 66.45 509.55
L 64.45 508.95 64.15 512 63.1 509 60.25 509.8
Q 59.95 512.35 60.3 515.3
L 60.7 518
Q 64.225 519.780859375 67.75 518 66.8 515.45 66.55 512.8 Z"/>
</g>

<g id="Layer0_3_MEMBER_10_FILL">
<path fill="#587491" stroke="none" d="
M 101.05 154.75
Q 96.1 159.7 92.2 165.85 81.95 182.15 81.95 203.8 81.95 216.8 85.6 230.25 90 232.3 95.2 233.25 103.55 234.75 112.15 232.5
L 103.85 210.45
Q 102.45 206.05 102 201.8 100.25 187.1 107.45 172.65
L 110.5 159
Q 108.9 157.95 107.15 157.05 103.95 155.55 101.05 154.75 Z"/>
</g>

<g id="Layer0_3_MEMBER_11_FILL">
<path fill="#48627C" stroke="none" d="
M 106.7 233.6
Q 108.2 233.35 108.2 233.25 105.5 233.65 101.6 233.5 93.8 233.2 88.05 229.85 86.25 228.8 84.75 227.5
L 85.05 231.6
Q 93.25 234.05 102.25 233.9 104.85 233.85 106.7 233.6 Z"/>
</g>

<g id="Layer0_3_MEMBER_12_FILL">
<path fill="#587491" stroke="none" d="
M 69.8 181.5
Q 71.15 176.85 73.35 171.3 77.05 162.3 81.8 154.3
L 76.2 155.9 64.7 179.4
Q 64.7 183.75 65.65 187.7 66.15 189.6 66.6 190.9 67.65 198.6 67.55 206.15 67.45 210.8 66.6 218.95 65.95 224.65 64.9 231.2 67 230.3 68.65 228.9 69.9 227.9 70.9 226.65 71.4 209.55 70.55 193.35 70.25 187.3 69.8 181.5 Z"/>
</g>

<g id="Layer0_3_MEMBER_13_FILL">
<path fill="#48627C" stroke="none" d="
M 71.75 228
Q 71.55 226.5 70.9 225.3
L 70.4 227.6 66.45 230.55
Q 68.3 230.55 69.8 230.2 70.9 229.9 71.8 229.5
L 71.75 228 Z"/>
</g>

<g id="Layer0_3_MEMBER_14_FILL">
<path fill="#48627C" stroke="none" d="
M 101.05 212.15
L 88.45 213.5
Q 88.35 214.95 89 215.95 90.6 218.35 95.05 218.1 99.55 217.8 100.85 215.2 101.45 213.95 101.05 212.15 Z"/>
</g>

<g id="Layer0_3_MEMBER_15_FILL">
<path fill="#9CC3E0" stroke="none" d="
M 87.8 160.7
L 89.15 160.05 87.4 156.85 84.5 160.05 81.35 162.65 82.65 165.25 85.85 161.3 85.85 166 88.5 165.5 87.8 160.7 Z"/>
</g>

<g id="Layer0_3_MEMBER_16_FILL">
<path fill="#000000" fill-opacity="0.09803921568627451" stroke="none" d="
M 64.25 347.1
Q 70.15 355.05 74.75 352.65 74.9 350.95 75.3 349.1
L 64.25 345.4 64.25 347.1 Z"/>
</g>

<g id="Layer0_3_MEMBER_17_FILL">
<path fill="#BC775A" stroke="none" d="
M 80.35 344.15
L 78.75 328.55
Q 75.2 327.35 71.8 327.8 68.4 328.25 65.45 330.25 63.75 331.4 62.4 332.95 61.6 337.6 61.95 342.1 62.01171875 343.0271484375 62.15 344.05 62.25234375 345.437109375 63.55 346.6 65.262109375 348.2912109375 67.35 349.5 68.46640625 350.169921875 69.7 350.7 72.3 352.2388671875 74.9 350.7 76.8681640625 349.4177734375 78.5 347.65 78.9330078125 347.1650390625 79.3 346.7 80.3611328125 345.425 80.35 344.15 Z"/>
</g>

<g id="Layer0_3_MEMBER_18_FILL">
<path fill="#1F191A" stroke="none" d="
M 80.35 111.1
Q 78.75 112.6 77.9 116.15 76.65 121.35 77.5 127.1 78.55 123.9 79.6 121.6 80.75 119 82.3 116.3 83.25 117.95 84.05 118.95 86.8 122.45 90.7 124.8 93.05 126.3 98.35 127.95 104.65 129.9 111 131.05 111.7 128.35 111.65 125.6 111.6 121 109.5 117.3 106.4 111.8 99.85 109.45 93.2 107 85.8 108.8 82.4 109.15 80.35 111.1 Z"/>
</g>

<g id="Layer0_3_MEMBER_19_FILL">
<path fill="#BC775A" stroke="none" d="
M 55.9 418.15
Q 57.2 417.35 55.7 412.45 54.15 407.5 52.8 406.25 51.35 404.9 49.7 405.65 47.85 411.6 48.8 414.7 49.6 417.8 52.1 418.5 54.55 419 55.9 418.15 Z"/>
</g>

<g id="Layer0_3_MEMBER_20_FILL">
<path fill="#587491" stroke="none" d="
M 110.8 159.15
L 108.8 158.05
Q 105.65 162.55 103.2 166.8 101.35 169.95 99.55 173.55 102.65 185.65 104.9 198.9 107.9 216.2 108.95 233.65 110.9 234.8 113.2 235.1 115.6 235.4 117.95 234.6 118.75 216.25 117.2 198.6 115.45 178.65 110.8 159.15 Z"/>
</g>

<g id="Layer0_4_MEMBER_0_FILL">
<path fill="#255C92" stroke="none" d="
M 238.1 132.1
Q 239.15 137.3 239.75 143.05 241.65 162.45 236.35 181.8 240.4 184.3 244.9 185.75 254.1 188.75 264.5 187 264.05 177.85 261.55 169.5 260.4 165.65 258.5 161.5 257.45 159.2 253.8 151.85 249.15 142.55 244.35 134.65
L 238.1 132.1 Z"/>
</g>

<g id="Layer0_4_MEMBER_1_FILL">
<path fill="#374F67" stroke="none" d="
M 200.7 377.25
Q 200.05 375.75 200.05 373.6
L 193.8 372
Q 192.65 374.7 192.2 376.05 191.4 378.55 191.6 379.25 191.95 380.45 193.4 381.3 194.6 381.95 196.05 382.1 197.9 382.25 199.65 381.35 201.4 380.4 201.5 379.25 201.55 378.9 201.3 378.45 200.85 377.65 200.7 377.25 Z"/>
</g>

<g id="Layer0_4_MEMBER_2_FILL">
<path fill="#374F67" stroke="none" d="
M 251.85 594.4
L 250.3 599.75
Q 226.176953125 601.1013671875 221.85 604.7 217.5634765625 608.3576171875 221.3 609.05 225.09296875 609.73828125 232.3 610 239.500390625 610.257421875 248.2 608.05 256.9005859375 605.8482421875 265.7 607.75
L 265.7 591.6 251.85 594.4 Z"/>
</g>

<g id="Layer0_4_MEMBER_3_FILL">
<path fill="#255C92" stroke="none" d="
M 253.1 273.35
Q 251.6 246.2 249.5 220.35
L 228.5 221.2 224.65 235.65 247.3 372.9
Q 249.7 373.95 252.3 373.8 254.4 373.7 256.35 372.7 255.9 323.65 253.1 273.35 Z"/>
</g>

<g id="Layer0_4_MEMBER_4_FILL">
<path fill="#255C92" stroke="none" d="
M 232.95 221.2
Q 222.7 220.55 203.9 219.5 201.95 236.85 200.3 254.85 194.75 313.5 192.4 373.35 194.3 374.95 196.65 375.35 199.45 375.9 201.9 374.75
L 232.95 221.2 Z"/>
</g>

<g id="Layer0_4_MEMBER_5_FILL">
<path fill="#FFFFFF" stroke="none" d="
M 226.5 128.95
Q 217.65 127.05 208.35 126.95
L 193 129.3
Q 194.9 150.95 196.5 167.5 198.9 192.05 202.4 223.15 213.6 226.4 225.3 226.35 237.9 226.3 249.75 222.3 250.3 205.75 249.2 190.85 248.8 185.05 247.9 176.9 246.3 163 245.7 157.05 244.4 143.7 243.65 134.5 235.5 130.95 226.5 128.95 Z"/>
</g>

<g id="Layer0_4_MEMBER_6_FILL">
<path fill="#FFC4AB" stroke="none" d="
M 214.35 110.85
Q 214.3 112.65 213.95 115.15 213.05 121.6 210.65 127.95
L 224.65 135.6 230.8 132.35
Q 230.3 128.8 230.35 125.2 230.4 120.4 231.6 115.85
L 214.35 110.85 Z"/>
</g>

<g id="Layer0_4_MEMBER_7_FILL">
<path fill="#6CB0E1" stroke="none" d="
M 226.75 136.25
L 229.7 133.4 228.2 130.6 224.35 131.4 219.15 130.5 217.35 132.95 221.75 135.8 223.35 182.65 233.3 192.85 237.25 181.95 226.75 136.25 Z"/>
</g>

<g id="Layer0_4_MEMBER_8_FILL">
<path fill="#255C92" stroke="none" d="
M 246.85 225
L 246.05 217.35
Q 240.9 218.2 235.25 218.5 226.05 218.95 217.1 217.85
L 216.6 226.25
Q 225.15 227.8 233.55 227.25 240.4 226.8 246.85 225 Z"/>
</g>

<g id="Layer0_4_MEMBER_9_FILL">
<path fill="#000000" fill-opacity="0.14901960784313725" stroke="none" d="
M 223.25 231.15
L 223.15 226.7 220.25 225.95 201.5 238.8
Q 205.6 239.4 209.35 238.95 215.9 238.15 220.3 234.35 221.9 233.05 223.25 231.15 Z"/>
</g>

<g id="Layer0_4_MEMBER_10_FILL">
<path fill="#255C92" stroke="none" d="
M 199.15 127.95
Q 195.5 128.65 192.1 129.8
L 195.6 159.7 200.3 239.2
Q 207.7 239.5 214.15 236.25 218.65 234 221.95 230.35 222.9 207.45 220.45 185.15 217.2 155.65 208.05 127 203.6 127.1 199.15 127.95 Z"/>
</g>

<g id="Layer0_4_MEMBER_11_FILL">
<path fill="#000000" fill-opacity="0.14901960784313725" stroke="none" d="
M 241.7 223.9
L 242.1 227.4 250.15 234.25 241.7 223.9 Z"/>
</g>

<g id="Layer0_4_MEMBER_12_FILL">
<path fill="#255C92" stroke="none" d="
M 238 131.9
Q 235.4 131.1 233.65 130.75 236.95 161.5 239.95 192.7
L 243.15 227.1 252.3 236.25
Q 251.75 215.3 250.15 193.75 247.95 164.1 243.65 134.5 241.05 133 238 131.9 Z"/>
</g>

<g id="Layer0_4_MEMBER_13_FILL">
<path fill="#000000" fill-opacity="0.14901960784313725" stroke="none" d="
M 238.9 140.4
L 235.75 132.05 239.95 149.3
Q 240.55 151.85 241.85 157.95
L 243.6 166.55 240.4 176.85
Q 240.65 176.35 242.65 171.8
L 244.85 166.65 244.8 166.45
Q 244.4 162.45 243.4 157.65 242.6 153.3 241.45 148.95 240.25 144.35 238.9 140.4 Z"/>
</g>

<g id="Layer0_4_MEMBER_14_FILL">
<path fill="#000000" fill-opacity="0.14901960784313725" stroke="none" d="
M 205.35 137.75
Q 204.75 143.85 204.65 146.95
L 204.8 165.6 211.2 172.9
Q 212.7 174.25 214.85 175.9 217.45 177.7 218.85 178.45 216.7 176.8 215.2 175.45 213.3 173.7 211.85 172.2
L 206.25 165.1
Q 206.296875 162.0642578125 206.2 156.15 206.05 150.05 206.1 147 206.15 140.9 206.25 137.8
L 206.55 128.65
Q 205.65 134 205.35 137.75 Z"/>
</g>

<g id="Layer0_4_MEMBER_15_FILL">
<path fill="#FFFFFF" stroke="none" d="
M 230.5 124.2
L 225.9 129.35 229.05 137.65 234 130.25 230.5 124.2 Z"/>
</g>

<g id="Layer0_4_MEMBER_16_FILL">
<path fill="#FFFFFF" stroke="none" d="
M 219.35 138.05
L 221.95 129.35 212.35 122.05 208.05 127 219.35 138.05 Z"/>
</g>

<g id="Layer0_4_MEMBER_17_FILL">
<path fill="#000000" fill-opacity="0.14901960784313725" stroke="none" d="
M 195.3 183.05
L 200.35 197.8
Q 208.6 196.85 215.3 192.1 220.55 188.35 224.25 182.45
L 195.3 183.05 Z"/>
</g>

<g id="Layer0_4_MEMBER_18_FILL">
<path fill="#255C92" stroke="none" d="
M 238.2 174.7
Q 234.7 177.65 231.75 179.75 236.5 183.4 242 185.4 250.55 188.5 259.35 187.4 260.15 179.75 256.95 173.2 255.5 170.2 253.35 167.8 250.65 168.2 247.2 169.1 245.5 169.5 243.5 170.1 240.55 172.8 238.2 174.7 Z"/>
</g>

<g id="Layer0_4_MEMBER_19_FILL">
<path fill="#FFC4AB" stroke="none" d="
M 240.6 160.95
Q 237.5 162.45 235.9 165.6
L 244 171.15 254.35 167.3
Q 253.6 164.55 251.6 162.6 249.6 160.65 246.95 160.1 243.7 159.4 240.6 160.95 Z"/>
</g>

<g id="Layer0_4_MEMBER_20_FILL">
<path fill="#255C92" stroke="none" d="
M 200.35 128.25
Q 193.65 127.85 189.65 130.95 179.45 138.8 187.6 167.85 191.4 181.1 199.65 192.45 216 190.75 229.85 182.85 237.9 178.25 244.9 171.55 245.75 167.65 243.5 164.7 241.8 162.45 238.75 161.75 231.65 165.55 224.65 167.8 216.25 170.5 208.1 171.45 205.45 159.95 203.75 150.4 201.85 139.85 200.35 128.25 Z"/>
</g>

<g id="Layer0_4_MEMBER_21_FILL">
<path fill="#FFC4AB" stroke="none" d="
M 220.8 169.35
Q 221 167.7 218.25 165.8 216.3 164.45 213.85 163.45 209.7 161.75 205.15 162.4 203.8 165.25 203.8 167.95 203.75 170.75 205.15 172.4 207.9 175.65 214.3 173.9 220.4 172.25 220.8 169.35 Z"/>
</g>

<g id="Layer0_4_MEMBER_22_FILL">
<path fill="#000000" fill-opacity="0.14901960784313725" stroke="none" d="
M 239.45 184.35
Q 240.9 185.85 242.5 187.1 245.85 189.6 249.8 190.7
L 249.4 187.1 239.45 184.35 Z"/>
</g>

<g id="Layer0_4_MEMBER_23_FILL">
<path fill="#000000" fill-opacity="0.14901960784313725" stroke="none" d="
M 240.65 175.45
Q 237.1 178.5 233.1 180.85 234.05 181.6 235.45 182.5 237.35 183.7 239.85 184.65
L 238.7 181.15 244.95 171.45
Q 242.55 173.85 240.65 175.45 Z"/>
</g>

<g id="Layer0_4_MEMBER_24_FILL">
<path fill="#000000" fill-opacity="0.14901960784313725" stroke="none" d="
M 205.9 160.65
L 205.8 153.1
Q 204.5 149.5 202.65 146.1 200.8 142.6 198.35 139.45
L 205.9 160.65 Z"/>
</g>

<g id="Layer0_4_MEMBER_25_FILL">
<path fill="#000000" fill-opacity="0.058823529411764705" stroke="none" d="
M 326.35 148.45
Q 325.9 146.1 325.55 143.75 324.95 139.3 324.85 136.15
L 294.3 145
Q 295.45 149.35 296.05 153.85 312.1 165.05 326.35 148.45 Z"/>
</g>

<g id="Layer0_4_MEMBER_26_FILL">
<path fill="#FFC4AB" stroke="none" d="
M 310.5 78.05
Q 299.65 74.65 290 78.05 283.75 80.2 279 84.8
L 281.1 122.8
Q 281.41328125 127.82265625 282.85 129.4 285.7439453125 132.6802734375 289.05 135.15 292.6943359375 137.7890625 296.95 139.5 300.983203125 141.1767578125 306.3 139.15 309.439453125 137.84765625 313.35 134.7 317.2728515625 131.56328125 319.95 127.9 322.6703125 124.2767578125 322.15 116.1
L 321.25 83.05
Q 316 79.7 310.5 78.05 Z"/>
</g>

<g id="Layer0_4_MEMBER_27_FILL">
<path fill="#FFC4AB" stroke="none" d="
M 214.35 103
Q 214.1 100.8 212.2 99.95 211 99.45 209.7 99.95 208.5 100.35 207.9 101.3 206.9 102.85 207.95 105.1 208.95 107.25 210.95 107.95 212.4 108.45 214.35 107.8
L 214.35 103 Z"/>
</g>

<g id="Layer0_4_MEMBER_28_FILL">
<path fill="#FFC4AB" stroke="none" d="
M 237.9 100.8
Q 237 100.45 236.3 100.75 235 101.25 234.6 103.45 234.2 105.75 234.95 108.8 236.15 109.1 237.25 108.65 239.1 107.95 239.8 105.55 240.5 103.1 239.25 101.7 238.75 101.05 237.9 100.8 Z"/>
</g>

<g id="Layer0_4_MEMBER_29_FILL">
<path fill="#1F191A" stroke="none" d="
M 219.35 74.25
Q 214.2 75.45 210.9 79.45 208.5 87.8 210.35 96.05 210.85 98.25 211.85 100.75
L 214.8 85.55
Q 217.55 87.1 220.35 88.1 227.55 90.75 235.25 90.1 235.85 91.35 236.3 92.7 237.65 96.55 237.65 100.6 239.45 96.45 240.05 92.15 240.85 86.95 240.2 82.05 238.75 79.85 237 78.55 234.45 76.65 231.35 76.15 229.6 75.05 227.25 74.45 223.25 73.35 219.35 74.25 Z"/>
</g>

<g id="Layer0_5_MEMBER_0_FILL">
<path fill="#255C92" stroke="none" d="
M 357.85 234.1
L 354 246.5 374.75 370.25
Q 376.85 371.2 379.2 371.05 381.2 370.95 382.85 370.05 382.4 324.75 379.95 280.95 378.65 257.75 376.7 233.35
L 357.85 234.1 Z"/>
</g>

<g id="Layer0_5_MEMBER_1_FILL">
<path fill="#255C92" stroke="none" d="
M 361.85 234.1
L 335.8 232.6
Q 333.95 249.55 332.55 264.3 327.55 317.2 325.45 370.65 327.15 372.05 329.25 372.45 331.8 372.9 333.95 371.9
L 361.85 234.1 Z"/>
</g>

<g id="Layer0_5_MEMBER_2_FILL">
<path fill="#6CB0E1" stroke="none" d="
M 848.05 357.9
Q 841.95 359.15 836.1 361.75 833.15 381.3 832.25 401.05 831.75 411.45 831.9 422.95 840.85 427.7611328125 849.05 427.3 857.3 426.8888671875 864.85 423.5 866.8 403.3 868.95 384.75 871 367.35 872.15 358.15 859.8 355.5 848.05 357.9 Z"/>
</g>

<g id="Layer0_5_MEMBER_3_FILL">
<path fill="#FFC4AB" stroke="none" d="
M 345.2 135.1
L 344.8 138.95
Q 343.95 144.8 341.85 150.45
L 354.4 157.35 359.9 154.4
Q 359.45 151 359.5 148 359.65 143.4 360.65 139.6
L 345.2 135.1 Z"/>
</g>

<g id="Layer0_5_MEMBER_4_FILL">
<path fill="#000000" fill-opacity="0.09803921568627451" stroke="none" d="
M 856.3 345.95
L 856 342.95 844 346.45
Q 844.65 348.95 844.85 351.85 851.25 356.1 857.4 350.25 856.75 348.9 856.3 345.95 Z"/>
</g>

<g id="Layer0_5_MEMBER_5_FILL">
<path fill="#FFC4AB" stroke="none" d="
M 830.2 421.4
Q 830.25 421.35 830.3 421.15 830.3 420.4 830.2 421.4
M 824.55 419.6
Q 823.3 420.3 822.75 420.35 820.4 424.7 819.75 427.65 819.1 430.6 819.1 431.95 819.05 433.25 819.5 434.9 820 436.5 822 436.3 823.95 436.1 824.65 435.65 825.3 435.15 825.8 434.2 826.25 433.2 826.35 432.65 826.5 432.4 826.9 431.85 827.3 431.2 828.05 431.15 828.8 431.05 829 429.6 829.15 428.15 829.4 426.35 829.6 424.55 829.3 421.5 829.2 420.65 829.2 420.05 828.5 420.45 827.15 419.7 825.75 418.9 824.55 419.6 Z"/>
</g>

<g id="Layer0_5_MEMBER_6_FILL">
<path fill="#FFC4AB" stroke="none" d="
M 830.2 421.4
Q 830.25 421.35 830.3 421.15 830.3 420.4 830.2 421.4
M 824.55 419.6
Q 823.3 420.3 822.75 420.35 820.4 424.7 819.75 427.65 819.1 430.6 819.1 431.95 819.05 433.25 819.5 434.9 820 436.5 822 436.3 823.95 436.1 824.65 435.65 825.3 435.15 825.8 434.2 826.25 433.2 826.35 432.65 826.5 432.4 826.9 431.85 827.3 431.2 828.05 431.15 828.8 431.05 829 429.6 829.15 428.15 829.4 426.35 829.6 424.55 829.3 421.5 829.2 420.65 829.2 420.05 828.5 420.45 827.15 419.7 825.75 418.9 824.55 419.6 Z"/>
</g>

<g id="Layer0_5_MEMBER_7_FILL">
<path fill="#333333" stroke="none" d="
M 332.35 370.9
L 326.75 369.45
Q 325.95 371.1 325.3 373.05 324.55 375.35 324.75 375.95 325.05 377.05 326.35 377.75 327.45 378.35 328.75 378.5 330.45 378.6 332 377.8 333.55 377 333.6 375.95 333.65 375.65 333.4 375.25 333.05 374.5 332.9 374.15 332.25 372.5 332.35 370.9 Z"/>
</g>

<g id="Layer0_5_MEMBER_8_FILL">
<path fill="#333333" stroke="none" d="
M 382.8 370.25
L 382 367.55 375 366.15 375.1 372.5
Q 379.1 373.35 383.25 373.7 387.6 374.1 391.65 373.95 395.35 373.85 395.35 373.45 395.4 373.3 393.15 372.85 389.6 372.2 386.75 371.45 383.8 370.65 382.8 370.25 Z"/>
</g>

<g id="Layer0_5_MEMBER_9_FILL">
<path fill="#6CB0E1" stroke="none" d="
M 380.3 196.25
Q 375.2 176.5 371.45 156.3
L 366.4 200.4 378.4 236.1
Q 381.85 237.15 385.45 235.85 388.7 234.7 390.7 232.05 385 214.6 380.3 196.25 Z"/>
</g>

<g id="Layer0_5_MEMBER_10_FILL">
<path fill="#6CB0E1" stroke="none" d="
M 335.9 170.55
Q 334.9 164.9 331.9 159.85 329.1 155.15 325 151.65 317.8 171.8 314.95 192.5 312.05 212.95 313.35 233.7 316.95 235.45 320.95 235.5 324.2 235.55 327.45 234.4 326.45 216.35 329.15 198.55 331.35 184.35 335.9 170.55 Z"/>
</g>

<g id="Layer0_5_MEMBER_11_FILL">
<path fill="#1F191A" stroke="none" d="
M 367.8 123.05
Q 369.2 117.75 368.55 112.1 366.8 107.95 363.35 105.3 359.85 102.7 355.75 102.5 350.4 102.25 345.9 106.05
L 340.35 112.2
Q 340.7 118.45 342 124.55
L 342.75 127.85 365.95 128.35
Q 367.15 125.6 367.8 123.05 Z"/>
</g>

<g id="Layer0_5_MEMBER_12_FILL">
<path fill="#FFC4AB" stroke="none" d="
M 365.45 136.75
L 366.8 112.95
Q 363.95 110.3 360.65 109.15 355.3 107.3 349.25 109.15 346.05 110.15 343.3 111.95
L 342.85 135.35
Q 345.05 138.8 348.25 141.2 351.05 143.3 353.85 144.3 357.85 143.3 361.2 140.9 363.45 139.3 365.45 136.75 Z"/>
</g>

<g id="Layer0_5_MEMBER_13_FILL">
<path fill="#FFC4AB" stroke="none" d="
M 343.7 128.05
Q 343.45 126.05 341.75 125.3 340.7 124.9 339.55 125.3 338.45 125.7 337.9 126.55 337 127.95 337.95 129.9 338.85 131.9 340.65 132.5 342.1 133 343.7 132.35
L 343.7 128.05 Z"/>
</g>

<g id="Layer0_5_MEMBER_14_FILL">
<path fill="#FFC4AB" stroke="none" d="
M 368.25 126.45
Q 367.1 125.95 366 126.35 364.3 126.9 363.9 128.95
L 363.65 133.25
Q 365.25 134 366.7 133.6 368.5 133.05 369.55 131.15 370.6 129.2 369.8 127.8 369.3 126.9 368.25 126.45 Z"/>
</g>

<g id="Layer0_5_MEMBER_15_FILL">
<path fill="#1F191A" stroke="none" d="
M 365.55 115.5
Q 366.4 116.55 367.45 117.6
L 367.65 111.75
Q 365.45 109.95 362.6 108.7 357.5 106.45 352.25 107.1 346.35 107.85 342 111.6
L 341.6 122.2
Q 348.6 118.95 356.55 114.9
L 362.85 111.55
Q 363.9 113.5 365.55 115.5 Z"/>
</g>

<g id="Layer0_5_MEMBER_16_FILL">
<path fill="#FFFFFF" stroke="none" d="
M 356.3 157.85
L 358.95 155.35 357.6 152.8 354.15 153.55 349.45 152.7 347.85 154.9 351.8 157.5 353.25 199.55 362.15 208.65 366.85 198.65 356.3 157.85 Z"/>
</g>

<g id="Layer0_5_MEMBER_17_FILL">
<path fill="#4E97CC" stroke="none" d="
M 355.5 151.7
L 358.35 159.15 362.8 152.5 359.65 147.05 355.5 151.7 Z"/>
</g>

<g id="Layer0_5_MEMBER_18_FILL">
<path fill="#4E97CC" stroke="none" d="
M 349.65 159.5
L 352 151.7 343.4 145.15 339.5 149.6 349.65 159.5 Z"/>
</g>

<g id="Layer0_6_FILL">
<path fill="#BADAF1" stroke="none" d="
M 545.5 341.2
Q 539.4 330.05 530.65 330.05 522.05 330.05 515.8 341.2 512.45 347.25 510.9 354.5 508.95 356.45 507.3 359.8 503.25 367.8 503.25 379.05 503.25 390.35 507.3 398.35 509.1 402.2 511.5 404.25 511.6 412.85 516.4 418.75 521.1 424.6 527.4 424.85 527.45 428.8 527.45 432.75 527.4 434.2 527.4 435.6 527.15 445.9 525.95 455.75 463.05 455.85 390.45 462.95 300.6 471.8 196.25 458.15 195.3 451.3 194.6 444.05 193.55 433.35 193.2 421.95 200.7 412.6 203.85 398.95 209.55 398.85 213.55 393.55 217.7 388.1 217.7 380.4 217.7 377.3 217.1 374.75 218.2 372.95 219.2 370.6 223.5 361.7 223.5 349.25 223.5 336.65 219.2 327.8 219.2 327.45 219.05 327.3 218.9 307.3 211 293.2 203.2 278.95 191.95 278.95 180.8 278.95 172.7 293.2 168.4 300.85 166.55 310.2 166.2 310.55 165.95 310.9 164.3 305.4 161.65 300.6 154.6 288 144.65 288 134.7 288 127.55 300.6 123.9 307.55 122 315.8 119.85 318 117.95 321.85 113.4 331.05 113.4 343.85 113.4 356.8 117.95 365.8 120 370.25 122.85 372.5 122.85 382.3 128.15 389.05 133.6 395.65 140.8 396.1 140.95 400.5 140.95 404.95 140.8 406.55 140.8 408.2 140.25 428.95 136.05 448.7 58.1302734375 455.9029296875 40.05 477.1
L 657.55 477.1
Q 660.5064453125 468.0779296875 584.1 457.3
L 584.1 425.1
Q 588.4 423.8 591.65 419.7 596.15 414.15 596.15 406.05 596.15 403.05 595.45 400.4 596.3 399.1 597.05 397.65 602.8 387.35 602.8 372.7 602.8 358 597.05 347.6 591.4 337.25 583.25 337.25 575.2 337.25 569.35 347.6 566.25 353.3 564.8 360 563 361.7 561.45 364.85 557.75 372.35 557.75 382.8 557.75 393.25 561.45 400.75 563.15 404.25 565.4 406.25 565.5 414.2 569.95 419.7 574.35 425.1 580.15 425.35 580.25 428.95 580.25 432.65 580.15 434.05 580.15 435.3 579.9 446.4 578.35 456.95 555.6 455.85 531.6 455.75
L 531.6 424.6
Q 536.25 423.2 539.65 418.75 544.45 412.75 544.45 404.1 544.45 400.8 543.8 398 544.7 396.6 545.5 395.05 551.75 383.9 551.75 368.15 551.75 352.35 545.5 341.2
M 145.7 395.65
Q 151 394.15 154.95 389.05 160.45 382.2 160.45 372.35 160.45 368.65 159.65 365.4 160.6 363.75 161.65 362.05 162.35 360.75 163 359.55 163.2 361.7 163.35 363.5 164.2 371.3 167.3 373.95 167.4 384.85 173.5 392.5 179.6 399.95 187.75 400.3 187.4 407 188.35 424.15 188.85 433.35 188.65 444.05 188.5 450.35 188.15 457.1
L 145.7 450.45 145.7 395.65
M 193.15 399.8
Q 195.8 399.2 198.2 397.55 199.3 398.1 200.7 398.6 198.8 407.35 192.95 416.1 192.95 407 193.15 399.8
M 681.6 477.1
L 685.05 477.1
Q 685.1193359375 476.4541015625 685.15 475.8 683.5953125 476.5751953125 681.6 477.1 Z"/>
</g>

<g id="Layer0_7_FILL">
<path fill="#BADAF1" stroke="none" d="
M 649.2 134.7
Q 664.95 147.05 661.6 138.75 660.5 136.2 657.7 131.85
L 655.05 128.05 658.6 132.2
Q 662.7 136.85 665.45 139.2 669.3 142.55 669.9 140.9 670.7 138.85 666.35 129.05 659.4 113.35 642.15 103.3 631.85 97.25 620.35 94.4 625.3 95.25 627.05 92.55 627.95 91.25 627.8 89.75 619.55 86.75 606.15 84.7 579.4 80.55 554 84.95 541.15 87.2 529.15 94.05 519.35 99.65 510.45 108.2 519.75 89.1 521.45 76.4 521.6 75.1 521 75.75 520.7 76.05 519.55 77.8 517.2 81.35 516.8 79.7 516.65 79.05 516.75 77.25 516.8 74.55 516.8 73.4 516.7 67.4 514.6 61.55 512.85 56.7 508.8 51.8 505.2 47.4 500.7 44.05 496.35 40.85 492.9 39.85 489.3 38.8 488.2 40.65 488 41 491.25 47.25 494.7 53.85 494.8 55.5 494.8 56.15 493.8 55.65 493.25 55.4 491.5 54.2 488.2 52.05 488.35 53.4 488.45 54.35 491.8 62.1 495.2 69.85 495.35 70.9 495.45 71.9 494.65 71.35 494.15 71.05 492.75 69.7 491.4 68.45 490.9 68.15 490.05 67.7 490.2 68.75 490.35 70.05 492.75 75.6 495.2 81.05 495.35 82.5 495.45 83.4 494.6 82.55 493.4 81.2 492.8 80.7 490.4 78.6 492.05 85.75 493.35 91.5 493.95 98.3 494.55 105.05 494.3 110.95 492 98.05 486.95 87.15 480.7 73.5 470.6 63.75 452 45.9 427.5 34.35 419.85 30.75 412.55 28.2
L 406.75 26.35 406.25 27.15
Q 405.8 28.15 405.8 29.15 405.75 32.3 410.3 34.4 399.2 30.3 387.25 29.55 367.35 28.3 352.8 37.35 343.75 43.05 343.2 45.2 342.8 46.9 347.85 46.3 353.65 45.6 362.7 42.85 355.05 45.6 351.3 48.1 343.9 53.05 363.85 51.65 383.8 50.3 389 50.85 390.65 51 390.6 51.35 390.6 51.5 390.25 51.65 383.9 54.4 378.25 57.45 367 63.5 370.4 64.85 373.85 66.25 391.2 65.15 399.9 64.6 407.85 63.75 402.9 65.7 398.9 67.75 390.95 71.9 395.75 72.55 400.55 73.25 418.45 76.85 427.4 78.65 435.35 80.3 432.9 81.65 431.8 83.15 429.55 86.2 436.45 86.9 443.35 87.6 454.9 90.05 460.7 91.3 465.1 92.4 459.85 93.5 455.85 95 447.9 98 454.1 100.05 456.55 100.9 459.95 103.1 463.15 105.2 466.8 108.3 440.45 97.95 413.9 95.5 377.4 92.15 345.1 104.5 298.35 122.35 295.6 125.65 294.75 126.7 298.35 126.15 300.2 125.85 302.2 125.4
L 315.4 121
Q 312.65 122.35 308.4 125.5 299.85 131.85 292.3 140.8 284.7 149.75 286.1 152.2 286.8 153.45 289 152.9
L 286.65 157.35
Q 283.9 162.85 281.8 167.9 275.25 184.15 278 190.3 283.5 186.2 293.4 172.45 298.35 165.55 302.2 159.5
L 302.4 161.5
Q 302.7 163.85 303.15 165.55 304.55 171.05 306.6 168.3 308.65 165.55 318.3 150.15 323.1 142.45 327.5 135.3
L 326.25 139.35
Q 324.75 144.2 323.8 148.1 320.75 160.45 324.2 158.4 327.65 156.35 333.95 148.9 337.15 145.2 339.6 141.9
L 338.65 144.1
Q 337.5 146.8 336.75 149.05 334.25 156.2 336.3 156.2 337.5 156.2 341.5 153.7 345.25 151.45 349.95 147.95 361.1 139.65 362.7 136.4
L 362.3 137.6
Q 361.9 139 361.9 140.1 361.9 143.7 366.05 143 370.15 142.3 383.35 134.9 389.95 131.15 395.75 127.6
L 395.55 129.7
Q 395.5 132.15 396 133.75 397.65 139 404.55 134.2 411.4 129.35 421.35 123.05 426.3 119.85 429.85 117.7
L 428.6 120.45
Q 427.1 123.7 426.15 126.5 423.15 135.3 426.55 135.3 430 135.3 445.65 130.9 453.5 128.7 460.65 126.5 457.95 128.15 456 129.8 452.15 133.1 456.25 133.1 458.2 133.1 461.6 132.5 463.55 132.15 467.85 131.35 476.1 130.05 481.8 131.7 443 201.95 414.3 276.7 390.2 339.3 374.05 403 361.35 453.2 354.25 500.75 349.25 534.5 347.95 560.05 332.4 558.5 319.5 558.05 318.8 547.45 313.55 518.9 306.75 482.1 297.45 446.45 285.3 400 271.1 364.3 253.7 320.7 234.25 296.15 237.1 296 241.55 296.8 246.2 297.65 247.55 297.65 250.35 297.65 247.75 295.45
L 244.6 293.2 254.7 296.2
Q 265.3 299.15 267.6 299.15 269.95 299.15 267.9 293.25 267.25 291.35 266.25 289.15
L 265.35 287.3 271.15 290.9
Q 277.8 295.15 282.45 298.45 287.1 301.7 288.2 298.15 288.55 297.05 288.5 295.4
L 288.4 293.95 296.75 298.9
Q 305.65 303.9 308.45 304.35 311.2 304.8 311.2 302.4 311.2 301.65 310.95 300.7
L 310.65 299.9
Q 311.75 302.1 319.3 307.7 326.75 313.25 328.45 313.25 329.85 313.25 328.2 308.45
L 326.25 303.6 330.05 308.35
Q 334.3 313.35 336.65 314.75 338.95 316.15 336.9 307.8 336.3 305.2 335.3 301.9
L 334.4 299.15 340.65 309.2
Q 347.1 319.6 348.5 321.45 349.9 323.3 350.85 319.6 351.15 318.4 351.35 316.85
L 351.5 315.5 357.4 324.2
Q 364.1 333.5 367.8 336.3 369.7 332.1 365.2 321.15 363.85 317.75 361.95 314.05
L 360.4 311.05
Q 361.9 311.4 362.35 310.6 363.25 308.9 358.15 302.85 353.05 296.85 347.3 292.55 345.5 291.25 343.85 290.25
L 342.6 289.5 351.5 292.5
Q 356.85 293.8 355.95 292.65 354.1 290.45 322.55 278.4 299.95 269.75 274.5 272.7 256.4 274.85 238.65 282.5 241.6 279.85 244.25 278.05 247.05 276.05 249.05 275.4 253.2 274 247.85 271.95 246.15 271.35 243.7 270.7
L 241.6 270.2 248.5 268.65
Q 256.3 266.95 260.9 266.5 265.55 266.05 264.05 264 263.6 263.35 262.6 262.65
L 261.65 262.05 273.1 259.7
Q 285.15 257.3 288.4 256.85 291.65 256.4 286.25 253.6 284.55 252.75 282.2 251.75
L 280.2 250.9 291.45 251.85
Q 303.15 252.6 305.45 251.65 307.8 250.7 300.2 246.65 297.8 245.35 294.7 243.9
L 292.1 242.75
Q 291.9 242.65 291.85 242.55 291.85 242.3 292.95 242.2 296.45 241.8 309.9 242.75 323.35 243.65 318.35 240.35 316.8 239.3 313.55 237.95
L 310.65 236.8 314.2 237.8
Q 318.25 238.85 320.7 239.15 328.45 240.05 317.35 233.1 307.55 226.95 294.1 227.8 286.05 228.35 278.55 231.1 281.65 229.7 281.6 227.55 281.6 226.9 281.3 226.2
L 280.95 225.65
Q 275.2 227.15 266.95 231.05 250.45 238.85 237.9 250.9 231.05 257.5 226.85 266.7 223.45 274.05 221.9 282.75 221.7 278.75 222.15 274.25 222.55 269.6 223.4 265.7 224.55 260.9 222.95 262.3 222.5 262.65 221.7 263.55 221.15 264.15 221.2 263.55 221.3 262.55 222.95 258.9 224.6 255.15 224.7 254.25 224.8 253.15 222.95 254.9 222 255.85 221.7 256.05 221.15 256.4 221.2 255.75 221.3 255 223.6 249.75 225.85 244.55 225.9 243.9 226 243 223.8 244.5 221.55 245.95 221.6 245.35 221.65 244.25 224 239.75 226.2 235.55 226.05 235.3 225.3 234.05 222.85 234.75 220.55 235.45 217.6 237.6 214.55 239.85 212.1 242.8 209.4 246.1 208.2 249.4 206.8 253.35 206.75 257.4 206.7 258.2 206.8 260 206.85 261.2 206.75 261.65 206.5 262.8 204.85 260.35 204.1 259.15 203.9 259 203.5 258.55 203.6 259.4 204.75 268 211 280.9 205.05 275.15 198.4 271.35 190.35 266.7 181.65 265.2 164.5 262.2 146.5 265 140.85 265.9 135.8 267.25
L 131.85 268.4 131.9 269.05
Q 132 269.75 132.35 270.35 133.55 272.15 136.95 271.55 129.2 273.5 122.25 277.55 110.6 284.35 105.9 294.95 100.55 306.95 106.5 301.8 108.35 300.2 111.1 297.1
L 113.5 294.25 111.7 296.85
Q 109.8 299.75 109.1 301.5 106.8 307.1 117.45 298.8 128.1 290.45 131.2 288.8 132.15 288.3 132.3 288.5 132.35 288.6 132.2 288.8
L 130.7 291.25
Q 128.95 294.2 127.7 296.55 123.7 304.2 126.1 303.65 128.55 303.15 137.85 295.95
L 146.6 288.9 145.4 290.75
Q 144.05 292.85 143.1 294.55 140.25 299.85 143.2 298.4 146.15 296.95 157.45 292.2 163.15 289.85 168.2 287.75
L 167.8 288.75
Q 167.35 289.9 167.3 290.7 167.2 293.25 171.3 291 175.45 288.8 182.8 285.8 186.55 284.35 189.4 283.25
L 187.95 284.85
Q 186.25 286.75 185.25 288.2 181.9 292.95 186.15 291.75 189.75 290.75 197.25 291.6 179.65 292.9 164.4 299.25 144.1 307.7 130.05 324.4 116.65 340.3 114.85 346.55 114.25 348.5 114.9 349.3 115.25 349.65 115.7 349.65
L 116.5 348.7
Q 115.05 351.55 113.7 359.55 112.4 367.35 114.05 368.3 114.85 368.75 115.95 367.7
L 115.4 370.5
Q 114.85 373.95 114.75 377.3 114.5 387.95 119.15 393.2 121 391.95 122.2 383.05 122.6 380.25 122.9 377
L 123.05 374.35 125.7 377.55
Q 128.4 380.25 128.65 377.95 128.9 375.65 130.5 368.35
L 132 361.55 132.25 362.8
Q 132.6 364.25 132.95 365.3 134.2 368.55 135.5 366.2 136.75 363.8 137.9 357.35
L 138.75 351.3 139.55 356.45
Q 140.55 361.45 141.75 360.75 143.25 359.9 146.85 351.3 150.5 342.6 150.3 340.2
L 150.5 341
Q 150.75 342 151.1 342.6 152.35 344.7 154.5 342.9 156.65 341.1 161.75 332.25
L 166.45 323.75 167.05 325.05
Q 167.9 326.45 168.75 327.25 171.5 329.75 173.85 324.55 176.2 319.4 179.75 312.35
L 182.9 306.3 183.1 308.35
Q 183.35 310.75 183.75 312.7 185 318.85 187 317.65 189 316.5 196.6 308.55
L 203.8 300.85 202.2 304.4
Q 201.1 307.6 203.5 306.2 204.65 305.55 208.45 302.25 211.95 299.2 214.6 297.9 210.05 303.2 206.2 309.45 201.35 317.35 197.95 326.25 191.85 342.4 190.25 361.8 189.65 368.8 189.9 374.15 190.05 378.95 190.65 379.25 191.75 379.75 192.85 377.2 194 374.45 195.55 367.35 195.15 377.2 199.2 390.4 203.25 403.85 208.5 409.25 212.95 413.85 212 402.9 211.7 399.45 210.9 394.9
L 210.2 391 211.1 391.65
Q 212.15 392.35 213 392.65 215.6 393.6 214.8 390.05 213.95 386.55 212.6 375.05
L 211.4 364.25 213.35 368.65
Q 215.55 373.3 216.65 374.35 217.8 375.4 215.35 360.3
L 212.7 344.95 215.05 349.7
Q 217.6 354.5 218.5 354.65 219.45 354.75 217.75 342.6
L 215.9 330.4 216.5 330.5
Q 217.25 330.55 217.9 330.35 220 329.7 220.3 326.95 220.4 321.55 220.65 317.15 221.1 308.75 223 302.9 223.75 303.55 224.2 303.65 231.2 315.6 238.55 331.5 249.6 355.55 258.95 383.45 285.8 463.35 293.6 558.4 286.15 558.9 275.5 560.25 264.5 561.6 259.85 561.95 252.9 562.45 247.35 565.15 243.7 566.95 238.9 570.85 233.55 575.25 231.25 576.6 226.65 579.3 221.25 579.75 211.05 580.7 201.75 587 197.1 590.2 194.55 593.15 178.8 597.85 176.75 602.95 174.9 607.4 183.55 611.5 191.4 615.2 205.15 617.55 218.65 619.85 231.65 619.85 242.3 619.85 251.15 621.15 256.2 621.9 265.85 623.6 275.25 624.9 287.2 624.9 302.7 624.9 326.7 622.85 355.9 620.35 374.4 617.3 381.1 616.15 387.7 614.75 391.45 613.95 397.8 612.55 408.8 610.15 420.15 609.25 435.6 608 464.75 608 517.65 608 557.35 605.75 577.2 604.65 586.5 603.55 586.6 602.95 586.25 602 585.6 600.05 583.55 597.95 576.85 591.3 558.3 585.7 548.25 582.7 531.6 581.4 519.65 580.5 500.75 580.35 480.8 580.3 472.7 580.05 459.15 579.75 454.35 578.3 451.3 574.8 444.7 572.35 438.7 570.1 428.85 568.45 420.65 567.1 407.2 565.75 402.9 565.3 380.2 563.25 383.7 491.2 399.35 415.55 412.25 352.9 433.05 289.8 449.05 241.3 468.6 195.6 481.25 166.05 493.2 142.6 495.65 150.95 496.2 162.8 496.35 165.55 496.45 171 496.5 175.15 496.7 176.45 497.15 180.55 500.25 181.5 501.75 181.95 503.2 181.6
L 500.45 199.65
Q 498 217.7 499.35 217.55 500.7 217.35 504.5 210.25 506.35 206.7 508 203.2
L 504.05 225.95
Q 500.4 248.35 502.1 246.75 503.75 245.15 507 238.35
L 509.9 231.8 508.1 247.8
Q 506.1 264.85 504.85 270.1 503.65 275.3 507.55 273.9 509.5 273.2 511.7 271.45
L 510.6 277.25
Q 509.4 284 508.95 289.05 507.55 305.3 514.15 298.5 518 294.6 521.7 286.95 525.25 279.7 528 270.55 530.75 261.5 532.2 252.65 533.65 243.4 533.35 236.4 535.7 246.95 537.4 250.95 539 254.75 540.65 254 541.5 253.6 541.8 246.45 542.1 238.55 541.25 228.15 538.9 199.35 529.8 175.5 524.8 162.25 517.55 150.5 511.85 141.3 505.1 133.4 509.05 135.35 514.25 139.85 519.9 144.75 521.6 145.7 525.15 147.8 523.5 143 523 141.5 522 139.5
L 521.15 137.8 531.8 149.2
Q 543.1 160.95 546.05 162.7 549 164.45 550.9 155.35 551.5 152.5 551.9 148.9
L 552.15 145.9 556.8 154.85
Q 562.1 165.3 565.55 172.95 569.05 180.6 573.1 176.95 575.15 175.1 576.5 171.75
L 583.45 184.3
Q 591.05 197.45 594.25 200.1 597.5 202.8 599.3 199.75 600.2 198.2 600.45 196.1 600.2 199.7 605.6 212.55 607.85 217.95 609.95 221.8 612.1 226 613.15 226.6 614.95 227.65 616.4 220.2 616.9 217.9 617.3 215
L 617.55 212.6 618.85 221.5
Q 620.55 231.15 622.45 234.65 624.35 238.15 626.15 233.3 626.75 231.8 627.25 229.6
L 627.6 227.75 629.85 237.9
Q 632.2 248.7 632.6 252.1 632.95 255.55 636.95 251.5 638.95 249.5 640.85 246.8
L 641.15 250.7
Q 641.55 255.5 642.1 259.65 643.9 272.85 646.7 274.7 653.55 266.9 653.2 251.1 653.1 246.2 652.25 241.05
L 651.45 236.9 652.4 237.6
Q 653.5 238.25 654.3 237.8 656.7 236.35 654.75 224.8 652.7 213 650.6 208.75
L 651.8 210.15 652.2 210.05
Q 652.65 209.95 652.95 209.6 653.9 208.45 653.05 205.55 650.35 196.25 630.55 172.7 609.7 147.9 579.55 135.4 556.95 126 530.85 124.1 536 123.5 540.15 123.5 544.6 123.55 547.3 124.3 553.6 126.05 548.7 119.05 547.15 116.9 544.7 114.1
L 542.5 111.75 552.25 115.5
Q 563.2 119.9 569.3 123.2 575.35 126.5 575.25 122.75 575.2 121.6 574.55 119.85
L 573.9 118.35 589.85 125
Q 606.7 132.05 611.05 134.15 615.45 136.3 611.15 128.4 609.8 125.95 607.75 122.75
L 605.95 120.1 618.95 130.55
Q 632.7 141.2 636.35 141.95 639.95 142.75 634 131.4 632.15 127.85 629.55 123.55
L 627.3 119.9 627.2 119.45
Q 627.35 119.15 628.8 119.95 633.45 122.4 649.2 134.7 Z"/>
</g>

<g id="Layer0_8_FILL">
<path fill="#E7F1F7" stroke="none" d="
M 230.65 532.1
Q 261.3 529.15 261.3 525 261.3 520.9 230.65 517.95 200.05 515.05 156.65 515.05 113.3 515.05 82.65 517.95 52.05 520.9 52.05 525 52.05 529.15 82.65 532.1 113.3 534.95 156.65 534.95 200.05 534.95 230.65 532.1 Z"/>
</g>

<g id="Layer0_9_FILL">
<path fill="#7E5341" stroke="none" d="
M 234.2 403.55
Q 234.3 403.45 234.4 403 234.4 401.25 234.2 403.55 Z"/>
</g>

<g id="Layer0_9_MEMBER_0_FILL">
<path fill="#7E5341" stroke="none" d="
M 298.45 492.4
Q 297.2 493.1 296.65 493.15 294.3 497.5 293.65 500.45 292.95 503.4 292.95 504.75 292.9 506.05 293.4 507.7 293.9 509.3 295.9 509.1 297.85 508.9 298.55 508.45 299.2 507.95 299.7 507 300.15 506 300.25 505.45 300.4 505.2 300.8 504.65 301.2 504 301.95 503.95 302.7 503.85 302.9 502.4 303.05 500.95 303.3 499.15 303.5 497.35 303.2 494.3 303.1 493.45 303.1 492.85 302.4 493.25 301.05 492.5 299.65 491.7 298.45 492.4 Z"/>
</g>

<g id="Layer0_9_MEMBER_1_FILL">
<path fill="#333333" stroke="none" d="
M 332.35 370.9
L 326.75 369.45
Q 325.95 371.1 325.3 373.05 324.55 375.35 324.75 375.95 325.05 377.05 326.35 377.75 327.45 378.35 328.75 378.5 330.45 378.6 332 377.8 333.55 377 333.6 375.95 333.65 375.65 333.4 375.25 333.05 374.5 332.9 374.15 332.25 372.5 332.35 370.9 Z"/>
</g>

<g id="Layer0_9_MEMBER_2_FILL">
<path fill="#333333" stroke="none" d="
M 832.9 508.75
L 832.3 510.85
Q 831.5 511.15 829.25 511.8 827 512.4 824.25 512.9 822.504296875 513.2513671875 822.6 513.95 822.6875 514.6458984375 824.45 514.9 826.2587890625 515.1990234375 830.6 514.45 834.9958984375 513.758203125 838.35 513.65
L 838.35 507.7 832.9 508.75 Z"/>
</g>

<g id="Layer0_9_MEMBER_3_FILL">
<path fill="#255C92" stroke="none" d="
M 357.85 234.1
L 354 246.5 374.75 370.25
Q 376.85 371.2 379.2 371.05 381.2 370.95 382.85 370.05 382.4 324.75 379.95 280.95 378.65 257.75 376.7 233.35
L 357.85 234.1 Z"/>
</g>

<g id="Layer0_9_MEMBER_4_FILL">
<path fill="#255C92" stroke="none" d="
M 361.85 234.1
L 335.8 232.6
Q 333.95 249.55 332.55 264.3 327.55 317.2 325.45 370.65 327.15 372.05 329.25 372.45 331.8 372.9 333.95 371.9
L 361.85 234.1 Z"/>
</g>

<g id="Layer0_9_MEMBER_5_FILL">
<path fill="#FFFFFF" stroke="none" d="
M 848.05 357.9
Q 841.95 359.15 836.1 361.75 833.15 381.3 832.25 401.05 831.75 411.45 831.9 422.95 840.85 427.7611328125 849.05 427.3 857.3 426.8888671875 864.85 423.5 866.8 403.3 868.95 384.75 871 367.35 872.15 358.15 859.8 355.5 848.05 357.9 Z"/>
</g>

<g id="Layer0_9_MEMBER_6_FILL">
<path fill="#7E5341" stroke="none" d="
M 345.2 135.1
L 344.8 138.95
Q 343.95 144.8 341.85 150.45
L 354.4 157.35 359.9 154.4
Q 359.45 151 359.5 148 359.65 143.4 360.65 139.6
L 345.2 135.1 Z"/>
</g>

<g id="Layer0_9_MEMBER_7_FILL">
<path fill="#000000" fill-opacity="0.2" stroke="none" d="
M 311.9 228.65
L 286.3 236.1
Q 287.7 241.45 288.15 247.65 303.3 262.25 313.9 244.5 313.5 241.35 312.55 235.05
L 311.9 228.65 Z"/>
</g>

<g id="Layer0_9_MEMBER_8_FILL">
<path fill="#7E5341" stroke="none" d="
M 686.15 444.15
Q 685.5 441.2 683.15 436.85 682.6 436.8 681.35 436.1 680.15 435.4 678.75 436.2 677.4 436.95 676.7 436.55 676.7 437.15 676.6 438 676.3 441.05 676.5 442.85 676.75 444.65 676.9 446.1 677.1 447.55 677.85 447.65 678.6 447.7 679 448.35 679.4 448.9 679.55 449.15 679.65 449.7 680.1 450.7 680.6 451.65 681.25 452.15 681.95 452.6 683.9 452.8 685.9 453 686.4 451.4 686.9 449.75 686.85 448.45 686.85 447.1 686.15 444.15 Z"/>

<path fill="#FFC4AB" stroke="none" d="
M 675.6 437.65
Q 675.65 437.85 675.7 437.9 675.6 436.9 675.6 437.65 Z"/>
</g>

<g id="Layer0_9_MEMBER_9_FILL">
<path fill="#FFFFFF" stroke="none" d="
M 335.9 170.55
Q 334.9 164.9 331.9 159.85 329.1 155.15 325 151.65 317.8 171.8 314.95 192.5 312.05 212.95 313.35 233.7 316.95 235.45 320.95 235.5 324.2 235.55 327.45 234.4 326.45 216.35 329.15 198.55 331.35 184.35 335.9 170.55 Z"/>
</g>

<g id="Layer0_9_MEMBER_10_FILL">
<path fill="#1F191A" stroke="none" d="
M 664.65 344.5
Q 663.351953125 341.6515625 660.6 339.65 656.85 336.8 652.7 337 649.5 337.15 646.8 339.15 644.1 341.2 642.75 344.45 642.25 348.8 643.35 352.95 643.85 354.9 644.8 357.05
L 662.8 356.65 663.35 354.1
Q 664.4 349.35 664.65 344.5 Z"/>
</g>

<g id="Layer0_9_MEMBER_11_FILL">
<path fill="#7E5341" stroke="none" d="
M 656.7 342.25
Q 653.14765625 341.567578125 649.75 342.3 646.3505859375 343.044140625 644.3 346.1
L 645.15 363.55
Q 646.7 365.55 648.45 366.8 651.05 368.65 654.15 369.45 656.35 368.65 658.5 367.05 661 365.15 662.7 362.5
L 662.7 345.75
Q 660.2529296875 342.9265625 656.7 342.25 Z"/>
</g>

<g id="Layer0_9_MEMBER_12_FILL">
<path fill="#7E5341" stroke="none" d="
M 343.7 128.05
Q 343.45 126.05 341.75 125.3 340.7 124.9 339.55 125.3 338.45 125.7 337.9 126.55 337 127.95 337.95 129.9 338.85 131.9 340.65 132.5 342.1 133 343.7 132.35
L 343.7 128.05 Z"/>
</g>

<g id="Layer0_9_MEMBER_13_FILL">
<path fill="#7E5341" stroke="none" d="
M 368.25 126.45
Q 367.1 125.95 366 126.35 364.3 126.9 363.9 128.95
L 363.65 133.25
Q 365.25 134 366.7 133.6 368.5 133.05 369.55 131.15 370.6 129.2 369.8 127.8 369.3 126.9 368.25 126.45 Z"/>
</g>

<g id="Layer0_9_MEMBER_14_FILL">
<path fill="#FFFFFF" stroke="none" d="
M 307.9 457.9
Q 303.8 477.65 299.35 491.2 300.9 493.25 303.45 494.15 306.25 495.15 308.9 494.35
L 321.55 447.55 325.2 432.4 316.85 434.9
Q 311.30625 441.2892578125 307.9 457.9 Z"/>
</g>

<g id="Layer0_9_MEMBER_15_FILL">
<path fill="#97C9EE" stroke="none" d="
M 295 262.4
L 292.85 268.05 296.15 269.65 295 262.4
M 302.3 261.95
L 299.55 269.2 303.95 266.85 302.3 261.95 Z"/>
</g>

<g id="Layer0_9_MEMBER_16_FILL">
<path fill="#0B3A68" stroke="none" d="
M 288.8 271.5
L 293.1 276.35 275.9 355.5 283.6 374.85 298.1 357.2 300.45 275.65 306.9 270.6 304.3 266.35 296.6 268 291 266.55 288.8 271.5 Z"/>
</g>

<g id="Layer0_9_MEMBER_17_FILL">
<path fill="#E9F5FF" stroke="none" d="
M 355.5 151.7
L 358.35 159.15 362.8 152.5 359.65 147.05 355.5 151.7 Z"/>
</g>

<g id="Layer0_9_MEMBER_18_FILL">
<path fill="#E9F5FF" stroke="none" d="
M 349.65 159.5
L 352 151.7 343.4 145.15 339.5 149.6 349.65 159.5 Z"/>
</g>

<g id="Layer0_10_FILL">
<path fill="#E7F1F7" stroke="none" d="
M 261.3 525
Q 261.3 520.9 230.65 517.95 200.05 515.05 156.65 515.05 113.3 515.05 82.65 517.95 52.05 520.9 52.05 525 52.05 529.15 82.65 532.1 113.3 534.95 156.65 534.95 200.05 534.95 230.65 532.1 261.3 529.15 261.3 525 Z"/>
</g>

<g id="Layer0_11_FILL">
<path fill="#255C92" stroke="none" d="
M 240.9 576.55
Q 235.65 581.9 235.65 589.5
L 235.65 604.9
Q 235.65 612.5 240.9 617.85 246.15 623.2 253.65 623.2
L 569 623.2
Q 571.8884765625 619.3501953125 569 615.5
L 564.4 615.5 397.3 615.5
Q 389.85 615.5 384.6 610.15 379.3 604.75 379.3 597.2 379.3 589.6 384.6 584.25 389.85 578.9 397.3 578.9
L 564.9 578.9 569 578.9
Q 571.971875 575.025 569 571.15
L 253.65 571.15
Q 246.15 571.15 240.9 576.55 Z"/>

<path fill="#DDEDFF" stroke="none" d="
M 397.3 578.9
Q 389.85 578.9 384.6 584.25 379.3 589.6 379.3 597.2 379.3 604.75 384.6 610.15 389.85 615.5 397.3 615.5
L 564.4 615.5
Q 562.934375 606.6748046875 562.85 596.55 562.765625 586.4751953125 564.9 578.9
L 397.3 578.9 Z"/>
</g>

<g id="Layer0_12_MEMBER_0_FILL">
<path fill="#FFC4AB" stroke="none" d="
M 311.15 262.9
Q 309.8 263.2 307.45 267.45
L 305.4 271.6
Q 297.4 276.2 285.4 284.05 276.75 289.65 269.85 294.35 264.35 298.2 236 299 225.05 299.35 211.95 299.15
L 201 298.9
Q 197.85 300.1 196 303.75 194.2 307.45 194.8 311.6 195.50234375 316.1537109375 199.2 319.35 202.89296875 322.588671875 201.85 320.35 200.801953125 318.16640625 212.5 318.75 224.2083984375 319.3236328125 236.95 317.8 249.6890625 316.2849609375 262 313.15 274.3037109375 310.0552734375 278.3 307.45 283.2 304.35 293.85 294.35 304.25 284.5 311.55 276.2
L 311.55 276.1 311.65 276
Q 312.55 275.05 313.6 274.05 315.35 272.5 316.65 272 318.25 271.45 320.25 268 322.15 264.7 321.85 263.7 321.6 262.9 317.15 262.65 312.9 262.4 311.15 262.9 Z"/>
</g>

<g id="Layer0_12_MEMBER_1_FILL">
<path fill="#0B3A68" stroke="none" d="
M 281.45 429.35
Q 278.4 427.15 250.75 418.65 228.75 411.9 199.95 404.8
L 175.7 399.2
Q 174.5 401.6 172.75 405.6 169.65 413.45 168.35 420.95 164.35 444.8 176.6 452.6 188.85 460.3 196.5 456.8 204.05 453.3 219.5 455 234.95 456.7 247.35 456.5 256.1162109375 456.288671875 263.6 455.65 263.1888671875 457.4291015625 262.6 459.25 258.35 472.2 258.6 492.9 258.95 513.5 259.5 528.25 265.3818359375 531.1205078125 269.35 528.25 270.85 520.8 279.95 495.75 288.8484375 471.05625 292.05 453.9 295.254296875 436.7810546875 281.45 429.35 Z"/>
</g>

<g id="Layer0_12_MEMBER_2_FILL">
<path fill="#000000" stroke="none" d="
M 292.35 532.9
Q 289.6 532.3 287.8 531.6 284.4 530.4 281.9 528.15 280.5 526.85 275.75 523.7
L 271.2 520.75 271.15 520.75
Q 270.4 520.75 266.2 524.3 264.95 525.35 262.75 523.75
L 260.8 521.9
Q 260.65 522.05 260.45 522.3 260 522.8 259.7 523.4 258.95 524.95 259.25 526.6 259.6 528.8 257.75 534.25 257.3 535.65 256.9 536.65
L 257.3 537.3
Q 257.926171875 537.787109375 259.4 538.1 259.4265625 538.35859375 259.45 538.6 260.1212890625 538.2546875 260.2 538.25 260.5216796875 538.306640625 260.85 538.35
L 265.65 538.35
Q 266.2802734375 538.234375 264.65 538.15 272.000390625 537.9939453125 265.65 538.35
L 294.75 538.35
Q 295.35 537.5 294.3 534.65 293.75 533.3 292.35 532.9 Z"/>
</g>

<g id="Layer0_12_MEMBER_3_FILL">
<path fill="#0B3A68" stroke="none" d="
M 214.25 426.85
Q 216.7 419.7 218.85 413.1
L 220.55 407.9 194.25 399 168.85 399
Q 155.4 452.9 154.9 456.7 152.8 471.85 151.15 490.25 151.1 491.3 150.4 501.25 149.7 511.2 140 527.8 130.3 544.4 127.3 565.4 124.3 586.4 125 599.3 125.35 605.75 125.9 609.65
L 132.45 611.45
Q 138.95 593.05 146.8 573.2 162.55 533.55 169.25 526.4 177.3 517.85 188.7 492.9 191.2 487.3 194 480.7 203.9 457.1 214.25 426.85 Z"/>
</g>

<g id="Layer0_12_MEMBER_4_FILL">
<path fill="#000000" stroke="none" d="
M 156.7 615.1
Q 154 614.45 152.15 613.8 148.75 612.55 146.25 610.3 144.9 609.05 135.55 602.95
L 135.5 602.9
Q 134.8 602.9 130.55 606.45 129.35 607.5 127.15 605.9
L 125.2 604.1
Q 125 604.2 124.8 604.5 124.35 604.95 124.05 605.6 123.3 607 123.6 608.75 123.95 610.95 122.15 616.4
L 121.25 618.8 121.65 619.45
Q 122.6 620.2 125.2 620.5 127.61875 620.5044921875 130.05 620.5
L 159.1 620.55
Q 159.75 619.65 158.65 616.85 158.15 615.45 156.7 615.1 Z"/>
</g>

<g id="Layer0_12_MEMBER_5_FILL">
<path fill="#FFC4AB" stroke="none" d="
M 146.7 352.35
Q 137.6 371.2 131.65 383.65 128.3 391.4 132.3 393.55 136.6 397.4 141.3 400.4 145.95 403.4 160.15 409.45 174.3 415.5 186.15 419.15
L 186.2 419.15 186.4 419.2
Q 187.252734375 419.4716796875 188 419.75
L 188 419.8
Q 192.05 423.6 193.6 425.9 195.55 428.7 200.9 429.45 206.35 430.15 208.2 428.4 210.05 426.65 211.65 421.55 213.25 416.45 207.2 414.05 201.15 411.55 194.45 411 191.1 410.65 188.05 410.75
L 188 410.75 188 410.7
Q 179.56015625 404.6744140625 166.05 396 160.45 392.4 155.5 389.3 151.75 386.95 148.35 384.85 149.45 383.25 150.7 381.45 160.95 366.35 168.35 354.6 175.7 342.85 180.05 335.85 184.35 328.85 185.25 329.3 186.1 329.75 184.3 323.85 182.85 318.7 178.5 315.9 174.6 313.4 170 313.55 165.4 313.7 162.7 316.45
L 157.9 327.75
Q 152.05 341.25 146.7 352.35 Z"/>
</g>

<g id="Layer0_12_MEMBER_6_FILL">
<path fill="#1F3765" stroke="none" d="
M 1623.1 355.9
Q 1624.05 351.6 1631.7 347.95 1635.5 346.1 1639.1 345.1 1620.35 348.55 1613.85 360.05 1610.45 366.2 1611.1 372.25 1594.05 366.2 1579.25 389.4 1574.6 396.7 1570.8 406 1568.85 410.65 1567.85 413.85
L 1638.4 455.4
Q 1638.45 452.6 1639.35 449.85 1641.15 444.35 1645.35 444.8 1649.3 445.25 1652.55 441.1 1655.8 436.95 1656.95 430.1 1659.8 413.25 1649 397.45 1646.6 394 1643.9 390.9 1647.7 391 1650.15 389.95 1653.55 388.55 1655.55 379.65 1657.35 371.75 1656.65 367.4 1655.9 362.7 1651.5 356.3 1646.15 348.65 1640.45 347.75 1635.1 346.9 1628.55 351.3
L 1623.1 355.9 Z"/>
</g>

<g id="Layer0_12_MEMBER_7_FILL">
<path fill="#FFC4AB" stroke="none" d="
M 1602 461.95
Q 1603.4 464.05 1605.7 467.95 1613.25 480.5 1615.55 490.65 1617.7 499.85 1615.9 501.6 1615.8 501.75 1619.45 503.3 1623.9 505.1 1628.6 506.25 1643.35 509.85 1653.45 505.1 1668.8 497.7 1664.5 487.6 1663.15 484.45 1660 481.4 1657.25 478.85 1657.05 479.05 1654.4 479.35 1645.7 466.1 1642.4 460.9 1638.5 454.25
L 1635.3 448.65 1602 461.95 Z"/>
</g>

<g id="Layer0_12_MEMBER_8_FILL">
<path fill="#000000" fill-opacity="0.09803921568627451" stroke="none" d="
M 1605.7 467.95
Q 1613.25 480.5 1615.55 490.65 1625.6 485.75 1630.8 472.65 1634.45 463.45 1635.3 451.8
L 1605.7 467.95 Z"/>
</g>

<g id="Layer0_12_MEMBER_9_FILL">
<path fill="#FFC4AB" stroke="none" d="
M 1611.4 402.05
Q 1605.15 400.65 1595.6 404 1577.75 410.15 1572 419.1 1568 425.25 1569.4 434.3 1569.95 437.9 1573.85 446 1577.9 454.4 1583.05 462.35 1596.6 483.15 1603.9 480.75
L 1610.15 477.85
Q 1617.5 474 1623.05 469.5 1640.9 455.1 1634.4 439.25 1629.7 426.95 1627.65 421.75 1624.15 412.8 1621.05 408.65 1617.05 403.3 1611.4 402.05 Z"/>
</g>

<g id="Layer0_12_MEMBER_10_FILL">
<path fill="#1F3765" stroke="none" d="
M 1601.35 429.65
Q 1611.45 434.6 1619.15 433.45 1630.95 431.8 1638.45 427.3 1642.2 425.05 1643.55 423.15 1639.2 421.9 1633.6 418.5 1622.35 411.75 1615.95 401.1 1610.65 399.3 1603.35 399.05 1588.8 398.45 1578.95 405.95 1577.45 407.95 1576.95 410.35 1573.5 409.25 1570.7 410.75 1566.9 412.85 1564.8 419.7 1561.85 429.25 1569 441.45 1572.6 447.55 1576.8 451.75 1579.25 451.05 1578 443 1576 433.3 1575.65 429.65 1575.15 423.45 1579.65 414.15 1585.7 422.05 1594.4 429.1 1610.55 442.2 1625.95 442.85 1622.75 441.75 1618.05 439.55 1608.65 435.1 1601.35 429.65 Z"/>
</g>

<g id="Layer0_12_MEMBER_11_FILL">
<path fill="#6CB0E1" stroke="none" d="
M 155.85 305.4
Q 150.7 308.8 145.35 312.55 134.55 320.1 133.4 322.05 132.25 324 127.85 332.4
L 123.7 340.5 124.5 342.5
Q 125.85 344.95 128.4 347.05 136.6 353.75 153.95 354.45 157.7494140625 363.7453125 161.2 372.05 164.6990234375 380.3576171875 164.65 393.55 164.5958984375 406.803125 164.25 410.6 163.953125 414.4419921875 179.95 415.6 196.001953125 416.8029296875 205.85 415.6 214.15 414.65 218 413.75 223.394921875 412.5056640625 223.95 410.55 224.56484375 408.6333984375 224.2 409.5 223.876953125 410.409375 221.25 398.8 218.636328125 387.20078125 216.15 374.7 213.703515625 362.1947265625 216.8 357.75 225.6232421875 345.04609375 214.5 329.85 220.45 324.65 221.6 316.6 222.45 310.5 221.6 305
L 221.6 298.15
Q 218.0158203125 296.8822265625 211.9 297.15 205.7841796875 297.4677734375 199.05 295.9
L 188.75 293.85 177.8 293.85 178.1 295.05
Q 178.4 296.6 178.2 298.1 177.65 303.05 172.75 306.1 167.9 309.15 161.75 307.3 159.85 306.75 158.05 305.75
L 156.6 304.85 155.85 305.4 Z"/>
</g>

<g id="Layer0_13_MEMBER_0_MEMBER_0_FILL">
<path fill="#000000" stroke="none" d="
M 2332.9 913.55
L 2310.75 918.75 2310 928.05
Q 2309.35 938.8 2309.75 946.1 2310.3 955.75 2307.05 962.95 2303.4 971.1 2296.1 972.7 2289.55 974.15 2289.1 978.5 2288.9 980.65 2289.95 982.55
L 2317.9 982.55
Q 2322.6 982.55 2326.5 978.3 2330.7 973.65 2331.9 965.95 2332.8 960.1 2339.65 952.5 2347 944.4 2348.15 940.55 2349.8 935.05 2343.8 926.7
L 2332.9 913.55 Z"/>
</g>

<g id="Layer0_13_MEMBER_0_MEMBER_1_FILL">
<path fill="#000000" stroke="none" d="
M 2144.1 947.25
L 2143.7 948.7
Q 2140.7 958.7 2128.2 965.4 2118.8 970.45 2107.3 972.3 2100.7 973.35 2097.5 977.35 2095.6 979.75 2095.3 982.55
L 2158.45 982.55
Q 2169.1 982.05 2171.1 981.1 2174.3 979.5 2174.6 968.75 2174.75 962.2 2173.9 953.85
L 2173.7 952.1
Q 2167.2 946.9 2160.25 943.7 2146.35 937.3 2144.1 947.25 Z"/>
</g>

<g id="Layer0_13_MEMBER_0_MEMBER_2_FILL">
<path fill="#255C92" stroke="none" d="
M 452 274
L 410.5 276.55 415 333.4
Q 422.2 424.75 422.7 437.2 423.15 447.85 424.65 465.75 425.45 474.7 426.1 481.5
L 427.3 482.45
Q 428.95 483.6 430.95 484.4 437.45 486.95 445.55 485.25 448.394921875 475.5525390625 450.85 403.9 451.4501953125 386.50546875 452.1 372
L 452 372 452 274 Z"/>
</g>

<g id="Layer0_13_MEMBER_0_MEMBER_3_FILL">
<path fill="#000000" fill-opacity="0.09803921568627451" stroke="none" d="
M 468.35 273
L 410.5 276.55 415 333.4 451.3 389.7
Q 452.6560546875 318.5908203125 465.6 322.35
L 468.35 273 Z"/>
</g>

<g id="Layer0_13_MEMBER_0_MEMBER_4_FILL">
<path fill="#255C92" stroke="none" d="
M 410.2 280.35
L 410.2 283
Q 426.198046875 318.83046875 445.5 354.75 464.8015625 390.714453125 480.95 417.6 497.1494140625 444.5451171875 507.1 461.7 512.1 470.25 514 473.35
L 521.2 470.05
Q 528.55 466.25 529.35 463.9 523.53046875 445.24921875 513.6 416.9 503.7208984375 388.557421875 499.1 372.35 494.5193359375 356.136328125 488.85 332.7 483.2455078125 309.255078125 482.85 299.3 482.55 291.65 481 276.45
L 479.55 262.75 410.2 280.35 Z"/>
</g>

<g id="Layer0_13_MEMBER_1_MEMBER_0_FILL">
<path fill="#FFC4AB" stroke="none" d="
M 1881 486.45
Q 1886.3 486.75 1897.25 481.85 1902.75 479.4 1908.05 476.75 1915.75 476.1 1912.95 469.7 1912.1 467.7 1910.25 465.4
L 1908.6 463.45
Q 1889.3 459.05 1886.05 459.25 1883.65 459.45 1877.45 461.95 1871.35 464.45 1871.25 465.15 1871 466.8 1873.6 467 1873.9 467 1878.5 466.75 1881.9 466.6 1881.65 467.05 1876.65 468.55 1871.9 470.05 1862.45 473 1862.35 475.25 1862.2 478.2 1868.35 482.1 1874.75 486.15 1881 486.45 Z"/>
</g>

<g id="Layer0_13_MEMBER_1_MEMBER_1_FILL">
<path fill="#FFFFFF" stroke="none" d="
M 396.9 165.85
Q 383.6529296875 173.407421875 361.5 178.75 339.348828125 184.0974609375 292.95 189.15
L 292.65 190
Q 292.25 191.5 292 194.55 291.8 196.9 293.95 202.8 308.97578125 207.16328125 323.4 206.55 337.82421875 205.9314453125 346.3 204.4 354.8298828125 202.9298828125 387.2 196.5 419.6056640625 190.05390625 440 184.55
L 406.1 158.45
Q 406.0884765625 160.672265625 396.9 165.85 Z"/>
</g>

<g id="Layer0_13_MEMBER_2_FILL">
<path fill="#FFC4AB" stroke="none" d="
M 2029.65 284
L 2032.25 287.95
Q 2035.75 293.1 2040.2 298.8 2043.9 303.5 2047.65 307.95 2043.35 315.35 2041 326.85 2039.85 332.6 2039.55 336.9 2057.35 332.75 2078.95 305.5 2089.8 291.85 2097.05 279.05 2091.45 278.45 2083.55 275.2 2067.7 268.65 2056.05 255.25 2050.1 248.3 2045.85 240.5
L 2029.65 284 Z"/>
</g>

<g id="Layer0_13_MEMBER_3_FILL">
<path fill="#000000" fill-opacity="0.09803921568627451" stroke="none" d="
M 2056.05 255.25
Q 2054.45 255.2 2051.55 255.5 2045.75 256.15 2039.3 258.1
L 2029.65 284 2032.25 287.95
Q 2035.75 293.1 2040.2 298.8 2052.25 287.6 2055.35 270.3 2056.35 264.9 2056.3 259.55
L 2056.05 255.25 Z"/>
</g>

<g id="Layer0_13_MEMBER_4_FILL">
<path fill="#FFFFFF" stroke="none" d="
M 430.05 123.65
L 428.95 127.75
Q 427.45 132.8 425.45 137.35 419.1 151.85 410.15 156
L 410.1 156.1
Q 408.35 162.4 410.05 170 411.75 177.6 416.15 186.3 420.55 195 424.8 204.8 429.05 214.6 436.2 227.05 443.3 239.5 443.95 257.2 444.55 274.9 443.65 276.3 442.7 277.65 441.9 286.55 441.6 289.8 452.25 288.9 462.1 288 476.6 284.05 491.45 280.05 502.85 275.1 515.6 269.5 518.7 265.15 521.75 260.8 516.75 240.1 496.37734375 151.2662109375 430.05 123.65 Z"/>
</g>

<g id="Layer0_13_MEMBER_5_FILL">
<path fill="#000000" fill-opacity="0.047058823529411764" stroke="none" d="
M 418.65 184.9
Q 417.25 185.5 414.6 187.9 409.3 192.7 403.2 201.85 401.45 204.45 400 209.85 398.55 215.25 406.2 228.35 413.8 241.4 415.5 256.6 417.2 271.6 415.8 274.3 425.65 257.05 423.4 219.25 422.7 207.45 420.6 195
L 418.65 184.9 Z"/>
</g>

<g id="Layer0_13_MEMBER_6_MEMBER_0_FILL">
<path fill="#FFC4AB" stroke="none" d="
M 1881 486.45
Q 1886.3 486.75 1897.25 481.85 1902.75 479.4 1908.05 476.75 1915.75 476.1 1912.95 469.7 1912.1 467.7 1910.25 465.4
L 1908.6 463.45
Q 1889.3 459.05 1886.05 459.25 1883.65 459.45 1877.45 461.95 1871.35 464.45 1871.25 465.15 1871 466.8 1873.6 467 1873.9 467 1878.5 466.75 1881.9 466.6 1881.65 467.05 1876.65 468.55 1871.9 470.05 1862.45 473 1862.35 475.25 1862.2 478.2 1868.35 482.1 1874.75 486.15 1881 486.45 Z"/>
</g>

<g id="Layer0_13_MEMBER_6_MEMBER_1_FILL">
<path fill="#FFFFFF" stroke="none" d="
M 387.85 165.6
L 383.65 181.75
Q 374.59609375 216.7533203125 372.3 219.15 370.00390625 221.5466796875 324.35 257.55
L 323.7 259.1
Q 323.4 261.2 325.1 263.95 326.4 266.1 328.5 267.85 329.55 268.7 330.3 269.15
L 337.85 265.95
Q 347.1 261.95 355.45 257.95 382.4 245.05 391.15 236.6 395.303125 232.603125 404.85 213.55 414.390625 194.490625 418.15 179.2 421.9638671875 163.9533203125 422.35 161.15 422.77734375 158.408984375 422.25 152.35 421.7318359375 146.3376953125 417.2 143.4 412.70625 140.504296875 405.35 141.9 397.7 143.35 392 154.6 390.25 158.1 388.85 162.2 388.2 164.25 387.85 165.6 Z"/>
</g>

<g id="Layer0_13_MEMBER_7_FILL">
<path fill="#FFC4AB" stroke="none" d="
M 2040.45 211.5
Q 2036.2 205.75 2030.25 204.45 2023.65 202.95 2013.5 206.45 1994.6 212.9 1988.4 222.35 1984.15 228.85 1985.6 238.45 1986.2 242.25 1990.3 250.85 1994.55 259.75 2000 268.2 2014.25 290.25 2021.95 287.8
L 2028.55 284.75
Q 2036.4 280.7 2042.3 275.95 2061.3 260.75 2054.45 243.95 2049.55 230.9 2047.4 225.4 2043.7 215.9 2040.45 211.5 Z"/>
</g>

<g id="Layer0_13_MEMBER_8_FILL">
<path fill="#673417" stroke="none" d="
M 2062.05 195.7
L 2060.7 194
Q 2061.2 192.95 2064.05 192.1 2062 191.4 2059.65 191.95 2058.4 188.85 2056.45 186.8 2053.6 183.9 2049.9 183.85
L 2051.65 184.65
Q 2053.55 185.9 2054.3 187.85 2047.75 183.75 2036.15 184.4 2021.7 185.25 1997.25 193.4 1967.4 203.35 1969.1 220.7 1969.7 226.75 1974.1 232.3 1977.8 237 1981.05 238 1984.75 239.15 1995.15 232.75 2007.25 225.3 2012.75 224.4 2019.7 223.25 2026.65 231.05 2028.45 233.05 2031.4 236.8 2033.8 239.7 2035.15 240.1 2037.6 240.85 2038.35 238.95 2039.75 235.65 2041.75 234.05 2044.95 231.5 2047.15 235.95 2049.05 239.75 2048.95 245.15 2048.9 249 2053.4 253.45 2055.7 255.65 2057.95 257.1
L 2063.25 247.3
Q 2067.2 240.15 2066.55 220.25 2065.95 200.6 2062.05 195.7 Z"/>
</g>

<g id="Layer0_13_MEMBER_9_FILL">
<path fill="#FFC4AB" stroke="none" d="
M 345.35 117.6
Q 346.95 124.5 344.75 131.45 346.05 133.6 352.55 133
L 345.35 117.6 Z"/>
</g>

<g id="Layer0_14_FILL">
<path fill="#6CB0E1" stroke="none" d="
M 275.75 545.15
L 275.75 557.15
Q 275.75 563.1 279.9 567.25 284 571.45 289.85 571.45
L 537.45 571.45
Q 539.2388671875 568.26171875 537.45 565.45
L 532.2 565.45 402.05 565.45
Q 396.25 565.45 392.1 561.25 388 557.05 388 551.15 388 545.2 392.1 541.05 396.25 536.85 402.05 536.85
L 532.2 536.85 537.45 536.85
Q 539.0365234375 533.354296875 537.45 530.85
L 289.85 530.85
Q 284 530.85 279.9 535 275.75 539.2 275.75 545.15 Z"/>

<path fill="#E7F2FF" stroke="none" d="
M 532.2 565.45
Q 526.56015625 551.446875 532.2 536.85
L 402.05 536.85
Q 396.25 536.85 392.1 541.05 388 545.2 388 551.15 388 557.05 392.1 561.25 396.25 565.45 402.05 565.45
L 532.2 565.45 Z"/>
</g>

<g id="Layer0_15_FILL">
<path fill="#0B3A68" stroke="none" d="
M 565.65 500.25
Q 567.096875 497.371875 565.65 495.15
L 349.6 495.15
Q 344.5 495.15 340.85 498.85 337.25 502.5 337.25 507.7
L 337.25 518.3
Q 337.25 523.5 340.85 527.2 344.5 530.85 349.6 530.85
L 565.65 530.85
Q 567.29609375 527.9970703125 565.65 525.7 565.6123046875 525.6671875 565.55 525.6
L 560.8 525.6 448.1 525.6
Q 442.95 525.6 439.35 521.9 435.75 518.2 435.75 513 435.75 507.8 439.35 504.1 442.95 500.45 448.1 500.45
L 560.8 500.45 565.55 500.45
Q 565.5998046875 500.3591796875 565.65 500.25 Z"/>

<path fill="#FFFFFF" stroke="none" d="
M 560.8 525.6
Q 556.4154296875 513.2990234375 560.8 500.45
L 448.1 500.45
Q 442.95 500.45 439.35 504.1 435.75 507.8 435.75 513 435.75 518.2 439.35 521.9 442.95 525.6 448.1 525.6
L 560.8 525.6 Z"/>
</g>
</defs>

<g transform="matrix( 1, 0, 0, 1, 0,0) ">
<use xlink:href="#Layer0_0_FILL"/>
</g>

<g transform="matrix( 1, 0, 0, 1, -910.2,-236.05) ">
<use xlink:href="#Layer0_1_FILL"/>
</g>

<g transform="matrix( 1.297576904296875, 0, 0, 1.297576904296875, -931.6,-429.65) ">
<use xlink:href="#Layer0_1_MEMBER_0_FILL"/>
</g>

<g transform="matrix( 1, 0, 0.0282745361328125, 1, 975.7,-36.25) ">
<use xlink:href="#Layer0_2_FILL"/>
</g>

<g transform="matrix( 1.258697509765625, 0, 0.03558349609375, 1.258697509765625, 1042.35,-174.55) ">
<use xlink:href="#Layer0_2_MEMBER_0_FILL"/>
</g>

<g transform="matrix( -1.367279052734375, 0, 0.053192138671875, 1.8816375732421875, 1509.3,-130.15) ">
<use xlink:href="#Layer0_2_MEMBER_1_FILL"/>
</g>

<g transform="matrix( 2.00592041015625, 0, 0.05670166015625, 2.00592041015625, 937.3,-450.45) ">
<use xlink:href="#Layer0_2_MEMBER_2_FILL"/>
</g>

<g transform="matrix( -1.367279052734375, 0, 0.0386505126953125, 1.367279052734375, 1540,61.7) ">
<use xlink:href="#Layer0_2_MEMBER_3_FILL"/>
</g>

<g transform="matrix( 1, 0, -0.1123046875, 1, 1036.7,-35.75) ">
<use xlink:href="#Layer0_2_MEMBER_4_FILL"/>
</g>

<g transform="matrix( -1.367279052734375, 0, 0.0386505126953125, 1.367279052734375, 1540,61.7) ">
<use xlink:href="#Layer0_2_MEMBER_5_FILL"/>
</g>

<g transform="matrix( -1.367279052734375, 0, 0.0386505126953125, 1.367279052734375, 1540,61.7) ">
<use xlink:href="#Layer0_2_MEMBER_6_FILL"/>
</g>

<g transform="matrix( -1.367279052734375, 0, 0.0386505126953125, 1.367279052734375, 1540,61.7) ">
<use xlink:href="#Layer0_2_MEMBER_7_FILL"/>
</g>

<g transform="matrix( -1.367279052734375, 0, 0.0386505126953125, 1.367279052734375, 1540,61.7) ">
<use xlink:href="#Layer0_2_MEMBER_8_FILL"/>
</g>

<g transform="matrix( -1.367279052734375, 0, 0.0386505126953125, 1.367279052734375, 1540,61.7) ">
<use xlink:href="#Layer0_2_MEMBER_9_FILL"/>
</g>

<g transform="matrix( -1.367279052734375, 0, 0.0386505126953125, 1.367279052734375, 1540,61.7) ">
<use xlink:href="#Layer0_2_MEMBER_10_FILL"/>
</g>

<g transform="matrix( -1.367279052734375, 0, 0.0386505126953125, 1.367279052734375, 1540,61.7) ">
<use xlink:href="#Layer0_2_MEMBER_11_FILL"/>
</g>

<g transform="matrix( 1.258697509765625, 0, 0.03558349609375, 1.258697509765625, 173.05,161.2) ">
<use xlink:href="#Layer0_2_MEMBER_12_FILL"/>
</g>

<g transform="matrix( -1.367279052734375, 0, 0.0386505126953125, 1.367279052734375, 1540,61.7) ">
<use xlink:href="#Layer0_2_MEMBER_13_FILL"/>
</g>

<g transform="matrix( -1.367279052734375, 0, 0.0386505126953125, 1.367279052734375, 1540,61.7) ">
<use xlink:href="#Layer0_2_MEMBER_14_FILL"/>
</g>

<g transform="matrix( -1.367279052734375, 0, 0.0386505126953125, 1.367279052734375, 1540,61.7) ">
<use xlink:href="#Layer0_2_MEMBER_15_FILL"/>
</g>

<g transform="matrix( -1.367279052734375, 0, 0.0386505126953125, 1.367279052734375, 1540,61.7) ">
<use xlink:href="#Layer0_2_MEMBER_16_FILL"/>
</g>

<g transform="matrix( -1.367279052734375, 0, 0.0386505126953125, 1.367279052734375, 1540,61.7) ">
<use xlink:href="#Layer0_2_MEMBER_17_FILL"/>
</g>

<g transform="matrix( -1.367279052734375, 0, 0.0386505126953125, 1.367279052734375, 1540,61.7) ">
<use xlink:href="#Layer0_2_MEMBER_18_FILL"/>
</g>

<g transform="matrix( -1.367279052734375, 0, 0.0386505126953125, 1.367279052734375, 1540,61.7) ">
<use xlink:href="#Layer0_2_MEMBER_19_FILL"/>
</g>

<g transform="matrix( 0.7720794677734375, 0, 0.021820068359375, 0.7720794677734375, 997.7,108.35) ">
<use xlink:href="#Layer0_2_MEMBER_20_FILL"/>
</g>

<g transform="matrix( 0.812286376953125, -0.219207763671875, 0.2423248291015625, 0.818511962890625, 961,178.6) ">
<use xlink:href="#Layer0_2_MEMBER_21_FILL"/>
</g>

<g transform="matrix( 1.258697509765625, 0, 0.03558349609375, 1.258697509765625, 173.85,161.2) ">
<use xlink:href="#Layer0_2_MEMBER_22_FILL"/>
</g>

<g transform="matrix( -1.3105621337890625, 0.353759765625, 0.391082763671875, 1.320587158203125, 1483.9,-13.8) ">
<use xlink:href="#Layer0_2_MEMBER_23_FILL"/>
</g>

<g transform="matrix( 1.258697509765625, 0, 0.03558349609375, 1.258697509765625, 1042.35,-174.55) ">
<use xlink:href="#Layer0_2_MEMBER_24_FILL"/>
</g>

<g transform="matrix( 1.0721893310546875, -0.6292572021484375, 0.7437286376953125, 1.228057861328125, 239.3,682.4) ">
<use xlink:href="#Layer0_2_MEMBER_25_FILL"/>
</g>

<g transform="matrix( 1.258697509765625, 0, 0.03558349609375, 1.258697509765625, 173.85,161.2) ">
<use xlink:href="#Layer0_2_MEMBER_26_FILL"/>
</g>

<g transform="matrix( 2.1926116943359375, 0, 0, 2.1926116943359375, 928.8,-882.4) ">
<use xlink:href="#Layer0_3_FILL"/>
</g>

<g transform="matrix( -1.5439453125, 0, 0, 1.5439453125, 1213.8,-351.1) ">
<use xlink:href="#Layer0_3_MEMBER_0_FILL"/>
</g>

<g transform="matrix( -1.5439453125, 0, 0, 1.5439453125, 1213.8,-351.1) ">
<use xlink:href="#Layer0_3_MEMBER_1_FILL"/>
</g>

<g transform="matrix( 2.06298828125, 0, 0, 2.06298828125, 943.15,-837.65) ">
<use xlink:href="#Layer0_3_MEMBER_2_FILL"/>
</g>

<g transform="matrix( -1.5439453125, 0, 0, 1.5439453125, 1213.8,-351.1) ">
<use xlink:href="#Layer0_3_MEMBER_3_FILL"/>
</g>

<g transform="matrix( -1.5439453125, 0, 0, 1.5439453125, 1213.8,-351.1) ">
<use xlink:href="#Layer0_3_MEMBER_4_FILL"/>
</g>

<g transform="matrix( -1.5439453125, 0, 0, 1.5439453125, 1213.8,-351.1) ">
<use xlink:href="#Layer0_3_MEMBER_5_FILL"/>
</g>

<g transform="matrix( 2.06298828125, 0, 0, 2.06298828125, 928.8,-850.05) ">
<use xlink:href="#Layer0_3_MEMBER_6_FILL"/>
</g>

<g transform="matrix( -1.5439453125, 0, 0, 1.5439453125, 1213.8,-351.1) ">
<use xlink:href="#Layer0_3_MEMBER_7_FILL"/>
</g>

<g transform="matrix( -1.5439453125, 0, 0, 1.5439453125, 1213.8,-351.1) ">
<use xlink:href="#Layer0_3_MEMBER_8_FILL"/>
</g>

<g transform="matrix( 2.06298828125, 0, 0, 2.06298828125, 943.15,-837.65) ">
<use xlink:href="#Layer0_3_MEMBER_9_FILL"/>
</g>

<g transform="matrix( -1.5439453125, 0, 0, 1.5439453125, 1213.8,-351.1) ">
<use xlink:href="#Layer0_3_MEMBER_10_FILL"/>
</g>

<g transform="matrix( -1.5439453125, 0, 0, 1.5439453125, 1213.8,-351.1) ">
<use xlink:href="#Layer0_3_MEMBER_11_FILL"/>
</g>

<g transform="matrix( -1.5439453125, 0, 0, 1.5439453125, 1213.8,-351.1) ">
<use xlink:href="#Layer0_3_MEMBER_12_FILL"/>
</g>

<g transform="matrix( -1.5439453125, 0, 0, 1.5439453125, 1213.8,-351.1) ">
<use xlink:href="#Layer0_3_MEMBER_13_FILL"/>
</g>

<g transform="matrix( -1.5439453125, 0, 0, 1.5439453125, 1213.8,-351.1) ">
<use xlink:href="#Layer0_3_MEMBER_14_FILL"/>
</g>

<g transform="matrix( -1.5439453125, 0, 0, 1.5439453125, 1213.8,-351.1) ">
<use xlink:href="#Layer0_3_MEMBER_15_FILL"/>
</g>

<g transform="matrix( 2.06298828125, 0, 0, 2.06298828125, 928.8,-850.05) ">
<use xlink:href="#Layer0_3_MEMBER_16_FILL"/>
</g>

<g transform="matrix( 2.06298828125, 0, 0, 2.06298828125, 928.8,-850.05) ">
<use xlink:href="#Layer0_3_MEMBER_17_FILL"/>
</g>

<g transform="matrix( -1.5439453125, 0, 0, 1.5439453125, 1213.8,-351.1) ">
<use xlink:href="#Layer0_3_MEMBER_18_FILL"/>
</g>

<g transform="matrix( 2.192535400390625, 0, 0, 2.192535400390625, 928.8,-882.4) ">
<use xlink:href="#Layer0_3_MEMBER_19_FILL"/>
</g>

<g transform="matrix( -1.5439453125, 0, 0, 1.5439453125, 1213.8,-351.1) ">
<use xlink:href="#Layer0_3_MEMBER_20_FILL"/>
</g>

<g transform="matrix( 1.423309326171875, 0, 0, 1.4221954345703125, 558.25,-162.2) ">
<use xlink:href="#Layer0_4_MEMBER_0_FILL"/>
</g>

<g transform="matrix( 1.423309326171875, 0, 0, 1.4221954345703125, 558.25,-162.2) ">
<use xlink:href="#Layer0_4_MEMBER_1_FILL"/>
</g>

<g transform="matrix( -0.8036346435546875, 0, 0, 0.8030548095703125, 1124.2,-113.85) ">
<use xlink:href="#Layer0_4_MEMBER_2_FILL"/>
</g>

<g transform="matrix( 1.423309326171875, 0, 0, 1.4221954345703125, 558.25,-162.2) ">
<use xlink:href="#Layer0_4_MEMBER_3_FILL"/>
</g>

<g transform="matrix( 1.423309326171875, 0, 0, 1.4221954345703125, 558.25,-162.2) ">
<use xlink:href="#Layer0_4_MEMBER_4_FILL"/>
</g>

<g transform="matrix( 1.423309326171875, 0, 0, 1.4221954345703125, 558.25,-162.2) ">
<use xlink:href="#Layer0_4_MEMBER_5_FILL"/>
</g>

<g transform="matrix( 1.423309326171875, 0, 0, 1.4221954345703125, 558.25,-162.2) ">
<use xlink:href="#Layer0_4_MEMBER_6_FILL"/>
</g>

<g transform="matrix( 1.423309326171875, 0, 0, 1.4221954345703125, 558.25,-162.2) ">
<use xlink:href="#Layer0_4_MEMBER_7_FILL"/>
</g>

<g transform="matrix( 1.423309326171875, 0, 0, 1.4221954345703125, 558.25,-162.2) ">
<use xlink:href="#Layer0_4_MEMBER_8_FILL"/>
</g>

<g transform="matrix( 1.423309326171875, 0, 0, 1.4221954345703125, 558.25,-162.2) ">
<use xlink:href="#Layer0_4_MEMBER_9_FILL"/>
</g>

<g transform="matrix( 1.423309326171875, 0, 0, 1.4221954345703125, 558.25,-162.2) ">
<use xlink:href="#Layer0_4_MEMBER_10_FILL"/>
</g>

<g transform="matrix( 1.423309326171875, 0, 0, 1.4221954345703125, 558.25,-162.2) ">
<use xlink:href="#Layer0_4_MEMBER_11_FILL"/>
</g>

<g transform="matrix( 1.423309326171875, 0, 0, 1.4221954345703125, 558.25,-162.2) ">
<use xlink:href="#Layer0_4_MEMBER_12_FILL"/>
</g>

<g transform="matrix( 1.423309326171875, 0, 0, 1.4221954345703125, 558.25,-162.2) ">
<use xlink:href="#Layer0_4_MEMBER_13_FILL"/>
</g>

<g transform="matrix( 1.423309326171875, 0, 0, 1.4221954345703125, 558.25,-162.2) ">
<use xlink:href="#Layer0_4_MEMBER_14_FILL"/>
</g>

<g transform="matrix( 1.423309326171875, 0, 0, 1.4221954345703125, 558.25,-162.2) ">
<use xlink:href="#Layer0_4_MEMBER_15_FILL"/>
</g>

<g transform="matrix( 1.423309326171875, 0, 0, 1.4221954345703125, 558.25,-162.2) ">
<use xlink:href="#Layer0_4_MEMBER_16_FILL"/>
</g>

<g transform="matrix( 1.423309326171875, 0, 0, 1.4221954345703125, 558.25,-162.2) ">
<use xlink:href="#Layer0_4_MEMBER_17_FILL"/>
</g>

<g transform="matrix( 1.423309326171875, 0, 0, 1.4221954345703125, 558.25,-162.2) ">
<use xlink:href="#Layer0_4_MEMBER_18_FILL"/>
</g>

<g transform="matrix( 1.423309326171875, 0, 0, 1.4221954345703125, 558.25,-162.2) ">
<use xlink:href="#Layer0_4_MEMBER_19_FILL"/>
</g>

<g transform="matrix( 1.423309326171875, 0, 0, 1.4221954345703125, 558.25,-162.2) ">
<use xlink:href="#Layer0_4_MEMBER_20_FILL"/>
</g>

<g transform="matrix( 1.423309326171875, 0, 0, 1.4221954345703125, 558.25,-162.2) ">
<use xlink:href="#Layer0_4_MEMBER_21_FILL"/>
</g>

<g transform="matrix( 1.423309326171875, 0, 0, 1.4221954345703125, 558.25,-162.2) ">
<use xlink:href="#Layer0_4_MEMBER_22_FILL"/>
</g>

<g transform="matrix( 1.423309326171875, 0, 0, 1.4221954345703125, 558.25,-162.2) ">
<use xlink:href="#Layer0_4_MEMBER_23_FILL"/>
</g>

<g transform="matrix( 1.423309326171875, 0, 0, 1.4221954345703125, 558.25,-162.2) ">
<use xlink:href="#Layer0_4_MEMBER_24_FILL"/>
</g>

<g transform="matrix( -0.8036346435546875, 0, 0, 0.8030548095703125, 1124.2,-113.85) ">
<use xlink:href="#Layer0_4_MEMBER_25_FILL"/>
</g>

<g transform="matrix( -0.8820648193359375, 0, 0, 0.88140869140625, 1143.75,-114.55) ">
<use xlink:href="#Layer0_4_MEMBER_26_FILL"/>
</g>

<g transform="matrix( 1.423309326171875, 0, 0, 1.4221954345703125, 558.25,-162.2) ">
<use xlink:href="#Layer0_4_MEMBER_27_FILL"/>
</g>

<g transform="matrix( 1.423309326171875, 0, 0, 1.4221954345703125, 558.25,-162.2) ">
<use xlink:href="#Layer0_4_MEMBER_28_FILL"/>
</g>

<g transform="matrix( 1.423309326171875, 0, 0, 1.4221954345703125, 558.25,-162.2) ">
<use xlink:href="#Layer0_4_MEMBER_29_FILL"/>
</g>

<g transform="matrix( -1.7022705078125, 0, 0, 1.7022705078125, 1925.4,-391.4) ">
<use xlink:href="#Layer0_5_MEMBER_0_FILL"/>
</g>

<g transform="matrix( -1.7022705078125, 0, 0, 1.7022705078125, 1925.4,-391.4) ">
<use xlink:href="#Layer0_5_MEMBER_1_FILL"/>
</g>

<g transform="matrix( 2.192535400390625, 0, 0, 2.192535400390625, -539.9,-918.5) ">
<use xlink:href="#Layer0_5_MEMBER_2_FILL"/>
</g>

<g transform="matrix( -1.7022705078125, 0, 0, 1.7022705078125, 1925.4,-391.4) ">
<use xlink:href="#Layer0_5_MEMBER_3_FILL"/>
</g>

<g transform="matrix( 2.192535400390625, 0, 0, 2.192535400390625, -539.9,-918.5) ">
<use xlink:href="#Layer0_5_MEMBER_4_FILL"/>
</g>

<g transform="matrix( -2.192535400390625, 0, 0, 2.192535400390625, 3190.65,-919.6) ">
<use xlink:href="#Layer0_5_MEMBER_5_FILL"/>
</g>

<g transform="matrix( 2.192535400390625, 0, 0, 2.192535400390625, -539.9,-918.5) ">
<use xlink:href="#Layer0_5_MEMBER_6_FILL"/>
</g>

<g transform="matrix( -1.7022705078125, 0, 0, 1.7022705078125, 1925.4,-391.4) ">
<use xlink:href="#Layer0_5_MEMBER_7_FILL"/>
</g>

<g transform="matrix( -1.7022705078125, 0, 0, 1.7022705078125, 1925.4,-391.4) ">
<use xlink:href="#Layer0_5_MEMBER_8_FILL"/>
</g>

<g transform="matrix( -1.7022705078125, 0, 0, 1.7022705078125, 1925.4,-391.1) ">
<use xlink:href="#Layer0_5_MEMBER_9_FILL"/>
</g>

<g transform="matrix( -1.7022705078125, 0, 0, 1.7022705078125, 1925.4,-391.4) ">
<use xlink:href="#Layer0_5_MEMBER_10_FILL"/>
</g>

<g transform="matrix( -1.7022705078125, 0, 0, 1.7022705078125, 1925.4,-391.4) ">
<use xlink:href="#Layer0_5_MEMBER_11_FILL"/>
</g>

<g transform="matrix( -1.7022705078125, 0, 0, 1.7022705078125, 1925.4,-391.4) ">
<use xlink:href="#Layer0_5_MEMBER_12_FILL"/>
</g>

<g transform="matrix( -1.7022705078125, 0, 0, 1.7022705078125, 1925.4,-391.4) ">
<use xlink:href="#Layer0_5_MEMBER_13_FILL"/>
</g>

<g transform="matrix( -1.7022705078125, 0, 0, 1.7022705078125, 1925.4,-391.4) ">
<use xlink:href="#Layer0_5_MEMBER_14_FILL"/>
</g>

<g transform="matrix( -1.7022705078125, 0, 0, 1.7022705078125, 1925.4,-391.4) ">
<use xlink:href="#Layer0_5_MEMBER_15_FILL"/>
</g>

<g transform="matrix( -1.7022705078125, 0, 0, 2.02471923828125, 1925.4,-440.65) ">
<use xlink:href="#Layer0_5_MEMBER_16_FILL"/>
</g>

<g transform="matrix( -1.7022705078125, 0, 0, 1.7022705078125, 1925.4,-391.4) ">
<use xlink:href="#Layer0_5_MEMBER_17_FILL"/>
</g>

<g transform="matrix( -1.7022705078125, 0, 0, 1.7022705078125, 1925.4,-391.4) ">
<use xlink:href="#Layer0_5_MEMBER_18_FILL"/>
</g>

<g transform="matrix( 1, 0, 0, 1, 736.1,458.15) ">
<use xlink:href="#Layer0_6_FILL"/>
</g>

<g transform="matrix( 1, 0, 0, 1, 874.2,95.1) ">
<use xlink:href="#Layer0_7_FILL"/>
</g>

<g transform="matrix( 2.6300048828125, 0, 0, -2.6158447265625, -785.35,1992.2) ">
<use xlink:href="#Layer0_8_FILL"/>
</g>

<g transform="matrix( 1, 0, 0, 1, -730,0) ">
<use xlink:href="#Layer0_9_FILL"/>
</g>

<g transform="matrix( 2.299835205078125, 0, 0, 2.29827880859375, -1184.65,-732.25) ">
<use xlink:href="#Layer0_9_MEMBER_0_FILL"/>
</g>

<g transform="matrix( -1.75323486328125, 0, 0, 2.0791015625, 185.4,-147.3) ">
<use xlink:href="#Layer0_9_MEMBER_1_FILL"/>
</g>

<g transform="matrix( 2.13433837890625, 0, 0, 2.1329193115234375, -2255.95,-466.65) ">
<use xlink:href="#Layer0_9_MEMBER_2_FILL"/>
</g>

<g transform="matrix( -1.6571044921875, 0, 0, 1.65594482421875, 154.4,9.65) ">
<use xlink:href="#Layer0_9_MEMBER_3_FILL"/>
</g>

<g transform="matrix( -1.6571044921875, 0, 0, 1.65594482421875, 154.4,9.65) ">
<use xlink:href="#Layer0_9_MEMBER_4_FILL"/>
</g>

<g transform="matrix( 2.13433837890625, 0, 0, 2.1329193115234375, -2245.15,-502.75) ">
<use xlink:href="#Layer0_9_MEMBER_5_FILL"/>
</g>

<g transform="matrix( -1.6571044921875, 0, 0, 1.65594482421875, 154.4,9.65) ">
<use xlink:href="#Layer0_9_MEMBER_6_FILL"/>
</g>

<g transform="matrix( 1, 0, 0, 1, -730,0) ">
<use xlink:href="#Layer0_9_MEMBER_7_FILL"/>
</g>

<g transform="matrix( 2.061614990234375, 0.551910400390625, -0.5522918701171875, 2.0601806640625, -1534.05,-859.15) ">
<use xlink:href="#Layer0_9_MEMBER_8_FILL"/>
</g>

<g transform="matrix( -1.6571044921875, 0, 0, 1.9077606201171875, 154.4,-28.45) ">
<use xlink:href="#Layer0_9_MEMBER_9_FILL"/>
</g>

<g transform="matrix( 2.13433837890625, 0, 0, 2.1329193115234375, -1827.7,-539.1) ">
<use xlink:href="#Layer0_9_MEMBER_10_FILL"/>
</g>

<g transform="matrix( 2.13433837890625, 0, 0, 2.1329193115234375, -1827.7,-539.1) ">
<use xlink:href="#Layer0_9_MEMBER_11_FILL"/>
</g>

<g transform="matrix( -1.6571044921875, 0, 0, 1.65594482421875, 154.4,9.65) ">
<use xlink:href="#Layer0_9_MEMBER_12_FILL"/>
</g>

<g transform="matrix( -1.6571044921875, 0, 0, 1.65594482421875, 154.4,9.65) ">
<use xlink:href="#Layer0_9_MEMBER_13_FILL"/>
</g>

<g transform="matrix( 2.299835205078125, 0, 0, 2.29827880859375, -1195.2,-729.9) ">
<use xlink:href="#Layer0_9_MEMBER_14_FILL"/>
</g>

<g transform="matrix( 1, 0, 0, 1, -730,0) ">
<use xlink:href="#Layer0_9_MEMBER_15_FILL"/>
</g>

<g transform="matrix( 1, 0, 0, 1, -729.4,-0.9) ">
<use xlink:href="#Layer0_9_MEMBER_16_FILL"/>
</g>

<g transform="matrix( -1.6571044921875, 0, 0, 1.65594482421875, 154.1,11.25) ">
<use xlink:href="#Layer0_9_MEMBER_17_FILL"/>
</g>

<g transform="matrix( -1.6571044921875, 0, 0, 1.65594482421875, 155.45,10.55) ">
<use xlink:href="#Layer0_9_MEMBER_18_FILL"/>
</g>

<g transform="matrix( 2.6300048828125, 0, 0, -2.6158447265625, -55.35,1992.2) ">
<use xlink:href="#Layer0_10_FILL"/>
</g>

<g transform="matrix( 1, 0, 0, 1, 3,0) ">
<use xlink:href="#Layer0_11_FILL"/>
</g>

<g transform="matrix( 1, 0, 0, 1, 28,-6) ">
<use xlink:href="#Layer0_12_MEMBER_0_FILL"/>
</g>

<g transform="matrix( 1, 0, 0, 1, 28,-6) ">
<use xlink:href="#Layer0_12_MEMBER_1_FILL"/>
</g>

<g transform="matrix( 1, 0, 0, 1, 28,-6) ">
<use xlink:href="#Layer0_12_MEMBER_2_FILL"/>
</g>

<g transform="matrix( 1, 0, 0, 1, 28,-6) ">
<use xlink:href="#Layer0_12_MEMBER_3_FILL"/>
</g>

<g transform="matrix( 1, 0, 0, 1, 28,-6) ">
<use xlink:href="#Layer0_12_MEMBER_4_FILL"/>
</g>

<g transform="matrix( 1, 0, 0, 1, 0,0) ">
<use xlink:href="#Layer0_12_MEMBER_5_FILL"/>
</g>

<g transform="matrix( -0.38494873046875, 0.478302001953125, 0.4785614013671875, 0.3847198486328125, 591.85,-674.55) ">
<use xlink:href="#Layer0_12_MEMBER_6_FILL"/>
</g>

<g transform="matrix( -0.38494873046875, 0.478302001953125, 0.4785614013671875, 0.3847198486328125, 591.85,-674.55) ">
<use xlink:href="#Layer0_12_MEMBER_7_FILL"/>
</g>

<g transform="matrix( -0.38494873046875, 0.478302001953125, 0.4785614013671875, 0.3847198486328125, 591.85,-674.55) ">
<use xlink:href="#Layer0_12_MEMBER_8_FILL"/>
</g>

<g transform="matrix( -0.38494873046875, 0.478302001953125, 0.4785614013671875, 0.3847198486328125, 591.85,-674.55) ">
<use xlink:href="#Layer0_12_MEMBER_9_FILL"/>
</g>

<g transform="matrix( -0.38494873046875, 0.478302001953125, 0.4785614013671875, 0.3847198486328125, 591.85,-674.55) ">
<use xlink:href="#Layer0_12_MEMBER_10_FILL"/>
</g>

<g transform="matrix( 1, 0, 0, 1, 28,-6) ">
<use xlink:href="#Layer0_12_MEMBER_11_FILL"/>
</g>

<g transform="matrix( 0.5234375, 0, 0, 0.5234375, -657.15,-18.7) ">
<use xlink:href="#Layer0_13_MEMBER_0_MEMBER_0_FILL"/>
</g>

<g transform="matrix( 0.5234375, 0, 0, 0.5234375, -657.15,-18.7) ">
<use xlink:href="#Layer0_13_MEMBER_0_MEMBER_1_FILL"/>
</g>

<g transform="matrix( 1, 0, 0, 1, 37,-5) ">
<use xlink:href="#Layer0_13_MEMBER_0_MEMBER_2_FILL"/>
</g>

<g transform="matrix( 1, 0, 0, 1, 37,-5) ">
<use xlink:href="#Layer0_13_MEMBER_0_MEMBER_3_FILL"/>
</g>

<g transform="matrix( 1, 0, 0, 1, 37,-5) ">
<use xlink:href="#Layer0_13_MEMBER_0_MEMBER_4_FILL"/>
</g>

<g transform="matrix( 0.602142333984375, 0.2459716796875, -0.2459869384765625, 0.60211181640625, -704.75,-548.05) ">
<use xlink:href="#Layer0_13_MEMBER_1_MEMBER_0_FILL"/>
</g>

<g transform="matrix( 1, 0, 0, 1, 33,6.5) ">
<use xlink:href="#Layer0_13_MEMBER_1_MEMBER_1_FILL"/>
</g>

<g transform="matrix( 0.5859527587890625, 0, 0, 0.5855560302734375, -785.65,-33.1) ">
<use xlink:href="#Layer0_13_MEMBER_2_FILL"/>
</g>

<g transform="matrix( 0.5859527587890625, 0, 0, 0.5855560302734375, -785.65,-33.1) ">
<use xlink:href="#Layer0_13_MEMBER_3_FILL"/>
</g>

<g transform="matrix( 1, 0, 0, 1, 0,0) ">
<use xlink:href="#Layer0_13_MEMBER_4_FILL"/>
</g>

<g transform="matrix( 1, 0, 0, 1, 28,-6) ">
<use xlink:href="#Layer0_13_MEMBER_5_FILL"/>
</g>

<g transform="matrix( 0.644439697265625, -0.088043212890625, 0.0880279541015625, 0.6444244384765625, -905.75,124.35) ">
<use xlink:href="#Layer0_13_MEMBER_6_MEMBER_0_FILL"/>
</g>

<g transform="matrix( 1, 0, 0, 1, 37,-5) ">
<use xlink:href="#Layer0_13_MEMBER_6_MEMBER_1_FILL"/>
</g>

<g transform="matrix( 0.6658477783203125, 0, 0, 0.66522216796875, -946.95,-53.75) ">
<use xlink:href="#Layer0_13_MEMBER_7_FILL"/>
</g>

<g transform="matrix( 0.6658477783203125, 0, 0, 0.66522216796875, -946.95,-53.75) ">
<use xlink:href="#Layer0_13_MEMBER_8_FILL"/>
</g>

<g transform="matrix( 1.0976409912109375, -0.29400634765625, 0.2940826416015625, 1.09735107421875, -35.5,85.55) ">
<use xlink:href="#Layer0_13_MEMBER_9_FILL"/>
</g>

<g transform="matrix( 1, 0, 0, 1, 0,0) ">
<use xlink:href="#Layer0_14_FILL"/>
</g>

<g transform="matrix( 1, 0, 0, 1, -2,0) ">
<use xlink:href="#Layer0_15_FILL"/>
</g>
</svg>
